<?xml version="1.0" encoding="utf-8"?>
<!-- Generator: Adobe Illustrator 16.0.0, SVG Export Plug-In . SVG Version: 6.00 Build 0)  -->
<!DOCTYPE svg PUBLIC "-//W3C//DTD SVG 1.1//EN" "http://www.w3.org/Graphics/SVG/1.1/DTD/svg11.dtd">
<svg version="1.1" id="레이어_2" xmlns="http://www.w3.org/2000/svg" xmlns:xlink="http://www.w3.org/1999/xlink" x="0px"
	 y="0px" width="598.189px" height="350.26px" viewBox="0 0 598.189 350.26" enable-background="new 0 0 598.189 350.26"
	 xml:space="preserve">
<circle fill="none" stroke="#F4F4F4" stroke-width="2" stroke-miterlimit="10" cx="307.586" cy="183.185" r="135.25"/>
<circle fill="none" stroke="#F4F4F4" stroke-width="2" stroke-miterlimit="10" cx="307.586" cy="183.185" r="125.854"/>
<path fill="none" stroke="#F4F4F4" stroke-width="5" stroke-miterlimit="10" d="M309.929,180.444"/>
<path id="path27" fill="#F4F4F4" d="M306.511,113.482c-24.74,0.04-49.859,1.377-76.275,3.895h-0.022
	c-8.093,0.952-14.464,7.604-14.464,15.853v99.882c0,8.251,6.372,14.922,14.464,15.876h0.022c52.839,5.037,100.427,5.354,150.395,0
	c8.11-0.869,14.464-7.627,14.464-15.876V133.23c0-8.248-6.354-14.983-14.464-15.853c-24.983-2.677-49.363-3.936-74.111-3.896
	L306.511,113.482z M306.511,114.915c24.695-0.04,49.022,1.224,73.953,3.896c7.413,0.794,13.188,6.907,13.188,14.419v99.882
	c0,7.515-5.774,13.647-13.188,14.441c-49.855,5.345-97.325,5.026-150.078,0c-0.007-0.001-0.016,0-0.022,0
	c-7.402-0.881-13.188-6.936-13.188-14.441V133.23c0-7.505,5.785-13.538,13.188-14.419c0.007,0,0.015,0,0.022,0
	C256.759,116.297,281.822,114.955,306.511,114.915z"/>
<g>
	<path fill="none" stroke="#F4F4F4" stroke-width="2" stroke-miterlimit="10" d="M276.077,202.714H259.28l-2.432,6.992
		l-17.329-0.076l18.317-52.747h19.609l18.317,52.747h-17.253L276.077,202.714z M271.364,189.261l-3.724-10.717l-3.724,10.717
		H271.364z"/>
	<path fill="none" stroke="#F4F4F4" stroke-width="2" stroke-miterlimit="10" d="M300.015,187.208v-7.371h24.018v7.371H300.015z"/>
	<path fill="none" stroke="#F4F4F4" stroke-width="2" stroke-miterlimit="10" d="M357.396,193.138h18.925v16.492h-47.427
		l20.978-36.406h-18.925v-16.341h47.502L357.396,193.138z"/>
</g>
</svg>
