<?xml version="1.0" encoding="utf-8"?>
<!-- Generator: Adobe Illustrator 16.0.0, SVG Export Plug-In . SVG Version: 6.00 Build 0)  -->
<!DOCTYPE svg PUBLIC "-//W3C//DTD SVG 1.1//EN" "http://www.w3.org/Graphics/SVG/1.1/DTD/svg11.dtd">
<svg version="1.1" id="레이어_1" xmlns="http://www.w3.org/2000/svg" xmlns:xlink="http://www.w3.org/1999/xlink" x="0px"
	 y="0px" width="416px" height="98px" viewBox="0 0 416 98" enable-background="new 0 0 416 98" xml:space="preserve">
<g>
	<g>
		<g enable-background="new    ">
			<g>
				<polygon fill="#9F9C30" points="34.791,11.148 41.681,18.106 61.885,82.847 54.994,75.888 				"/>
			</g>
			<g>
				<polygon fill="#777424" points="54.994,75.888 61.885,82.847 51.778,82.847 44.888,75.888 				"/>
			</g>
			<g>
				<polygon fill="#CBC73E" points="34.791,11.148 54.994,75.888 44.888,75.888 24.826,11.148 				"/>
			</g>
		</g>
		<g enable-background="new    ">
			<g>
				<polygon fill="#9C982F" points="92.341,67.047 99.232,74.006 99.059,82.847 92.168,75.888 				"/>
			</g>
			<g>
				<polygon fill="#777424" points="92.168,75.888 99.059,82.847 67.616,82.847 60.725,75.888 				"/>
			</g>
			<g>
				<polygon fill="#CBC73E" points="92.341,67.047 92.168,75.888 60.725,75.888 60.898,67.047 				"/>
			</g>
		</g>
		<g enable-background="new    ">
			<g>
				<polygon fill="#777424" points="124.973,18.991 131.864,25.95 111.758,25.95 104.867,18.991 				"/>
			</g>
			<g>
				<polygon fill="#7B7925" points="122.638,32.681 129.529,39.639 111.229,52.972 104.338,46.013 				"/>
			</g>
			<g>
				<polygon fill="#9C982F" points="141.63,9.437 148.521,16.396 148.334,25.95 141.443,18.991 				"/>
			</g>
			<g>
				<polygon fill="#7B7925" points="141.443,18.991 148.334,25.95 137.847,33.579 130.956,26.62 				"/>
			</g>
			<g>
				<polygon fill="#777424" points="151.597,32.11 158.487,39.068 149.718,39.068 142.827,32.11 				"/>
			</g>
			<g>
				<polygon fill="#9C982F" points="116.69,52.43 123.581,59.389 123.281,74.719 116.39,67.76 				"/>
			</g>
			<g>
				<polygon fill="#9C982F" points="141.138,34.605 148.029,41.564 147.803,53.114 140.912,46.155 				"/>
			</g>
			<g>
				<polygon fill="#777424" points="140.912,46.155 147.803,53.114 129.529,39.639 122.638,32.681 				"/>
			</g>
			<g>
				<polygon fill="#CBC73E" points="140.912,46.155 122.638,32.681 104.338,46.013 104.58,33.679 124.973,18.991 104.867,18.991 
					105.054,9.437 141.63,9.437 141.443,18.991 130.956,26.62 141.138,34.605 				"/>
			</g>
			<g>
				<polygon fill="#9C982F" points="162.1,9.081 168.991,16.039 167.672,83.487 160.781,76.529 				"/>
			</g>
			<g>
				<polygon fill="#CBC73E" points="152.047,9.081 162.1,9.081 160.781,76.529 106.736,76.529 107.208,52.43 116.69,52.43 
					116.39,67.76 150.899,67.76 151.597,32.11 142.827,32.11 143.015,22.484 151.785,22.484 				"/>
			</g>
			<g>
				<polygon fill="#777424" points="160.781,76.529 167.672,83.487 113.627,83.487 106.736,76.529 				"/>
			</g>
		</g>
		<g enable-background="new    ">
			<g>
				<polygon fill="#9C982F" points="191.737,6.656 198.627,13.615 198.519,19.176 191.628,12.218 				"/>
			</g>
			<g>
				<polygon fill="#777424" points="190.742,21.059 197.633,28.017 178.667,28.017 171.777,21.059 				"/>
			</g>
			<g>
				<polygon fill="#9C982F" points="201.539,12.218 208.43,19.176 208.265,27.589 201.374,20.63 				"/>
			</g>
			<g>
				<polygon fill="#908D2C" points="201.374,20.63 208.265,27.589 199.259,50.619 192.368,43.661 				"/>
			</g>
			<g>
				<polygon fill="#777424" points="207.776,43.232 214.667,50.191 205.898,50.191 199.007,43.232 				"/>
			</g>
			<g>
				<polygon fill="#908D2C" points="186.959,57.706 193.85,64.665 186.642,83.273 179.751,76.315 				"/>
			</g>
			<g>
				<polygon fill="#777424" points="179.751,76.315 186.642,83.273 176.089,83.273 169.198,76.315 				"/>
			</g>
			<g>
				<polygon fill="#777424" points="203.994,76.244 210.885,83.203 200.618,83.203 193.727,76.244 				"/>
			</g>
			<g>
				<polygon fill="#9F9C30" points="192.368,43.661 199.259,50.619 210.885,83.203 203.994,76.244 				"/>
			</g>
			<g>
				<polygon fill="#CBC73E" points="201.374,20.63 192.368,43.661 203.994,76.244 193.727,76.244 186.959,57.706 179.751,76.315 
					169.198,76.315 190.742,21.059 171.777,21.059 171.95,12.218 181.646,12.218 181.755,6.656 191.737,6.656 191.628,12.218 
					201.539,12.218 				"/>
			</g>
			<g>
				<polygon fill="#9C982F" points="217.714,9.081 224.604,16.039 223.285,83.487 216.395,76.529 				"/>
			</g>
			<g>
				<polygon fill="#CBC73E" points="207.959,33.892 208.444,9.081 217.714,9.081 216.395,76.529 207.125,76.529 207.776,43.232 
					199.007,43.232 199.19,33.892 				"/>
			</g>
			<g>
				<polygon fill="#777424" points="216.395,76.529 223.285,83.487 214.017,83.487 207.125,76.529 				"/>
			</g>
		</g>
		<g enable-background="new    ">
			<g>
				<polygon fill="#9C982F" points="231.902,9.081 238.793,16.039 237.474,83.487 230.583,76.529 				"/>
			</g>
			<g>
				<polygon fill="#777424" points="230.583,76.529 237.474,83.487 228.205,83.487 221.313,76.529 				"/>
			</g>
			<g>
				<polygon fill="#CBC73E" points="222.633,9.081 231.902,9.081 230.583,76.529 221.313,76.529 				"/>
			</g>
		</g>
		<g enable-background="new    ">
			<g>
				<polygon fill="#777424" points="280.19,19.062 287.082,26.021 269.186,26.021 262.294,19.062 				"/>
			</g>
			<g>
				<polygon fill="#9C982F" points="290.932,9.437 297.822,16.396 297.634,26.021 290.743,19.062 				"/>
			</g>
			<g>
				<polygon fill="#98952E" points="290.743,19.062 297.634,26.021 295.517,39.497 288.626,32.538 				"/>
			</g>
			<g>
				<polygon fill="#777424" points="296.85,42.234 303.74,49.193 294.044,49.193 287.152,42.234 				"/>
			</g>
			<g>
				<polygon fill="#98952E" points="287.152,42.234 294.044,49.193 288.816,83.132 281.926,76.173 				"/>
			</g>
			<g>
				<polygon fill="#777424" points="281.926,76.173 288.816,83.132 277.979,83.132 271.088,76.173 				"/>
			</g>
			<g>
				<polygon fill="#9C982F" points="307.266,9.081 314.156,16.039 312.837,83.487 305.946,76.529 				"/>
			</g>
			<g>
				<polygon fill="#CBC73E" points="297.039,32.538 297.498,9.081 307.266,9.081 305.946,76.529 296.179,76.529 296.85,42.234 
					287.152,42.234 281.926,76.173 271.088,76.173 280.19,19.062 262.294,19.062 262.482,9.437 290.932,9.437 290.743,19.062 
					288.626,32.538 				"/>
			</g>
			<g>
				<polygon fill="#777424" points="305.946,76.529 312.837,83.487 303.069,83.487 296.179,76.529 				"/>
			</g>
		</g>
		<g enable-background="new    ">
			<g>
				<polygon fill="#9C982F" points="323.166,9.081 330.057,16.039 328.737,83.487 321.847,76.529 				"/>
			</g>
			<g>
				<polygon fill="#777424" points="321.847,76.529 328.737,83.487 318.969,83.487 312.078,76.529 				"/>
			</g>
			<g>
				<polygon fill="#CBC73E" points="313.397,9.081 323.166,9.081 321.847,76.529 312.078,76.529 				"/>
			</g>
		</g>
		<g enable-background="new    ">
			<g enable-background="new    ">
				<defs>
					<path id="SVGID_1_" enable-background="new    " d="M348.713,18.848l6.891,6.958c-1.809,0-3.281,0.571-4.418,1.711
						s-1.727,2.62-1.762,4.42l-6.891-6.958c0.035-1.8,0.625-3.28,1.762-4.42S346.904,18.848,348.713,18.848z"/>
				</defs>
				<clipPath id="SVGID_2_">
					<use xlink:href="#SVGID_1_"  overflow="visible"/>
				</clipPath>
				<g clip-path="url(#SVGID_2_)" enable-background="new    ">
					<path fill="#7B7925" d="M348.713,18.848l6.891,6.958c-1.761,0-3.203,0.541-4.327,1.622l-6.891-6.958
						C345.509,19.389,346.952,18.848,348.713,18.848"/>
					<path fill="#807D27" d="M344.386,20.47l6.891,6.958c-0.03,0.029-0.061,0.059-0.091,0.089c-0.202,0.203-0.388,0.417-0.556,0.642
						l-6.891-6.958c0.168-0.225,0.353-0.439,0.556-0.642C344.325,20.529,344.355,20.5,344.386,20.47"/>
					<path fill="#858228" d="M343.739,21.202l6.891,6.958c-0.158,0.212-0.301,0.434-0.428,0.664l-6.892-6.958
						C343.438,21.635,343.581,21.414,343.739,21.202"/>
					<path fill="#89872A" d="M343.311,21.866l6.892,6.958c-0.121,0.22-0.229,0.448-0.321,0.684l-6.891-6.958
						C343.083,22.313,343.19,22.085,343.311,21.866"/>
					<path fill="#8E8B2B" d="M342.99,22.55l6.891,6.958c-0.099,0.251-0.181,0.512-0.248,0.782l-6.891-6.958
						C342.809,23.062,342.892,22.801,342.99,22.55"/>
					<path fill="#93902D" d="M342.742,23.332l6.891,6.958c-0.08,0.323-0.137,0.66-0.172,1.01l-6.891-6.958
						C342.604,23.991,342.662,23.655,342.742,23.332"/>
					<path fill="#98942E" d="M342.57,24.341l6.891,6.958c-0.02,0.208-0.032,0.421-0.037,0.639l-6.891-6.958
						C342.537,24.762,342.55,24.549,342.57,24.341"/>
				</g>
			</g>
			<g>
				<polygon fill="#777424" points="351.138,18.848 358.028,25.807 355.604,25.807 348.713,18.848 				"/>
			</g>
			<g>
				<polygon fill="#9C982F" points="342.533,24.98 349.424,31.938 349.342,36.145 342.451,29.187 				"/>
			</g>
			<g enable-background="new    ">
				<defs>
					<path id="SVGID_3_" enable-background="new    " d="M355.421,20.49c2.297,2.319,4.594,4.639,6.892,6.958
						c-1.084-1.094-2.512-1.642-4.284-1.642l-6.891-6.958C352.91,18.848,354.337,19.396,355.421,20.49z"/>
				</defs>
				<clipPath id="SVGID_4_">
					<use xlink:href="#SVGID_3_"  overflow="visible"/>
				</clipPath>
				<g clip-path="url(#SVGID_4_)" enable-background="new    ">
					<path fill="#7B7925" d="M355.421,20.49l6.892,6.958c-1.084-1.094-2.512-1.642-4.284-1.642l-6.891-6.958
						C352.91,18.848,354.337,19.396,355.421,20.49"/>
				</g>
			</g>
			<g enable-background="new    ">
				<defs>
					<path id="SVGID_5_" enable-background="new    " d="M350.967,40.566c-2.297-2.319-4.595-4.639-6.892-6.958
						c-0.012-0.012-0.023-0.024-0.035-0.036c-1.092-1.114-1.624-2.576-1.589-4.385l6.891,6.958c-0.035,1.81,0.497,3.271,1.59,4.385
						C350.943,40.542,350.954,40.554,350.967,40.566z"/>
				</defs>
				<clipPath id="SVGID_6_">
					<use xlink:href="#SVGID_5_"  overflow="visible"/>
				</clipPath>
				<g clip-path="url(#SVGID_6_)" enable-background="new    ">
					<path fill="#98942E" d="M342.451,29.187l6.891,6.958c-0.006,0.294,0.004,0.579,0.028,0.855l-6.892-6.959
						C342.455,29.766,342.445,29.48,342.451,29.187"/>
					<path fill="#9C9930" d="M342.479,30.041L349.37,37c0.11,1.257,0.531,2.323,1.261,3.199l-6.891-6.959
						C343.011,32.365,342.589,31.298,342.479,30.041"/>
					<path fill="#98942E" d="M343.74,33.24l6.891,6.959c0.095,0.114,0.195,0.224,0.301,0.332c0.012,0.012,0.023,0.024,0.035,0.036
						l-6.892-6.958c-0.012-0.012-0.023-0.024-0.035-0.036C343.935,33.464,343.835,33.354,343.74,33.24"/>
				</g>
			</g>
			<g enable-background="new    ">
				<defs>
					<path id="SVGID_7_" enable-background="new    " d="M343.451,47.81c-2.297-2.32-4.594-4.64-6.891-6.959
						c1.217,1.229,2.659,2.201,4.321,2.917l6.891,6.958C346.111,50.01,344.668,49.038,343.451,47.81z"/>
				</defs>
				<clipPath id="SVGID_8_">
					<use xlink:href="#SVGID_7_"  overflow="visible"/>
				</clipPath>
				<g clip-path="url(#SVGID_8_)" enable-background="new    ">
					<path fill="#7B7925" d="M340.882,43.768l6.891,6.958c-1.661-0.716-3.104-1.688-4.321-2.916l-6.891-6.959
						C337.777,42.079,339.22,43.051,340.882,43.768"/>
				</g>
			</g>
			<g enable-background="new    ">
				<defs>
					<path id="SVGID_9_" enable-background="new    " d="M363.044,13.394l6.891,6.958c1.232,1.266,2.202,2.736,2.909,4.42
						c0.706,1.693,1.036,3.512,0.998,5.455l-6.891-6.959c0.038-1.943-0.292-3.761-0.999-5.454
						C365.246,16.13,364.276,14.659,363.044,13.394z"/>
				</defs>
				<clipPath id="SVGID_10_">
					<use xlink:href="#SVGID_9_"  overflow="visible"/>
				</clipPath>
				<g clip-path="url(#SVGID_10_)" enable-background="new    ">
					<path fill="#98942E" d="M363.044,13.394l6.891,6.958c0.252,0.259,0.493,0.525,0.723,0.801l-6.891-6.958
						C363.536,13.919,363.296,13.652,363.044,13.394"/>
					<path fill="#9C9930" d="M363.767,14.195l6.891,6.958c0.896,1.074,1.624,2.279,2.187,3.619c0.513,1.229,0.827,2.524,0.946,3.885
						l-6.891-6.958c-0.119-1.361-0.434-2.656-0.947-3.885C365.39,16.474,364.661,15.269,363.767,14.195"/>
					<path fill="#98942E" d="M366.899,21.699l6.891,6.958c0.045,0.514,0.063,1.037,0.052,1.57l-6.891-6.959
						C366.962,22.736,366.944,22.213,366.899,21.699"/>
				</g>
			</g>
			<g enable-background="new    ">
				<defs>
					<path id="SVGID_11_" enable-background="new    " d="M346.351,44.872l6.892,6.959c-1.953,0-3.772-0.365-5.47-1.105
						l-6.891-6.958C342.579,44.507,344.398,44.872,346.351,44.872z"/>
				</defs>
				<clipPath id="SVGID_12_">
					<use xlink:href="#SVGID_11_"  overflow="visible"/>
				</clipPath>
				<g clip-path="url(#SVGID_12_)" enable-background="new    ">
					<path fill="#7B7925" d="M346.351,44.872l6.892,6.959c-1.953,0-3.772-0.365-5.47-1.105l-6.891-6.958
						C342.579,44.507,344.398,44.872,346.351,44.872"/>
				</g>
			</g>
			<g>
				<polygon fill="#777424" points="352.482,44.872 359.373,51.831 353.242,51.831 346.351,44.872 				"/>
			</g>
			<g>
				<polygon fill="#9C982F" points="366.951,23.269 373.842,30.228 373.694,37.785 366.804,30.827 				"/>
			</g>
			<g>
				<path fill="#CBC73E" d="M340.882,43.768c-1.696-0.731-3.165-1.729-4.397-2.995c-1.232-1.257-2.201-2.745-2.907-4.457
					c-0.706-1.711-1.036-3.538-0.998-5.49l0.147-7.558c0.038-1.943,0.439-3.761,1.213-5.454c0.772-1.685,1.799-3.155,3.08-4.42
					c1.281-1.257,2.789-2.255,4.515-2.995c1.726-0.731,3.561-1.105,5.513-1.105h6.131c1.952,0,3.772,0.375,5.469,1.105
					c1.697,0.739,3.157,1.738,4.397,2.995c1.232,1.265,2.202,2.736,2.908,4.42c0.707,1.693,1.037,3.511,0.999,5.454l-0.147,7.558
					c-0.038,1.952-0.439,3.779-1.213,5.49c-0.773,1.711-1.801,3.2-3.082,4.457c-1.29,1.265-2.789,2.263-4.515,2.995
					c-1.726,0.74-3.561,1.104-5.512,1.104h-6.132C344.398,44.872,342.579,44.507,340.882,43.768z M342.533,24.98l-0.082,4.207
					c-0.035,1.81,0.497,3.271,1.589,4.385c1.093,1.123,2.544,1.675,4.353,1.675h2.424c1.81,0,3.281-0.553,4.418-1.675
					c1.136-1.114,1.726-2.576,1.762-4.385l0.082-4.207c0.035-1.8-0.498-3.28-1.59-4.42s-2.542-1.711-4.351-1.711h-2.425
					c-1.809,0-3.281,0.571-4.418,1.711S342.568,23.18,342.533,24.98"/>
			</g>
			<g enable-background="new    ">
				<defs>
					<path id="SVGID_13_" enable-background="new    " d="M366.804,30.827l6.891,6.958c-0.038,1.952-0.439,3.779-1.213,5.49
						c-0.773,1.711-1.8,3.199-3.082,4.456c-1.29,1.266-2.789,2.264-4.515,2.994c-1.726,0.74-3.561,1.105-5.512,1.105l-6.891-6.959
						c1.951,0,3.786-0.365,5.512-1.104c1.726-0.731,3.225-1.729,4.515-2.995c1.281-1.257,2.309-2.745,3.082-4.457
						C366.364,34.605,366.766,32.778,366.804,30.827z"/>
				</defs>
				<clipPath id="SVGID_14_">
					<use xlink:href="#SVGID_13_"  overflow="visible"/>
				</clipPath>
				<g clip-path="url(#SVGID_14_)" enable-background="new    ">
					<path fill="#98942E" d="M366.804,30.827l6.891,6.958c-0.008,0.4-0.031,0.794-0.069,1.184l-6.891-6.959
						C366.772,31.621,366.796,31.226,366.804,30.827"/>
					<path fill="#93902D" d="M366.734,32.01l6.891,6.959c-0.066,0.68-0.181,1.345-0.342,1.994l-6.891-6.958
						C366.554,33.355,366.667,32.69,366.734,32.01"/>
					<path fill="#8E8B2B" d="M366.393,34.004l6.891,6.958c-0.142,0.574-0.321,1.136-0.537,1.686l-6.891-6.959
						C366.071,35.14,366.25,34.578,366.393,34.004"/>
					<path fill="#89872A" d="M365.855,35.69l6.891,6.959c-0.083,0.21-0.171,0.419-0.265,0.626c-0.174,0.385-0.36,0.759-0.561,1.121
						l-6.891-6.959c0.199-0.362,0.387-0.736,0.561-1.121C365.685,36.109,365.772,35.9,365.855,35.69"/>
					<path fill="#858228" d="M365.03,37.438l6.891,6.959c-0.329,0.597-0.693,1.164-1.093,1.699l-6.891-6.958
						C364.337,38.602,364.701,38.035,365.03,37.438"/>
					<path fill="#807D27" d="M363.938,39.137l6.891,6.958c-0.435,0.583-0.911,1.128-1.429,1.636
						c-0.032,0.032-0.064,0.063-0.097,0.094l-6.891-6.959c0.032-0.031,0.064-0.063,0.097-0.094
						C363.026,40.265,363.503,39.72,363.938,39.137"/>
					<path fill="#7B7925" d="M362.412,40.867l6.891,6.959c-1.268,1.221-2.735,2.187-4.418,2.9c-1.726,0.74-3.561,1.105-5.512,1.105
						l-6.891-6.959c1.951,0,3.786-0.365,5.512-1.104C359.677,43.055,361.145,42.088,362.412,40.867"/>
				</g>
			</g>
			<g>
				<polygon fill="#9C982F" points="345.272,59.917 352.163,66.875 352.009,74.79 345.117,67.831 				"/>
			</g>
			<g>
				<polygon fill="#777424" points="379.21,59.917 386.102,66.875 352.163,66.875 345.272,59.917 				"/>
			</g>
			<g>
				<polygon fill="#9C982F" points="390.258,9.081 397.149,16.039 395.83,83.487 388.939,76.529 				"/>
			</g>
			<g>
				<path fill="#CBC73E" d="M380.205,9.081h10.053l-1.318,67.449h-54.046l0.495-25.312h43.992L380.205,9.081z M379.056,67.831
					l0.154-7.914h-33.938l-0.155,7.914H379.056"/>
			</g>
			<g>
				<polygon fill="#777424" points="388.939,76.529 395.83,83.487 341.785,83.487 334.894,76.529 				"/>
			</g>
		</g>
	</g>
</g>
</svg>
