<?xml version="1.0" encoding="utf-8"?>
<!-- Generator: Adobe Illustrator 16.0.0, SVG Export Plug-In . SVG Version: 6.00 Build 0)  -->
<!DOCTYPE svg PUBLIC "-//W3C//DTD SVG 1.1//EN" "http://www.w3.org/Graphics/SVG/1.1/DTD/svg11.dtd">
<svg version="1.1" id="레이어_2" xmlns="http://www.w3.org/2000/svg" xmlns:xlink="http://www.w3.org/1999/xlink" x="0px"
	 y="0px" width="416px" height="98px" viewBox="0 0 416 98" enable-background="new 0 0 416 98" xml:space="preserve">
<g>
	<g>
		<g>
			<path d="M70.641,31.309c-1.068,0-2.091-0.427-2.842-1.186l-6.891-6.959c-1.136-1.147-1.471-2.864-0.85-4.354
				c0.622-1.49,2.078-2.46,3.692-2.46h20.106c1.068,0,2.091,0.427,2.842,1.186l6.891,6.959c1.136,1.147,1.471,2.864,0.85,4.354
				c-0.622,1.49-2.078,2.46-3.692,2.46H70.641z"/>
			<path fill="none" stroke="#020202" stroke-miterlimit="10" d="M70.641,31.309c-1.068,0-2.091-0.427-2.842-1.186l-6.891-6.959
				c-1.136-1.147-1.471-2.864-0.85-4.354c0.622-1.49,2.078-2.46,3.692-2.46h20.106c1.068,0,2.091,0.427,2.842,1.186l6.891,6.959
				c1.136,1.147,1.471,2.864,0.85,4.354c-0.622,1.49-2.078,2.46-3.692,2.46H70.641z"/>
		</g>
		<g>
			<path d="M70.113,58.331c-1.037,0-2.068-0.401-2.844-1.187l-6.891-6.959c-0.82-0.83-1.238-1.975-1.145-3.137
				c0.094-1.162,0.69-2.225,1.632-2.912l18.3-13.332c0.707-0.515,1.533-0.767,2.354-0.767c1.037,0,2.067,0.402,2.844,1.186
				l6.891,6.958c0.82,0.828,1.238,1.973,1.145,3.135c-0.094,1.162-0.689,2.226-1.632,2.912l-18.3,13.333
				C71.761,58.079,70.935,58.331,70.113,58.331z"/>
			<path fill="none" stroke="#020202" stroke-miterlimit="10" d="M70.113,58.331c-1.037,0-2.068-0.401-2.844-1.187l-6.891-6.959
				c-0.82-0.83-1.238-1.975-1.145-3.137c0.094-1.162,0.69-2.225,1.632-2.912l18.3-13.332c0.707-0.515,1.533-0.767,2.354-0.767
				c1.037,0,2.067,0.402,2.844,1.186l6.891,6.958c0.82,0.828,1.238,1.973,1.145,3.135c-0.094,1.162-0.689,2.226-1.632,2.912
				l-18.3,13.333C71.761,58.079,70.935,58.331,70.113,58.331z"/>
		</g>
		<g>
			<path d="M107.218,31.309c-1.048,0-2.077-0.412-2.843-1.186l-6.891-6.959c-0.761-0.768-1.178-1.812-1.157-2.893l0.187-9.554
				c0.031-1.607,1.021-3.039,2.514-3.636c0.481-0.193,0.985-0.286,1.484-0.286c1.048,0,2.077,0.412,2.843,1.186l6.891,6.959
				c0.761,0.768,1.178,1.812,1.157,2.893l-0.187,9.554c-0.031,1.607-1.021,3.039-2.514,3.636
				C108.221,31.215,107.717,31.309,107.218,31.309z"/>
			<path fill="none" stroke="#020202" stroke-miterlimit="10" d="M107.218,31.309c-1.048,0-2.077-0.412-2.843-1.186l-6.891-6.959
				c-0.761-0.768-1.178-1.812-1.157-2.893l0.187-9.554c0.031-1.607,1.021-3.039,2.514-3.636c0.481-0.193,0.985-0.286,1.484-0.286
				c1.048,0,2.077,0.412,2.843,1.186l6.891,6.959c0.761,0.768,1.178,1.812,1.157,2.893l-0.187,9.554
				c-0.031,1.607-1.021,3.039-2.514,3.636C108.221,31.215,107.717,31.309,107.218,31.309z"/>
		</g>
		<g>
			<path d="M96.731,38.938c-1.037,0-2.068-0.402-2.844-1.186l-6.891-6.959c-0.821-0.829-1.239-1.974-1.145-3.137
				c0.094-1.163,0.69-2.226,1.634-2.913l10.487-7.629c0.706-0.513,1.531-0.765,2.352-0.765c1.037,0,2.068,0.402,2.844,1.186
				l6.891,6.959c0.821,0.829,1.239,1.974,1.145,3.137c-0.094,1.163-0.69,2.226-1.634,2.913l-10.487,7.629
				C98.377,38.686,97.552,38.938,96.731,38.938z"/>
			<path fill="none" stroke="#020202" stroke-miterlimit="10" d="M96.731,38.938c-1.037,0-2.068-0.402-2.844-1.186l-6.891-6.959
				c-0.821-0.829-1.239-1.974-1.145-3.137c0.094-1.163,0.69-2.226,1.634-2.913l10.487-7.629c0.706-0.513,1.531-0.765,2.352-0.765
				c1.037,0,2.068,0.402,2.844,1.186l6.891,6.959c0.821,0.829,1.239,1.974,1.145,3.137c-0.094,1.163-0.69,2.226-1.634,2.913
				l-10.487,7.629C98.377,38.686,97.552,38.938,96.731,38.938z"/>
		</g>
		<g>
			<path d="M108.601,44.426c-1.067,0-2.091-0.427-2.842-1.186l-6.891-6.958c-1.136-1.147-1.471-2.864-0.85-4.354
				c0.622-1.49,2.078-2.46,3.692-2.46h8.77c1.068,0,2.091,0.427,2.842,1.186l6.89,6.958c1.136,1.147,1.471,2.864,0.85,4.354
				c-0.622,1.49-2.078,2.46-3.692,2.46H108.601z"/>
			<path fill="none" stroke="#020202" stroke-miterlimit="10" d="M108.601,44.426c-1.067,0-2.091-0.427-2.842-1.186l-6.891-6.958
				c-1.136-1.147-1.471-2.864-0.85-4.354c0.622-1.49,2.078-2.46,3.692-2.46h8.77c1.068,0,2.091,0.427,2.842,1.186l6.89,6.958
				c1.136,1.147,1.471,2.864,0.85,4.354c-0.622,1.49-2.078,2.46-3.692,2.46H108.601z"/>
		</g>
		<g>
			<path d="M82.165,80.077c-1.048,0-2.077-0.412-2.843-1.187l-6.891-6.959c-0.761-0.769-1.178-1.812-1.157-2.893l0.3-15.33
				c0.031-1.607,1.021-3.039,2.514-3.636c0.481-0.192,0.985-0.286,1.484-0.286c1.048,0,2.077,0.412,2.843,1.186l6.891,6.959
				c0.761,0.77,1.178,1.813,1.157,2.894l-0.3,15.33c-0.031,1.606-1.021,3.038-2.514,3.636
				C83.168,79.982,82.664,80.077,82.165,80.077z"/>
			<path fill="none" stroke="#020202" stroke-miterlimit="10" d="M82.165,80.077c-1.048,0-2.077-0.412-2.843-1.187l-6.891-6.959
				c-0.761-0.769-1.178-1.812-1.157-2.893l0.3-15.33c0.031-1.607,1.021-3.039,2.514-3.636c0.481-0.192,0.985-0.286,1.484-0.286
				c1.048,0,2.077,0.412,2.843,1.186l6.891,6.959c0.761,0.77,1.178,1.813,1.157,2.894l-0.3,15.33
				c-0.031,1.606-1.021,3.038-2.514,3.636C83.168,79.982,82.664,80.077,82.165,80.077z"/>
		</g>
		<g>
			<path d="M106.687,58.473c-1.048,0-2.077-0.412-2.843-1.186l-6.891-6.959c-0.761-0.77-1.178-1.812-1.157-2.893l0.226-11.55
				c0.031-1.607,1.021-3.039,2.514-3.636c0.481-0.193,0.985-0.286,1.484-0.286c1.048,0,2.077,0.412,2.843,1.186l6.891,6.958
				c0.761,0.768,1.178,1.812,1.157,2.893l-0.226,11.551c-0.031,1.606-1.021,3.039-2.514,3.637
				C107.69,58.379,107.186,58.473,106.687,58.473z"/>
			<path fill="none" stroke="#020202" stroke-miterlimit="10" d="M106.687,58.473c-1.048,0-2.077-0.412-2.843-1.186l-6.891-6.959
				c-0.761-0.77-1.178-1.812-1.157-2.893l0.226-11.55c0.031-1.607,1.021-3.039,2.514-3.636c0.481-0.193,0.985-0.286,1.484-0.286
				c1.048,0,2.077,0.412,2.843,1.186l6.891,6.958c0.761,0.768,1.178,1.812,1.157,2.893l-0.226,11.551
				c-0.031,1.606-1.021,3.039-2.514,3.637C107.69,58.379,107.186,58.473,106.687,58.473z"/>
		</g>
		<g>
			<path d="M106.684,58.473c-0.827,0-1.66-0.256-2.372-0.779L86.038,44.217c-0.166-0.123-0.323-0.258-0.468-0.405l-6.891-6.958
				c-1.47-1.484-1.55-3.85-0.184-5.43c0.787-0.911,1.902-1.384,3.028-1.384c0.827,0,1.66,0.255,2.372,0.781l18.274,13.474
				c0.166,0.123,0.323,0.258,0.468,0.405l6.891,6.959c1.47,1.483,1.55,3.85,0.184,5.431C108.925,58,107.81,58.473,106.684,58.473z"
				/>
			<path fill="none" stroke="#020202" stroke-miterlimit="10" d="M106.684,58.473c-0.827,0-1.66-0.256-2.372-0.779L86.038,44.217
				c-0.166-0.123-0.323-0.258-0.468-0.405l-6.891-6.958c-1.47-1.484-1.55-3.85-0.184-5.43c0.787-0.911,1.902-1.384,3.028-1.384
				c0.827,0,1.66,0.255,2.372,0.781l18.274,13.474c0.166,0.123,0.323,0.258,0.468,0.405l6.891,6.959
				c1.47,1.483,1.55,3.85,0.184,5.431C108.925,58,107.81,58.473,106.684,58.473z"/>
		</g>
		<g>
			<path d="M99.795,51.514c-0.839,0-1.674-0.264-2.375-0.779L81.507,38.999L65.576,50.604c-0.698,0.508-1.525,0.768-2.356,0.768
				c-0.632,0-1.266-0.148-1.848-0.453c-1.347-0.702-2.181-2.106-2.15-3.625l0.242-12.333c0.024-1.258,0.64-2.432,1.661-3.167
				l10.333-7.442H63.75c-1.074,0-2.104-0.432-2.856-1.199s-1.164-1.805-1.143-2.879l0.187-9.554c0.042-2.178,1.82-3.922,3.999-3.922
				h36.576c1.074,0,2.104,0.432,2.856,1.199s1.164,1.805,1.143,2.879l-0.187,9.554c-0.024,1.252-0.633,2.42-1.646,3.157L96.474,28.1
				l6.016,4.718c0.989,0.775,1.556,1.97,1.531,3.226l-0.226,11.55c-0.029,1.495-0.89,2.85-2.23,3.51
				C101.003,51.378,100.398,51.514,99.795,51.514z"/>
			<path fill="none" stroke="#020202" stroke-miterlimit="10" d="M99.795,51.514c-0.839,0-1.674-0.264-2.375-0.779L81.507,38.999
				L65.576,50.604c-0.698,0.508-1.525,0.768-2.356,0.768c-0.632,0-1.266-0.148-1.848-0.453c-1.347-0.702-2.181-2.106-2.15-3.625
				l0.242-12.333c0.024-1.258,0.64-2.432,1.661-3.167l10.333-7.442H63.75c-1.074,0-2.104-0.432-2.856-1.199
				s-1.164-1.805-1.143-2.879l0.187-9.554c0.042-2.178,1.82-3.922,3.999-3.922h36.576c1.074,0,2.104,0.432,2.856,1.199
				s1.164,1.805,1.143,2.879l-0.187,9.554c-0.024,1.252-0.633,2.42-1.646,3.157L96.474,28.1l6.016,4.718
				c0.989,0.775,1.556,1.97,1.531,3.226l-0.226,11.55c-0.029,1.495-0.89,2.85-2.23,3.51
				C101.003,51.378,100.398,51.514,99.795,51.514z"/>
		</g>
		<g>
			<path d="M126.556,88.845c-1.048,0-2.077-0.411-2.843-1.186l-6.891-6.957c-0.761-0.769-1.179-1.812-1.157-2.894l1.319-67.448
				c0.031-1.607,1.021-3.039,2.514-3.636c0.481-0.193,0.985-0.286,1.484-0.286c1.048,0,2.077,0.412,2.843,1.185l6.891,6.958
				c0.761,0.769,1.178,1.812,1.157,2.893l-1.319,67.447c-0.031,1.605-1.021,3.039-2.513,3.637
				C127.559,88.751,127.055,88.845,126.556,88.845z"/>
			<path fill="none" stroke="#020202" stroke-miterlimit="10" d="M126.556,88.845c-1.048,0-2.077-0.411-2.843-1.186l-6.891-6.957
				c-0.761-0.769-1.179-1.812-1.157-2.894l1.319-67.448c0.031-1.607,1.021-3.039,2.514-3.636c0.481-0.193,0.985-0.286,1.484-0.286
				c1.048,0,2.077,0.412,2.843,1.185l6.891,6.958c0.761,0.769,1.178,1.812,1.157,2.893l-1.319,67.447
				c-0.031,1.605-1.021,3.039-2.513,3.637C127.559,88.751,127.055,88.845,126.556,88.845z"/>
		</g>
		<g>
			<path d="M65.619,81.889c-1.074,0-2.104-0.434-2.856-1.199c-0.752-0.769-1.165-1.806-1.143-2.879l0.472-24.101
				c0.042-2.179,1.82-3.922,3.999-3.922h9.482c1.074,0,2.104,0.433,2.856,1.198c0.752,0.769,1.164,1.806,1.143,2.88l-0.22,11.252
				h26.507l0.542-27.65h-4.691c-1.074,0-2.104-0.432-2.856-1.199s-1.164-1.805-1.143-2.879l0.188-9.626
				c0.042-2.178,1.82-3.922,3.999-3.922h4.847l0.186-9.481c0.042-2.178,1.82-3.922,3.999-3.922h10.053
				c1.074,0,2.104,0.432,2.856,1.199s1.164,1.805,1.143,2.879l-1.319,67.448c-0.042,2.18-1.82,3.922-3.999,3.922H65.619V81.889z"/>
			<path fill="none" stroke="#020202" stroke-miterlimit="10" d="M65.619,81.889c-1.074,0-2.104-0.434-2.856-1.199
				c-0.752-0.769-1.165-1.806-1.143-2.879l0.472-24.101c0.042-2.179,1.82-3.922,3.999-3.922h9.482c1.074,0,2.104,0.433,2.856,1.198
				c0.752,0.769,1.164,1.806,1.143,2.88l-0.22,11.252h26.507l0.542-27.65h-4.691c-1.074,0-2.104-0.432-2.856-1.199
				s-1.164-1.805-1.143-2.879l0.188-9.626c0.042-2.178,1.82-3.922,3.999-3.922h4.847l0.186-9.481
				c0.042-2.178,1.82-3.922,3.999-3.922h10.053c1.074,0,2.104,0.432,2.856,1.199s1.164,1.805,1.143,2.879l-1.319,67.448
				c-0.042,2.18-1.82,3.922-3.999,3.922H65.619V81.889z"/>
		</g>
		<g>
			<path d="M72.51,88.845c-1.067,0-2.091-0.427-2.842-1.186l-6.891-6.957c-1.136-1.146-1.471-2.864-0.85-4.354
				c0.622-1.49,2.078-2.461,3.692-2.461h54.045c1.067,0,2.091,0.428,2.842,1.187l6.891,6.957c1.136,1.146,1.471,2.864,0.85,4.354
				c-0.622,1.489-2.078,2.46-3.692,2.46L72.51,88.845L72.51,88.845z"/>
			<path fill="none" stroke="#020202" stroke-miterlimit="10" d="M72.51,88.845c-1.067,0-2.091-0.427-2.842-1.186l-6.891-6.957
				c-1.136-1.146-1.471-2.864-0.85-4.354c0.622-1.49,2.078-2.461,3.692-2.461h54.045c1.067,0,2.091,0.428,2.842,1.187l6.891,6.957
				c1.136,1.146,1.471,2.864,0.85,4.354c-0.622,1.489-2.078,2.46-3.692,2.46L72.51,88.845L72.51,88.845z"/>
		</g>
		<g>
			<path d="M157.403,24.534c-1.048,0-2.077-0.412-2.843-1.185l-6.892-6.958c-0.761-0.769-1.179-1.812-1.157-2.893l0.109-5.562
				c0.031-1.607,1.021-3.039,2.514-3.636c0.481-0.193,0.985-0.286,1.484-0.286c1.048,0,2.078,0.412,2.843,1.186l6.89,6.959
				c0.761,0.768,1.178,1.811,1.157,2.892l-0.107,5.561c-0.031,1.607-1.021,3.04-2.513,3.637
				C158.407,24.44,157.903,24.534,157.403,24.534z"/>
			<path fill="none" stroke="#020202" stroke-miterlimit="10" d="M157.403,24.534c-1.048,0-2.077-0.412-2.843-1.185l-6.892-6.958
				c-0.761-0.769-1.179-1.812-1.157-2.893l0.109-5.562c0.031-1.607,1.021-3.039,2.514-3.636c0.481-0.193,0.985-0.286,1.484-0.286
				c1.048,0,2.078,0.412,2.843,1.186l6.89,6.959c0.761,0.768,1.178,1.811,1.157,2.892l-0.107,5.561
				c-0.031,1.607-1.021,3.04-2.513,3.637C158.407,24.44,157.903,24.534,157.403,24.534z"/>
		</g>
		<g>
			<path d="M137.55,33.375c-1.068,0-2.091-0.427-2.842-1.186l-6.89-6.958c-1.136-1.147-1.471-2.864-0.85-4.354
				c0.622-1.49,2.078-2.46,3.692-2.46h18.965c1.067,0,2.091,0.427,2.842,1.186l6.891,6.958c1.136,1.147,1.471,2.864,0.85,4.354
				c-0.622,1.49-2.078,2.46-3.692,2.46H137.55z"/>
			<path fill="none" stroke="#020202" stroke-miterlimit="10" d="M137.55,33.375c-1.068,0-2.091-0.427-2.842-1.186l-6.89-6.958
				c-1.136-1.147-1.471-2.864-0.85-4.354c0.622-1.49,2.078-2.46,3.692-2.46h18.965c1.067,0,2.091,0.427,2.842,1.186l6.891,6.958
				c1.136,1.147,1.471,2.864,0.85,4.354c-0.622,1.49-2.078,2.46-3.692,2.46H137.55z"/>
		</g>
		<g>
			<path d="M167.149,32.947c-1.048,0-2.077-0.412-2.843-1.187l-6.892-6.959c-0.761-0.768-1.178-1.812-1.157-2.893l0.165-8.412
				c0.031-1.606,1.021-3.039,2.514-3.635c0.481-0.193,0.985-0.286,1.484-0.286c1.048,0,2.077,0.412,2.843,1.186l6.891,6.958
				c0.761,0.768,1.178,1.813,1.157,2.893l-0.164,8.413c-0.031,1.607-1.021,3.039-2.514,3.636
				C168.152,32.854,167.648,32.947,167.149,32.947z"/>
			<path fill="none" stroke="#020202" stroke-miterlimit="10" d="M167.149,32.947c-1.048,0-2.077-0.412-2.843-1.187l-6.892-6.959
				c-0.761-0.768-1.178-1.812-1.157-2.893l0.165-8.412c0.031-1.606,1.021-3.039,2.514-3.635c0.481-0.193,0.985-0.286,1.484-0.286
				c1.048,0,2.077,0.412,2.843,1.186l6.891,6.958c0.761,0.768,1.178,1.813,1.157,2.893l-0.164,8.413
				c-0.031,1.607-1.021,3.039-2.514,3.636C168.152,32.854,167.648,32.947,167.149,32.947z"/>
		</g>
		<g>
			<path d="M158.142,55.979c-1.057,0-2.083-0.42-2.842-1.187l-6.891-6.958c-1.113-1.124-1.459-2.798-0.883-4.271l9.006-23.031
				c0.493-1.261,1.59-2.188,2.915-2.46c0.27-0.056,0.541-0.083,0.81-0.083c1.057,0,2.083,0.419,2.842,1.186l6.892,6.959
				c1.113,1.124,1.459,2.798,0.883,4.271l-9.007,23.03c-0.493,1.26-1.59,2.187-2.915,2.459
				C158.682,55.95,158.411,55.979,158.142,55.979z"/>
			<path fill="none" stroke="#020202" stroke-miterlimit="10" d="M158.142,55.979c-1.057,0-2.083-0.42-2.842-1.187l-6.891-6.958
				c-1.113-1.124-1.459-2.798-0.883-4.271l9.006-23.031c0.493-1.261,1.59-2.188,2.915-2.46c0.27-0.056,0.541-0.083,0.81-0.083
				c1.057,0,2.083,0.419,2.842,1.186l6.892,6.959c1.113,1.124,1.459,2.798,0.883,4.271l-9.007,23.03
				c-0.493,1.26-1.59,2.187-2.915,2.459C158.682,55.95,158.411,55.979,158.142,55.979z"/>
		</g>
		<g>
			<path d="M164.781,55.55c-1.068,0-2.091-0.427-2.842-1.186l-6.892-6.96c-1.136-1.147-1.471-2.864-0.85-4.354
				c0.622-1.49,2.078-2.46,3.692-2.46h8.769c1.068,0,2.091,0.427,2.842,1.186l6.892,6.96c1.136,1.147,1.471,2.864,0.85,4.354
				c-0.622,1.489-2.078,2.46-3.692,2.46H164.781z"/>
			<path fill="none" stroke="#020202" stroke-miterlimit="10" d="M164.781,55.55c-1.068,0-2.091-0.427-2.842-1.186l-6.892-6.96
				c-1.136-1.147-1.471-2.864-0.85-4.354c0.622-1.49,2.078-2.46,3.692-2.46h8.769c1.068,0,2.091,0.427,2.842,1.186l6.892,6.96
				c1.136,1.147,1.471,2.864,0.85,4.354c-0.622,1.489-2.078,2.46-3.692,2.46H164.781z"/>
		</g>
		<g>
			<path d="M145.525,88.632c-1.057,0-2.083-0.419-2.842-1.187l-6.891-6.959c-1.11-1.119-1.458-2.788-0.888-4.258l7.208-18.608
				c0.49-1.265,1.586-2.195,2.914-2.472c0.271-0.058,0.544-0.084,0.816-0.084c1.057,0,2.083,0.418,2.842,1.186l6.891,6.959
				c1.11,1.12,1.458,2.789,0.888,4.259l-7.208,18.608c-0.49,1.265-1.586,2.195-2.914,2.472
				C146.07,88.604,145.796,88.632,145.525,88.632z"/>
			<path fill="none" stroke="#020202" stroke-miterlimit="10" d="M145.525,88.632c-1.057,0-2.083-0.419-2.842-1.187l-6.891-6.959
				c-1.11-1.119-1.458-2.788-0.888-4.258l7.208-18.608c0.49-1.265,1.586-2.195,2.914-2.472c0.271-0.058,0.544-0.084,0.816-0.084
				c1.057,0,2.083,0.418,2.842,1.186l6.891,6.959c1.11,1.12,1.458,2.789,0.888,4.259l-7.208,18.608
				c-0.49,1.265-1.586,2.195-2.914,2.472C146.07,88.604,145.796,88.632,145.525,88.632z"/>
		</g>
		<g>
			<path d="M134.972,88.632c-1.068,0-2.091-0.427-2.842-1.187l-6.891-6.959c-1.136-1.146-1.471-2.863-0.85-4.354
				c0.622-1.488,2.078-2.46,3.692-2.46h10.553c1.068,0,2.091,0.427,2.842,1.187l6.891,6.959c1.136,1.146,1.471,2.863,0.85,4.354
				c-0.622,1.489-2.078,2.46-3.692,2.46H134.972z"/>
			<path fill="none" stroke="#020202" stroke-miterlimit="10" d="M134.972,88.632c-1.068,0-2.091-0.427-2.842-1.187l-6.891-6.959
				c-1.136-1.146-1.471-2.863-0.85-4.354c0.622-1.488,2.078-2.46,3.692-2.46h10.553c1.068,0,2.091,0.427,2.842,1.187l6.891,6.959
				c1.136,1.146,1.471,2.863,0.85,4.354c-0.622,1.489-2.078,2.46-3.692,2.46H134.972z"/>
		</g>
		<g>
			<path d="M159.501,88.563c-1.068,0-2.091-0.428-2.842-1.187l-6.891-6.959c-1.136-1.147-1.471-2.864-0.85-4.354
				c0.622-1.488,2.078-2.459,3.692-2.459h10.267c1.068,0,2.091,0.427,2.842,1.186l6.891,6.959c1.136,1.146,1.471,2.863,0.85,4.354
				c-0.622,1.489-2.078,2.461-3.692,2.461H159.501z"/>
			<path fill="none" stroke="#020202" stroke-miterlimit="10" d="M159.501,88.563c-1.068,0-2.091-0.428-2.842-1.187l-6.891-6.959
				c-1.136-1.147-1.471-2.864-0.85-4.354c0.622-1.488,2.078-2.459,3.692-2.459h10.267c1.068,0,2.091,0.427,2.842,1.186l6.891,6.959
				c1.136,1.146,1.471,2.863,0.85,4.354c-0.622,1.489-2.078,2.461-3.692,2.461H159.501z"/>
		</g>
		<g>
			<path d="M169.769,88.563c-1.04,0-2.07-0.404-2.844-1.187l-6.891-6.959c-0.413-0.416-0.728-0.918-0.925-1.472l-11.626-32.583
				c-0.63-1.766,0.051-3.731,1.637-4.73c0.656-0.413,1.395-0.614,2.129-0.614c1.04,0,2.07,0.404,2.844,1.186l6.891,6.958
				c0.412,0.416,0.728,0.918,0.925,1.471l11.626,32.584c0.63,1.765-0.051,3.731-1.637,4.729
				C171.241,88.359,170.503,88.563,169.769,88.563z"/>
			<path fill="none" stroke="#020202" stroke-miterlimit="10" d="M169.769,88.563c-1.04,0-2.07-0.404-2.844-1.187l-6.891-6.959
				c-0.413-0.416-0.728-0.918-0.925-1.472l-11.626-32.583c-0.63-1.766,0.051-3.731,1.637-4.73c0.656-0.413,1.395-0.614,2.129-0.614
				c1.04,0,2.07,0.404,2.844,1.186l6.891,6.958c0.412,0.416,0.728,0.918,0.925,1.471l11.626,32.584
				c0.63,1.765-0.051,3.731-1.637,4.729C171.241,88.359,170.503,88.563,169.769,88.563z"/>
		</g>
		<g>
			<path d="M128.081,81.673c-1.321,0-2.557-0.651-3.302-1.743c-0.746-1.091-0.904-2.479-0.424-3.71l19.417-49.802H130.66
				c-1.074,0-2.104-0.432-2.856-1.199c-0.752-0.768-1.165-1.805-1.143-2.879l0.173-8.841c0.042-2.178,1.82-3.921,3.999-3.921h5.773
				l0.032-1.64c0.042-2.178,1.82-3.922,3.999-3.922h9.982c1.074,0,2.104,0.432,2.856,1.199c0.752,0.767,1.164,1.805,1.143,2.879
				l-0.029,1.483h5.832c1.075,0,2.104,0.432,2.856,1.199c0.752,0.768,1.165,1.805,1.143,2.879l-0.165,8.412
				c-0.009,0.472-0.102,0.938-0.274,1.378l-8.461,21.639l11.124,31.174c0.437,1.227,0.251,2.586-0.498,3.649
				c-0.75,1.063-1.969,1.694-3.27,1.694H152.61c-1.68,0-3.181-1.05-3.757-2.627l-3.122-8.551l-3.367,8.692
				c-0.597,1.541-2.079,2.556-3.73,2.556L128.081,81.673L128.081,81.673z"/>
			<path fill="none" stroke="#020202" stroke-miterlimit="10" d="M128.081,81.673c-1.321,0-2.557-0.651-3.302-1.743
				c-0.746-1.091-0.904-2.479-0.424-3.71l19.417-49.802H130.66c-1.074,0-2.104-0.432-2.856-1.199
				c-0.752-0.768-1.165-1.805-1.143-2.879l0.173-8.841c0.042-2.178,1.82-3.921,3.999-3.921h5.773l0.032-1.64
				c0.042-2.178,1.82-3.922,3.999-3.922h9.982c1.074,0,2.104,0.432,2.856,1.199c0.752,0.767,1.164,1.805,1.143,2.879l-0.029,1.483
				h5.832c1.075,0,2.104,0.432,2.856,1.199c0.752,0.768,1.165,1.805,1.143,2.879l-0.165,8.412c-0.009,0.472-0.102,0.938-0.274,1.378
				l-8.461,21.639l11.124,31.174c0.437,1.227,0.251,2.586-0.498,3.649c-0.75,1.063-1.969,1.694-3.27,1.694H152.61
				c-1.68,0-3.181-1.05-3.757-2.627l-3.122-8.551l-3.367,8.692c-0.597,1.541-2.079,2.556-3.73,2.556L128.081,81.673L128.081,81.673z
				"/>
		</g>
		<g>
			<path d="M182.169,88.845c-1.048,0-2.077-0.411-2.843-1.186l-6.891-6.957c-0.761-0.769-1.179-1.812-1.157-2.894l1.319-67.448
				c0.031-1.607,1.021-3.039,2.514-3.636c0.481-0.193,0.985-0.286,1.484-0.286c1.048,0,2.077,0.412,2.843,1.186l6.89,6.958
				c0.761,0.768,1.178,1.812,1.157,2.893l-1.318,67.447c-0.031,1.606-1.021,3.039-2.513,3.636
				C183.172,88.751,182.668,88.845,182.169,88.845z"/>
			<path fill="none" stroke="#020202" stroke-miterlimit="10" d="M182.169,88.845c-1.048,0-2.077-0.411-2.843-1.186l-6.891-6.957
				c-0.761-0.769-1.179-1.812-1.157-2.894l1.319-67.448c0.031-1.607,1.021-3.039,2.514-3.636c0.481-0.193,0.985-0.286,1.484-0.286
				c1.048,0,2.077,0.412,2.843,1.186l6.89,6.958c0.761,0.768,1.178,1.812,1.157,2.893l-1.318,67.447
				c-0.031,1.606-1.021,3.039-2.513,3.636C183.172,88.751,182.668,88.845,182.169,88.845z"/>
		</g>
		<g>
			<path d="M166.008,81.889c-1.074,0-2.104-0.434-2.856-1.199c-0.752-0.769-1.164-1.806-1.143-2.879l0.57-29.221h-4.689
				c-1.074,0-2.104-0.432-2.856-1.199s-1.164-1.805-1.143-2.879l0.183-9.339c0.042-2.178,1.82-3.922,3.999-3.922h4.847l0.408-20.889
				c0.042-2.178,1.82-3.922,3.999-3.922h9.271c1.074,0,2.104,0.432,2.856,1.199s1.164,1.805,1.143,2.879l-1.319,67.448
				c-0.042,2.179-1.82,3.923-3.999,3.923H166.008z"/>
			<path fill="none" stroke="#020202" stroke-miterlimit="10" d="M166.008,81.889c-1.074,0-2.104-0.434-2.856-1.199
				c-0.752-0.769-1.164-1.806-1.143-2.879l0.57-29.221h-4.689c-1.074,0-2.104-0.432-2.856-1.199s-1.164-1.805-1.143-2.879
				l0.183-9.339c0.042-2.178,1.82-3.922,3.999-3.922h4.847l0.408-20.889c0.042-2.178,1.82-3.922,3.999-3.922h9.271
				c1.074,0,2.104,0.432,2.856,1.199s1.164,1.805,1.143,2.879l-1.319,67.448c-0.042,2.179-1.82,3.923-3.999,3.923H166.008z"/>
		</g>
		<g>
			<path d="M172.9,88.845c-1.067,0-2.09-0.427-2.841-1.185l-6.893-6.957c-1.136-1.146-1.472-2.864-0.85-4.354
				c0.621-1.49,2.078-2.461,3.692-2.461h9.27c1.067,0,2.091,0.426,2.842,1.186l6.891,6.957c1.136,1.146,1.471,2.863,0.85,4.354
				c-0.622,1.489-2.078,2.46-3.692,2.46H172.9z"/>
			<path fill="none" stroke="#020202" stroke-miterlimit="10" d="M172.9,88.845c-1.067,0-2.09-0.427-2.841-1.185l-6.893-6.957
				c-1.136-1.146-1.472-2.864-0.85-4.354c0.621-1.49,2.078-2.461,3.692-2.461h9.27c1.067,0,2.091,0.426,2.842,1.186l6.891,6.957
				c1.136,1.146,1.471,2.863,0.85,4.354c-0.622,1.489-2.078,2.46-3.692,2.46H172.9z"/>
		</g>
		<g>
			<path d="M196.358,88.845c-1.048,0-2.077-0.411-2.843-1.185l-6.892-6.957c-0.761-0.77-1.179-1.813-1.157-2.895l1.319-67.448
				c0.031-1.607,1.021-3.039,2.514-3.636c0.481-0.193,0.985-0.286,1.484-0.286c1.048,0,2.077,0.412,2.843,1.186l6.891,6.958
				c0.761,0.768,1.178,1.812,1.157,2.893l-1.318,67.447c-0.031,1.606-1.021,3.039-2.513,3.636
				C197.362,88.751,196.857,88.845,196.358,88.845z"/>
			<path fill="none" stroke="#020202" stroke-miterlimit="10" d="M196.358,88.845c-1.048,0-2.077-0.411-2.843-1.185l-6.892-6.957
				c-0.761-0.77-1.179-1.813-1.157-2.895l1.319-67.448c0.031-1.607,1.021-3.039,2.514-3.636c0.481-0.193,0.985-0.286,1.484-0.286
				c1.048,0,2.077,0.412,2.843,1.186l6.891,6.958c0.761,0.768,1.178,1.812,1.157,2.893l-1.318,67.447
				c-0.031,1.606-1.021,3.039-2.513,3.636C197.362,88.751,196.857,88.845,196.358,88.845z"/>
		</g>
		<g>
			<path d="M187.088,88.845c-1.067,0-2.09-0.427-2.842-1.185l-6.893-6.957c-1.136-1.146-1.472-2.864-0.85-4.354
				c0.621-1.49,2.078-2.461,3.692-2.461h9.271c1.067,0,2.09,0.426,2.842,1.185l6.892,6.957c1.136,1.146,1.471,2.864,0.85,4.354
				c-0.621,1.49-2.078,2.461-3.692,2.461H187.088z"/>
			<path fill="none" stroke="#020202" stroke-miterlimit="10" d="M187.088,88.845c-1.067,0-2.09-0.427-2.842-1.185l-6.893-6.957
				c-1.136-1.146-1.472-2.864-0.85-4.354c0.621-1.49,2.078-2.461,3.692-2.461h9.271c1.067,0,2.09,0.426,2.842,1.185l6.892,6.957
				c1.136,1.146,1.471,2.864,0.85,4.354c-0.621,1.49-2.078,2.461-3.692,2.461H187.088z"/>
		</g>
		<g>
			<path d="M180.195,81.889c-1.074,0-2.104-0.434-2.856-1.199c-0.752-0.769-1.164-1.806-1.143-2.879l1.32-67.449
				c0.042-2.178,1.82-3.922,3.999-3.922h9.27c1.074,0,2.104,0.432,2.856,1.199s1.164,1.805,1.143,2.879l-1.319,67.448
				c-0.042,2.179-1.82,3.923-3.999,3.923H180.195z"/>
			<path fill="none" stroke="#020202" stroke-miterlimit="10" d="M180.195,81.889c-1.074,0-2.104-0.434-2.856-1.199
				c-0.752-0.769-1.164-1.806-1.143-2.879l1.32-67.449c0.042-2.178,1.82-3.922,3.999-3.922h9.27c1.074,0,2.104,0.432,2.856,1.199
				s1.164,1.805,1.143,2.879l-1.319,67.448c-0.042,2.179-1.82,3.923-3.999,3.923H180.195z"/>
		</g>
		<g>
			<path d="M228.068,31.379c-1.067,0-2.092-0.427-2.842-1.186l-6.893-6.959c-1.137-1.147-1.473-2.864-0.85-4.354
				c0.621-1.49,2.076-2.46,3.69-2.46h17.896c1.068,0,2.092,0.427,2.843,1.185l6.894,6.959c1.135,1.147,1.471,2.865,0.85,4.354
				c-0.621,1.49-2.077,2.46-3.691,2.46L228.068,31.379L228.068,31.379z"/>
			<path fill="none" stroke="#020202" stroke-miterlimit="10" d="M228.068,31.379c-1.067,0-2.092-0.427-2.842-1.186l-6.893-6.959
				c-1.137-1.147-1.473-2.864-0.85-4.354c0.621-1.49,2.076-2.46,3.69-2.46h17.896c1.068,0,2.092,0.427,2.843,1.185l6.894,6.959
				c1.135,1.147,1.471,2.865,0.85,4.354c-0.621,1.49-2.077,2.46-3.691,2.46L228.068,31.379L228.068,31.379z"/>
		</g>
		<g>
			<path d="M256.518,31.379c-1.047,0-2.076-0.412-2.844-1.186l-6.891-6.959c-0.762-0.768-1.178-1.812-1.156-2.893l0.188-9.625
				c0.031-1.607,1.021-3.039,2.515-3.636c0.481-0.193,0.985-0.286,1.483-0.286c1.049,0,2.078,0.412,2.845,1.186l6.891,6.959
				c0.761,0.768,1.179,1.812,1.156,2.893l-0.188,9.625c-0.031,1.607-1.021,3.039-2.514,3.636
				C257.521,31.286,257.018,31.379,256.518,31.379z"/>
			<path fill="none" stroke="#020202" stroke-miterlimit="10" d="M256.518,31.379c-1.047,0-2.076-0.412-2.844-1.186l-6.891-6.959
				c-0.762-0.768-1.178-1.812-1.156-2.893l0.188-9.625c0.031-1.607,1.021-3.039,2.515-3.636c0.481-0.193,0.985-0.286,1.483-0.286
				c1.049,0,2.078,0.412,2.845,1.186l6.891,6.959c0.761,0.768,1.179,1.812,1.156,2.893l-0.188,9.625
				c-0.031,1.607-1.021,3.039-2.514,3.636C257.521,31.286,257.018,31.379,256.518,31.379z"/>
		</g>
		<g>
			<path d="M254.4,44.855c-1.051,0-2.08-0.415-2.842-1.186l-6.893-6.959c-0.896-0.903-1.307-2.179-1.109-3.435l2.117-13.476
				c0.233-1.491,1.286-2.722,2.723-3.186c0.402-0.13,0.817-0.193,1.229-0.193c1.051,0,2.079,0.415,2.843,1.186l6.892,6.959
				c0.895,0.904,1.306,2.179,1.107,3.435l-2.115,13.476c-0.233,1.49-1.287,2.722-2.723,3.186
				C255.227,44.792,254.813,44.855,254.4,44.855z"/>
			<path fill="none" stroke="#020202" stroke-miterlimit="10" d="M254.4,44.855c-1.051,0-2.08-0.415-2.842-1.186l-6.893-6.959
				c-0.896-0.903-1.307-2.179-1.109-3.435l2.117-13.476c0.233-1.491,1.286-2.722,2.723-3.186c0.402-0.13,0.817-0.193,1.229-0.193
				c1.051,0,2.079,0.415,2.843,1.186l6.892,6.959c0.895,0.904,1.306,2.179,1.107,3.435l-2.115,13.476
				c-0.233,1.49-1.287,2.722-2.723,3.186C255.227,44.792,254.813,44.855,254.4,44.855z"/>
		</g>
		<g>
			<path d="M252.927,54.552c-1.067,0-2.091-0.427-2.843-1.186l-6.893-6.96c-1.135-1.147-1.471-2.864-0.849-4.354
				c0.621-1.49,2.077-2.46,3.691-2.46h9.696c1.067,0,2.092,0.427,2.844,1.186l6.891,6.96c1.137,1.147,1.471,2.864,0.85,4.354
				c-0.621,1.489-2.078,2.46-3.691,2.46H252.927z"/>
			<path fill="none" stroke="#020202" stroke-miterlimit="10" d="M252.927,54.552c-1.067,0-2.091-0.427-2.843-1.186l-6.893-6.96
				c-1.135-1.147-1.471-2.864-0.849-4.354c0.621-1.49,2.077-2.46,3.691-2.46h9.696c1.067,0,2.092,0.427,2.844,1.186l6.891,6.96
				c1.137,1.147,1.471,2.864,0.85,4.354c-0.621,1.489-2.078,2.46-3.691,2.46H252.927z"/>
		</g>
		<g>
			<path d="M247.699,88.49c-1.051,0-2.079-0.415-2.844-1.186l-6.891-6.96c-0.892-0.899-1.304-2.171-1.109-3.423l5.227-33.94
				c0.229-1.493,1.281-2.729,2.719-3.196c0.404-0.131,0.821-0.195,1.233-0.195c1.052,0,2.08,0.415,2.844,1.186l6.892,6.96
				c0.893,0.901,1.305,2.171,1.11,3.424L251.652,85.1c-0.229,1.493-1.281,2.729-2.719,3.195
				C248.529,88.427,248.111,88.49,247.699,88.49z"/>
			<path fill="none" stroke="#020202" stroke-miterlimit="10" d="M247.699,88.49c-1.051,0-2.079-0.415-2.844-1.186l-6.891-6.96
				c-0.892-0.899-1.304-2.171-1.109-3.423l5.227-33.94c0.229-1.493,1.281-2.729,2.719-3.196c0.404-0.131,0.821-0.195,1.233-0.195
				c1.052,0,2.08,0.415,2.844,1.186l6.892,6.96c0.893,0.901,1.305,2.171,1.11,3.424L251.652,85.1
				c-0.229,1.493-1.281,2.729-2.719,3.195C248.529,88.427,248.111,88.49,247.699,88.49z"/>
		</g>
		<g>
			<path d="M236.861,88.49c-1.067,0-2.092-0.428-2.844-1.186l-6.891-6.96c-1.136-1.146-1.471-2.864-0.85-4.354
				s2.078-2.46,3.691-2.46h10.838c1.067,0,2.092,0.427,2.844,1.186l6.891,6.959c1.136,1.147,1.471,2.864,0.85,4.354
				c-0.621,1.489-2.078,2.46-3.691,2.46H236.861z"/>
			<path fill="none" stroke="#020202" stroke-miterlimit="10" d="M236.861,88.49c-1.067,0-2.092-0.428-2.844-1.186l-6.891-6.96
				c-1.136-1.146-1.471-2.864-0.85-4.354s2.078-2.46,3.691-2.46h10.838c1.067,0,2.092,0.427,2.844,1.186l6.891,6.959
				c1.136,1.147,1.471,2.864,0.85,4.354c-0.621,1.489-2.078,2.46-3.691,2.46H236.861z"/>
		</g>
		<g>
			<path d="M271.721,88.845c-1.048,0-2.076-0.411-2.843-1.186l-6.892-6.957c-0.76-0.769-1.178-1.812-1.156-2.894l1.318-67.448
				c0.031-1.607,1.021-3.039,2.515-3.636c0.481-0.193,0.985-0.286,1.483-0.286c1.049,0,2.078,0.412,2.844,1.186l6.891,6.958
				c0.762,0.768,1.18,1.812,1.157,2.893l-1.319,67.447c-0.031,1.606-1.021,3.039-2.514,3.636
				C272.725,88.751,272.221,88.845,271.721,88.845z"/>
			<path fill="none" stroke="#020202" stroke-miterlimit="10" d="M271.721,88.845c-1.048,0-2.076-0.411-2.843-1.186l-6.892-6.957
				c-0.76-0.769-1.178-1.812-1.156-2.894l1.318-67.448c0.031-1.607,1.021-3.039,2.515-3.636c0.481-0.193,0.985-0.286,1.483-0.286
				c1.049,0,2.078,0.412,2.844,1.186l6.891,6.958c0.762,0.768,1.18,1.812,1.157,2.893l-1.319,67.447
				c-0.031,1.606-1.021,3.039-2.514,3.636C272.725,88.751,272.221,88.845,271.721,88.845z"/>
		</g>
		<g>
			<path d="M255.063,81.889c-1.073,0-2.104-0.434-2.854-1.199c-0.753-0.769-1.165-1.806-1.144-2.879l0.59-30.219h-2.188
				l-4.705,30.549c-0.3,1.95-1.979,3.392-3.953,3.392h-10.838c-1.171,0-2.283-0.513-3.043-1.403c-0.76-0.89-1.092-2.07-0.906-3.227
				l8.363-52.481h-13.208c-1.073,0-2.104-0.432-2.856-1.199c-0.752-0.767-1.163-1.805-1.143-2.879l0.188-9.625
				c0.042-2.178,1.819-3.922,3.999-3.922h28.449c1.074,0,2.104,0.432,2.855,1.199c0.107,0.111,0.209,0.227,0.303,0.348
				c0.705-1.143,1.969-1.903,3.407-1.903h9.769c1.074,0,2.104,0.432,2.854,1.199c0.753,0.767,1.165,1.805,1.144,2.879l-1.318,67.448
				c-0.042,2.179-1.82,3.923-3.999,3.923H255.063z"/>
			<path fill="none" stroke="#020202" stroke-miterlimit="10" d="M255.063,81.889c-1.073,0-2.104-0.434-2.854-1.199
				c-0.753-0.769-1.165-1.806-1.144-2.879l0.59-30.219h-2.188l-4.705,30.549c-0.3,1.95-1.979,3.392-3.953,3.392h-10.838
				c-1.171,0-2.283-0.513-3.043-1.403c-0.76-0.89-1.092-2.07-0.906-3.227l8.363-52.481h-13.208c-1.073,0-2.104-0.432-2.856-1.199
				c-0.752-0.767-1.163-1.805-1.143-2.879l0.188-9.625c0.042-2.178,1.819-3.922,3.999-3.922h28.449c1.074,0,2.104,0.432,2.855,1.199
				c0.107,0.111,0.209,0.227,0.303,0.348c0.705-1.143,1.969-1.903,3.407-1.903h9.769c1.074,0,2.104,0.432,2.854,1.199
				c0.753,0.767,1.165,1.805,1.144,2.879l-1.318,67.448c-0.042,2.179-1.82,3.923-3.999,3.923H255.063z"/>
		</g>
		<g>
			<path d="M261.952,88.845c-1.067,0-2.091-0.427-2.843-1.186l-6.89-6.957c-1.137-1.146-1.472-2.864-0.85-4.354
				c0.621-1.488,2.077-2.459,3.69-2.459h9.768c1.066,0,2.091,0.426,2.842,1.186l6.891,6.957c1.137,1.146,1.473,2.863,0.851,4.354
				c-0.621,1.489-2.077,2.461-3.691,2.461L261.952,88.845L261.952,88.845z"/>
			<path fill="none" stroke="#020202" stroke-miterlimit="10" d="M261.952,88.845c-1.067,0-2.091-0.427-2.843-1.186l-6.89-6.957
				c-1.137-1.146-1.472-2.864-0.85-4.354c0.621-1.488,2.077-2.459,3.69-2.459h9.768c1.066,0,2.091,0.426,2.842,1.186l6.891,6.957
				c1.137,1.146,1.473,2.863,0.851,4.354c-0.621,1.489-2.077,2.461-3.691,2.461L261.952,88.845L261.952,88.845z"/>
		</g>
		<g>
			<path d="M287.621,88.845c-1.048,0-2.077-0.411-2.844-1.186l-6.891-6.957c-0.761-0.769-1.179-1.812-1.156-2.894l1.318-67.448
				c0.031-1.607,1.021-3.039,2.514-3.636c0.481-0.193,0.985-0.286,1.484-0.286c1.049,0,2.077,0.412,2.844,1.186l6.891,6.958
				c0.761,0.768,1.179,1.812,1.156,2.893l-1.318,67.447c-0.031,1.606-1.021,3.039-2.514,3.636
				C288.624,88.751,288.12,88.845,287.621,88.845z"/>
			<path fill="none" stroke="#020202" stroke-miterlimit="10" d="M287.621,88.845c-1.048,0-2.077-0.411-2.844-1.186l-6.891-6.957
				c-0.761-0.769-1.179-1.812-1.156-2.894l1.318-67.448c0.031-1.607,1.021-3.039,2.514-3.636c0.481-0.193,0.985-0.286,1.484-0.286
				c1.049,0,2.077,0.412,2.844,1.186l6.891,6.958c0.761,0.768,1.179,1.812,1.156,2.893l-1.318,67.447
				c-0.031,1.606-1.021,3.039-2.514,3.636C288.624,88.751,288.12,88.845,287.621,88.845z"/>
		</g>
		<g>
			<path d="M277.852,88.845c-1.066,0-2.091-0.427-2.842-1.186l-6.891-6.957c-1.137-1.146-1.473-2.864-0.85-4.354
				c0.621-1.488,2.076-2.459,3.69-2.459h9.769c1.067,0,2.092,0.426,2.842,1.186l6.892,6.957c1.136,1.146,1.472,2.863,0.851,4.354
				c-0.621,1.489-2.078,2.461-3.691,2.461L277.852,88.845L277.852,88.845z"/>
			<path fill="none" stroke="#020202" stroke-miterlimit="10" d="M277.852,88.845c-1.066,0-2.091-0.427-2.842-1.186l-6.891-6.957
				c-1.137-1.146-1.473-2.864-0.85-4.354c0.621-1.488,2.076-2.459,3.69-2.459h9.769c1.067,0,2.092,0.426,2.842,1.186l6.892,6.957
				c1.136,1.146,1.472,2.863,0.851,4.354c-0.621,1.489-2.078,2.461-3.691,2.461L277.852,88.845L277.852,88.845z"/>
		</g>
		<g>
			<path d="M270.961,81.889c-1.074,0-2.104-0.434-2.855-1.199c-0.752-0.769-1.164-1.806-1.144-2.879l1.319-67.449
				c0.041-2.178,1.82-3.922,3.998-3.922h9.77c1.074,0,2.104,0.432,2.855,1.199c0.753,0.767,1.164,1.805,1.144,2.879l-1.319,67.448
				c-0.041,2.179-1.819,3.923-3.998,3.923H270.961z"/>
			<path fill="none" stroke="#020202" stroke-miterlimit="10" d="M270.961,81.889c-1.074,0-2.104-0.434-2.855-1.199
				c-0.752-0.769-1.164-1.806-1.144-2.879l1.319-67.449c0.041-2.178,1.82-3.922,3.998-3.922h9.77c1.074,0,2.104,0.432,2.855,1.199
				c0.753,0.767,1.164,1.805,1.144,2.879l-1.319,67.448c-0.041,2.179-1.819,3.923-3.998,3.923H270.961z"/>
		</g>
		<g>
			<g>
				<path id="SVGID_15_" d="M307.596,20.207l6.892,6.958c-1.81,0-3.28,0.571-4.418,1.711s-1.728,2.62-1.763,4.42l-6.891-6.958
					c0.035-1.8,0.625-3.28,1.762-4.42C304.315,20.778,305.787,20.207,307.596,20.207z"/>
			</g>
			<g>
				<defs>
					<path id="SVGID_8_" d="M307.596,20.207l6.892,6.958c-1.81,0-3.28,0.571-4.418,1.711s-1.728,2.62-1.763,4.42l-6.891-6.958
						c0.035-1.8,0.625-3.28,1.762-4.42C304.315,20.778,305.787,20.207,307.596,20.207z"/>
				</defs>
				<clipPath id="SVGID_9_">
					<use xlink:href="#SVGID_8_"  overflow="visible"/>
				</clipPath>
				<g clip-path="url(#SVGID_9_)" enable-background="new    ">
					<g>
						<path d="M310.16,32.786c-1.03,0-2.062-0.396-2.842-1.185l-6.893-6.958c-0.754-0.761-1.171-1.792-1.158-2.863
							c0.014-1.071,0.455-2.092,1.228-2.834c1.862-1.792,4.316-2.739,7.101-2.739c1.067,0,2.092,0.427,2.843,1.186l6.891,6.958
							c1.137,1.147,1.472,2.864,0.85,4.354c-0.621,1.49-2.077,2.46-3.69,2.46c-0.906,0-1.294,0.255-1.555,0.505
							C312.157,32.415,311.158,32.786,310.16,32.786z"/>
						<path fill="none" stroke="#020202" stroke-miterlimit="10" d="M310.16,32.786c-1.03,0-2.062-0.396-2.842-1.185l-6.893-6.958
							c-0.754-0.761-1.171-1.792-1.158-2.863c0.014-1.071,0.455-2.092,1.228-2.834c1.862-1.792,4.316-2.739,7.101-2.739
							c1.067,0,2.092,0.427,2.843,1.186l6.891,6.958c1.137,1.147,1.472,2.864,0.85,4.354c-0.621,1.49-2.077,2.46-3.69,2.46
							c-0.906,0-1.294,0.255-1.555,0.505C312.157,32.415,311.158,32.786,310.16,32.786z"/>
					</g>
					<g>
						<path d="M309.513,33.518c-1.063,0-2.088-0.424-2.842-1.186l-6.891-6.958c-1.395-1.406-1.548-3.62-0.364-5.207
							c0.283-0.38,0.598-0.743,0.934-1.079c0.013-0.011,0.068-0.068,0.08-0.079c1.572-1.534,4.135-1.559,5.682,0.003l6.892,6.958
							c0.752,0.76,1.169,1.789,1.158,2.857c-0.012,1.069-0.45,2.089-1.219,2.832c-0.104,0.102-0.166,0.173-0.224,0.25
							c-0.697,0.933-1.766,1.517-2.928,1.598C309.698,33.514,309.605,33.518,309.513,33.518z"/>
						<path fill="none" stroke="#020202" stroke-miterlimit="10" d="M309.513,33.518c-1.063,0-2.088-0.424-2.842-1.186l-6.891-6.958
							c-1.395-1.406-1.548-3.62-0.364-5.207c0.283-0.38,0.598-0.743,0.934-1.079c0.013-0.011,0.068-0.068,0.08-0.079
							c1.572-1.534,4.135-1.559,5.682,0.003l6.892,6.958c0.752,0.76,1.169,1.789,1.158,2.857c-0.012,1.069-0.45,2.089-1.219,2.832
							c-0.104,0.102-0.166,0.173-0.224,0.25c-0.697,0.933-1.766,1.517-2.928,1.598C309.698,33.514,309.605,33.518,309.513,33.518z"
							/>
					</g>
					<g>
						<path d="M309.085,34.183c-1.06,0-2.085-0.421-2.842-1.185l-6.894-6.958c-1.25-1.262-1.518-3.196-0.658-4.75
							c0.213-0.385,0.457-0.762,0.726-1.122c0.696-0.933,1.765-1.516,2.927-1.597c1.158-0.082,2.301,0.348,3.12,1.176l6.892,6.958
							c1.394,1.407,1.548,3.621,0.362,5.208c-0.048,0.064-0.091,0.131-0.129,0.201c-0.607,1.104-1.702,1.857-2.951,2.031
							C309.453,34.17,309.269,34.183,309.085,34.183z"/>
						<path fill="none" stroke="#020202" stroke-miterlimit="10" d="M309.085,34.183c-1.06,0-2.085-0.421-2.842-1.185l-6.894-6.958
							c-1.25-1.262-1.518-3.196-0.658-4.75c0.213-0.385,0.457-0.762,0.726-1.122c0.696-0.933,1.765-1.516,2.927-1.597
							c1.158-0.082,2.301,0.348,3.12,1.176l6.892,6.958c1.394,1.407,1.548,3.621,0.362,5.208c-0.048,0.064-0.091,0.131-0.129,0.201
							c-0.607,1.104-1.702,1.857-2.951,2.031C309.453,34.17,309.269,34.183,309.085,34.183z"/>
					</g>
					<g>
						<path d="M308.765,34.866c-1.057,0-2.083-0.419-2.842-1.186l-6.891-6.958c-1.11-1.121-1.458-2.79-0.889-4.26
							c0.152-0.394,0.335-0.786,0.544-1.163c0.606-1.106,1.7-1.861,2.949-2.036c1.25-0.175,2.51,0.25,3.397,1.146l6.893,6.958
							c1.248,1.26,1.519,3.192,0.661,4.746c-0.036,0.065-0.068,0.133-0.097,0.204c-0.491,1.263-1.588,2.19-2.915,2.466
							C309.308,34.839,309.035,34.866,308.765,34.866z"/>
						<path fill="none" stroke="#020202" stroke-miterlimit="10" d="M308.765,34.866c-1.057,0-2.083-0.419-2.842-1.186l-6.891-6.958
							c-1.11-1.121-1.458-2.79-0.889-4.26c0.152-0.394,0.335-0.786,0.544-1.163c0.606-1.106,1.7-1.861,2.949-2.036
							c1.25-0.175,2.51,0.25,3.397,1.146l6.893,6.958c1.248,1.26,1.519,3.192,0.661,4.746c-0.036,0.065-0.068,0.133-0.097,0.204
							c-0.491,1.263-1.588,2.19-2.915,2.466C309.308,34.839,309.035,34.866,308.765,34.866z"/>
					</g>
					<g>
						<path d="M308.516,35.648c-1.053,0-2.081-0.417-2.842-1.186l-6.891-6.958c-0.98-0.989-1.375-2.417-1.042-3.77
							c0.106-0.44,0.245-0.874,0.409-1.29c0.493-1.259,1.592-2.182,2.916-2.455c1.324-0.273,2.696,0.143,3.647,1.104l6.892,6.958
							c1.114,1.125,1.461,2.803,0.881,4.277c-0.036,0.092-0.065,0.188-0.09,0.288c-0.351,1.402-1.43,2.506-2.821,2.889
							C309.225,35.602,308.869,35.648,308.516,35.648z"/>
						<path fill="none" stroke="#020202" stroke-miterlimit="10" d="M308.516,35.648c-1.053,0-2.081-0.417-2.842-1.186l-6.891-6.958
							c-0.98-0.989-1.375-2.417-1.042-3.77c0.106-0.44,0.245-0.874,0.409-1.29c0.493-1.259,1.592-2.182,2.916-2.455
							c1.324-0.273,2.696,0.143,3.647,1.104l6.892,6.958c1.114,1.125,1.461,2.803,0.881,4.277c-0.036,0.092-0.065,0.188-0.09,0.288
							c-0.351,1.402-1.43,2.506-2.821,2.889C309.225,35.602,308.869,35.648,308.516,35.648z"/>
					</g>
					<g>
						<path d="M308.345,36.658c-1.051,0-2.079-0.414-2.843-1.186l-6.891-6.958c-0.835-0.842-1.252-2.011-1.141-3.191
							c0.051-0.536,0.143-1.073,0.271-1.595c0.348-1.404,1.426-2.51,2.819-2.895c1.394-0.383,2.889,0.014,3.904,1.042l6.892,6.958
							c0.981,0.992,1.377,2.423,1.04,3.778c-0.032,0.132-0.059,0.282-0.074,0.447c-0.154,1.541-1.186,2.854-2.646,3.371
							C309.242,36.583,308.791,36.658,308.345,36.658z"/>
						<path fill="none" stroke="#020202" stroke-miterlimit="10" d="M308.345,36.658c-1.051,0-2.079-0.414-2.843-1.186l-6.891-6.958
							c-0.835-0.842-1.252-2.011-1.141-3.191c0.051-0.536,0.143-1.073,0.271-1.595c0.348-1.404,1.426-2.51,2.819-2.895
							c1.394-0.383,2.889,0.014,3.904,1.042l6.892,6.958c0.981,0.992,1.377,2.423,1.04,3.778c-0.032,0.132-0.059,0.282-0.074,0.447
							c-0.154,1.541-1.186,2.854-2.646,3.371C309.242,36.583,308.791,36.658,308.345,36.658z"/>
					</g>
					<g>
						<path d="M308.308,37.296c-1.048,0-2.076-0.412-2.843-1.186l-6.891-6.958c-0.76-0.767-1.178-1.808-1.157-2.886
							c0.006-0.327,0.024-0.647,0.056-0.96c0.152-1.542,1.183-2.858,2.644-3.377c1.459-0.52,3.089-0.147,4.18,0.955l6.892,6.958
							c0.834,0.841,1.251,2.009,1.141,3.188c-0.011,0.115-0.019,0.233-0.021,0.354c-0.035,1.605-1.026,3.033-2.519,3.626
							C309.307,37.204,308.805,37.296,308.308,37.296z"/>
						<path fill="none" stroke="#020202" stroke-miterlimit="10" d="M308.308,37.296c-1.048,0-2.076-0.412-2.843-1.186l-6.891-6.958
							c-0.76-0.767-1.178-1.808-1.157-2.886c0.006-0.327,0.024-0.647,0.056-0.96c0.152-1.542,1.183-2.858,2.644-3.377
							c1.459-0.52,3.089-0.147,4.18,0.955l6.892,6.958c0.834,0.841,1.251,2.009,1.141,3.188c-0.011,0.115-0.019,0.233-0.021,0.354
							c-0.035,1.605-1.026,3.033-2.519,3.626C309.307,37.204,308.805,37.296,308.308,37.296z"/>
					</g>
				</g>
			</g>
			<g>
				<path id="SVGID_1_" fill="none" stroke="#020202" stroke-miterlimit="10" d="M307.596,20.207l6.892,6.958
					c-1.81,0-3.28,0.571-4.418,1.711s-1.728,2.62-1.763,4.42l-6.891-6.958c0.035-1.8,0.625-3.28,1.762-4.42
					C304.315,20.778,305.787,20.207,307.596,20.207z"/>
			</g>
		</g>
		<g>
			<path d="M314.486,31.166c-1.067,0-2.092-0.427-2.844-1.186l-6.891-6.959c-1.136-1.147-1.471-2.864-0.849-4.354
				c0.621-1.49,2.077-2.46,3.69-2.46h2.425c1.067,0,2.092,0.427,2.844,1.186l6.891,6.959c1.136,1.147,1.471,2.864,0.849,4.354
				c-0.62,1.49-2.076,2.46-3.69,2.46H314.486z"/>
			<path fill="none" stroke="#020202" stroke-miterlimit="10" d="M314.486,31.166c-1.067,0-2.092-0.427-2.844-1.186l-6.891-6.959
				c-1.136-1.147-1.471-2.864-0.849-4.354c0.621-1.49,2.077-2.46,3.69-2.46h2.425c1.067,0,2.092,0.427,2.844,1.186l6.891,6.959
				c1.136,1.147,1.471,2.864,0.849,4.354c-0.62,1.49-2.076,2.46-3.69,2.46H314.486z"/>
		</g>
		<g>
			<path d="M308.226,41.503c-1.048,0-2.076-0.412-2.843-1.186l-6.891-6.958c-0.761-0.768-1.18-1.812-1.157-2.893l0.082-4.207
				c0.031-1.607,1.021-3.039,2.514-3.636c0.481-0.193,0.985-0.286,1.484-0.286c1.048,0,2.077,0.412,2.843,1.186l6.892,6.958
				c0.761,0.768,1.179,1.812,1.156,2.893l-0.082,4.207c-0.03,1.607-1.021,3.039-2.514,3.636
				C309.229,41.41,308.725,41.503,308.226,41.503z"/>
			<path fill="none" stroke="#020202" stroke-miterlimit="10" d="M308.226,41.503c-1.048,0-2.076-0.412-2.843-1.186l-6.891-6.958
				c-0.761-0.768-1.18-1.812-1.157-2.893l0.082-4.207c0.031-1.607,1.021-3.039,2.514-3.636c0.481-0.193,0.985-0.286,1.484-0.286
				c1.048,0,2.077,0.412,2.843,1.186l6.892,6.958c0.761,0.768,1.179,1.812,1.156,2.893l-0.082,4.207
				c-0.03,1.607-1.021,3.039-2.514,3.636C309.229,41.41,308.725,41.503,308.226,41.503z"/>
		</g>
		<g>
			<g>
				<path id="SVGID_17_" d="M314.304,21.849c2.297,2.319,4.595,4.639,6.893,6.958c-1.084-1.094-2.513-1.642-4.283-1.642
					l-6.892-6.958C311.793,20.207,313.22,20.754,314.304,21.849z"/>
			</g>
			<g>
				<defs>
					<path id="SVGID_10_" d="M314.304,21.849c2.297,2.319,4.595,4.639,6.893,6.958c-1.084-1.094-2.513-1.642-4.283-1.642
						l-6.892-6.958C311.793,20.207,313.22,20.754,314.304,21.849z"/>
				</defs>
				<clipPath id="SVGID_11_">
					<use xlink:href="#SVGID_10_"  overflow="visible"/>
				</clipPath>
				<g clip-path="url(#SVGID_11_)" enable-background="new    ">
					<g>
						<path d="M321.195,32.807c-1.03,0-2.061-0.396-2.843-1.185l0,0l-0.005-0.005c-0.148-0.15-0.459-0.452-1.437-0.452
							c-1.067,0-2.091-0.427-2.842-1.185l-6.893-6.958c-1.136-1.147-1.472-2.865-0.85-4.354c0.621-1.49,2.077-2.46,3.69-2.46
							c2.829,0,5.293,0.978,7.125,2.827l6.664,6.728c0.86,0.734,1.405,1.826,1.405,3.045c0,2.209-1.79,4-4,4
							C321.21,32.807,321.205,32.807,321.195,32.807z"/>
						<path fill="none" stroke="#020202" stroke-miterlimit="10" d="M321.195,32.807c-1.03,0-2.061-0.396-2.843-1.185l0,0
							l-0.005-0.005c-0.148-0.15-0.459-0.452-1.437-0.452c-1.067,0-2.091-0.427-2.842-1.185l-6.893-6.958
							c-1.136-1.147-1.472-2.865-0.85-4.354c0.621-1.49,2.077-2.46,3.69-2.46c2.829,0,5.293,0.978,7.125,2.827l6.664,6.728
							c0.86,0.734,1.405,1.826,1.405,3.045c0,2.209-1.79,4-4,4C321.21,32.807,321.205,32.807,321.195,32.807z"/>
					</g>
				</g>
			</g>
			<g>
				<path id="SVGID_2_" fill="none" stroke="#020202" stroke-miterlimit="10" d="M314.304,21.849
					c2.297,2.319,4.595,4.639,6.893,6.958c-1.084-1.094-2.513-1.642-4.283-1.642l-6.892-6.958
					C311.793,20.207,313.22,20.754,314.304,21.849z"/>
			</g>
		</g>
		<g>
			<g>
				<path id="SVGID_19_" d="M309.85,41.924c-2.297-2.319-4.595-4.639-6.892-6.958c-0.012-0.012-0.023-0.024-0.035-0.036
					c-1.092-1.114-1.624-2.576-1.589-4.385l6.891,6.958c-0.034,1.81,0.497,3.271,1.591,4.385
					C309.826,41.9,309.837,41.913,309.85,41.924z"/>
			</g>
			<g>
				<defs>
					<path id="SVGID_12_" d="M309.85,41.924c-2.297-2.319-4.595-4.639-6.892-6.958c-0.012-0.012-0.023-0.024-0.035-0.036
						c-1.092-1.114-1.624-2.576-1.589-4.385l6.891,6.958c-0.034,1.81,0.497,3.271,1.591,4.385
						C309.826,41.9,309.837,41.913,309.85,41.924z"/>
				</defs>
				<clipPath id="SVGID_13_">
					<use xlink:href="#SVGID_12_"  overflow="visible"/>
				</clipPath>
				<g clip-path="url(#SVGID_13_)" enable-background="new    ">
					<g>
						<path d="M308.254,42.358c-1.045,0-2.075-0.41-2.843-1.185l-6.894-6.959c-0.662-0.669-1.067-1.551-1.145-2.489
							c-0.033-0.405-0.048-0.828-0.039-1.26c0.032-1.606,1.022-3.038,2.515-3.634c1.492-0.596,3.196-0.242,4.326,0.9l6.892,6.958
							c0.762,0.769,1.179,1.813,1.156,2.894c-0.001,0.048-0.001,0.096,0,0.144c0.032,0.206,0.05,0.417,0.05,0.631
							c0,2.204-1.781,3.991-3.983,4C308.277,42.358,308.266,42.358,308.254,42.358z"/>
						<path fill="none" stroke="#020202" stroke-miterlimit="10" d="M308.254,42.358c-1.045,0-2.075-0.41-2.843-1.185l-6.894-6.959
							c-0.662-0.669-1.067-1.551-1.145-2.489c-0.033-0.405-0.048-0.828-0.039-1.26c0.032-1.606,1.022-3.038,2.515-3.634
							c1.492-0.596,3.196-0.242,4.326,0.9l6.892,6.958c0.762,0.769,1.179,1.813,1.156,2.894c-0.001,0.048-0.001,0.096,0,0.144
							c0.032,0.206,0.05,0.417,0.05,0.631c0,2.204-1.781,3.991-3.983,4C308.277,42.358,308.266,42.358,308.254,42.358z"/>
					</g>
					<g>
						<path d="M309.515,45.558c-1.031,0-2.063-0.397-2.844-1.186l-6.891-6.959c-0.08-0.081-0.156-0.166-0.229-0.253
							c-1.26-1.512-1.99-3.332-2.174-5.411c-0.146-1.679,0.773-3.27,2.302-3.979c1.532-0.71,3.341-0.382,4.524,0.814l6.892,6.959
							c0.657,0.663,1.063,1.535,1.144,2.465c0.038,0.426,0.14,0.679,0.247,0.848c0.65,0.712,1.049,1.66,1.049,2.701
							c0,2.209-1.79,4-4,4C309.527,45.558,309.519,45.558,309.515,45.558z"/>
						<path fill="none" stroke="#020202" stroke-miterlimit="10" d="M309.515,45.558c-1.031,0-2.063-0.397-2.844-1.186l-6.891-6.959
							c-0.08-0.081-0.156-0.166-0.229-0.253c-1.26-1.512-1.99-3.332-2.174-5.411c-0.146-1.679,0.773-3.27,2.302-3.979
							c1.532-0.71,3.341-0.382,4.524,0.814l6.892,6.959c0.657,0.663,1.063,1.535,1.144,2.465c0.038,0.426,0.14,0.679,0.247,0.848
							c0.65,0.712,1.049,1.66,1.049,2.701c0,2.209-1.79,4-4,4C309.527,45.558,309.519,45.558,309.515,45.558z"/>
					</g>
					<g>
						<path d="M309.848,45.925c-0.719,0-1.438-0.193-2.072-0.579c0-0.001-0.002-0.001-0.004-0.002c-0.002,0-0.003-0.001-0.004-0.002
							c0,0,0,0-0.001,0c-0.26-0.159-0.507-0.351-0.731-0.575c-0.001,0-0.001,0-0.001,0c-0.002-0.002-0.003-0.004-0.006-0.005
							c-0.002-0.002-0.003-0.003-0.005-0.005c-0.003-0.001-0.002-0.001-0.004-0.002c-0.001-0.001-0.002-0.002-0.003-0.003l0,0
							c-0.001-0.001-0.001-0.001-0.002-0.002c-0.002-0.002-0.005-0.005-0.007-0.007l-6.891-6.958
							c-0.027-0.027-0.053-0.053-0.075-0.076c-0.173-0.179-0.337-0.361-0.493-0.549c-1.37-1.646-1.201-4.08,0.385-5.52
							c1.585-1.441,4.023-1.375,5.532,0.146l6.892,6.959c0.079,0.082,0.156,0.167,0.23,0.255c0.024,0.03,0.052,0.059,0.079,0.087
							c0.02,0.02,0.038,0.039,0.056,0.057c0.327,0.338,0.583,0.72,0.769,1.126l0,0c0.001,0.001,0.002,0.003,0.002,0.005
							c0.001,0,0.001,0,0.001,0c0,0.001,0.001,0.003,0.002,0.005c0,0,0,0,0,0.001c0.001,0.001,0.002,0.003,0.002,0.004
							c0.005,0.003,0.002,0.004,0.003,0.005c0,0,0,0.001,0.001,0.001c0,0.001,0.001,0.002,0.001,0.004
							c0.004,0.003,0.002,0.004,0.003,0.005c0,0.002,0.002,0.003,0.002,0.005c0.002,0.001-0.001,0.004,0.003,0.005
							c0,0.001,0.001,0.002,0.001,0.004l0.001,0.001c0.001,0.002,0.003,0.004,0.002,0.005c0.001,0.001,0.003,0.003,0.003,0.004
							c0,0,0.001,0,0.001,0.001s0.001,0.003,0.002,0.005l0,0c0.001,0.002,0.002,0.003,0.002,0.005l0,0
							c0.18,0.416,0.284,0.856,0.316,1.301l0,0c0,0.001,0,0.003,0,0.005c0,0,0,0,0,0.001s0,0.003,0,0.005l0.001,0.001
							c0,0.001,0,0.003,0,0.004v0.001c0,0.001,0,0.003,0,0.004c0,0,0,0.001,0,0.002s0.001,0.002,0.001,0.004s0,0.004,0,0.006
							c0,0.001,0,0.002,0,0.003s0.001,0.004,0.001,0.006c0,0.002,0,0.003,0,0.006c0,0,0,0.001,0,0.002s0,0.003,0,0.004v0.001
							c0.001,0.001,0.001,0.003,0.001,0.005c0,0,0,0,0,0.001c0,0.002,0,0.003,0,0.005l0,0c0.036,0.676-0.098,1.359-0.402,1.98l0,0
							c-0.001,0.002-0.001,0.003-0.002,0.005c0,0-0.002,0.003-0.003,0.005c0,0-0.002,0.002-0.002,0.005
							c-0.002,0-0.005,0.003-0.004,0.005c-0.001,0.002,0,0.004-0.003,0.005c0,0.001-0.001,0.002-0.001,0.004
							c-0.001,0-0.001,0.001-0.001,0.001c-0.001,0.001-0.002,0.003-0.002,0.004c0,0-0.001,0-0.001,0.001
							c-0.001,0.001-0.001,0.003-0.002,0.005l0,0c-0.189,0.377-0.443,0.729-0.762,1.042c-0.014,0.014-0.028,0.028-0.043,0.042l0,0
							c-0.002,0.001-0.003,0.002-0.005,0.004c0,0.001-0.002,0.002-0.004,0.004s-0.002,0.003-0.004,0.004
							c-0.003,0.002-0.005,0.003-0.005,0.004c-0.003,0.001-0.005,0.004-0.005,0.004c-0.205,0.194-0.427,0.362-0.659,0.505l0,0
							c-0.003,0-0.004,0.001-0.006,0.003c-0.002,0.001-0.005,0.002-0.005,0.003c-0.002,0.001-0.004,0.002-0.006,0.003
							c0,0.003-0.003,0.002-0.006,0.003l0,0c-0.604,0.364-1.28,0.554-1.962,0.571l0,0c-0.002,0-0.006,0-0.006,0
							c-0.003,0-0.004,0.001-0.006,0C309.912,45.925,309.878,45.925,309.848,45.925z"/>
						<path fill="none" stroke="#020202" stroke-miterlimit="10" d="M309.848,45.925c-0.719,0-1.438-0.193-2.072-0.579
							c0-0.001-0.002-0.001-0.004-0.002c-0.002,0-0.003-0.001-0.004-0.002c0,0,0,0-0.001,0c-0.26-0.159-0.507-0.351-0.731-0.575
							c-0.001,0-0.001,0-0.001,0c-0.002-0.002-0.003-0.004-0.006-0.005c-0.002-0.002-0.003-0.003-0.005-0.005
							c-0.003-0.001-0.002-0.001-0.004-0.002c-0.001-0.001-0.002-0.002-0.003-0.003l0,0c-0.001-0.001-0.001-0.001-0.002-0.002
							c-0.002-0.002-0.005-0.005-0.007-0.007l-6.891-6.958c-0.027-0.027-0.053-0.053-0.075-0.076
							c-0.173-0.179-0.337-0.361-0.493-0.549c-1.37-1.646-1.201-4.08,0.385-5.52c1.585-1.441,4.023-1.375,5.532,0.146l6.892,6.959
							c0.079,0.082,0.156,0.167,0.23,0.255c0.024,0.03,0.052,0.059,0.079,0.087c0.02,0.02,0.038,0.039,0.056,0.057
							c0.327,0.338,0.583,0.72,0.769,1.126l0,0c0.001,0.001,0.002,0.003,0.002,0.005c0.001,0,0.001,0,0.001,0
							c0,0.001,0.001,0.003,0.002,0.005c0,0,0,0,0,0.001c0.001,0.001,0.002,0.003,0.002,0.004c0.005,0.003,0.002,0.004,0.003,0.005
							c0,0,0,0.001,0.001,0.001c0,0.001,0.001,0.002,0.001,0.004c0.004,0.003,0.002,0.004,0.003,0.005
							c0,0.002,0.002,0.003,0.002,0.005c0.002,0.001-0.001,0.004,0.003,0.005c0,0.001,0.001,0.002,0.001,0.004l0.001,0.001
							c0.001,0.002,0.003,0.004,0.002,0.005c0.001,0.001,0.003,0.003,0.003,0.004c0,0,0.001,0,0.001,0.001s0.001,0.003,0.002,0.005
							l0,0c0.001,0.002,0.002,0.003,0.002,0.005l0,0c0.18,0.416,0.284,0.856,0.316,1.301l0,0c0,0.001,0,0.003,0,0.005
							c0,0,0,0,0,0.001s0,0.003,0,0.005l0.001,0.001c0,0.001,0,0.003,0,0.004v0.001c0,0.001,0,0.003,0,0.004c0,0,0,0.001,0,0.002
							s0.001,0.002,0.001,0.004s0,0.004,0,0.006c0,0.001,0,0.002,0,0.003s0.001,0.004,0.001,0.006c0,0.002,0,0.003,0,0.006
							c0,0,0,0.001,0,0.002s0,0.003,0,0.004v0.001c0.001,0.001,0.001,0.003,0.001,0.005c0,0,0,0,0,0.001c0,0.002,0,0.003,0,0.005
							l0,0c0.036,0.676-0.098,1.359-0.402,1.98l0,0c-0.001,0.002-0.001,0.003-0.002,0.005c0,0-0.002,0.003-0.003,0.005
							c0,0-0.002,0.002-0.002,0.005c-0.002,0-0.005,0.003-0.004,0.005c-0.001,0.002,0,0.004-0.003,0.005
							c0,0.001-0.001,0.002-0.001,0.004c-0.001,0-0.001,0.001-0.001,0.001c-0.001,0.001-0.002,0.003-0.002,0.004
							c0,0-0.001,0-0.001,0.001c-0.001,0.001-0.001,0.003-0.002,0.005l0,0c-0.189,0.377-0.443,0.729-0.762,1.042
							c-0.014,0.014-0.028,0.028-0.043,0.042l0,0c-0.002,0.001-0.003,0.002-0.005,0.004c0,0.001-0.002,0.002-0.004,0.004
							s-0.002,0.003-0.004,0.004c-0.003,0.002-0.005,0.003-0.005,0.004c-0.003,0.001-0.005,0.004-0.005,0.004
							c-0.205,0.194-0.427,0.362-0.659,0.505l0,0c-0.003,0-0.004,0.001-0.006,0.003c-0.002,0.001-0.005,0.002-0.005,0.003
							c-0.002,0.001-0.004,0.002-0.006,0.003c0,0.003-0.003,0.002-0.006,0.003l0,0c-0.604,0.364-1.28,0.554-1.962,0.571l0,0
							c-0.002,0-0.006,0-0.006,0c-0.003,0-0.004,0.001-0.006,0C309.912,45.925,309.878,45.925,309.848,45.925z"/>
					</g>
				</g>
			</g>
			<g>
				<path id="SVGID_3_" fill="none" stroke="#020202" stroke-miterlimit="10" d="M309.85,41.924
					c-2.297-2.319-4.595-4.639-6.892-6.958c-0.012-0.012-0.023-0.024-0.035-0.036c-1.092-1.114-1.624-2.576-1.589-4.385l6.891,6.958
					c-0.034,1.81,0.497,3.271,1.591,4.385C309.826,41.9,309.837,41.913,309.85,41.924z"/>
			</g>
		</g>
		<g>
			<g>
				<path id="SVGID_21_" d="M302.334,49.168c-2.297-2.319-4.594-4.64-6.893-6.958c1.219,1.229,2.659,2.201,4.321,2.917l6.893,6.958
					C304.994,51.368,303.551,50.396,302.334,49.168z"/>
			</g>
			<g>
				<defs>
					<path id="SVGID_14_" d="M302.334,49.168c-2.297-2.319-4.594-4.64-6.893-6.958c1.219,1.229,2.659,2.201,4.321,2.917l6.893,6.958
						C304.994,51.368,303.551,50.396,302.334,49.168z"/>
				</defs>
				<clipPath id="SVGID_16_">
					<use xlink:href="#SVGID_14_"  overflow="visible"/>
				</clipPath>
				<g clip-path="url(#SVGID_16_)" enable-background="new    ">
					<g>
						<path d="M306.654,56.085c-0.531,0-1.069-0.104-1.583-0.327c-2.132-0.92-4.01-2.189-5.578-3.775l-6.892-6.958
							c-1.556-1.57-1.543-4.102,0.025-5.657c1.57-1.553,4.104-1.543,5.657,0.026l0,0l0.005,0.005
							c0.857,0.864,1.858,1.536,3.061,2.055c0.471,0.203,0.896,0.494,1.257,0.857l6.663,6.728c0.86,0.732,1.405,1.825,1.405,3.045
							c0,2.188-1.758,3.967-3.938,4C306.71,56.085,306.682,56.085,306.654,56.085z"/>
						<path fill="none" stroke="#020202" stroke-miterlimit="10" d="M306.654,56.085c-0.531,0-1.069-0.104-1.583-0.327
							c-2.132-0.92-4.01-2.189-5.578-3.775l-6.892-6.958c-1.556-1.57-1.543-4.102,0.025-5.657c1.57-1.553,4.104-1.543,5.657,0.026
							l0,0l0.005,0.005c0.857,0.864,1.858,1.536,3.061,2.055c0.471,0.203,0.896,0.494,1.257,0.857l6.663,6.728
							c0.86,0.732,1.405,1.825,1.405,3.045c0,2.188-1.758,3.967-3.938,4C306.71,56.085,306.682,56.085,306.654,56.085z"/>
					</g>
				</g>
			</g>
			<g>
				<path id="SVGID_4_" fill="none" stroke="#020202" stroke-miterlimit="10" d="M302.334,49.168
					c-2.297-2.319-4.594-4.64-6.893-6.958c1.219,1.229,2.659,2.201,4.321,2.917l6.893,6.958
					C304.994,51.368,303.551,50.396,302.334,49.168z"/>
			</g>
		</g>
		<g>
			<g>
				<path id="SVGID_23_" d="M321.927,14.752l6.892,6.958c1.231,1.266,2.201,2.736,2.908,4.42c0.706,1.693,1.036,3.512,0.998,5.455
					l-6.891-6.959c0.038-1.943-0.292-3.761-0.999-5.454C324.129,17.488,323.159,16.018,321.927,14.752z"/>
			</g>
			<g>
				<defs>
					<path id="SVGID_18_" d="M321.927,14.752l6.892,6.958c1.231,1.266,2.201,2.736,2.908,4.42c0.706,1.693,1.036,3.512,0.998,5.455
						l-6.891-6.959c0.038-1.943-0.292-3.761-0.999-5.454C324.129,17.488,323.159,16.018,321.927,14.752z"/>
				</defs>
				<clipPath id="SVGID_20_">
					<use xlink:href="#SVGID_18_"  overflow="visible"/>
				</clipPath>
				<g clip-path="url(#SVGID_20_)" enable-background="new    ">
					<g>
						<path d="M329.542,26.511c-1.032,0-2.063-0.396-2.843-1.185l-6.893-6.958c-0.079-0.08-0.154-0.164-0.228-0.25
							c-0.164-0.196-0.335-0.386-0.514-0.569c-1.541-1.577-1.517-4.102,0.055-5.647c1.572-1.545,4.097-1.529,5.646,0.037
							l6.892,6.958c0.251,0.256,0.481,0.507,0.704,0.761c0.738,0.726,1.196,1.736,1.196,2.854c0,2.209-1.79,4-4,4
							C329.556,26.51,329.547,26.511,329.542,26.511z"/>
						<path fill="none" stroke="#020202" stroke-miterlimit="10" d="M329.542,26.511c-1.032,0-2.063-0.396-2.843-1.185l-6.893-6.958
							c-0.079-0.08-0.154-0.164-0.228-0.25c-0.164-0.196-0.335-0.386-0.514-0.569c-1.541-1.577-1.517-4.102,0.055-5.647
							c1.572-1.545,4.097-1.529,5.646,0.037l6.892,6.958c0.251,0.256,0.481,0.507,0.704,0.761c0.738,0.726,1.196,1.736,1.196,2.854
							c0,2.209-1.79,4-4,4C329.556,26.51,329.547,26.511,329.542,26.511z"/>
					</g>
					<g>
						<path d="M332.675,34.016c-1.046,0-2.075-0.41-2.843-1.186l-6.891-6.958c-0.657-0.663-1.063-1.536-1.144-2.466
							c-0.084-0.958-0.298-1.84-0.654-2.694c-0.407-0.97-0.923-1.823-1.568-2.6c-1.37-1.646-1.201-4.08,0.385-5.52
							c1.586-1.441,4.024-1.377,5.531,0.146l6.892,6.958c0.081,0.081,0.157,0.166,0.23,0.253c1.146,1.375,2.09,2.934,2.803,4.632
							c0.612,1.466,1.014,3.019,1.196,4.627c0.054,0.26,0.081,0.53,0.081,0.806c0,2.204-1.782,3.992-3.983,4
							C332.698,34.016,332.688,34.016,332.675,34.016z"/>
						<path fill="none" stroke="#020202" stroke-miterlimit="10" d="M332.675,34.016c-1.046,0-2.075-0.41-2.843-1.186l-6.891-6.958
							c-0.657-0.663-1.063-1.536-1.144-2.466c-0.084-0.958-0.298-1.84-0.654-2.694c-0.407-0.97-0.923-1.823-1.568-2.6
							c-1.37-1.646-1.201-4.08,0.385-5.52c1.586-1.441,4.024-1.377,5.531,0.146l6.892,6.958c0.081,0.081,0.157,0.166,0.23,0.253
							c1.146,1.375,2.09,2.934,2.803,4.632c0.612,1.466,1.014,3.019,1.196,4.627c0.054,0.26,0.081,0.53,0.081,0.806
							c0,2.204-1.782,3.992-3.983,4C332.698,34.016,332.688,34.016,332.675,34.016z"/>
					</g>
					<g>
						<path d="M332.726,35.585c-1.048,0-2.076-0.412-2.844-1.186l-6.891-6.959c-0.761-0.769-1.178-1.813-1.156-2.895
							c0.008-0.384-0.005-0.768-0.037-1.14c-0.146-1.679,0.773-3.271,2.303-3.979c1.532-0.708,3.34-0.382,4.523,0.815l6.891,6.958
							c0.657,0.663,1.063,1.536,1.144,2.466c0.058,0.656,0.08,1.329,0.065,1.999c-0.031,1.606-1.021,3.038-2.515,3.634
							C333.728,35.492,333.225,35.585,332.726,35.585z"/>
						<path fill="none" stroke="#020202" stroke-miterlimit="10" d="M332.726,35.585c-1.048,0-2.076-0.412-2.844-1.186l-6.891-6.959
							c-0.761-0.769-1.178-1.813-1.156-2.895c0.008-0.384-0.005-0.768-0.037-1.14c-0.146-1.679,0.773-3.271,2.303-3.979
							c1.532-0.708,3.34-0.382,4.523,0.815l6.891,6.958c0.657,0.663,1.063,1.536,1.144,2.466c0.058,0.656,0.08,1.329,0.065,1.999
							c-0.031,1.606-1.021,3.038-2.515,3.634C333.728,35.492,333.225,35.585,332.726,35.585z"/>
					</g>
				</g>
			</g>
			<g>
				<path id="SVGID_5_" fill="none" stroke="#020202" stroke-miterlimit="10" d="M321.927,14.752l6.892,6.958
					c1.231,1.266,2.201,2.736,2.908,4.42c0.706,1.693,1.036,3.512,0.998,5.455l-6.891-6.959c0.038-1.943-0.292-3.761-0.999-5.454
					C324.129,17.488,323.159,16.018,321.927,14.752z"/>
			</g>
		</g>
		<g>
			<g>
				<path id="SVGID_25_" d="M305.233,46.23l6.893,6.959c-1.953,0-3.772-0.365-5.47-1.104l-6.893-6.958
					C301.462,45.865,303.281,46.23,305.233,46.23z"/>
			</g>
			<g>
				<defs>
					<path id="SVGID_22_" d="M305.233,46.23l6.893,6.959c-1.953,0-3.772-0.365-5.47-1.104l-6.893-6.958
						C301.462,45.865,303.281,46.23,305.233,46.23z"/>
				</defs>
				<clipPath id="SVGID_24_">
					<use xlink:href="#SVGID_22_"  overflow="visible"/>
				</clipPath>
				<g clip-path="url(#SVGID_24_)" enable-background="new    ">
					<g>
						<path d="M312.146,57.189c-0.005,0-0.013,0-0.021,0c-2.5,0-4.877-0.483-7.067-1.438c-0.465-0.202-0.888-0.491-1.243-0.853
							l-6.893-6.958c-1.35-1.363-1.542-3.492-0.459-5.074s3.137-2.174,4.896-1.409c1.192,0.519,2.46,0.771,3.873,0.771
							c1.066,0,2.091,0.427,2.842,1.185l6.665,6.729c0.859,0.732,1.404,1.824,1.404,3.045
							C316.146,55.398,314.355,57.189,312.146,57.189z"/>
						<path fill="none" stroke="#020202" stroke-miterlimit="10" d="M312.146,57.189c-0.005,0-0.013,0-0.021,0
							c-2.5,0-4.877-0.483-7.067-1.438c-0.465-0.202-0.888-0.491-1.243-0.853l-6.893-6.958c-1.35-1.363-1.542-3.492-0.459-5.074
							s3.137-2.174,4.896-1.409c1.192,0.519,2.46,0.771,3.873,0.771c1.066,0,2.091,0.427,2.842,1.185l6.665,6.729
							c0.859,0.732,1.404,1.824,1.404,3.045C316.146,55.398,314.355,57.189,312.146,57.189z"/>
					</g>
				</g>
			</g>
			<g>
				<path id="SVGID_6_" fill="none" stroke="#020202" stroke-miterlimit="10" d="M305.233,46.23l6.893,6.959
					c-1.953,0-3.772-0.365-5.47-1.104l-6.893-6.958C301.462,45.865,303.281,46.23,305.233,46.23z"/>
			</g>
		</g>
		<g>
			<path d="M312.125,57.189c-1.067,0-2.091-0.428-2.842-1.187l-6.893-6.959c-1.137-1.147-1.472-2.864-0.85-4.354
				c0.621-1.49,2.077-2.46,3.691-2.46h6.132c1.066,0,2.091,0.427,2.843,1.186l6.891,6.959c1.137,1.146,1.472,2.864,0.85,4.354
				c-0.621,1.489-2.077,2.461-3.691,2.461H312.125z"/>
			<path fill="none" stroke="#020202" stroke-miterlimit="10" d="M312.125,57.189c-1.067,0-2.091-0.428-2.842-1.187l-6.893-6.959
				c-1.137-1.147-1.472-2.864-0.85-4.354c0.621-1.49,2.077-2.46,3.691-2.46h6.132c1.066,0,2.091,0.427,2.843,1.186l6.891,6.959
				c1.137,1.146,1.472,2.864,0.85,4.354c-0.621,1.489-2.077,2.461-3.691,2.461H312.125z"/>
		</g>
		<g>
			<path d="M332.578,43.144c-1.048,0-2.077-0.412-2.843-1.186L322.845,35c-0.761-0.768-1.179-1.812-1.157-2.893l0.147-7.558
				c0.031-1.607,1.021-3.039,2.514-3.636c0.481-0.193,0.985-0.286,1.484-0.286c1.048,0,2.077,0.412,2.844,1.186l6.892,6.959
				c0.76,0.768,1.178,1.812,1.155,2.893l-0.146,7.557c-0.031,1.607-1.021,3.039-2.515,3.636
				C333.581,43.05,333.077,43.144,332.578,43.144z"/>
			<path fill="none" stroke="#020202" stroke-miterlimit="10" d="M332.578,43.144c-1.048,0-2.077-0.412-2.843-1.186L322.845,35
				c-0.761-0.768-1.179-1.812-1.157-2.893l0.147-7.558c0.031-1.607,1.021-3.039,2.514-3.636c0.481-0.193,0.985-0.286,1.484-0.286
				c1.048,0,2.077,0.412,2.844,1.186l6.892,6.959c0.76,0.768,1.178,1.812,1.155,2.893l-0.146,7.557
				c-0.031,1.607-1.021,3.039-2.515,3.636C333.581,43.05,333.077,43.144,332.578,43.144z"/>
		</g>
		<g>
			<path d="M305.233,50.23c-2.498,0-4.874-0.483-7.064-1.437c-2.167-0.935-4.078-2.24-5.668-3.875
				c-1.575-1.606-2.836-3.535-3.737-5.721c-0.91-2.207-1.349-4.594-1.3-7.093l0.146-7.558c0.05-2.493,0.58-4.862,1.576-7.041
				c0.967-2.112,2.279-3.996,3.904-5.601c1.639-1.607,3.569-2.891,5.751-3.826c2.243-0.95,4.623-1.429,7.089-1.429h6.131
				c2.473,0,4.844,0.481,7.051,1.43c2.165,0.943,4.063,2.24,5.663,3.86c1.6,1.641,2.854,3.547,3.75,5.683
				c0.919,2.199,1.357,4.579,1.31,7.079l-0.147,7.558c-0.049,2.494-0.575,4.87-1.566,7.061c-0.976,2.158-2.296,4.064-3.926,5.663
				c-1.646,1.615-3.582,2.901-5.753,3.822c-2.198,0.942-4.583,1.42-7.074,1.42h-6.134V50.23z M307.596,24.208
				c-0.927,0-1.32,0.271-1.585,0.535c-0.268,0.268-0.576,0.7-0.596,1.674l-0.082,4.207c-0.02,1.031,0.308,1.365,0.447,1.508
				c0.154,0.16,0.461,0.474,1.495,0.474h2.425c0.951,0,1.348-0.265,1.608-0.523c0.275-0.27,0.553-0.667,0.571-1.617l0.082-4.205
				c0.021-1.053-0.33-1.419-0.479-1.575c-0.148-0.154-0.458-0.478-1.464-0.478H307.596z"/>
			<path fill="none" stroke="#020202" stroke-miterlimit="10" d="M305.233,50.23c-2.498,0-4.874-0.483-7.064-1.437
				c-2.167-0.935-4.078-2.24-5.668-3.875c-1.575-1.606-2.836-3.535-3.737-5.721c-0.91-2.207-1.349-4.594-1.3-7.093l0.146-7.558
				c0.05-2.493,0.58-4.862,1.576-7.041c0.967-2.112,2.279-3.996,3.904-5.601c1.639-1.607,3.569-2.891,5.751-3.826
				c2.243-0.95,4.623-1.429,7.089-1.429h6.131c2.473,0,4.844,0.481,7.051,1.43c2.165,0.943,4.063,2.24,5.663,3.86
				c1.6,1.641,2.854,3.547,3.75,5.683c0.919,2.199,1.357,4.579,1.31,7.079l-0.147,7.558c-0.049,2.494-0.575,4.87-1.566,7.061
				c-0.976,2.158-2.296,4.064-3.926,5.663c-1.646,1.615-3.582,2.901-5.753,3.822c-2.198,0.942-4.583,1.42-7.074,1.42h-6.134V50.23z
				 M307.596,24.208c-0.927,0-1.32,0.271-1.585,0.535c-0.268,0.268-0.576,0.7-0.596,1.674l-0.082,4.207
				c-0.02,1.031,0.308,1.365,0.447,1.508c0.154,0.16,0.461,0.474,1.495,0.474h2.425c0.951,0,1.348-0.265,1.608-0.523
				c0.275-0.27,0.553-0.667,0.571-1.617l0.082-4.205c0.021-1.053-0.33-1.419-0.479-1.575c-0.148-0.154-0.458-0.478-1.464-0.478
				H307.596z"/>
		</g>
		<g>
			<g>
				<path id="SVGID_27_" d="M325.688,32.186l6.892,6.958c-0.038,1.952-0.439,3.778-1.213,5.489
					c-0.774,1.711-1.801,3.199-3.082,4.457c-1.29,1.266-2.789,2.264-4.517,2.993c-1.726,0.74-3.561,1.104-5.512,1.104l-6.891-6.958
					c1.95,0,3.785-0.365,5.512-1.104c1.727-0.73,3.225-1.729,4.515-2.995c1.281-1.257,2.311-2.745,3.082-4.457
					C325.247,35.963,325.648,34.136,325.688,32.186z"/>
			</g>
			<g>
				<defs>
					<path id="SVGID_26_" d="M325.688,32.186l6.892,6.958c-0.038,1.952-0.439,3.778-1.213,5.489
						c-0.774,1.711-1.801,3.199-3.082,4.457c-1.29,1.266-2.789,2.264-4.517,2.993c-1.726,0.74-3.561,1.104-5.512,1.104l-6.891-6.958
						c1.95,0,3.785-0.365,5.512-1.104c1.727-0.73,3.225-1.729,4.515-2.995c1.281-1.257,2.311-2.745,3.082-4.457
						C325.247,35.963,325.648,34.136,325.688,32.186z"/>
				</defs>
				<clipPath id="SVGID_28_">
					<use xlink:href="#SVGID_26_"  overflow="visible"/>
				</clipPath>
				<g clip-path="url(#SVGID_28_)" enable-background="new    ">
					<g>
						<path d="M332.51,44.327c-1.05,0-2.079-0.414-2.844-1.186l-6.891-6.959c-0.834-0.843-1.252-2.014-1.14-3.195
							c0.027-0.289,0.045-0.583,0.052-0.88c0.03-1.607,1.021-3.039,2.514-3.636c1.493-0.597,3.197-0.242,4.327,0.899l6.892,6.958
							c0.764,0.771,1.181,1.818,1.157,2.903c-0.011,0.501-0.039,0.996-0.087,1.485c-0.151,1.543-1.182,2.86-2.643,3.38
							C333.411,44.251,332.958,44.327,332.51,44.327z"/>
						<path fill="none" stroke="#020202" stroke-miterlimit="10" d="M332.51,44.327c-1.05,0-2.079-0.414-2.844-1.186l-6.891-6.959
							c-0.834-0.843-1.252-2.014-1.14-3.195c0.027-0.289,0.045-0.583,0.052-0.88c0.03-1.607,1.021-3.039,2.514-3.636
							c1.493-0.597,3.197-0.242,4.327,0.899l6.892,6.958c0.764,0.771,1.181,1.818,1.157,2.903c-0.011,0.501-0.039,0.996-0.087,1.485
							c-0.151,1.543-1.182,2.86-2.643,3.38C333.411,44.251,332.958,44.327,332.51,44.327z"/>
					</g>
					<g>
						<path d="M332.166,46.321c-1.053,0-2.08-0.417-2.842-1.185l-6.893-6.958c-0.982-0.993-1.378-2.427-1.039-3.783
							c0.112-0.452,0.194-0.931,0.243-1.421c0.152-1.542,1.184-2.857,2.645-3.375c1.462-0.517,3.09-0.145,4.18,0.956l6.891,6.959
							c0.837,0.845,1.255,2.019,1.14,3.203c-0.085,0.869-0.233,1.733-0.441,2.569c-0.348,1.403-1.427,2.509-2.82,2.893
							C332.877,46.274,332.521,46.321,332.166,46.321z"/>
						<path fill="none" stroke="#020202" stroke-miterlimit="10" d="M332.166,46.321c-1.053,0-2.08-0.417-2.842-1.185l-6.893-6.958
							c-0.982-0.993-1.378-2.427-1.039-3.783c0.112-0.452,0.194-0.931,0.243-1.421c0.152-1.542,1.184-2.857,2.645-3.375
							c1.462-0.517,3.09-0.145,4.18,0.956l6.891,6.959c0.837,0.845,1.255,2.019,1.14,3.203c-0.085,0.869-0.233,1.733-0.441,2.569
							c-0.348,1.403-1.427,2.509-2.82,2.893C332.877,46.274,332.521,46.321,332.166,46.321z"/>
					</g>
					<g>
						<path d="M331.63,48.006c-1.057,0-2.083-0.419-2.842-1.186l-6.891-6.958c-1.114-1.124-1.46-2.799-0.884-4.272
							c0.15-0.385,0.278-0.786,0.379-1.191c0.349-1.403,1.428-2.509,2.82-2.893c1.395-0.382,2.886,0.015,3.903,1.042l6.892,6.958
							c0.982,0.992,1.377,2.424,1.04,3.779c-0.185,0.745-0.419,1.48-0.696,2.186c-0.494,1.258-1.592,2.182-2.917,2.454
							C332.168,47.979,331.897,48.006,331.63,48.006z"/>
						<path fill="none" stroke="#020202" stroke-miterlimit="10" d="M331.63,48.006c-1.057,0-2.083-0.419-2.842-1.186l-6.891-6.958
							c-1.114-1.124-1.46-2.799-0.884-4.272c0.15-0.385,0.278-0.786,0.379-1.191c0.349-1.403,1.428-2.509,2.82-2.893
							c1.395-0.382,2.886,0.015,3.903,1.042l6.892,6.958c0.982,0.992,1.377,2.424,1.04,3.779c-0.185,0.745-0.419,1.48-0.696,2.186
							c-0.494,1.258-1.592,2.182-2.917,2.454C332.168,47.979,331.897,48.006,331.63,48.006z"/>
					</g>
					<g>
						<path d="M330.803,49.754c-1.061,0-2.086-0.422-2.842-1.186l-6.891-6.958c-1.246-1.258-1.518-3.184-0.666-4.736
							c0.148-0.272,0.291-0.554,0.422-0.844c0.074-0.162,0.135-0.307,0.191-0.452c0.497-1.256,1.595-2.177,2.917-2.448
							c1.328-0.271,2.695,0.145,3.646,1.104l6.891,6.959c1.118,1.129,1.462,2.814,0.875,4.291c-0.105,0.267-0.219,0.534-0.339,0.798
							c-0.221,0.488-0.456,0.96-0.71,1.417c-0.612,1.099-1.705,1.846-2.952,2.017C331.165,49.742,330.983,49.754,330.803,49.754z"/>
						<path fill="none" stroke="#020202" stroke-miterlimit="10" d="M330.803,49.754c-1.061,0-2.086-0.422-2.842-1.186l-6.891-6.958
							c-1.246-1.258-1.518-3.184-0.666-4.736c0.148-0.272,0.291-0.554,0.422-0.844c0.074-0.162,0.135-0.307,0.191-0.452
							c0.497-1.256,1.595-2.177,2.917-2.448c1.328-0.271,2.695,0.145,3.646,1.104l6.891,6.959c1.118,1.129,1.462,2.814,0.875,4.291
							c-0.105,0.267-0.219,0.534-0.339,0.798c-0.221,0.488-0.456,0.96-0.71,1.417c-0.612,1.099-1.705,1.846-2.952,2.017
							C331.165,49.742,330.983,49.754,330.803,49.754z"/>
					</g>
					<g>
						<path d="M329.711,51.455c-1.063,0-2.089-0.424-2.842-1.186l-6.892-6.958c-1.393-1.406-1.548-3.618-0.365-5.204
							c0.289-0.388,0.558-0.805,0.798-1.241c0.607-1.104,1.702-1.857,2.951-2.031c1.252-0.171,2.507,0.252,3.395,1.147l6.891,6.959
							c1.248,1.261,1.518,3.193,0.66,4.746c-0.418,0.757-0.886,1.484-1.39,2.161c-0.697,0.934-1.766,1.517-2.928,1.598
							C329.896,51.452,329.804,51.455,329.711,51.455z"/>
						<path fill="none" stroke="#020202" stroke-miterlimit="10" d="M329.711,51.455c-1.063,0-2.089-0.424-2.842-1.186l-6.892-6.958
							c-1.393-1.406-1.548-3.618-0.365-5.204c0.289-0.388,0.558-0.805,0.798-1.241c0.607-1.104,1.702-1.857,2.951-2.031
							c1.252-0.171,2.507,0.252,3.395,1.147l6.891,6.959c1.248,1.261,1.518,3.193,0.66,4.746c-0.418,0.757-0.886,1.484-1.39,2.161
							c-0.697,0.934-1.766,1.517-2.928,1.598C329.896,51.452,329.804,51.455,329.711,51.455z"/>
					</g>
					<g>
						<path d="M328.186,53.184c-1.03,0-2.062-0.396-2.843-1.186l-6.891-6.959c-0.751-0.759-1.168-1.787-1.157-2.855
							s0.448-2.087,1.216-2.831l0.083-0.08h-0.001c0.368-0.36,0.712-0.753,1.021-1.169c0.695-0.933,1.765-1.517,2.927-1.598
							c1.171-0.076,2.301,0.348,3.121,1.175l6.892,6.958c1.395,1.407,1.548,3.622,0.362,5.208c-0.558,0.747-1.174,1.452-1.831,2.098
							l-0.157,0.15C330.156,52.822,329.17,53.184,328.186,53.184z"/>
						<path fill="none" stroke="#020202" stroke-miterlimit="10" d="M328.186,53.184c-1.03,0-2.062-0.396-2.843-1.186l-6.891-6.959
							c-0.751-0.759-1.168-1.787-1.157-2.855s0.448-2.087,1.216-2.831l0.083-0.08h-0.001c0.368-0.36,0.712-0.753,1.021-1.169
							c0.695-0.933,1.765-1.517,2.927-1.598c1.171-0.076,2.301,0.348,3.121,1.175l6.892,6.958c1.395,1.407,1.548,3.622,0.362,5.208
							c-0.558,0.747-1.174,1.452-1.831,2.098l-0.157,0.15C330.156,52.822,329.17,53.184,328.186,53.184z"/>
					</g>
					<g>
						<path d="M318.256,57.189c-1.066,0-2.091-0.428-2.843-1.187l-6.891-6.959c-1.137-1.147-1.472-2.864-0.85-4.354
							c0.621-1.49,2.077-2.46,3.691-2.46c1.421,0,2.709-0.255,3.938-0.781c1.242-0.526,2.29-1.213,3.217-2.105
							c1.573-1.517,4.075-1.489,5.616,0.067l6.892,6.959c0.753,0.761,1.17,1.792,1.156,2.862c-0.013,1.071-0.453,2.091-1.226,2.833
							c-1.62,1.562-3.515,2.808-5.633,3.703C323.132,56.709,320.747,57.189,318.256,57.189z M319.206,48.464l0.609,0.615
							c0.724-0.106,1.416-0.29,2.089-0.553l-0.981-0.992C320.37,47.873,319.798,48.183,319.206,48.464z"/>
						<path fill="none" stroke="#020202" stroke-miterlimit="10" d="M318.256,57.189c-1.066,0-2.091-0.428-2.843-1.187l-6.891-6.959
							c-1.137-1.147-1.472-2.864-0.85-4.354c0.621-1.49,2.077-2.46,3.691-2.46c1.421,0,2.709-0.255,3.938-0.781
							c1.242-0.526,2.29-1.213,3.217-2.105c1.573-1.517,4.075-1.489,5.616,0.067l6.892,6.959c0.753,0.761,1.17,1.792,1.156,2.862
							c-0.013,1.071-0.453,2.091-1.226,2.833c-1.62,1.562-3.515,2.808-5.633,3.703C323.132,56.709,320.747,57.189,318.256,57.189z
							 M319.206,48.464l0.609,0.615c0.724-0.106,1.416-0.29,2.089-0.553l-0.981-0.992C320.37,47.873,319.798,48.183,319.206,48.464z
							"/>
					</g>
				</g>
			</g>
			<g>
				<path id="SVGID_7_" fill="none" stroke="#020202" stroke-miterlimit="10" d="M325.688,32.186l6.892,6.958
					c-0.038,1.952-0.439,3.778-1.213,5.489c-0.774,1.711-1.801,3.199-3.082,4.457c-1.29,1.266-2.789,2.264-4.517,2.993
					c-1.726,0.74-3.561,1.104-5.512,1.104l-6.891-6.958c1.95,0,3.785-0.365,5.512-1.104c1.727-0.73,3.225-1.729,4.515-2.995
					c1.281-1.257,2.311-2.745,3.082-4.457C325.247,35.963,325.648,34.136,325.688,32.186z"/>
			</g>
		</g>
		<g>
			<path d="M310.893,80.148c-1.048,0-2.076-0.412-2.843-1.187l-6.892-6.959c-0.762-0.769-1.179-1.812-1.157-2.894l0.155-7.914
				c0.031-1.606,1.021-3.038,2.514-3.635c0.481-0.192,0.985-0.287,1.484-0.287c1.048,0,2.077,0.412,2.843,1.187l6.891,6.958
				c0.762,0.768,1.18,1.813,1.157,2.893l-0.154,7.916c-0.03,1.605-1.021,3.039-2.514,3.635
				C311.896,80.055,311.392,80.148,310.893,80.148z"/>
			<path fill="none" stroke="#020202" stroke-miterlimit="10" d="M310.893,80.148c-1.048,0-2.076-0.412-2.843-1.187l-6.892-6.959
				c-0.762-0.769-1.179-1.812-1.157-2.894l0.155-7.914c0.031-1.606,1.021-3.038,2.514-3.635c0.481-0.192,0.985-0.287,1.484-0.287
				c1.048,0,2.077,0.412,2.843,1.187l6.891,6.958c0.762,0.768,1.18,1.813,1.157,2.893l-0.154,7.916
				c-0.03,1.605-1.021,3.039-2.514,3.635C311.896,80.055,311.392,80.148,310.893,80.148z"/>
		</g>
		<g>
			<path d="M311.046,72.232c-1.067,0-2.091-0.426-2.842-1.186l-6.892-6.958c-1.137-1.146-1.472-2.864-0.85-4.354
				c0.621-1.488,2.077-2.459,3.691-2.459h33.938c1.067,0,2.091,0.427,2.842,1.186l6.893,6.958c1.136,1.146,1.472,2.864,0.85,4.354
				c-0.621,1.488-2.077,2.459-3.69,2.459H311.046z"/>
			<path fill="none" stroke="#020202" stroke-miterlimit="10" d="M311.046,72.232c-1.067,0-2.091-0.426-2.842-1.186l-6.892-6.958
				c-1.137-1.146-1.472-2.864-0.85-4.354c0.621-1.488,2.077-2.459,3.691-2.459h33.938c1.067,0,2.091,0.427,2.842,1.186l6.893,6.958
				c1.136,1.146,1.472,2.864,0.85,4.354c-0.621,1.488-2.077,2.459-3.69,2.459H311.046z"/>
		</g>
		<g>
			<path d="M354.714,88.845c-1.048,0-2.077-0.411-2.843-1.186l-6.891-6.957c-0.762-0.769-1.18-1.812-1.157-2.894l1.317-67.448
				c0.031-1.607,1.021-3.039,2.515-3.636c0.48-0.193,0.984-0.286,1.483-0.286c1.049,0,2.077,0.412,2.844,1.185l6.892,6.958
				c0.761,0.769,1.179,1.812,1.157,2.893l-1.319,67.447c-0.031,1.605-1.021,3.039-2.514,3.637
				C355.717,88.751,355.213,88.845,354.714,88.845z"/>
			<path fill="none" stroke="#020202" stroke-miterlimit="10" d="M354.714,88.845c-1.048,0-2.077-0.411-2.843-1.186l-6.891-6.957
				c-0.762-0.769-1.18-1.812-1.157-2.894l1.317-67.448c0.031-1.607,1.021-3.039,2.515-3.636c0.48-0.193,0.984-0.286,1.483-0.286
				c1.049,0,2.077,0.412,2.844,1.185l6.892,6.958c0.761,0.769,1.179,1.812,1.157,2.893l-1.319,67.447
				c-0.031,1.605-1.021,3.039-2.514,3.637C355.717,88.751,355.213,88.845,354.714,88.845z"/>
		</g>
		<g>
			<path d="M293.775,81.889c-1.073,0-2.104-0.433-2.854-1.199c-0.753-0.768-1.165-1.805-1.144-2.879l0.494-25.313
				c0.043-2.18,1.82-3.922,4-3.922h40.068l0.748-38.215c0.042-2.178,1.82-3.922,3.999-3.922h10.053c1.074,0,2.104,0.432,2.855,1.199
				c0.753,0.767,1.165,1.805,1.144,2.879l-1.316,67.449c-0.042,2.179-1.82,3.923-3.999,3.923H293.775L293.775,81.889z"/>
			<path fill="none" stroke="#020202" stroke-miterlimit="10" d="M293.775,81.889c-1.073,0-2.104-0.433-2.854-1.199
				c-0.753-0.768-1.165-1.805-1.144-2.879l0.494-25.313c0.043-2.18,1.82-3.922,4-3.922h40.068l0.748-38.215
				c0.042-2.178,1.82-3.922,3.999-3.922h10.053c1.074,0,2.104,0.432,2.855,1.199c0.753,0.767,1.165,1.805,1.144,2.879l-1.316,67.449
				c-0.042,2.179-1.82,3.923-3.999,3.923H293.775L293.775,81.889z"/>
		</g>
		<g>
			<path d="M300.668,88.845c-1.067,0-2.091-0.427-2.842-1.185l-6.893-6.957c-1.136-1.146-1.472-2.865-0.851-4.354
				c0.622-1.49,2.078-2.461,3.692-2.461h54.046c1.066,0,2.091,0.426,2.842,1.186l6.891,6.957c1.136,1.146,1.473,2.863,0.851,4.354
				c-0.621,1.489-2.077,2.46-3.691,2.46H300.668z"/>
			<path fill="none" stroke="#020202" stroke-miterlimit="10" d="M300.668,88.845c-1.067,0-2.091-0.427-2.842-1.185l-6.893-6.957
				c-1.136-1.146-1.472-2.865-0.851-4.354c0.622-1.49,2.078-2.461,3.692-2.461h54.046c1.066,0,2.091,0.426,2.842,1.186l6.891,6.957
				c1.136,1.146,1.473,2.863,0.851,4.354c-0.621,1.489-2.077,2.46-3.691,2.46H300.668z"/>
		</g>
	</g>
</g>
<g id="레이어_1">
	<g enable-background="new    ">
		<g>
			<polygon fill="#777424" points="82.973,18.991 89.864,25.95 69.758,25.95 62.867,18.991 			"/>
		</g>
		<g>
			<polygon fill="#7B7925" points="80.638,32.681 87.529,39.639 69.229,52.973 62.338,46.013 			"/>
		</g>
		<g>
			<polygon fill="#9C982F" points="99.63,9.437 106.521,16.396 106.334,25.95 99.443,18.991 			"/>
		</g>
		<g>
			<polygon fill="#7B7925" points="99.443,18.991 106.334,25.95 95.847,33.579 88.956,26.62 			"/>
		</g>
		<g>
			<polygon fill="#777424" points="109.597,32.11 116.487,39.068 107.718,39.068 100.827,32.11 			"/>
		</g>
		<g>
			<polygon fill="#9C982F" points="74.69,52.43 81.581,59.389 81.281,74.719 74.39,67.76 			"/>
		</g>
		<g>
			<polygon fill="#9C982F" points="99.138,34.605 106.029,41.564 105.803,53.114 98.912,46.155 			"/>
		</g>
		<g>
			<polygon fill="#777424" points="98.912,46.155 105.803,53.114 87.529,39.639 80.638,32.681 			"/>
		</g>
		<g>
			<polygon fill="#CBC73E" points="98.912,46.155 80.638,32.681 62.338,46.013 62.58,33.679 82.973,18.991 62.867,18.991 
				63.054,9.437 99.63,9.437 99.443,18.991 88.956,26.62 99.138,34.605 			"/>
		</g>
		<g>
			<polygon fill="#9C982F" points="120.1,9.081 126.991,16.039 125.672,83.486 118.781,76.529 			"/>
		</g>
		<g>
			<polygon fill="#CBC73E" points="110.047,9.081 120.1,9.081 118.781,76.529 64.736,76.529 65.208,52.43 74.69,52.43 74.39,67.76 
				108.899,67.76 109.597,32.11 100.827,32.11 101.015,22.484 109.785,22.484 			"/>
		</g>
		<g>
			<polygon fill="#777424" points="118.781,76.529 125.672,83.486 71.627,83.486 64.736,76.529 			"/>
		</g>
	</g>
	<g enable-background="new    ">
		<g>
			<polygon fill="#9C982F" points="149.737,6.656 156.627,13.615 156.519,19.176 149.628,12.218 			"/>
		</g>
		<g>
			<polygon fill="#777424" points="148.742,21.059 155.633,28.017 136.667,28.017 129.777,21.059 			"/>
		</g>
		<g>
			<polygon fill="#9C982F" points="159.539,12.218 166.43,19.176 166.265,27.589 159.374,20.63 			"/>
		</g>
		<g>
			<polygon fill="#908D2C" points="159.374,20.63 166.265,27.589 157.259,50.619 150.368,43.661 			"/>
		</g>
		<g>
			<polygon fill="#777424" points="165.776,43.232 172.667,50.191 163.898,50.191 157.007,43.232 			"/>
		</g>
		<g>
			<polygon fill="#908D2C" points="144.959,57.706 151.85,64.665 144.642,83.273 137.751,76.314 			"/>
		</g>
		<g>
			<polygon fill="#777424" points="137.751,76.314 144.642,83.273 134.089,83.273 127.198,76.314 			"/>
		</g>
		<g>
			<polygon fill="#777424" points="161.994,76.244 168.885,83.203 158.618,83.203 151.727,76.244 			"/>
		</g>
		<g>
			<polygon fill="#9F9C30" points="150.368,43.661 157.259,50.619 168.885,83.203 161.994,76.244 			"/>
		</g>
		<g>
			<polygon fill="#CBC73E" points="159.374,20.63 150.368,43.661 161.994,76.244 151.727,76.244 144.959,57.706 137.751,76.314 
				127.198,76.314 148.742,21.059 129.777,21.059 129.95,12.218 139.646,12.218 139.755,6.656 149.737,6.656 149.628,12.218 
				159.539,12.218 			"/>
		</g>
		<g>
			<polygon fill="#9C982F" points="175.714,9.081 182.604,16.039 181.285,83.486 174.395,76.529 			"/>
		</g>
		<g>
			<polygon fill="#CBC73E" points="165.959,33.892 166.444,9.081 175.714,9.081 174.395,76.529 165.125,76.529 165.776,43.232 
				157.007,43.232 157.19,33.892 			"/>
		</g>
		<g>
			<polygon fill="#777424" points="174.395,76.529 181.285,83.486 172.018,83.486 165.125,76.529 			"/>
		</g>
	</g>
	<g enable-background="new    ">
		<g>
			<polygon fill="#9C982F" points="189.902,9.081 196.793,16.039 195.475,83.486 188.583,76.529 			"/>
		</g>
		<g>
			<polygon fill="#777424" points="188.583,76.529 195.475,83.486 186.205,83.486 179.313,76.529 			"/>
		</g>
		<g>
			<polygon fill="#CBC73E" points="180.633,9.081 189.902,9.081 188.583,76.529 179.313,76.529 			"/>
		</g>
	</g>
	<g enable-background="new    ">
		<g>
			<polygon fill="#777424" points="238.189,19.062 245.082,26.021 227.186,26.021 220.294,19.062 			"/>
		</g>
		<g>
			<polygon fill="#9C982F" points="248.932,9.437 255.822,16.396 255.634,26.021 248.743,19.062 			"/>
		</g>
		<g>
			<polygon fill="#98952E" points="248.743,19.062 255.634,26.021 253.518,39.497 246.626,32.538 			"/>
		</g>
		<g>
			<polygon fill="#777424" points="254.85,42.234 261.74,49.193 252.044,49.193 245.152,42.234 			"/>
		</g>
		<g>
			<polygon fill="#98952E" points="245.152,42.234 252.044,49.193 246.816,83.132 239.926,76.173 			"/>
		</g>
		<g>
			<polygon fill="#777424" points="239.926,76.173 246.816,83.132 235.979,83.132 229.088,76.173 			"/>
		</g>
		<g>
			<polygon fill="#9C982F" points="265.266,9.081 272.156,16.039 270.837,83.486 263.945,76.529 			"/>
		</g>
		<g>
			<polygon fill="#CBC73E" points="255.039,32.538 255.498,9.081 265.266,9.081 263.945,76.529 254.18,76.529 254.85,42.234 
				245.152,42.234 239.926,76.173 229.088,76.173 238.189,19.062 220.294,19.062 220.482,9.437 248.932,9.437 248.743,19.062 
				246.626,32.538 			"/>
		</g>
		<g>
			<polygon fill="#777424" points="263.945,76.529 270.837,83.486 261.068,83.486 254.18,76.529 			"/>
		</g>
	</g>
	<g enable-background="new    ">
		<g>
			<polygon fill="#9C982F" points="281.166,9.081 288.057,16.039 286.736,83.486 279.848,76.529 			"/>
		</g>
		<g>
			<polygon fill="#777424" points="279.848,76.529 286.736,83.486 276.969,83.486 270.078,76.529 			"/>
		</g>
		<g>
			<polygon fill="#CBC73E" points="271.396,9.081 281.166,9.081 279.848,76.529 270.078,76.529 			"/>
		</g>
	</g>
	<g enable-background="new    ">
		<g enable-background="new    ">
			<g>
				<g>
					<defs>
						<path id="SVGID_29_" d="M306.713,18.848l6.891,6.958c-1.809,0-3.279,0.571-4.418,1.711c-1.137,1.14-1.727,2.62-1.762,4.42
							l-6.891-6.958c0.035-1.8,0.625-3.28,1.762-4.42S304.904,18.848,306.713,18.848z"/>
					</defs>
					<clipPath id="SVGID_30_">
						<use xlink:href="#SVGID_29_"  overflow="visible"/>
					</clipPath>
					<g clip-path="url(#SVGID_30_)" enable-background="new    ">
						<path fill="#7B7925" d="M306.713,18.848l6.891,6.958c-1.761,0-3.201,0.541-4.325,1.622l-6.893-6.958
							C303.509,19.389,304.952,18.848,306.713,18.848"/>
						<path fill="#807D27" d="M302.386,20.47l6.893,6.958c-0.03,0.029-0.063,0.059-0.093,0.089c-0.2,0.203-0.388,0.417-0.556,0.642
							l-6.891-6.958c0.168-0.225,0.353-0.439,0.556-0.642C302.325,20.529,302.355,20.5,302.386,20.47"/>
						<path fill="#858228" d="M301.739,21.202l6.891,6.958c-0.158,0.212-0.301,0.434-0.428,0.664l-6.894-6.958
							C301.438,21.635,301.581,21.414,301.739,21.202"/>
						<path fill="#89872A" d="M301.311,21.866l6.894,6.958c-0.121,0.22-0.229,0.448-0.321,0.684l-6.891-6.958
							C301.083,22.313,301.19,22.085,301.311,21.866"/>
						<path fill="#8E8B2B" d="M300.99,22.55l6.891,6.958c-0.099,0.251-0.181,0.512-0.248,0.782l-6.891-6.958
							C300.809,23.062,300.892,22.801,300.99,22.55"/>
						<path fill="#93902D" d="M300.742,23.332l6.891,6.958c-0.08,0.323-0.137,0.66-0.172,1.01l-6.891-6.958
							C300.604,23.991,300.662,23.655,300.742,23.332"/>
						<path fill="#98942E" d="M300.57,24.341l6.891,6.958c-0.02,0.208-0.032,0.421-0.037,0.639l-6.891-6.958
							C300.537,24.762,300.55,24.549,300.57,24.341"/>
					</g>
				</g>
			</g>
		</g>
		<g>
			<polygon fill="#777424" points="309.138,18.848 316.028,25.807 313.604,25.807 306.713,18.848 			"/>
		</g>
		<g>
			<polygon fill="#9C982F" points="300.533,24.98 307.424,31.938 307.342,36.145 300.451,29.187 			"/>
		</g>
		<g enable-background="new    ">
			<g>
				<g>
					<defs>
						<path id="SVGID_31_" d="M313.421,20.49c2.297,2.319,4.594,4.639,6.892,6.958c-1.084-1.094-2.512-1.642-4.282-1.642
							l-6.893-6.958C310.91,18.848,312.337,19.396,313.421,20.49z"/>
					</defs>
					<clipPath id="SVGID_32_">
						<use xlink:href="#SVGID_31_"  overflow="visible"/>
					</clipPath>
					<g clip-path="url(#SVGID_32_)" enable-background="new    ">
						<path fill="#7B7925" d="M313.421,20.49l6.892,6.958c-1.084-1.094-2.512-1.642-4.282-1.642l-6.893-6.958
							C310.91,18.848,312.337,19.396,313.421,20.49"/>
					</g>
				</g>
			</g>
		</g>
		<g enable-background="new    ">
			<g>
				<g>
					<defs>
						<path id="SVGID_33_" d="M308.967,40.566c-2.297-2.319-4.595-4.639-6.892-6.958c-0.012-0.012-0.023-0.024-0.035-0.036
							c-1.092-1.114-1.624-2.576-1.589-4.385l6.891,6.958c-0.035,1.81,0.497,3.271,1.59,4.385
							C308.943,40.542,308.954,40.554,308.967,40.566z"/>
					</defs>
					<clipPath id="SVGID_34_">
						<use xlink:href="#SVGID_33_"  overflow="visible"/>
					</clipPath>
					<g clip-path="url(#SVGID_34_)" enable-background="new    ">
						<path fill="#98942E" d="M300.451,29.187l6.891,6.958c-0.006,0.294,0.004,0.579,0.028,0.855l-6.894-6.959
							C300.455,29.766,300.445,29.48,300.451,29.187"/>
						<path fill="#9C9930" d="M300.479,30.041L307.37,37c0.11,1.257,0.531,2.323,1.261,3.199l-6.891-6.959
							C301.011,32.365,300.589,31.298,300.479,30.041"/>
						<path fill="#98942E" d="M301.74,33.24l6.891,6.959c0.095,0.114,0.195,0.224,0.301,0.332c0.014,0.012,0.023,0.024,0.035,0.036
							l-6.892-6.958c-0.014-0.012-0.023-0.024-0.035-0.036C301.935,33.464,301.835,33.354,301.74,33.24"/>
					</g>
				</g>
			</g>
		</g>
		<g enable-background="new    ">
			<g>
				<g>
					<defs>
						<path id="SVGID_35_" d="M301.451,47.81c-2.297-2.32-4.594-4.64-6.893-6.959c1.219,1.229,2.659,2.201,4.321,2.917l6.893,6.958
							C304.111,50.01,302.668,49.038,301.451,47.81z"/>
					</defs>
					<clipPath id="SVGID_36_">
						<use xlink:href="#SVGID_35_"  overflow="visible"/>
					</clipPath>
					<g clip-path="url(#SVGID_36_)" enable-background="new    ">
						<path fill="#7B7925" d="M298.882,43.768l6.893,6.958c-1.661-0.718-3.104-1.688-4.321-2.917l-6.893-6.959
							C295.777,42.079,297.221,43.051,298.882,43.768"/>
					</g>
				</g>
			</g>
		</g>
		<g enable-background="new    ">
			<g>
				<g>
					<defs>
						<path id="SVGID_37_" d="M321.044,13.394l6.891,6.958c1.232,1.266,2.202,2.736,2.909,4.42c0.706,1.693,1.036,3.512,0.998,5.455
							l-6.891-6.959c0.038-1.943-0.292-3.761-0.999-5.454C323.246,16.13,322.276,14.659,321.044,13.394z"/>
					</defs>
					<clipPath id="SVGID_38_">
						<use xlink:href="#SVGID_37_"  overflow="visible"/>
					</clipPath>
					<g clip-path="url(#SVGID_38_)" enable-background="new    ">
						<path fill="#98942E" d="M321.044,13.394l6.891,6.958c0.253,0.259,0.493,0.525,0.725,0.801l-6.893-6.958
							C321.536,13.919,321.296,13.652,321.044,13.394"/>
						<path fill="#9C9930" d="M321.767,14.195l6.893,6.958c0.896,1.074,1.624,2.279,2.187,3.619
							c0.515,1.229,0.827,2.524,0.946,3.885l-6.891-6.958c-0.119-1.361-0.436-2.656-0.947-3.885
							C323.39,16.474,322.661,15.269,321.767,14.195"/>
						<path fill="#98942E" d="M324.899,21.699l6.891,6.958c0.045,0.514,0.063,1.037,0.052,1.57l-6.891-6.959
							C324.962,22.736,324.944,22.213,324.899,21.699"/>
					</g>
				</g>
			</g>
		</g>
		<g enable-background="new    ">
			<g>
				<g>
					<defs>
						<path id="SVGID_39_" d="M304.351,44.872l6.894,6.959c-1.953,0-3.772-0.365-5.47-1.104l-6.893-6.958
							C300.579,44.507,302.398,44.872,304.351,44.872z"/>
					</defs>
					<clipPath id="SVGID_40_">
						<use xlink:href="#SVGID_39_"  overflow="visible"/>
					</clipPath>
					<g clip-path="url(#SVGID_40_)" enable-background="new    ">
						<path fill="#7B7925" d="M304.351,44.872l6.894,6.959c-1.953,0-3.772-0.365-5.47-1.104l-6.893-6.958
							C300.579,44.507,302.398,44.872,304.351,44.872"/>
					</g>
				</g>
			</g>
		</g>
		<g>
			<polygon fill="#777424" points="310.482,44.872 317.373,51.831 311.242,51.831 304.351,44.872 			"/>
		</g>
		<g>
			<polygon fill="#9C982F" points="324.951,23.269 331.842,30.228 331.694,37.785 324.804,30.827 			"/>
		</g>
		<g>
			<path fill="#CBC73E" d="M298.882,43.768c-1.696-0.731-3.165-1.729-4.396-2.995c-1.232-1.257-2.201-2.745-2.907-4.457
				c-0.706-1.711-1.036-3.538-0.998-5.49l0.146-7.558c0.039-1.943,0.439-3.761,1.215-5.454c0.771-1.685,1.799-3.155,3.078-4.42
				c1.281-1.257,2.789-2.255,4.517-2.995c1.726-0.731,3.561-1.105,5.513-1.105h6.131c1.952,0,3.772,0.375,5.471,1.105
				c1.695,0.739,3.155,1.738,4.396,2.995c1.232,1.265,2.202,2.736,2.908,4.42c0.707,1.693,1.037,3.511,0.999,5.454l-0.147,7.558
				c-0.038,1.952-0.438,3.779-1.213,5.49c-0.771,1.711-1.801,3.2-3.082,4.457c-1.29,1.265-2.789,2.263-4.515,2.995
				c-1.728,0.74-3.563,1.104-5.512,1.104h-6.134C302.398,44.872,300.579,44.507,298.882,43.768z M300.533,24.98l-0.082,4.207
				c-0.035,1.81,0.497,3.271,1.589,4.385c1.093,1.123,2.544,1.675,4.353,1.675h2.426c1.81,0,3.279-0.553,4.418-1.675
				c1.136-1.114,1.726-2.576,1.762-4.385l0.082-4.207c0.035-1.8-0.498-3.28-1.59-4.42c-1.094-1.14-2.542-1.711-4.353-1.711h-2.425
				c-1.809,0-3.281,0.571-4.418,1.711S300.568,23.18,300.533,24.98"/>
		</g>
		<g enable-background="new    ">
			<g>
				<g>
					<defs>
						<path id="SVGID_41_" d="M324.804,30.827l6.893,6.958c-0.038,1.952-0.439,3.779-1.213,5.49
							c-0.774,1.711-1.802,3.199-3.082,4.456c-1.29,1.266-2.789,2.264-4.517,2.994c-1.726,0.74-3.561,1.105-5.512,1.105
							l-6.891-6.959c1.949,0,3.784-0.365,5.512-1.104c1.726-0.731,3.225-1.729,4.515-2.995c1.281-1.257,2.311-2.745,3.082-4.457
							C324.364,34.605,324.766,32.778,324.804,30.827z"/>
					</defs>
					<clipPath id="SVGID_42_">
						<use xlink:href="#SVGID_41_"  overflow="visible"/>
					</clipPath>
					<g clip-path="url(#SVGID_42_)" enable-background="new    ">
						<path fill="#98942E" d="M324.804,30.827l6.893,6.958c-0.01,0.4-0.031,0.794-0.069,1.184l-6.891-6.959
							C324.772,31.621,324.796,31.226,324.804,30.827"/>
						<path fill="#93902D" d="M324.734,32.01l6.891,6.959c-0.066,0.68-0.181,1.345-0.342,1.994l-6.893-6.958
							C324.554,33.355,324.667,32.69,324.734,32.01"/>
						<path fill="#8E8B2B" d="M324.393,34.004l6.893,6.958c-0.144,0.574-0.321,1.136-0.537,1.686l-6.891-6.959
							C324.071,35.14,324.25,34.578,324.393,34.004"/>
						<path fill="#89872A" d="M323.855,35.69l6.891,6.959c-0.083,0.21-0.171,0.419-0.265,0.626c-0.176,0.385-0.36,0.759-0.563,1.121
							l-6.891-6.959c0.197-0.362,0.387-0.736,0.561-1.121C323.685,36.109,323.772,35.9,323.855,35.69"/>
						<path fill="#858228" d="M323.03,37.438l6.891,6.959c-0.329,0.597-0.693,1.164-1.093,1.699l-6.891-6.958
							C322.337,38.602,322.701,38.035,323.03,37.438"/>
						<path fill="#807D27" d="M321.938,39.137l6.893,6.958c-0.437,0.583-0.911,1.128-1.429,1.636
							c-0.032,0.032-0.064,0.063-0.099,0.094l-6.891-6.959c0.032-0.031,0.063-0.063,0.097-0.094
							C321.026,40.265,321.503,39.72,321.938,39.137"/>
						<path fill="#7B7925" d="M320.412,40.867l6.891,6.959c-1.268,1.221-2.733,2.188-4.418,2.9
							c-1.726,0.738-3.561,1.104-5.512,1.104l-6.891-6.959c1.949,0,3.784-0.365,5.512-1.104
							C317.677,43.055,319.145,42.088,320.412,40.867"/>
					</g>
				</g>
			</g>
		</g>
		<g>
			<polygon fill="#9C982F" points="303.272,59.917 310.163,66.875 310.009,74.79 303.117,67.831 			"/>
		</g>
		<g>
			<polygon fill="#777424" points="337.21,59.917 344.102,66.875 310.163,66.875 303.272,59.917 			"/>
		</g>
		<g>
			<polygon fill="#9C982F" points="348.258,9.081 355.149,16.039 353.83,83.486 346.939,76.529 			"/>
		</g>
		<g>
			<path fill="#CBC73E" d="M338.205,9.081h10.053L346.94,76.53h-54.048l0.496-25.313h43.991L338.205,9.081z M337.056,67.831
				l0.154-7.914h-33.938l-0.155,7.914H337.056"/>
		</g>
		<g>
			<polygon fill="#777424" points="346.939,76.529 353.83,83.486 299.785,83.486 292.895,76.529 			"/>
		</g>
	</g>
</g>
</svg>
