<?xml version="1.0" encoding="utf-8"?>
<!-- Generator: Adobe Illustrator 16.0.0, SVG Export Plug-In . SVG Version: 6.00 Build 0)  -->
<!DOCTYPE svg PUBLIC "-//W3C//DTD SVG 1.1//EN" "http://www.w3.org/Graphics/SVG/1.1/DTD/svg11.dtd">
<svg version="1.1" id="레이어_2" xmlns="http://www.w3.org/2000/svg" xmlns:xlink="http://www.w3.org/1999/xlink" x="0px"
	 y="0px" width="598.189px" height="350.26px" viewBox="0 0 598.189 350.26" enable-background="new 0 0 598.189 350.26"
	 xml:space="preserve">
<path fill="none" stroke="#F4F4F4" stroke-width="2" stroke-miterlimit="10" d="M442.836,183.185
	c0,74.695-60.554,135.25-135.25,135.25s-135.25-60.555-135.25-135.25c0-74.697,60.554-135.25,135.25-135.25
	S442.836,108.488,442.836,183.185z M307.586,57.331c-69.507,0-125.854,56.347-125.854,125.854s56.347,125.854,125.854,125.854
	c69.506,0,125.854-56.347,125.854-125.854S377.092,57.331,307.586,57.331z M274.953,138.048l-72.969,10.603l52.801,51.469
	l-12.465,72.674l65.265-34.313l65.266,34.313l-12.464-72.674l52.801-51.469l-72.97-10.603l-32.633-66.121L274.953,138.048z"/>
</svg>
