<?xml version="1.0" encoding="utf-8"?>
<!-- Generator: Adobe Illustrator 16.0.0, SVG Export Plug-In . SVG Version: 6.00 Build 0)  -->
<!DOCTYPE svg PUBLIC "-//W3C//DTD SVG 1.1//EN" "http://www.w3.org/Graphics/SVG/1.1/DTD/svg11.dtd">
<svg version="1.1" id="레이어_1" xmlns="http://www.w3.org/2000/svg" xmlns:xlink="http://www.w3.org/1999/xlink" x="0px"
	 y="0px" width="352.073px" height="74.839px" viewBox="102.162 5.513 352.073 74.839"
	 enable-background="new 102.162 5.513 352.073 74.839" xml:space="preserve">
<g id="레이어_5">
	<path fill="#353535" d="M107.877,14.329l21.54,65.376h10.204l-21.682-65.376H107.877z M177.164,70.776v8.929h-31.752v-8.929
		H177.164z M249.397,39.241v7.56h-61.92v-7.56H249.397z M216.494,20.88h-25.128V12.6h54.144v8.28l-13.464,3.888l13.464,3.744v7.92
		l-27.072-7.776l-27.072,7.776v-8.496L216.494,20.88z M245.222,68.978h-44.208v3.455h44.208v7.92h-53.568V61.345h44.208v-3.313
		h-44.208v-7.703h53.568V68.978L245.222,68.978z M277.909,22.249h-21.312v-9.648h32.616v9.648l-9.72,57.744h-11.088L277.909,22.249z
		 M305.772,27.577V12.241h10.224v68.111h-10.224V59.474h-13.536v-9.793h13.536V37.369h-13.536v-9.792H305.772z M351.564,15.48
		h12.813v9.432l-8.639,5.832l8.639,6.768V48.96L347.82,36.073l-20.306,13.607V38.232l20.089-13.32h-20.089V15.48h13.32V9.792h10.729
		V15.48L351.564,15.48z M357.035,61.2h-26.496v-8.279h42.266v-40.68h10.367v15.912h7.344v8.64h-7.344V61.2l-14.111,5.111
		l14.398,4.681v9.36l-26.207-9.721l-26.713,9.721v-9.576L357.035,61.2z M420.684,22.249h-25.85v-9.648h37.152v9.648l-8.279,57.672
		h-11.088L420.684,22.249z M454.234,80.353h-11.088V12.241h11.088V80.353z"/>
	<path fill="#FCD200" stroke="#004099" stroke-width="2" stroke-miterlimit="10" d="M103.544,11.049l21.54,65.375h10.204
		l-21.682-65.375H103.544z M172.831,67.497v8.928h-31.752v-8.928H172.831z M245.064,35.961v7.56h-61.92v-7.56H245.064z
		 M212.161,17.6h-25.128V9.321h54.144V17.6l-13.464,3.889l13.464,3.744v7.92l-27.072-7.775l-27.072,7.775v-8.496L212.161,17.6z
		 M240.889,65.696h-44.208v3.457h44.208v7.92H187.32V58.065h44.208v-3.313H187.32V47.05h53.568L240.889,65.696L240.889,65.696z
		 M273.576,18.969h-21.312V9.321h32.616v9.648l-9.72,57.743h-11.088L273.576,18.969z M301.439,24.297V8.961h10.224v68.112h-10.224
		V56.192h-13.537V46.4h13.537V34.088h-13.537v-9.791H301.439z M347.231,12.201h12.813v9.433l-8.639,5.832l8.639,6.768V45.68
		l-16.559-12.887L323.181,46.4V34.953l20.088-13.319h-20.088v-9.433h13.32V6.513h10.729L347.231,12.201L347.231,12.201z
		 M352.702,57.921h-26.496v-8.279h42.266V8.961h10.367v15.912h7.344v8.64h-7.344v24.409l-14.111,5.111l14.398,4.68v9.361
		l-26.207-9.722l-26.713,9.722v-9.576L352.702,57.921z M416.351,18.969h-25.85V9.321h37.152v9.648l-8.279,57.673h-11.088
		L416.351,18.969z M449.901,77.073h-11.089V8.961h11.089V77.073z"/>
</g>
</svg>
