<?xml version="1.0" encoding="utf-8"?>
<!-- Generator: Adobe Illustrator 16.0.0, SVG Export Plug-In . SVG Version: 6.00 Build 0)  -->
<!DOCTYPE svg PUBLIC "-//W3C//DTD SVG 1.1//EN" "http://www.w3.org/Graphics/SVG/1.1/DTD/svg11.dtd">
<svg version="1.1" xmlns="http://www.w3.org/2000/svg" xmlns:xlink="http://www.w3.org/1999/xlink" x="0px" y="0px" width="416px"
	 height="98px" viewBox="0 0 416 98" enable-background="new 0 0 416 98" xml:space="preserve">
<g id="레이어_2">
	<g>
		<path d="M83.153,29.595c-1.068,0-2.091-0.427-2.842-1.186L73.42,21.45c-1.136-1.147-1.471-2.864-0.85-4.354
			c0.622-1.49,2.078-2.46,3.692-2.46h24.884c1.068,0,2.091,0.427,2.842,1.186l6.891,6.959c1.136,1.147,1.471,2.864,0.85,4.354
			c-0.622,1.49-2.078,2.46-3.692,2.46H83.153z"/>
		<polygon points="101.146,18.636 108.037,25.595 83.153,25.595 76.262,18.636 		"/>
		<path d="M82.853,44.996c-1.053,0-2.081-0.416-2.843-1.186l-6.891-6.959c-0.995-1.004-1.385-2.459-1.027-3.828
			c0.358-1.368,1.412-2.445,2.771-2.833l26.959-7.7c0.362-0.104,0.732-0.154,1.098-0.154c1.053,0,2.081,0.416,2.843,1.185
			l6.891,6.958c0.995,1.005,1.385,2.46,1.027,3.828s-1.412,2.445-2.771,2.833l-26.959,7.701
			C83.588,44.946,83.219,44.996,82.853,44.996z"/>
		<polygon points="102.92,26.337 109.811,33.295 82.852,40.996 75.961,34.037 		"/>
		<path d="M136.771,29.595c-1.048,0-2.077-0.412-2.843-1.186l-6.891-6.959c-0.761-0.768-1.178-1.812-1.157-2.893l0.16-8.199
			c0.031-1.607,1.021-3.039,2.514-3.636c0.481-0.193,0.985-0.286,1.484-0.286c1.048,0,2.077,0.412,2.843,1.186l6.891,6.959
			c0.761,0.768,1.178,1.812,1.157,2.893l-0.16,8.199c-0.031,1.607-1.021,3.039-2.514,3.636
			C137.774,29.501,137.27,29.595,136.771,29.595z"/>
		<polygon points="130.039,10.437 136.93,17.396 136.77,25.595 129.879,18.636 		"/>
		<path d="M123.361,33.445c-1.053,0-2.081-0.416-2.843-1.186l-6.89-6.959c-0.994-1.004-1.384-2.458-1.027-3.825
			c0.357-1.367,1.408-2.444,2.766-2.834l13.408-3.85c0.364-0.104,0.735-0.155,1.104-0.155c1.053,0,2.081,0.416,2.843,1.186
			l6.891,6.959c0.994,1.004,1.385,2.458,1.028,3.825c-0.356,1.367-1.408,2.444-2.766,2.834l-13.409,3.85
			C124.101,33.394,123.729,33.445,123.361,33.445z"/>
		<polygon points="129.879,18.636 136.77,25.595 123.361,29.445 116.471,22.486 		"/>
		<path d="M136.469,44.997c-0.369,0-0.742-0.051-1.11-0.158l-26.658-7.701c-0.655-0.189-1.251-0.543-1.732-1.028l-6.891-6.958
			c-1.281-1.294-1.527-3.291-0.597-4.857c0.734-1.236,2.055-1.958,3.439-1.958c0.369,0,0.742,0.051,1.11,0.158l26.658,7.7
			c0.656,0.189,1.252,0.543,1.732,1.028l6.891,6.959c1.281,1.294,1.527,3.291,0.597,4.856
			C139.174,44.275,137.854,44.997,136.469,44.997z"/>
		<polygon points="129.578,34.037 136.469,40.996 109.811,33.295 102.92,26.337 		"/>
		<path d="M136.47,44.996c-1.048,0-2.077-0.412-2.843-1.186l-6.891-6.959c-0.761-0.768-1.178-1.812-1.157-2.893l0.153-7.843
			c0.031-1.607,1.021-3.039,2.514-3.636c0.481-0.193,0.985-0.286,1.484-0.286c1.048,0,2.077,0.412,2.843,1.186l6.891,6.959
			c0.761,0.768,1.178,1.812,1.157,2.893l-0.153,7.843c-0.031,1.607-1.021,3.039-2.514,3.636
			C137.473,44.903,136.969,44.996,136.47,44.996z"/>
		<polygon points="129.731,26.194 136.622,33.153 136.469,40.996 129.578,34.037 		"/>
		<path d="M75.961,38.037c-0.873,0-1.733-0.286-2.44-0.831c-1.005-0.774-1.584-1.979-1.559-3.248l0.164-8.413
			c0.028-1.473,0.86-2.784,2.122-3.455c-0.306-0.178-0.589-0.397-0.842-0.655c-0.752-0.767-1.164-1.805-1.143-2.879l0.16-8.199
			c0.042-2.178,1.82-3.922,3.999-3.922h53.617c1.074,0,2.104,0.432,2.856,1.199s1.164,1.805,1.143,2.879l-0.16,8.199
			c-0.033,1.709-1.147,3.202-2.764,3.727c1.588,0.584,2.65,2.116,2.616,3.832l-0.153,7.843c-0.024,1.243-0.625,2.404-1.626,3.142
			c-0.695,0.512-1.529,0.78-2.373,0.78c-0.372,0-0.745-0.052-1.11-0.157l-25.555-7.381L77.06,37.883
			C76.698,37.986,76.329,38.037,75.961,38.037z"/>
		<polygon points="129.578,34.037 102.92,26.337 75.961,34.037 76.125,25.624 101.146,18.636 76.262,18.636 76.422,10.437 
			130.039,10.437 129.879,18.636 116.471,22.486 129.731,26.194 		"/>
		<path d="M140.119,55.264c-1.048,0-2.077-0.412-2.843-1.186l-6.891-6.96c-0.761-0.768-1.178-1.812-1.157-2.893l0.147-7.486
			c0.031-1.606,1.021-3.039,2.514-3.635c0.481-0.193,0.985-0.286,1.484-0.286c1.048,0,2.077,0.412,2.843,1.185l6.891,6.958
			c0.761,0.769,1.178,1.813,1.157,2.894l-0.147,7.487c-0.031,1.607-1.021,3.039-2.514,3.636
			C141.122,55.17,140.618,55.264,140.119,55.264z"/>
		<polygon points="133.374,36.818 140.265,43.776 140.118,51.264 133.227,44.304 		"/>
		<path d="M78.801,55.264c-1.068,0-2.091-0.427-2.842-1.186l-6.891-6.96c-1.136-1.146-1.471-2.864-0.85-4.354
			c0.622-1.49,2.078-2.46,3.692-2.46h61.317c1.068,0,2.091,0.427,2.842,1.186l6.891,6.959c1.136,1.147,1.471,2.864,0.85,4.354
			c-0.622,1.489-2.078,2.46-3.692,2.46H78.801z"/>
		<polygon points="133.227,44.304 140.118,51.264 78.801,51.264 71.91,44.304 		"/>
		<path d="M71.91,48.305c-1.074,0-2.104-0.433-2.856-1.2c-0.752-0.767-1.164-1.804-1.143-2.878l0.146-7.486
			c0.042-2.178,1.82-3.922,3.999-3.922h61.318c1.075,0,2.104,0.432,2.856,1.2c0.752,0.767,1.165,1.805,1.143,2.879l-0.147,7.486
			c-0.042,2.178-1.82,3.922-3.999,3.922H71.91z"/>
		<polygon points="72.056,36.818 133.374,36.818 133.227,44.304 71.91,44.304 		"/>
		<path d="M91.709,80.645c-1.048,0-2.078-0.412-2.843-1.186l-6.89-6.959c-0.761-0.769-1.178-1.812-1.157-2.893l0.067-3.422
			c0.031-1.607,1.021-3.039,2.514-3.636c0.481-0.192,0.985-0.286,1.484-0.286c1.048,0,2.078,0.412,2.843,1.186l6.89,6.959
			c0.761,0.769,1.178,1.812,1.157,2.893l-0.067,3.422c-0.031,1.607-1.021,3.039-2.514,3.636
			C92.712,80.551,92.208,80.645,91.709,80.645z"/>
		<polygon points="84.885,66.264 91.775,73.223 91.708,76.645 84.818,69.686 		"/>
		<path d="M82.718,66.386c-1.068,0-2.091-0.427-2.842-1.186l-6.891-6.959c-1.136-1.147-1.471-2.864-0.85-4.354
			c0.622-1.489,2.078-2.46,3.692-2.46h43.778c1.068,0,2.091,0.427,2.842,1.186l6.891,6.959c1.136,1.146,1.471,2.864,0.85,4.354
			c-0.622,1.489-2.078,2.46-3.692,2.46H82.718z"/>
		<polygon points="119.605,55.427 126.496,62.386 82.718,62.386 75.827,55.427 		"/>
		<path d="M91.775,77.223c-1.068,0-2.091-0.427-2.842-1.186l-6.89-6.959c-1.136-1.147-1.471-2.864-0.85-4.354
			c0.622-1.489,2.078-2.46,3.692-2.46h43.778c1.068,0,2.091,0.427,2.842,1.186l6.89,6.959c1.136,1.147,1.471,2.864,0.85,4.354
			c-0.622,1.489-2.078,2.46-3.692,2.46H91.775z"/>
		<polygon points="128.663,66.264 135.553,73.223 91.775,73.223 84.885,66.264 		"/>
		<path d="M135.554,77.223c-1.048,0-2.078-0.412-2.843-1.186l-6.89-6.959c-0.761-0.769-1.178-1.812-1.157-2.893l0.36-18.466
			c0.031-1.606,1.021-3.039,2.513-3.636c0.481-0.192,0.985-0.286,1.485-0.286c1.048,0,2.077,0.412,2.843,1.185l6.892,6.958
			c0.761,0.769,1.179,1.813,1.157,2.894l-0.362,18.467c-0.031,1.607-1.021,3.039-2.514,3.636
			C136.557,77.129,136.053,77.223,135.554,77.223z"/>
		<polygon points="129.023,47.798 135.915,54.756 135.553,73.223 128.663,66.264 		"/>
		<path d="M82.286,88.486c-1.067,0-2.091-0.427-2.842-1.186l-6.891-6.957c-1.136-1.146-1.471-2.864-0.85-4.354
			c0.622-1.49,2.078-2.461,3.692-2.461h53.047c1.067,0,2.091,0.427,2.842,1.186l6.891,6.957c1.136,1.146,1.471,2.864,0.85,4.354
			c-0.622,1.49-2.078,2.461-3.692,2.461H82.286z"/>
		<polygon points="128.442,77.529 135.333,84.486 82.286,84.486 75.395,77.529 		"/>
		<path d="M135.334,88.486c-1.048,0-2.077-0.412-2.843-1.186l-6.891-6.957c-0.761-0.768-1.179-1.812-1.157-2.894l0.154-7.844
			c0.031-1.606,1.021-3.038,2.514-3.635c0.481-0.192,0.985-0.286,1.484-0.286c1.048,0,2.078,0.412,2.844,1.186l6.89,6.959
			c0.76,0.769,1.178,1.812,1.156,2.893l-0.153,7.842c-0.031,1.606-1.021,3.039-2.513,3.636
			C136.337,88.393,135.833,88.486,135.334,88.486z"/>
		<polygon points="128.596,69.686 135.486,76.645 135.333,84.486 128.442,77.529 		"/>
		<path d="M75.395,81.529c-1.074,0-2.104-0.433-2.856-1.199c-0.752-0.768-1.164-1.805-1.143-2.879l0.368-18.823
			c0.011-0.584,0.147-1.138,0.383-1.634c-0.219-0.515-0.33-1.075-0.319-1.646l0.15-7.629c0.042-2.179,1.82-3.922,3.999-3.922h53.046
			c1.074,0,2.104,0.432,2.856,1.199c0.752,0.767,1.164,1.805,1.143,2.879l-0.36,18.466c-0.012,0.612-0.161,1.19-0.417,1.704
			c0.24,0.535,0.362,1.121,0.351,1.719l-0.154,7.844c-0.042,2.178-1.82,3.921-3.999,3.921H75.395z"/>
		<polygon points="75.827,55.427 75.977,47.798 129.023,47.798 128.663,66.264 84.885,66.264 84.818,69.686 128.596,69.686 
			128.442,77.529 75.395,77.529 75.763,58.706 119.541,58.706 119.605,55.427 		"/>
		<path d="M147.724,30.95c-1.068,0-2.091-0.427-2.842-1.186l-6.891-6.959c-1.136-1.147-1.471-2.864-0.85-4.354
			c0.622-1.49,2.078-2.46,3.692-2.46h21.105c1.068,0,2.091,0.427,2.842,1.186l6.89,6.959c1.136,1.147,1.471,2.865,0.85,4.354
			c-0.622,1.49-2.078,2.46-3.692,2.46H147.724z"/>
		<polygon points="161.938,19.991 168.828,26.95 147.724,26.95 140.833,19.991 		"/>
		<path d="M180.022,30.95c-1.048,0-2.077-0.412-2.843-1.186l-6.891-6.959c-0.761-0.769-1.178-1.812-1.157-2.893l0.188-9.554
			c0.031-1.607,1.021-3.039,2.514-3.635c0.481-0.193,0.985-0.286,1.484-0.286c1.048,0,2.077,0.412,2.843,1.186l6.891,6.959
			c0.761,0.769,1.178,1.812,1.157,2.893l-0.188,9.554c-0.031,1.607-1.021,3.039-2.514,3.635
			C181.025,30.857,180.521,30.95,180.022,30.95z"/>
		<polygon points="173.318,10.437 180.209,17.396 180.021,26.95 173.131,19.991 		"/>
		<path d="M158.298,88.132c-1.068,0-2.091-0.427-2.843-1.186l-6.89-6.959c-1.135-1.147-1.47-2.864-0.849-4.354
			c0.622-1.489,2.078-2.46,3.692-2.46h10.98c1.068,0,2.091,0.427,2.843,1.186l6.89,6.959c1.135,1.147,1.47,2.864,0.849,4.354
			c-0.622,1.489-2.078,2.46-3.692,2.46H158.298z"/>
		<polygon points="162.388,77.173 169.278,84.132 158.298,84.132 151.408,77.173 		"/>
		<path d="M169.278,88.132c-1.052,0-2.081-0.415-2.843-1.186l-6.89-6.959c-0.924-0.934-1.331-2.262-1.088-3.553L169.2,19.252
			c0.274-1.461,1.337-2.65,2.759-3.085c0.385-0.118,0.78-0.176,1.171-0.176c1.052,0,2.08,0.416,2.843,1.186l6.891,6.959
			c0.924,0.934,1.332,2.262,1.089,3.553L173.209,84.87c-0.274,1.462-1.337,2.65-2.759,3.086
			C170.064,88.074,169.669,88.132,169.278,88.132z"/>
		<polygon points="173.131,19.991 180.021,26.95 169.278,84.132 162.388,77.173 		"/>
		<path d="M151.408,81.173c-1.188,0-2.314-0.527-3.074-1.44c-0.76-0.913-1.075-2.116-0.86-3.284l9.66-52.457h-16.301
			c-1.074,0-2.104-0.432-2.856-1.199s-1.164-1.805-1.143-2.879l0.187-9.554c0.042-2.178,1.82-3.922,3.999-3.922h32.298
			c1.075,0,2.104,0.432,2.856,1.2c0.752,0.767,1.165,1.805,1.143,2.879l-0.188,9.554c-0.004,0.221-0.027,0.442-0.068,0.66
			l-10.743,57.181c-0.355,1.892-2.007,3.262-3.931,3.262H151.408z"/>
		<polygon points="140.833,19.991 141.02,10.437 173.318,10.437 173.131,19.991 162.388,77.173 151.408,77.173 161.938,19.991 		"/>
		<path d="M182.725,45.922c-1.067,0-2.091-0.427-2.842-1.185l-6.892-6.958c-1.136-1.147-1.471-2.865-0.85-4.354
			c0.622-1.49,2.078-2.46,3.692-2.46h13.403c1.067,0,2.09,0.427,2.842,1.185l6.893,6.958c1.136,1.147,1.471,2.864,0.85,4.354
			c-0.621,1.49-2.078,2.46-3.692,2.46H182.725z"/>
		<polygon points="189.236,34.964 196.129,41.922 182.725,41.922 175.833,34.964 		"/>
		<path d="M182.296,67.811c-1.067,0-2.09-0.427-2.842-1.185l-6.892-6.957c-1.136-1.147-1.471-2.865-0.85-4.354
			c0.621-1.49,2.078-2.461,3.692-2.461h13.406c1.067,0,2.091,0.427,2.842,1.186l6.89,6.957c1.136,1.146,1.471,2.864,0.85,4.354
			c-0.622,1.489-2.078,2.46-3.692,2.46H182.296z"/>
		<polygon points="188.811,56.854 195.7,63.811 182.296,63.811 175.404,56.854 		"/>
		<path d="M195.296,88.486c-1.067,0-2.09-0.427-2.842-1.185l-6.892-6.957c-1.136-1.147-1.471-2.865-0.85-4.354
			c0.621-1.49,2.078-2.461,3.692-2.461h10.125c1.067,0,2.091,0.427,2.842,1.186l6.891,6.957c1.136,1.146,1.472,2.864,0.85,4.354
			c-0.621,1.489-2.077,2.46-3.691,2.46H195.296z"/>
		<polygon points="198.529,77.529 205.42,84.486 195.296,84.486 188.404,77.529 		"/>
		<path d="M205.421,88.486c-1.048,0-2.077-0.412-2.843-1.186l-6.891-6.957c-0.761-0.768-1.179-1.812-1.157-2.893l1.32-67.448
			c0.031-1.607,1.021-3.039,2.514-3.636c0.481-0.193,0.985-0.286,1.484-0.286c1.048,0,2.078,0.412,2.844,1.186l6.889,6.958
			c0.761,0.769,1.178,1.812,1.156,2.893l-1.318,67.447c-0.031,1.606-1.021,3.039-2.513,3.636
			C206.424,88.393,205.92,88.486,205.421,88.486z"/>
		<polygon points="199.85,10.081 206.738,17.039 205.42,84.486 198.529,77.529 		"/>
		<path d="M188.404,81.529c-1.075,0-2.104-0.433-2.856-1.199c-0.752-0.768-1.165-1.805-1.143-2.879l0.326-16.598h-9.327
			c-1.075,0-2.104-0.433-2.856-1.199c-0.752-0.768-1.165-1.806-1.143-2.88l0.191-9.698c0.043-2.178,1.821-3.921,3.999-3.921h9.48
			l0.082-4.191h-9.325c-1.074,0-2.104-0.432-2.856-1.199c-0.752-0.767-1.164-1.804-1.143-2.878l0.188-9.697
			c0.042-2.179,1.82-3.922,3.999-3.922h9.484l0.22-11.264c0.042-2.178,1.82-3.922,3.999-3.922h10.125
			c1.074,0,2.104,0.432,2.856,1.199s1.165,1.805,1.143,2.879l-1.32,67.448c-0.042,2.179-1.82,3.922-3.999,3.922H188.404z"/>
		<polygon points="189.725,10.081 199.85,10.081 198.529,77.529 188.404,77.529 188.811,56.854 175.404,56.854 175.596,47.155 
			188.999,47.155 189.236,34.964 175.833,34.964 176.021,25.267 189.428,25.267 		"/>
		<path d="M241.899,24.247c-1.048,0-2.077-0.412-2.843-1.186l-6.891-6.958c-0.761-0.768-1.179-1.812-1.157-2.893l0.11-5.633
			c0.031-1.607,1.021-3.039,2.514-3.636c0.481-0.193,0.985-0.286,1.484-0.286c1.048,0,2.077,0.412,2.844,1.186l6.891,6.959
			c0.761,0.768,1.178,1.812,1.156,2.893l-0.11,5.632c-0.031,1.607-1.021,3.039-2.514,3.636
			C242.902,24.154,242.398,24.247,241.899,24.247z"/>
		<polygon points="235.118,7.656 242.009,14.615 241.898,20.247 235.008,13.289 		"/>
		<path d="M217.9,33.588c-1.067,0-2.091-0.427-2.843-1.186l-6.89-6.959c-1.135-1.147-1.47-2.865-0.849-4.354
			c0.622-1.49,2.078-2.46,3.692-2.46h19.894c1.067,0,2.091,0.427,2.843,1.186l6.891,6.959c1.136,1.147,1.471,2.864,0.849,4.354
			c-0.621,1.49-2.077,2.46-3.691,2.46H217.9z"/>
		<polygon points="230.904,22.629 237.795,29.588 217.9,29.588 211.011,22.629 		"/>
		<path d="M217.423,58.114c-1.038,0-2.068-0.403-2.843-1.186l-6.893-6.959c-0.843-0.851-1.26-2.034-1.137-3.226
			c0.123-1.191,0.773-2.265,1.772-2.925l20.371-13.474c0.675-0.446,1.442-0.664,2.206-0.664c1.038,0,2.068,0.403,2.843,1.185
			l6.892,6.958c0.843,0.851,1.26,2.035,1.137,3.226c-0.123,1.191-0.772,2.265-1.771,2.925l-20.37,13.475
			C218.955,57.896,218.187,58.114,217.423,58.114z"/>
		<polygon points="230.9,33.681 237.792,40.639 217.422,54.114 210.529,47.155 		"/>
		<path d="M254.408,33.588c-1.048,0-2.077-0.412-2.843-1.186l-6.892-6.959c-0.761-0.768-1.179-1.812-1.157-2.893l0.183-9.34
			c0.031-1.607,1.021-3.039,2.514-3.636c0.481-0.193,0.985-0.286,1.484-0.286c1.048,0,2.077,0.412,2.843,1.185l6.892,6.958
			c0.761,0.769,1.179,1.812,1.157,2.893l-0.183,9.341c-0.031,1.607-1.021,3.039-2.514,3.636
			C255.411,33.495,254.907,33.588,254.408,33.588z"/>
		<polygon points="247.698,13.289 254.59,20.247 254.407,29.588 247.516,22.629 		"/>
		<path d="M245.739,39.363c-1.038,0-2.069-0.403-2.844-1.186l-6.891-6.959c-0.841-0.849-1.258-2.03-1.137-3.219
			c0.121-1.189,0.767-2.261,1.762-2.924l8.668-5.775c0.677-0.451,1.449-0.671,2.217-0.671c1.038,0,2.068,0.403,2.843,1.186
			l6.892,6.959c0.842,0.849,1.259,2.03,1.138,3.219c-0.121,1.189-0.768,2.262-1.762,2.925l-8.669,5.775
			C247.279,39.143,246.507,39.363,245.739,39.363z"/>
		<polygon points="247.516,22.629 254.407,29.588 245.738,35.363 238.848,28.404 		"/>
		<path d="M272.954,36.796c-1.048,0-2.077-0.412-2.844-1.186l-6.891-6.959c-0.76-0.768-1.178-1.812-1.156-2.893l0.308-15.756
			c0.031-1.607,1.021-3.039,2.514-3.636c0.481-0.193,0.985-0.286,1.484-0.286c1.048,0,2.077,0.412,2.843,1.185l6.892,6.958
			c0.761,0.769,1.179,1.812,1.157,2.893l-0.309,15.757c-0.031,1.607-1.021,3.039-2.514,3.636
			C273.957,36.703,273.453,36.796,272.954,36.796z"/>
		<polygon points="266.37,10.081 273.262,17.039 272.953,32.796 266.063,25.837 		"/>
		<path d="M253.939,57.4c-0.87,0-1.746-0.283-2.478-0.861l-16.15-12.762c-0.127-0.1-0.247-0.208-0.361-0.323l-6.892-6.958
			c-1.488-1.503-1.55-3.904-0.141-5.481c0.788-0.881,1.882-1.334,2.984-1.334c0.87,0,1.746,0.283,2.479,0.862l16.149,12.762
			c0.127,0.1,0.247,0.208,0.361,0.323l6.892,6.958c1.488,1.502,1.55,3.903,0.141,5.48C256.136,56.947,255.042,57.4,253.939,57.4z"/>
		<polygon points="247.05,46.443 253.941,53.4 237.792,40.639 230.9,33.681 		"/>
		<path d="M253.942,57.4c-1.048,0-2.077-0.412-2.843-1.186l-6.892-6.957c-0.761-0.769-1.179-1.812-1.157-2.893l0.222-11.337
			c0.031-1.607,1.021-3.039,2.514-3.636c0.481-0.193,0.985-0.286,1.484-0.286c1.048,0,2.077,0.412,2.843,1.186l6.892,6.959
			c0.761,0.768,1.179,1.812,1.157,2.893l-0.222,11.335c-0.031,1.606-1.021,3.039-2.514,3.636
			C254.945,57.307,254.441,57.4,253.942,57.4z"/>
		<polygon points="247.271,35.106 254.163,42.065 253.941,53.4 247.05,46.443 		"/>
		<path d="M210.529,51.155c-0.663,0-1.326-0.164-1.929-0.495c-1.302-0.717-2.1-2.097-2.07-3.583l0.223-11.337
			c0.026-1.321,0.703-2.544,1.809-3.268l8.928-5.843h-6.479c-1.074,0-2.104-0.432-2.856-1.199s-1.164-1.805-1.143-2.879l0.183-9.34
			c0.042-2.178,1.82-3.922,3.999-3.922h9.268l0.034-1.711c0.042-2.178,1.82-3.922,3.999-3.922h10.624
			c1.074,0,2.104,0.432,2.856,1.199c0.752,0.768,1.164,1.805,1.143,2.879l-0.03,1.555h8.611c1.074,0,2.104,0.432,2.855,1.199
			c0.753,0.767,1.165,1.805,1.144,2.879l-0.183,9.34c-0.025,1.31-0.69,2.524-1.781,3.25l-4.102,2.732l4.13,3.286
			c0.976,0.776,1.533,1.962,1.509,3.208l-0.222,11.337c-0.029,1.519-0.917,2.89-2.291,3.538c-0.544,0.257-1.127,0.384-1.707,0.384
			c-0.885,0-1.762-0.293-2.481-0.862l-13.877-10.966l-17.956,11.876C212.069,50.933,211.3,51.155,210.529,51.155z"/>
		<polygon points="247.05,46.443 230.9,33.681 210.529,47.155 210.752,35.819 230.904,22.629 211.011,22.629 211.193,13.289 
			224.384,13.289 224.494,7.656 235.118,7.656 235.008,13.289 247.698,13.289 247.516,22.629 238.848,28.404 247.271,35.106 		"/>
		<path d="M220.193,69.521c-1.067,0-2.091-0.427-2.843-1.186l-6.891-6.959c-1.136-1.147-1.471-2.864-0.849-4.354
			c0.621-1.489,2.077-2.46,3.691-2.46h26.238c1.067,0,2.091,0.427,2.843,1.186l6.891,6.959c1.136,1.147,1.471,2.864,0.849,4.354
			c-0.621,1.489-2.077,2.46-3.691,2.46H220.193z"/>
		<polygon points="239.541,58.563 246.432,65.521 220.193,65.521 213.303,58.563 		"/>
		<path d="M280.06,45.352c-1.048,0-2.077-0.412-2.843-1.186l-6.892-6.959c-0.762-0.768-1.179-1.812-1.157-2.893l0.168-8.556
			c0.031-1.607,1.021-3.039,2.514-3.635c0.481-0.193,0.985-0.286,1.484-0.286c1.048,0,2.077,0.412,2.844,1.186l6.891,6.959
			c0.76,0.768,1.178,1.812,1.156,2.893l-0.167,8.556c-0.031,1.607-1.021,3.039-2.514,3.636
			C281.063,45.259,280.559,45.352,280.06,45.352z"/>
		<polygon points="273.335,25.837 280.226,32.796 280.059,41.352 273.167,34.393 		"/>
		<path d="M272.786,45.352c-1.067,0-2.091-0.427-2.842-1.186l-6.892-6.959c-1.137-1.147-1.472-2.864-0.85-4.354
			c0.621-1.49,2.077-2.46,3.691-2.46h7.272c1.067,0,2.091,0.427,2.842,1.186l6.892,6.959c1.137,1.147,1.472,2.864,0.85,4.354
			c-0.621,1.49-2.077,2.46-3.691,2.46H272.786z"/>
		<polygon points="273.167,34.393 280.059,41.352 272.786,41.352 265.895,34.393 		"/>
		<path d="M219.823,88.486c-1.05,0-2.078-0.413-2.843-1.186l-6.891-6.957c-0.961-0.97-1.36-2.362-1.061-3.694
			c0.301-1.331,1.259-2.418,2.543-2.882l26.641-9.627c0.443-0.16,0.903-0.238,1.358-0.238c1.05,0,2.079,0.413,2.844,1.186
			l6.891,6.959c0.96,0.97,1.359,2.363,1.06,3.694c-0.301,1.332-1.26,2.418-2.543,2.882l-26.641,9.625
			C220.738,88.408,220.278,88.486,219.823,88.486z"/>
		<polygon points="239.572,67.902 246.463,74.861 219.822,84.486 212.932,77.529 		"/>
		<path d="M258.24,74.585c-1.05,0-2.079-0.413-2.844-1.186l-6.89-6.958c-0.961-0.971-1.36-2.364-1.059-3.697
			c0.301-1.332,1.262-2.418,2.547-2.881l14.072-5.064c0.442-0.159,0.9-0.236,1.354-0.236c1.05,0,2.079,0.413,2.844,1.186
			l6.891,6.959c0.961,0.971,1.36,2.364,1.059,3.697c-0.302,1.332-1.262,2.419-2.547,2.881l-14.073,5.063
			C259.151,74.508,258.693,74.585,258.24,74.585z"/>
		<polygon points="265.422,58.563 272.313,65.521 258.239,70.585 251.35,63.627 		"/>
		<path d="M272.313,69.521c-1.048,0-2.077-0.412-2.844-1.186l-6.891-6.959c-0.761-0.769-1.178-1.812-1.156-2.893l0.473-24.169
			c0.031-1.607,1.021-3.039,2.514-3.636c0.481-0.193,0.985-0.286,1.484-0.286c1.048,0,2.077,0.412,2.843,1.186l6.892,6.959
			c0.761,0.768,1.179,1.812,1.157,2.893L276.312,65.6c-0.031,1.607-1.021,3.039-2.514,3.636
			C273.316,69.428,272.813,69.521,272.313,69.521z"/>
		<polygon points="265.895,34.393 272.786,41.352 272.313,65.521 265.422,58.563 		"/>
		<path d="M272.229,88.486c-1.048,0-2.077-0.412-2.843-1.186l-6.891-6.957c-0.761-0.768-1.179-1.812-1.157-2.893l0.181-9.269
			c0.031-1.606,1.021-3.039,2.514-3.636c0.481-0.192,0.985-0.286,1.484-0.286c1.048,0,2.077,0.412,2.843,1.186l6.891,6.958
			c0.761,0.768,1.179,1.812,1.157,2.893l-0.181,9.268c-0.031,1.606-1.021,3.039-2.514,3.636
			C273.231,88.393,272.728,88.486,272.229,88.486z"/>
		<polygon points="265.518,68.261 272.408,75.219 272.228,84.486 265.337,77.529 		"/>
		<path d="M212.932,81.529c-0.824,0-1.642-0.255-2.33-0.749c-1.07-0.767-1.695-2.013-1.669-3.329l0.186-9.482
			c0.032-1.659,1.086-3.126,2.647-3.687l4.791-1.72h-3.254c-1.074,0-2.104-0.433-2.855-1.199c-0.753-0.768-1.165-1.805-1.144-2.879
			l0.16-8.198c0.042-2.179,1.82-3.922,3.999-3.922h37.929l0.713-36.361c0.042-2.178,1.82-3.922,3.999-3.922h10.267
			c1.074,0,2.104,0.432,2.855,1.199c0.753,0.767,1.165,1.805,1.144,2.879l-0.228,11.678h3.193c1.074,0,2.104,0.432,2.856,1.2
			c0.752,0.767,1.164,1.805,1.143,2.879l-0.168,8.556c-0.043,2.178-1.82,3.921-3.999,3.921h-3.35l-0.396,20.248
			c-0.032,1.658-1.084,3.124-2.645,3.686l-3.112,1.12l3.097,1.013c1.672,0.547,2.79,2.121,2.756,3.88l-0.181,9.269
			c-0.025,1.297-0.678,2.501-1.751,3.23c-0.672,0.457-1.457,0.691-2.248,0.691c-0.472,0-0.946-0.083-1.4-0.253l-24.388-9.112
			l-25.258,9.127C213.85,81.451,213.39,81.529,212.932,81.529z"/>
		<polygon points="265.895,34.393 265.422,58.563 251.35,63.627 265.518,68.261 265.337,77.529 239.572,67.902 212.932,77.529 
			213.117,68.047 239.541,58.563 213.303,58.563 213.463,50.364 255.314,50.364 256.104,10.081 266.37,10.081 266.063,25.837 
			273.335,25.837 273.167,34.393 		"/>
		<path d="M272.227,88.486c-0.468,0-0.94-0.082-1.398-0.253l-25.765-9.625c-0.543-0.203-1.035-0.521-1.443-0.933l-6.891-6.959
			c-1.321-1.335-1.536-3.409-0.517-4.986c0.755-1.166,2.034-1.828,3.36-1.828c0.468,0,0.94,0.082,1.399,0.253l25.765,9.627
			c0.542,0.203,1.034,0.521,1.441,0.933l6.891,6.957c1.322,1.334,1.537,3.408,0.518,4.986
			C274.833,87.824,273.554,88.486,272.227,88.486z"/>
		<polygon points="265.337,77.529 272.228,84.486 246.463,74.861 239.572,67.902 		"/>
		<path d="M342.316,88.486c-1.048,0-2.077-0.412-2.843-1.185l-6.892-6.957c-0.761-0.769-1.179-1.813-1.157-2.894l1.319-67.448
			c0.031-1.607,1.021-3.039,2.514-3.636c0.481-0.193,0.985-0.286,1.484-0.286c1.048,0,2.077,0.412,2.843,1.185l6.892,6.958
			c0.761,0.769,1.179,1.812,1.157,2.893l-1.319,67.447c-0.031,1.606-1.021,3.039-2.514,3.636
			C343.319,88.393,342.815,88.486,342.316,88.486z"/>
		<polygon points="336.743,10.081 343.635,17.039 342.315,84.486 335.424,77.529 		"/>
		<path d="M331.335,88.486c-1.067,0-2.091-0.427-2.842-1.186l-6.891-6.957c-1.136-1.146-1.472-2.864-0.85-4.354
			c0.621-1.489,2.077-2.46,3.691-2.46h10.979c1.067,0,2.091,0.427,2.842,1.185l6.892,6.957c1.136,1.147,1.472,2.865,0.85,4.354
			c-0.621,1.49-2.077,2.461-3.691,2.461H331.335z"/>
		<polygon points="335.424,77.529 342.315,84.486 331.335,84.486 324.444,77.529 		"/>
		<path d="M324.444,81.529c-1.074,0-2.104-0.433-2.855-1.199c-0.753-0.768-1.165-1.805-1.144-2.879l1.319-67.448
			c0.042-2.178,1.82-3.922,3.999-3.922h10.979c1.074,0,2.104,0.432,2.855,1.199c0.753,0.767,1.165,1.805,1.144,2.879l-1.319,67.448
			c-0.042,2.179-1.82,3.922-3.999,3.922H324.444z"/>
		<polygon points="325.764,10.081 336.743,10.081 335.424,77.529 324.444,77.529 		"/>
		<path d="M284.618,30.95c-1.067,0-2.091-0.427-2.843-1.186l-6.891-6.959c-1.136-1.147-1.471-2.864-0.849-4.354
			c0.621-1.49,2.077-2.46,3.691-2.46h25.596c1.067,0,2.091,0.427,2.843,1.186l6.891,6.959c1.136,1.147,1.471,2.864,0.849,4.354
			c-0.621,1.49-2.077,2.46-3.691,2.46H284.618z"/>
		<polygon points="303.323,19.991 310.214,26.95 284.618,26.95 277.728,19.991 		"/>
		<path d="M321.41,30.95c-1.048,0-2.077-0.412-2.843-1.186l-6.892-6.959c-0.762-0.768-1.179-1.812-1.157-2.893l0.188-9.554
			c0.031-1.607,1.021-3.039,2.514-3.635c0.481-0.193,0.985-0.286,1.484-0.286c1.048,0,2.077,0.412,2.844,1.186l6.891,6.959
			c0.76,0.768,1.178,1.812,1.156,2.893l-0.187,9.554c-0.031,1.607-1.021,3.039-2.514,3.636
			C322.413,30.857,321.909,30.95,321.41,30.95z"/>
		<polygon points="314.705,10.437 321.596,17.396 321.409,26.95 314.518,19.991 		"/>
		<path d="M301.112,88.061c-1.067,0-2.091-0.427-2.843-1.186l-6.891-6.959c-1.136-1.147-1.471-2.864-0.849-4.354
			c0.621-1.489,2.077-2.46,3.691-2.46h10.979c1.067,0,2.091,0.427,2.843,1.186l6.891,6.959c1.136,1.147,1.471,2.864,0.849,4.354
			c-0.621,1.489-2.077,2.46-3.691,2.46H301.112z"/>
		<polygon points="305.201,77.102 312.092,84.061 301.112,84.061 294.222,77.102 		"/>
		<path d="M312.092,88.061c-1.051,0-2.079-0.415-2.843-1.186l-6.891-6.959c-0.9-0.909-1.312-2.195-1.105-3.458l9.316-57.111
			c0.242-1.485,1.297-2.708,2.73-3.166c0.399-0.128,0.811-0.19,1.218-0.19c1.051,0,2.079,0.415,2.842,1.186l6.892,6.959
			c0.901,0.909,1.313,2.195,1.106,3.458l-9.317,57.111c-0.242,1.484-1.298,2.708-2.73,3.166
			C312.91,87.998,312.499,88.061,312.092,88.061z"/>
		<polygon points="314.518,19.991 321.409,26.95 312.092,84.061 305.201,77.102 		"/>
		<path d="M294.222,81.102c-1.171,0-2.283-0.513-3.043-1.403s-1.092-2.07-0.907-3.227l8.364-52.48h-20.908
			c-1.074,0-2.104-0.432-2.855-1.199c-0.753-0.767-1.165-1.805-1.144-2.879l0.187-9.554c0.042-2.178,1.82-3.922,3.999-3.922h36.791
			c1.074,0,2.104,0.432,2.856,1.199c0.752,0.768,1.164,1.805,1.143,2.879l-0.188,9.554c-0.004,0.189-0.021,0.378-0.051,0.565
			l-9.316,57.11c-0.316,1.936-1.987,3.356-3.948,3.356H294.222z"/>
		<polygon points="277.728,19.991 277.914,10.437 314.705,10.437 314.518,19.991 305.201,77.102 294.222,77.102 303.323,19.991 		
			"/>
	</g>
</g>
<g id="레이어_1">
	<g>
		<polygon fill="#777424" points="100.146,17.636 107.037,24.595 82.153,24.595 75.262,17.636 		"/>
		<polygon fill="#777424" points="101.92,25.337 108.811,32.295 81.852,39.996 74.961,33.037 		"/>
		<polygon fill="#9C982F" points="129.039,9.437 135.93,16.396 135.77,24.595 128.879,17.636 		"/>
		<polygon fill="#777424" points="128.879,17.636 135.77,24.595 122.361,28.445 115.471,21.486 		"/>
		<polygon fill="#777424" points="128.578,33.037 135.469,39.996 108.811,32.295 101.92,25.337 		"/>
		<polygon fill="#9C982F" points="128.731,25.194 135.622,32.153 135.469,39.996 128.578,33.037 		"/>
		<polygon fill="#CBC73E" points="128.578,33.037 101.92,25.337 74.961,33.037 75.125,24.624 100.146,17.636 75.262,17.636 
			75.422,9.437 129.039,9.437 128.879,17.636 115.471,21.486 128.731,25.194 		"/>
		<polygon fill="#9C982F" points="132.374,35.818 139.265,42.776 139.118,50.264 132.227,43.304 		"/>
		<polygon fill="#777424" points="132.227,43.304 139.118,50.264 77.801,50.264 70.91,43.304 		"/>
		<polygon fill="#CBC73E" points="71.056,35.818 132.374,35.818 132.227,43.304 70.91,43.304 		"/>
		<polygon fill="#9C982F" points="83.885,65.264 90.775,72.223 90.708,75.645 83.818,68.686 		"/>
		<polygon fill="#777424" points="118.605,54.427 125.496,61.386 81.718,61.386 74.827,54.427 		"/>
		<polygon fill="#777424" points="127.663,65.264 134.553,72.223 90.775,72.223 83.885,65.264 		"/>
		<polygon fill="#9C982F" points="128.023,46.798 134.915,53.756 134.553,72.223 127.663,65.264 		"/>
		<polygon fill="#777424" points="127.442,76.529 134.333,83.486 81.286,83.486 74.395,76.529 		"/>
		<polygon fill="#9C982F" points="127.596,68.686 134.486,75.645 134.333,83.486 127.442,76.529 		"/>
		<polygon fill="#CBC73E" points="74.827,54.427 74.977,46.798 128.023,46.798 127.663,65.264 83.885,65.264 83.818,68.686 
			127.596,68.686 127.442,76.529 74.395,76.529 74.763,57.706 118.541,57.706 118.605,54.427 		"/>
		<polygon fill="#777424" points="160.938,18.991 167.828,25.95 146.724,25.95 139.833,18.991 		"/>
		<polygon fill="#9C982F" points="172.318,9.437 179.209,16.396 179.021,25.95 172.131,18.991 		"/>
		<polygon fill="#777424" points="161.388,76.173 168.278,83.132 157.298,83.132 150.408,76.173 		"/>
		<polygon fill="#97942E" points="172.131,18.991 179.021,25.95 168.278,83.132 161.388,76.173 		"/>
		<polygon fill="#CBC73E" points="139.833,18.991 140.02,9.437 172.318,9.437 172.131,18.991 161.388,76.173 150.408,76.173 
			160.938,18.991 		"/>
		<polygon fill="#777424" points="188.236,33.964 195.129,40.922 181.725,40.922 174.833,33.964 		"/>
		<polygon fill="#777424" points="187.811,55.854 194.7,62.811 181.296,62.811 174.404,55.854 		"/>
		<polygon fill="#777424" points="197.529,76.529 204.42,83.486 194.296,83.486 187.404,76.529 		"/>
		<polygon fill="#9C982F" points="198.85,9.081 205.738,16.039 204.42,83.486 197.529,76.529 		"/>
		<polygon fill="#CBC73E" points="188.725,9.081 198.85,9.081 197.529,76.529 187.404,76.529 187.811,55.854 174.404,55.854 
			174.596,46.155 187.999,46.155 188.236,33.964 174.833,33.964 175.021,24.267 188.428,24.267 		"/>
		<polygon fill="#9C982F" points="234.118,6.656 241.009,13.615 240.898,19.247 234.008,12.289 		"/>
		<polygon fill="#777424" points="229.904,21.629 236.795,28.588 216.9,28.588 210.011,21.629 		"/>
		<polygon fill="#7A7825" points="229.9,32.681 236.792,39.639 216.422,53.114 209.529,46.155 		"/>
		<polygon fill="#9C982F" points="246.698,12.289 253.59,19.247 253.407,28.588 246.516,21.629 		"/>
		<polygon fill="#7A7825" points="246.516,21.629 253.407,28.588 244.738,34.363 237.848,27.404 		"/>
		<polygon fill="#9C982F" points="265.37,9.081 272.262,16.039 271.953,31.796 265.063,24.837 		"/>
		<polygon fill="#777424" points="246.05,45.443 252.941,52.4 236.792,39.639 229.9,32.681 		"/>
		<polygon fill="#9C982F" points="246.271,34.106 253.163,41.065 252.941,52.4 246.05,45.443 		"/>
		<polygon fill="#CBC73E" points="246.05,45.443 229.9,32.681 209.529,46.155 209.752,34.819 229.904,21.629 210.011,21.629 
			210.193,12.289 223.384,12.289 223.494,6.656 234.118,6.656 234.008,12.289 246.698,12.289 246.516,21.629 237.848,27.404 
			246.271,34.106 		"/>
		<polygon fill="#777424" points="238.541,57.563 245.432,64.521 219.193,64.521 212.303,57.563 		"/>
		<polygon fill="#9C982F" points="272.335,24.837 279.226,31.796 279.059,40.352 272.167,33.393 		"/>
		<polygon fill="#777424" points="272.167,33.393 279.059,40.352 271.786,40.352 264.895,33.393 		"/>
		<polygon fill="#777424" points="238.572,66.902 245.463,73.861 218.822,83.486 211.932,76.529 		"/>
		<polygon fill="#777424" points="264.422,57.563 271.313,64.521 257.239,69.585 250.35,62.627 		"/>
		<polygon fill="#9C982F" points="264.895,33.393 271.786,40.352 271.313,64.521 264.422,57.563 		"/>
		<polygon fill="#9C982F" points="264.518,67.261 271.408,74.219 271.228,83.486 264.337,76.529 		"/>
		<polygon fill="#CBC73E" points="264.895,33.393 264.422,57.563 250.35,62.627 264.518,67.261 264.337,76.529 238.572,66.902 
			211.932,76.529 212.117,67.047 238.541,57.563 212.303,57.563 212.463,49.364 254.314,49.364 255.104,9.081 265.37,9.081 
			265.063,24.837 272.335,24.837 272.167,33.393 		"/>
		<polygon fill="#777424" points="264.337,76.529 271.228,83.486 245.463,73.861 238.572,66.902 		"/>
		<polygon fill="#9C982F" points="335.743,9.081 342.635,16.039 341.315,83.486 334.424,76.529 		"/>
		<polygon fill="#777424" points="334.424,76.529 341.315,83.486 330.335,83.486 323.444,76.529 		"/>
		<polygon fill="#CBC73E" points="324.764,9.081 335.743,9.081 334.424,76.529 323.444,76.529 		"/>
		<polygon fill="#777424" points="302.323,18.991 309.214,25.95 283.618,25.95 276.728,18.991 		"/>
		<polygon fill="#9C982F" points="313.705,9.437 320.596,16.396 320.409,25.95 313.518,18.991 		"/>
		<polygon fill="#777424" points="304.201,76.102 311.092,83.061 300.112,83.061 293.222,76.102 		"/>
		<polygon fill="#98942E" points="313.518,18.991 320.409,25.95 311.092,83.061 304.201,76.102 		"/>
		<polygon fill="#CBC73E" points="276.728,18.991 276.914,9.437 313.705,9.437 313.518,18.991 304.201,76.102 293.222,76.102 
			302.323,18.991 		"/>
	</g>
</g>
</svg>
