<?xml version="1.0" encoding="utf-8"?>
<!-- Generator: Adobe Illustrator 16.0.0, SVG Export Plug-In . SVG Version: 6.00 Build 0)  -->
<!DOCTYPE svg PUBLIC "-//W3C//DTD SVG 1.1//EN" "http://www.w3.org/Graphics/SVG/1.1/DTD/svg11.dtd">
<svg version="1.1" id="레이어_1" xmlns="http://www.w3.org/2000/svg" xmlns:xlink="http://www.w3.org/1999/xlink" x="0px"
	 y="0px" width="416px" height="98px" viewBox="0 0 416 98" enable-background="new 0 0 416 98" xml:space="preserve">
<g>
	<g>
		<g enable-background="new    ">
			<g>
				<polygon fill="#9F9C30" points="42.672,11.148 49.563,18.106 69.776,82.847 62.885,75.888 				"/>
			</g>
			<g>
				<polygon fill="#777424" points="62.885,75.888 69.776,82.847 59.669,82.847 52.778,75.888 				"/>
			</g>
			<g>
				<polygon fill="#CBC73E" points="42.672,11.148 62.885,75.888 52.778,75.888 32.708,11.148 				"/>
			</g>
		</g>
		<g enable-background="new    ">
			<g>
				<polygon fill="#9C982F" points="100.232,67.047 107.123,74.006 106.95,82.847 100.059,75.888 				"/>
			</g>
			<g>
				<polygon fill="#777424" points="100.059,75.888 106.95,82.847 75.507,82.847 68.616,75.888 				"/>
			</g>
			<g>
				<polygon fill="#CBC73E" points="100.232,67.047 100.059,75.888 68.616,75.888 68.789,67.047 				"/>
			</g>
		</g>
		<g enable-background="new    ">
			<g>
				<polygon fill="#777424" points="140.146,17.636 147.037,24.595 122.153,24.595 115.262,17.636 				"/>
			</g>
			<g>
				<polygon fill="#777424" points="141.92,25.337 148.811,32.295 121.852,39.996 114.961,33.037 				"/>
			</g>
			<g>
				<polygon fill="#9C982F" points="169.039,9.437 175.93,16.396 175.77,24.595 168.879,17.636 				"/>
			</g>
			<g>
				<polygon fill="#777424" points="168.879,17.636 175.77,24.595 162.361,28.445 155.471,21.486 				"/>
			</g>
			<g>
				<polygon fill="#777424" points="168.578,33.037 175.469,39.996 148.811,32.295 141.92,25.337 				"/>
			</g>
			<g>
				<polygon fill="#9C982F" points="168.731,25.194 175.622,32.153 175.469,39.996 168.578,33.037 				"/>
			</g>
			<g>
				<polygon fill="#CBC73E" points="168.578,33.037 141.92,25.337 114.961,33.037 115.125,24.624 140.146,17.636 115.262,17.636 
					115.422,9.437 169.039,9.437 168.879,17.636 155.471,21.486 168.731,25.194 				"/>
			</g>
		</g>
		<g enable-background="new    ">
			<g>
				<polygon fill="#9C982F" points="172.374,35.818 179.265,42.776 179.118,50.263 172.227,43.304 				"/>
			</g>
			<g>
				<polygon fill="#777424" points="172.227,43.304 179.118,50.263 117.801,50.263 110.91,43.304 				"/>
			</g>
			<g>
				<polygon fill="#CBC73E" points="111.056,35.818 172.374,35.818 172.227,43.304 110.91,43.304 				"/>
			</g>
		</g>
		<g enable-background="new    ">
			<g>
				<polygon fill="#9C982F" points="123.885,65.264 130.775,72.223 130.708,75.645 123.818,68.686 				"/>
			</g>
			<g>
				<polygon fill="#777424" points="158.605,54.427 165.496,61.386 121.718,61.386 114.827,54.427 				"/>
			</g>
			<g>
				<polygon fill="#777424" points="167.663,65.264 174.553,72.223 130.775,72.223 123.885,65.264 				"/>
			</g>
			<g>
				<polygon fill="#9C982F" points="168.023,46.798 174.915,53.756 174.553,72.223 167.663,65.264 				"/>
			</g>
			<g>
				<polygon fill="#777424" points="167.442,76.529 174.333,83.487 121.286,83.487 114.395,76.529 				"/>
			</g>
			<g>
				<polygon fill="#9C982F" points="167.596,68.686 174.486,75.645 174.333,83.487 167.442,76.529 				"/>
			</g>
			<g>
				<polygon fill="#CBC73E" points="114.827,54.427 114.977,46.798 168.023,46.798 167.663,65.264 123.885,65.264 123.818,68.686 
					167.596,68.686 167.442,76.529 114.395,76.529 114.763,57.706 158.541,57.706 158.605,54.427 				"/>
			</g>
		</g>
		<g enable-background="new    ">
			<g>
				<polygon fill="#777424" points="200.938,18.991 207.828,25.95 186.724,25.95 179.833,18.991 				"/>
			</g>
			<g>
				<polygon fill="#9C982F" points="212.318,9.437 219.209,16.396 219.022,25.95 212.131,18.991 				"/>
			</g>
			<g>
				<polygon fill="#777424" points="201.388,76.173 208.278,83.132 197.298,83.132 190.408,76.173 				"/>
			</g>
			<g>
				<polygon fill="#97942E" points="212.131,18.991 219.022,25.95 208.278,83.132 201.388,76.173 				"/>
			</g>
			<g>
				<polygon fill="#CBC73E" points="179.833,18.991 180.02,9.437 212.318,9.437 212.131,18.991 201.388,76.173 190.408,76.173 
					200.938,18.991 				"/>
			</g>
		</g>
		<g enable-background="new    ">
			<g>
				<polygon fill="#777424" points="228.237,33.964 235.129,40.922 221.725,40.922 214.833,33.964 				"/>
			</g>
			<g>
				<polygon fill="#777424" points="227.81,55.853 234.7,62.811 221.296,62.811 214.405,55.853 				"/>
			</g>
			<g>
				<polygon fill="#777424" points="237.529,76.529 244.42,83.487 234.296,83.487 227.405,76.529 				"/>
			</g>
			<g>
				<polygon fill="#9C982F" points="238.849,9.081 245.739,16.039 244.42,83.487 237.529,76.529 				"/>
			</g>
			<g>
				<polygon fill="#CBC73E" points="228.725,9.081 238.849,9.081 237.529,76.529 227.405,76.529 227.81,55.853 214.405,55.853 
					214.595,46.155 227.999,46.155 228.237,33.964 214.833,33.964 215.022,24.267 228.428,24.267 				"/>
			</g>
		</g>
		<g enable-background="new    ">
			<g>
				<polygon fill="#9C982F" points="274.118,6.656 281.009,13.615 280.898,19.247 274.008,12.289 				"/>
			</g>
			<g>
				<polygon fill="#777424" points="269.904,21.629 276.795,28.588 256.901,28.588 250.011,21.629 				"/>
			</g>
			<g>
				<polygon fill="#7A7825" points="269.901,32.681 276.792,39.639 256.422,53.114 249.53,46.155 				"/>
			</g>
			<g>
				<polygon fill="#9C982F" points="286.698,12.289 293.59,19.247 293.407,28.588 286.516,21.629 				"/>
			</g>
			<g>
				<polygon fill="#7A7825" points="286.516,21.629 293.407,28.588 284.738,34.363 277.848,27.404 				"/>
			</g>
			<g>
				<polygon fill="#9C982F" points="305.37,9.081 312.262,16.039 311.953,31.796 305.063,24.837 				"/>
			</g>
			<g>
				<polygon fill="#777424" points="286.05,45.443 292.941,52.401 276.792,39.639 269.901,32.681 				"/>
			</g>
			<g>
				<polygon fill="#9C982F" points="286.271,34.106 293.163,41.065 292.941,52.401 286.05,45.443 				"/>
			</g>
			<g>
				<polygon fill="#CBC73E" points="286.05,45.443 269.901,32.681 249.53,46.155 249.752,34.819 269.904,21.629 250.011,21.629 
					250.193,12.289 263.384,12.289 263.494,6.656 274.118,6.656 274.008,12.289 286.698,12.289 286.516,21.629 277.848,27.404 
					286.271,34.106 				"/>
			</g>
			<g>
				<polygon fill="#777424" points="278.541,57.563 285.432,64.522 259.193,64.522 252.303,57.563 				"/>
			</g>
			<g>
				<polygon fill="#9C982F" points="312.335,24.837 319.226,31.796 319.059,40.352 312.167,33.393 				"/>
			</g>
			<g>
				<polygon fill="#777424" points="312.167,33.393 319.059,40.352 311.786,40.352 304.895,33.393 				"/>
			</g>
			<g>
				<polygon fill="#777424" points="278.572,66.903 285.463,73.862 258.822,83.487 251.932,76.529 				"/>
			</g>
			<g>
				<polygon fill="#777424" points="304.422,57.563 311.313,64.522 297.239,69.585 290.349,62.627 				"/>
			</g>
			<g>
				<polygon fill="#9C982F" points="304.895,33.393 311.786,40.352 311.313,64.522 304.422,57.563 				"/>
			</g>
			<g>
				<polygon fill="#9C982F" points="304.518,67.261 311.408,74.219 311.228,83.487 304.337,76.529 				"/>
			</g>
			<g>
				<polygon fill="#CBC73E" points="304.895,33.393 304.422,57.563 290.349,62.627 304.518,67.261 304.337,76.529 278.572,66.903 
					251.932,76.529 252.117,67.047 278.541,57.563 252.303,57.563 252.463,49.364 294.315,49.364 295.104,9.081 305.37,9.081 
					305.063,24.837 312.335,24.837 312.167,33.393 				"/>
			</g>
			<g>
				<polygon fill="#777424" points="304.337,76.529 311.228,83.487 285.463,73.862 278.572,66.903 				"/>
			</g>
		</g>
		<g enable-background="new    ">
			<g>
				<polygon fill="#9C982F" points="375.743,9.081 382.635,16.039 381.315,83.487 374.424,76.529 				"/>
			</g>
			<g>
				<polygon fill="#777424" points="374.424,76.529 381.315,83.487 370.335,83.487 363.444,76.529 				"/>
			</g>
			<g>
				<polygon fill="#CBC73E" points="364.764,9.081 375.743,9.081 374.424,76.529 363.444,76.529 				"/>
			</g>
		</g>
		<g enable-background="new    ">
			<g>
				<polygon fill="#777424" points="342.323,18.991 349.214,25.95 323.618,25.95 316.728,18.991 				"/>
			</g>
			<g>
				<polygon fill="#9C982F" points="353.705,9.437 360.596,16.396 360.409,25.95 353.518,18.991 				"/>
			</g>
			<g>
				<polygon fill="#777424" points="344.201,76.102 351.092,83.061 340.112,83.061 333.222,76.102 				"/>
			</g>
			<g>
				<polygon fill="#98942E" points="353.518,18.991 360.409,25.95 351.092,83.061 344.201,76.102 				"/>
			</g>
			<g>
				<polygon fill="#CBC73E" points="316.728,18.991 316.914,9.437 353.705,9.437 353.518,18.991 344.201,76.102 333.222,76.102 
					342.323,18.991 				"/>
			</g>
		</g>
	</g>
</g>
</svg>
