<?xml version="1.0" encoding="utf-8"?>
<!-- Generator: Adobe Illustrator 16.0.0, SVG Export Plug-In . SVG Version: 6.00 Build 0)  -->
<!DOCTYPE svg PUBLIC "-//W3C//DTD SVG 1.1//EN" "http://www.w3.org/Graphics/SVG/1.1/DTD/svg11.dtd">
<svg version="1.1" id="레이어_1" xmlns="http://www.w3.org/2000/svg" xmlns:xlink="http://www.w3.org/1999/xlink" x="0px"
	 y="0px" width="416px" height="98px" viewBox="0 0 416 98" enable-background="new 0 0 416 98" xml:space="preserve">
<g>
	<g>
		<g enable-background="new    ">
			<g>
				<polygon fill="#9F9C30" points="68.35,11.157 75.24,18.115 95.444,82.855 88.553,75.896 				"/>
			</g>
			<g>
				<polygon fill="#777424" points="88.553,75.896 95.444,82.855 85.346,82.855 78.456,75.896 				"/>
			</g>
			<g>
				<polygon fill="#CBC73E" points="68.35,11.157 88.553,75.896 78.456,75.896 58.385,11.157 				"/>
			</g>
		</g>
		<g enable-background="new    ">
			<g>
				<polygon fill="#9C982F" points="125.909,67.056 132.8,74.015 132.627,82.855 125.736,75.896 				"/>
			</g>
			<g>
				<polygon fill="#777424" points="125.736,75.896 132.627,82.855 101.184,82.855 94.293,75.896 				"/>
			</g>
			<g>
				<polygon fill="#CBC73E" points="125.909,67.056 125.736,75.896 94.293,75.896 94.466,67.056 				"/>
			</g>
		</g>
		<g enable-background="new    ">
			<g>
				<polygon fill="#777424" points="157.341,17.957 164.231,24.915 143.698,24.915 136.807,17.957 				"/>
			</g>
			<g>
				<polygon fill="#9C982F" points="168.065,9.116 174.957,16.074 174.778,25.201 167.887,18.242 				"/>
			</g>
			<g>
				<polygon fill="#777424" points="154.429,31.932 161.32,38.89 144.493,38.89 137.603,31.932 				"/>
			</g>
			<g>
				<polygon fill="#96932E" points="167.887,18.242 174.778,25.201 169.683,48.801 162.792,41.842 				"/>
			</g>
			<g>
				<polygon fill="#CBC73E" points="137.759,23.946 156.083,23.946 157.341,17.957 136.807,17.957 136.979,9.116 168.065,9.116 
					167.887,18.242 162.792,41.842 152.453,41.842 154.429,31.932 137.603,31.932 				"/>
			</g>
			<g>
				<polygon fill="#777424" points="162.792,41.842 169.683,48.801 159.344,48.801 152.453,41.842 				"/>
			</g>
			<g>
				<polygon fill="#777424" points="184.912,30.006 191.803,36.965 178.042,36.965 171.151,30.006 				"/>
			</g>
			<g>
				<polygon fill="#9C982F" points="150.021,64.088 156.913,71.046 156.838,74.824 149.948,67.866 				"/>
			</g>
			<g>
				<polygon fill="#777424" points="184.179,52.893 191.07,59.852 147.078,59.852 140.188,52.893 				"/>
			</g>
			<g>
				<polygon fill="#777424" points="194.013,64.088 200.904,71.046 156.913,71.046 150.021,64.088 				"/>
			</g>
			<g>
				<polygon fill="#9C982F" points="195.095,8.759 201.986,15.718 200.904,71.046 194.013,64.088 				"/>
			</g>
			<g>
				<polygon fill="#9C982F" points="193.939,67.866 200.83,74.824 200.667,83.166 193.776,76.208 				"/>
			</g>
			<g>
				<polygon fill="#CBC73E" points="194.013,64.088 150.021,64.088 149.948,67.866 193.939,67.866 193.776,76.208 139.731,76.208 
					140.116,56.53 184.108,56.53 184.179,52.893 140.188,52.893 140.348,44.694 184.625,44.694 184.912,30.006 171.151,30.006 
					171.323,21.236 185.083,21.236 185.327,8.759 195.095,8.759 				"/>
			</g>
			<g>
				<polygon fill="#777424" points="193.776,76.208 200.667,83.166 146.622,83.166 139.731,76.208 				"/>
			</g>
		</g>
		<g enable-background="new    ">
			<g>
				<polygon fill="#777424" points="222.298,17.315 229.188,24.273 211.444,24.273 204.553,17.315 				"/>
			</g>
			<g>
				<polygon fill="#9C982F" points="213.772,30.791 220.663,37.749 220.552,43.453 213.661,36.495 				"/>
			</g>
			<g>
				<polygon fill="#777424" points="231.525,30.791 238.417,37.749 220.663,37.749 213.772,30.791 				"/>
			</g>
			<g>
				<polygon fill="#9C982F" points="231.949,9.116 238.841,16.074 238.417,37.749 231.525,30.791 				"/>
			</g>
			<g>
				<polygon fill="#777424" points="238.574,31.361 245.465,38.319 240.394,38.319 233.503,31.361 				"/>
			</g>
			<g>
				<polygon fill="#9C982F" points="231.414,36.495 238.305,43.453 238.139,51.938 231.248,44.979 				"/>
			</g>
			<g>
				<polygon fill="#777424" points="231.248,44.979 238.139,51.938 210.903,51.938 204.012,44.979 				"/>
			</g>
			<g>
				<polygon fill="#CBC73E" points="231.414,36.495 231.248,44.979 204.012,44.979 204.445,22.876 222.188,22.876 222.298,17.315 
					204.553,17.315 204.714,9.116 231.949,9.116 231.525,30.791 213.772,30.791 213.661,36.495 				"/>
			</g>
			<g>
				<polygon fill="#9C982F" points="248.713,8.759 255.604,15.718 254.874,53.008 247.983,46.049 				"/>
			</g>
			<g>
				<polygon fill="#777424" points="247.983,46.049 254.874,53.008 245.178,53.008 238.287,46.049 				"/>
			</g>
			<g>
				<polygon fill="#CBC73E" points="238.287,46.049 238.574,31.361 233.503,31.361 233.688,21.878 238.76,21.878 239.016,8.759 
					248.713,8.759 247.983,46.049 				"/>
			</g>
			<g>
				<polygon fill="#777424" points="251.99,59.881 258.881,66.84 215.389,66.84 208.498,59.881 				"/>
			</g>
			<g>
				<polygon fill="#9C982F" points="263.543,8.759 270.434,15.718 269.434,66.84 262.543,59.881 				"/>
			</g>
			<g>
				<polygon fill="#97942E" points="262.543,59.881 269.434,66.84 266.404,83.166 259.514,76.208 				"/>
			</g>
			<g>
				<polygon fill="#CBC73E" points="253.837,8.759 263.543,8.759 262.543,59.881 259.514,76.208 248.882,76.208 251.99,59.881 
					208.498,59.881 208.671,51.039 253.01,51.039 				"/>
			</g>
			<g>
				<polygon fill="#777424" points="259.514,76.208 266.404,83.166 255.772,83.166 248.882,76.208 				"/>
			</g>
		</g>
		<g enable-background="new    ">
			<g>
				<polygon fill="#928F2C" points="292.277,22.805 299.169,29.764 290.688,55.146 283.796,48.188 				"/>
			</g>
			<g>
				<polygon fill="#777424" points="283.796,48.188 290.688,55.146 279.422,55.146 272.531,48.188 				"/>
			</g>
			<g>
				<polygon fill="#777424" points="321.474,24.73 328.364,31.689 318.025,31.689 311.135,24.73 				"/>
			</g>
			<g>
				<polygon fill="#9C982F" points="287.311,54.391 294.202,61.35 293.964,73.541 287.072,66.583 				"/>
			</g>
			<g>
				<polygon fill="#9F9C30" points="298.32,9.116 305.212,16.074 317.924,55.146 311.032,48.188 				"/>
			</g>
			<g>
				<polygon fill="#777424" points="311.032,48.188 317.924,55.146 306.658,55.146 299.768,48.188 				"/>
			</g>
			<g>
				<polygon fill="#CBC73E" points="292.277,22.805 283.796,48.188 272.531,48.188 286.771,9.116 298.32,9.116 311.032,48.188 
					299.768,48.188 				"/>
			</g>
			<g>
				<polygon fill="#777424" points="321.178,39.846 328.068,46.804 317.729,46.804 310.839,39.846 				"/>
			</g>
			<g>
				<polygon fill="#9C982F" points="331.981,8.759 338.872,15.718 337.553,83.166 330.662,76.208 				"/>
			</g>
			<g>
				<polygon fill="#CBC73E" points="321.785,8.759 331.981,8.759 330.662,76.208 276.617,76.208 277.044,54.391 287.311,54.391 
					287.072,66.583 320.654,66.583 321.178,39.846 310.839,39.846 311.011,31.076 321.35,31.076 321.474,24.73 311.135,24.73 
					311.306,15.96 321.645,15.96 				"/>
			</g>
			<g>
				<polygon fill="#777424" points="330.662,76.208 337.553,83.166 283.508,83.166 276.617,76.208 				"/>
			</g>
		</g>
	</g>
</g>
</svg>
