<?xml version="1.0" encoding="utf-8"?>
<!-- Generator: Adobe Illustrator 16.0.0, SVG Export Plug-In . SVG Version: 6.00 Build 0)  -->
<!DOCTYPE svg PUBLIC "-//W3C//DTD SVG 1.1//EN" "http://www.w3.org/Graphics/SVG/1.1/DTD/svg11.dtd">
<svg version="1.1" xmlns="http://www.w3.org/2000/svg" xmlns:xlink="http://www.w3.org/1999/xlink" x="0px" y="0px" width="416px"
	 height="98px" viewBox="0 0 416 98" enable-background="new 0 0 416 98" xml:space="preserve">
<g id="레이어_2">
	<g>
		<path d="M117.698,28.915c-1.067,0-2.091-0.427-2.842-1.185l-6.891-6.958c-1.136-1.147-1.471-2.865-0.85-4.354
			c0.622-1.49,2.078-2.46,3.692-2.46h20.534c1.068,0,2.091,0.427,2.842,1.186l6.89,6.958c1.136,1.147,1.471,2.864,0.85,4.354
			c-0.622,1.49-2.078,2.46-3.692,2.46H117.698z"/>
		<polygon points="127.341,20.957 134.231,27.915 113.698,27.915 106.807,20.957 		"/>
		<path d="M148.779,29.201c-1.048,0-2.077-0.412-2.843-1.186l-6.891-6.959c-0.761-0.768-1.178-1.812-1.157-2.893l0.178-9.126
			c0.031-1.606,1.021-3.039,2.513-3.636c0.481-0.192,0.985-0.286,1.485-0.286c1.048,0,2.077,0.412,2.843,1.185l6.892,6.958
			c0.761,0.769,1.179,1.812,1.157,2.894l-0.179,9.127c-0.031,1.607-1.021,3.039-2.514,3.635
			C149.782,29.108,149.278,29.201,148.779,29.201z"/>
		<polygon points="138.065,12.116 144.957,19.074 144.778,28.201 137.887,21.242 		"/>
		<path d="M118.493,42.89c-1.068,0-2.091-0.427-2.842-1.186l-6.89-6.958c-1.136-1.147-1.471-2.864-0.85-4.354
			c0.622-1.49,2.078-2.46,3.692-2.46h16.826c1.067,0,2.091,0.427,2.842,1.186l6.891,6.958c1.136,1.147,1.471,2.864,0.85,4.354
			c-0.622,1.49-2.078,2.46-3.692,2.46H118.493z"/>
		<polygon points="124.429,34.932 131.32,41.89 114.493,41.89 107.603,34.932 		"/>
		<path d="M143.684,52.801c-1.053,0-2.081-0.416-2.843-1.186l-6.891-6.959c-0.951-0.96-1.353-2.337-1.067-3.659l5.095-23.6
			c0.31-1.435,1.38-2.584,2.789-2.996c0.369-0.108,0.747-0.16,1.12-0.16c1.053,0,2.081,0.416,2.843,1.186l6.891,6.959
			c0.951,0.961,1.353,2.337,1.068,3.659l-5.095,23.599c-0.31,1.436-1.38,2.585-2.79,2.996
			C144.435,52.748,144.057,52.801,143.684,52.801z"/>
		<polygon points="137.887,21.242 144.778,28.201 139.683,51.801 132.792,44.842 		"/>
		<path d="M126.453,45.842c-1.198,0-2.333-0.537-3.093-1.463c-0.76-0.926-1.064-2.144-0.83-3.319l1.022-5.127h-11.95
			c-1.074,0-2.104-0.432-2.856-1.199c-0.752-0.767-1.164-1.805-1.143-2.879l0.156-7.986c0.019-0.956,0.372-1.829,0.946-2.507
			c-0.272-0.168-0.526-0.37-0.755-0.603c-0.752-0.767-1.164-1.804-1.143-2.878l0.172-8.841c0.042-2.179,1.82-3.922,3.999-3.922
			h31.086c1.074,0,2.104,0.432,2.856,1.199c0.752,0.767,1.164,1.805,1.143,2.879l-0.178,9.126c-0.005,0.257-0.035,0.514-0.089,0.766
			l-5.095,23.6c-0.398,1.841-2.026,3.156-3.91,3.156H126.453z"/>
		<polygon points="107.759,26.946 126.083,26.946 127.341,20.957 106.807,20.957 106.979,12.116 138.065,12.116 137.887,21.242 
			132.792,44.842 122.453,44.842 124.429,34.932 107.603,34.932 		"/>
		<path d="M133.344,52.801c-1.068,0-2.091-0.427-2.842-1.186l-6.891-6.959c-1.136-1.147-1.471-2.864-0.85-4.354
			c0.622-1.49,2.078-2.46,3.692-2.46h10.339c1.068,0,2.091,0.427,2.842,1.186l6.891,6.959c1.136,1.146,1.471,2.864,0.85,4.354
			c-0.622,1.489-2.078,2.46-3.692,2.46H133.344z"/>
		<polygon points="132.792,44.842 139.683,51.801 129.344,51.801 122.453,44.842 		"/>
		<path d="M152.042,40.965c-1.068,0-2.091-0.427-2.842-1.186l-6.891-6.959c-1.136-1.147-1.471-2.864-0.85-4.354
			c0.622-1.49,2.078-2.46,3.692-2.46h13.761c1.068,0,2.091,0.427,2.842,1.186l6.891,6.959c1.136,1.147,1.471,2.864,0.85,4.354
			c-0.622,1.49-2.078,2.46-3.692,2.46H152.042z"/>
		<polygon points="154.912,33.006 161.803,39.965 148.042,39.965 141.151,33.006 		"/>
		<path d="M130.839,78.824c-1.048,0-2.077-0.412-2.843-1.186l-6.89-6.958c-0.76-0.768-1.178-1.811-1.157-2.892l0.073-3.778
			c0.031-1.606,1.021-3.039,2.513-3.637c0.482-0.192,0.986-0.286,1.485-0.286c1.048,0,2.077,0.412,2.843,1.186l6.892,6.957
			c0.761,0.77,1.179,1.813,1.157,2.895l-0.075,3.778c-0.032,1.607-1.022,3.039-2.514,3.635
			C131.841,78.73,131.338,78.824,130.839,78.824z"/>
		<polygon points="120.021,67.088 126.913,74.046 126.838,77.824 119.948,70.866 		"/>
		<path d="M121.078,63.852c-1.068,0-2.091-0.427-2.842-1.186l-6.89-6.959c-1.136-1.147-1.471-2.864-0.85-4.354
			c0.622-1.489,2.078-2.46,3.692-2.46h43.991c1.068,0,2.091,0.427,2.842,1.186l6.891,6.959c1.136,1.147,1.471,2.864,0.85,4.354
			c-0.622,1.489-2.078,2.46-3.692,2.46H121.078z"/>
		<polygon points="154.179,55.893 161.07,62.852 117.078,62.852 110.188,55.893 		"/>
		<path d="M130.913,75.046c-1.067,0-2.091-0.427-2.842-1.186l-6.892-6.958c-1.136-1.146-1.471-2.864-0.85-4.354
			c0.622-1.49,2.078-2.461,3.692-2.461h43.992c1.067,0,2.091,0.427,2.842,1.186l6.891,6.958c1.136,1.146,1.471,2.864,0.85,4.354
			c-0.622,1.489-2.078,2.46-3.692,2.46H130.913z"/>
		<polygon points="164.013,67.088 170.904,74.046 126.913,74.046 120.021,67.088 		"/>
		<path d="M174.905,75.046c-1.048,0-2.077-0.412-2.843-1.186l-6.891-6.958c-0.761-0.769-1.178-1.812-1.157-2.893l1.082-55.329
			c0.031-1.607,1.021-3.039,2.514-3.636c0.481-0.193,0.985-0.286,1.484-0.286c1.048,0,2.077,0.412,2.843,1.186l6.891,6.959
			c0.761,0.768,1.178,1.812,1.157,2.893l-1.082,55.328c-0.031,1.607-1.021,3.039-2.514,3.636
			C175.908,74.952,175.404,75.046,174.905,75.046z"/>
		<polygon points="165.095,11.759 171.986,18.718 170.904,74.046 164.013,67.088 		"/>
		<path d="M174.668,87.166c-1.048,0-2.077-0.412-2.843-1.186l-6.891-6.958c-0.761-0.768-1.178-1.812-1.157-2.893l0.163-8.342
			c0.031-1.606,1.021-3.039,2.514-3.636c0.481-0.192,0.985-0.286,1.484-0.286c1.048,0,2.077,0.412,2.843,1.186l6.891,6.958
			c0.761,0.768,1.178,1.812,1.157,2.893l-0.163,8.342c-0.031,1.606-1.021,3.039-2.514,3.636
			C175.671,87.072,175.167,87.166,174.668,87.166z"/>
		<polygon points="163.939,70.866 170.83,77.824 170.667,86.166 163.776,79.208 		"/>
		<path d="M113.731,80.208c-1.074,0-2.104-0.433-2.856-1.199c-0.752-0.768-1.164-1.805-1.143-2.879l0.385-19.678
			c0.013-0.655,0.183-1.271,0.473-1.812c-0.273-0.563-0.414-1.188-0.401-1.826l0.16-8.199c0.042-2.178,1.82-3.922,3.999-3.922
			h40.354l0.13-6.688h-9.682c-1.075,0-2.104-0.432-2.856-1.2c-0.752-0.767-1.165-1.805-1.143-2.879l0.172-8.77
			c0.042-2.178,1.82-3.921,3.999-3.921h9.837l0.167-8.555c0.042-2.178,1.82-3.922,3.999-3.922h9.768
			c1.074,0,2.104,0.432,2.856,1.199s1.164,1.805,1.143,2.879l-1.082,55.329c-0.013,0.684-0.197,1.323-0.511,1.881
			c0.297,0.582,0.45,1.232,0.437,1.897l-0.163,8.342c-0.042,2.179-1.82,3.922-3.999,3.922H113.731z"/>
		<polygon points="164.013,67.088 120.021,67.088 119.948,70.866 163.939,70.866 163.776,79.208 109.731,79.208 110.116,59.53 
			154.108,59.53 154.179,55.893 110.188,55.893 110.348,47.694 154.625,47.694 154.912,33.006 141.151,33.006 141.323,24.236 
			155.083,24.236 155.327,11.759 165.095,11.759 		"/>
		<path d="M120.622,87.166c-1.067,0-2.091-0.427-2.842-1.186l-6.891-6.958c-1.136-1.146-1.471-2.864-0.85-4.354
			c0.622-1.489,2.078-2.46,3.692-2.46h54.045c1.067,0,2.091,0.427,2.842,1.186l6.891,6.958c1.136,1.146,1.471,2.864,0.85,4.354
			c-0.622,1.489-2.078,2.46-3.692,2.46H120.622z"/>
		<polygon points="163.776,79.208 170.667,86.166 116.622,86.166 109.731,79.208 		"/>
		<path d="M185.443,28.273c-1.068,0-2.091-0.427-2.842-1.186l-6.89-6.958c-1.136-1.147-1.471-2.864-0.85-4.354
			c0.622-1.49,2.078-2.46,3.692-2.46h17.745c1.068,0,2.091,0.427,2.842,1.186l6.89,6.958c1.136,1.147,1.47,2.864,0.85,4.354
			c-0.622,1.49-2.078,2.46-3.692,2.46H185.443z"/>
		<polygon points="192.298,20.315 199.188,27.273 181.443,27.273 174.553,20.315 		"/>
		<path d="M194.553,47.453c-1.048,0-2.077-0.412-2.843-1.186l-6.891-6.958c-0.76-0.768-1.178-1.811-1.157-2.892l0.11-5.704
			c0.031-1.607,1.021-3.04,2.513-3.637c0.481-0.192,0.985-0.286,1.485-0.286c1.048,0,2.077,0.412,2.843,1.185l6.892,6.958
			c0.761,0.769,1.179,1.812,1.157,2.893l-0.111,5.704c-0.031,1.607-1.021,3.039-2.514,3.636
			C195.556,47.359,195.052,47.453,194.553,47.453z"/>
		<polygon points="183.771,33.791 190.663,40.749 190.552,46.453 183.661,39.495 		"/>
		<path d="M194.663,41.749c-1.067,0-2.091-0.427-2.842-1.185l-6.892-6.958c-1.136-1.147-1.471-2.865-0.85-4.354
			c0.622-1.49,2.078-2.46,3.692-2.46h17.754c1.067,0,2.091,0.427,2.842,1.185l6.892,6.958c1.136,1.147,1.472,2.865,0.85,4.354
			c-0.621,1.49-2.077,2.46-3.691,2.46H194.663z"/>
		<polygon points="201.525,33.791 208.417,40.749 190.663,40.749 183.771,33.791 		"/>
		<path d="M212.418,41.749c-1.048,0-2.077-0.412-2.843-1.185l-6.892-6.958c-0.761-0.769-1.179-1.812-1.157-2.893l0.424-21.675
			c0.031-1.607,1.021-3.039,2.513-3.636c0.482-0.193,0.985-0.286,1.485-0.286c1.048,0,2.077,0.412,2.843,1.185l6.892,6.958
			c0.761,0.769,1.179,1.812,1.157,2.893l-0.424,21.675c-0.031,1.607-1.021,3.039-2.514,3.636
			C213.421,41.656,212.917,41.749,212.418,41.749z"/>
		<polygon points="201.949,12.116 208.841,19.074 208.417,40.749 201.525,33.791 		"/>
		<path d="M214.395,42.319c-1.067,0-2.091-0.427-2.842-1.185l-6.892-6.958c-1.136-1.147-1.471-2.865-0.85-4.354
			c0.622-1.49,2.078-2.46,3.692-2.46h5.071c1.067,0,2.091,0.427,2.842,1.186l6.891,6.958c1.137,1.147,1.472,2.864,0.85,4.354
			c-0.621,1.49-2.077,2.46-3.691,2.46H214.395z"/>
		<polygon points="208.574,34.361 215.465,41.319 210.395,41.319 203.503,34.361 		"/>
		<path d="M212.14,55.938c-1.048,0-2.077-0.412-2.843-1.186l-6.891-6.958c-0.761-0.769-1.178-1.812-1.157-2.893l0.166-8.484
			c0.031-1.607,1.021-3.039,2.514-3.636c0.481-0.193,0.985-0.286,1.484-0.286c1.048,0,2.077,0.412,2.843,1.186l6.891,6.958
			c0.761,0.768,1.179,1.812,1.157,2.893l-0.166,8.484c-0.031,1.607-1.021,3.039-2.514,3.636
			C213.143,55.844,212.639,55.938,212.14,55.938z"/>
		<polygon points="201.414,39.495 208.305,46.453 208.139,54.938 201.248,47.979 		"/>
		<path d="M184.902,55.938c-1.068,0-2.091-0.427-2.842-1.186l-6.89-6.959c-1.136-1.146-1.471-2.864-0.85-4.354
			c0.622-1.49,2.078-2.46,3.692-2.46h27.236c1.068,0,2.091,0.427,2.842,1.186l6.891,6.958c1.137,1.146,1.472,2.864,0.85,4.354
			c-0.621,1.489-2.077,2.46-3.691,2.46H184.902z"/>
		<polygon points="201.248,47.979 208.139,54.938 180.902,54.938 174.012,47.979 		"/>
		<path d="M178.012,48.979c-1.074,0-2.104-0.432-2.856-1.199c-0.752-0.767-1.164-1.804-1.143-2.878l0.433-22.103
			c0.021-1.079,0.468-2.052,1.179-2.758c-0.706-0.759-1.091-1.764-1.07-2.803l0.161-8.199c0.042-2.178,1.82-3.922,3.999-3.922
			h27.235c1.074,0,2.104,0.432,2.855,1.199c0.753,0.767,1.164,1.805,1.144,2.879l-0.424,21.675
			c-0.021,1.116-0.499,2.117-1.251,2.829c0.75,0.767,1.16,1.803,1.14,2.875l-0.166,8.484c-0.042,2.178-1.82,3.921-3.999,3.921
			H178.012z"/>
		<polygon points="201.414,39.495 201.248,47.979 174.012,47.979 174.445,25.876 192.188,25.876 192.298,20.315 174.553,20.315 
			174.714,12.116 201.949,12.116 201.525,33.791 183.771,33.791 183.661,39.495 		"/>
		<path d="M228.875,57.008c-1.048,0-2.077-0.412-2.843-1.186l-6.892-6.959c-0.761-0.769-1.179-1.812-1.157-2.893l0.73-37.29
			c0.031-1.607,1.021-3.039,2.514-3.636c0.481-0.193,0.985-0.286,1.484-0.286c1.048,0,2.077,0.412,2.844,1.186l6.891,6.959
			c0.761,0.768,1.178,1.812,1.156,2.893l-0.729,37.29c-0.031,1.607-1.021,3.039-2.514,3.636
			C229.878,56.914,229.374,57.008,228.875,57.008z"/>
		<polygon points="218.713,11.759 225.604,18.718 224.874,56.008 217.982,49.049 		"/>
		<path d="M219.178,57.008c-1.067,0-2.091-0.427-2.843-1.186l-6.89-6.959c-1.137-1.147-1.471-2.864-0.85-4.354
			c0.621-1.49,2.077-2.46,3.691-2.46h9.695c1.067,0,2.091,0.427,2.842,1.186l6.892,6.959c1.137,1.146,1.472,2.864,0.85,4.354
			c-0.621,1.489-2.077,2.46-3.691,2.46H219.178z"/>
		<polygon points="217.982,49.049 224.874,56.008 215.178,56.008 208.287,49.049 		"/>
		<path d="M212.287,50.049c-1.074,0-2.104-0.433-2.855-1.199c-0.753-0.768-1.164-1.805-1.144-2.879l0.207-10.61h-0.992
			c-1.074,0-2.104-0.432-2.856-1.199c-0.752-0.767-1.164-1.805-1.143-2.878l0.185-9.483c0.042-2.179,1.82-3.922,3.999-3.922h1.149
			l0.18-9.197c0.042-2.178,1.82-3.922,3.999-3.922h9.697c1.074,0,2.104,0.432,2.856,1.199c0.752,0.768,1.164,1.805,1.143,2.879
			l-0.73,37.29c-0.042,2.179-1.82,3.922-3.999,3.922H212.287z"/>
		<polygon points="208.287,49.049 208.574,34.361 203.503,34.361 203.688,24.878 208.76,24.878 209.016,11.759 218.713,11.759 
			217.982,49.049 		"/>
		<path d="M189.389,70.84c-1.068,0-2.091-0.427-2.842-1.186l-6.891-6.959c-1.136-1.147-1.471-2.864-0.85-4.354
			c0.622-1.489,2.078-2.46,3.692-2.46h43.492c1.067,0,2.091,0.427,2.843,1.186l6.891,6.959c1.136,1.147,1.471,2.864,0.849,4.354
			c-0.621,1.489-2.077,2.46-3.691,2.46H189.389z"/>
		<polygon points="221.99,62.881 228.881,69.84 185.389,69.84 178.498,62.881 		"/>
		<path d="M243.435,70.84c-1.048,0-2.077-0.412-2.844-1.186l-6.891-6.959c-0.761-0.769-1.178-1.812-1.156-2.893l1-51.122
			c0.031-1.607,1.021-3.039,2.514-3.636c0.481-0.193,0.985-0.286,1.484-0.286c1.048,0,2.077,0.412,2.844,1.186l6.891,6.959
			c0.761,0.768,1.178,1.812,1.156,2.893l-1,51.122c-0.031,1.607-1.021,3.039-2.514,3.636
			C244.438,70.746,243.934,70.84,243.435,70.84z"/>
		<polygon points="233.543,11.759 240.434,18.718 239.434,69.84 232.543,62.881 		"/>
		<path d="M240.404,87.166c-1.052,0-2.079-0.415-2.842-1.186l-6.891-6.958c-0.923-0.932-1.33-2.255-1.091-3.544l3.029-16.327
			c0.271-1.464,1.333-2.656,2.756-3.094c0.388-0.119,0.783-0.177,1.177-0.177c1.052,0,2.08,0.415,2.843,1.186l6.891,6.959
			c0.922,0.932,1.329,2.256,1.09,3.544l-3.029,16.326c-0.271,1.464-1.333,2.655-2.756,3.094
			C241.194,87.108,240.798,87.166,240.404,87.166z"/>
		<polygon points="232.543,62.881 239.434,69.84 236.404,86.166 229.514,79.208 		"/>
		<path d="M222.882,80.208c-1.191,0-2.321-0.531-3.082-1.45c-0.76-0.918-1.07-2.127-0.848-3.298l2.205-11.579h-38.659
			c-1.074,0-2.104-0.433-2.856-1.199c-0.752-0.768-1.164-1.805-1.143-2.879l0.173-8.842c0.042-2.179,1.82-3.922,3.999-3.922h40.416
			l0.751-38.358c0.042-2.178,1.82-3.922,3.999-3.922h9.706c1.074,0,2.104,0.432,2.855,1.199c0.753,0.767,1.165,1.805,1.144,2.879
			l-1,51.122c-0.004,0.219-0.026,0.437-0.066,0.651l-3.029,16.327c-0.352,1.896-2.005,3.271-3.933,3.271H222.882z"/>
		<polygon points="223.837,11.759 233.543,11.759 232.543,62.881 229.514,79.208 218.882,79.208 221.99,62.881 178.498,62.881 
			178.671,54.039 223.01,54.039 		"/>
		<path d="M229.771,87.166c-1.067,0-2.091-0.427-2.843-1.186l-6.89-6.958c-1.136-1.147-1.471-2.864-0.849-4.354
			c0.621-1.489,2.077-2.46,3.691-2.46h10.632c1.067,0,2.091,0.427,2.842,1.186l6.891,6.958c1.137,1.146,1.472,2.864,0.85,4.354
			c-0.621,1.489-2.077,2.46-3.691,2.46H229.771z"/>
		<polygon points="229.514,79.208 236.404,86.166 225.771,86.166 218.882,79.208 		"/>
		<path d="M264.688,59.146c-1.056,0-2.082-0.418-2.842-1.186l-6.892-6.959c-1.063-1.072-1.431-2.65-0.952-4.082l8.481-25.382
			c0.44-1.318,1.533-2.313,2.886-2.628c0.301-0.07,0.606-0.104,0.908-0.104c1.056,0,2.082,0.418,2.842,1.186l6.892,6.959
			c1.063,1.072,1.431,2.651,0.952,4.082l-8.481,25.382c-0.44,1.317-1.533,2.313-2.886,2.628
			C265.295,59.112,264.989,59.146,264.688,59.146z"/>
		<polygon points="262.277,25.805 269.169,32.764 260.688,58.146 253.796,51.188 		"/>
		<path d="M253.422,59.146c-1.067,0-2.091-0.427-2.843-1.186l-6.891-6.959c-1.136-1.147-1.471-2.864-0.849-4.354
			c0.621-1.49,2.077-2.46,3.691-2.46h11.265c1.067,0,2.091,0.427,2.842,1.186l6.892,6.959c1.137,1.146,1.472,2.864,0.85,4.354
			c-0.621,1.489-2.077,2.46-3.691,2.46H253.422z"/>
		<polygon points="253.796,51.188 260.688,58.146 249.422,58.146 242.531,51.188 		"/>
		<path d="M292.025,35.689c-1.067,0-2.091-0.427-2.843-1.186l-6.891-6.959c-1.136-1.147-1.471-2.864-0.849-4.354
			c0.621-1.49,2.077-2.46,3.691-2.46h10.339c1.067,0,2.091,0.427,2.843,1.186l6.891,6.959c1.136,1.147,1.471,2.864,0.849,4.354
			c-0.621,1.49-2.077,2.46-3.691,2.46H292.025z"/>
		<polygon points="291.474,27.73 298.364,34.689 288.025,34.689 281.135,27.73 		"/>
		<path d="M267.965,77.541c-1.048,0-2.077-0.412-2.843-1.186l-6.892-6.958c-0.761-0.768-1.179-1.812-1.157-2.893l0.238-12.192
			c0.031-1.606,1.021-3.039,2.514-3.636c0.481-0.192,0.985-0.286,1.484-0.286c1.048,0,2.077,0.412,2.843,1.186l6.892,6.959
			c0.761,0.769,1.179,1.812,1.157,2.893l-0.238,12.191c-0.031,1.606-1.021,3.039-2.514,3.636
			C268.968,77.447,268.464,77.541,267.965,77.541z"/>
		<polygon points="257.311,57.391 264.202,64.35 263.964,76.541 257.072,69.583 		"/>
		<path d="M291.925,59.146c-1.04,0-2.07-0.405-2.843-1.186l-6.892-6.959c-0.439-0.443-0.769-0.983-0.962-1.577l-12.712-39.071
			c-0.573-1.763,0.139-3.688,1.722-4.653c0.645-0.394,1.365-0.585,2.081-0.585c1.04,0,2.07,0.405,2.843,1.185l6.892,6.958
			c0.439,0.444,0.769,0.984,0.962,1.578l12.712,39.072c0.573,1.763-0.139,3.688-1.722,4.652
			C293.361,58.955,292.641,59.146,291.925,59.146z"/>
		<polygon points="268.32,12.116 275.212,19.074 287.924,58.146 281.032,51.188 		"/>
		<path d="M280.658,59.146c-1.067,0-2.091-0.427-2.843-1.186l-6.891-6.959c-1.136-1.147-1.471-2.864-0.849-4.354
			c0.621-1.49,2.077-2.46,3.691-2.46h11.265c1.067,0,2.091,0.427,2.842,1.186l6.892,6.959c1.137,1.146,1.472,2.864,0.85,4.354
			c-0.621,1.489-2.077,2.46-3.691,2.46H280.658z"/>
		<polygon points="281.032,51.188 287.924,58.146 276.658,58.146 269.768,51.188 		"/>
		<path d="M273.768,52.188c-1.773,0-3.335-1.167-3.837-2.868l-3.891-13.184l-4.45,13.32c-0.546,1.632-2.073,2.732-3.794,2.732
			h-11.265c-1.306,0-2.528-0.637-3.277-1.706c-0.748-1.069-0.928-2.438-0.48-3.664l14.24-39.071c0.575-1.58,2.077-2.63,3.758-2.63
			h11.549c1.732,0,3.268,1.115,3.804,2.762l12.712,39.072c0.396,1.218,0.186,2.552-0.567,3.588
			c-0.752,1.036-1.956,1.649-3.236,1.649H273.768z"/>
		<polygon points="262.277,25.805 253.796,51.188 242.531,51.188 256.771,12.116 268.32,12.116 281.032,51.188 269.768,51.188 		"/>
		<path d="M291.729,50.805c-1.067,0-2.091-0.427-2.843-1.186l-6.89-6.958c-1.136-1.147-1.471-2.865-0.849-4.354
			c0.621-1.49,2.077-2.46,3.691-2.46h10.339c1.067,0,2.091,0.427,2.842,1.186l6.891,6.958c1.137,1.147,1.472,2.864,0.85,4.354
			c-0.621,1.489-2.077,2.46-3.691,2.46H291.729z"/>
		<polygon points="291.178,42.846 298.068,49.805 287.729,49.805 280.839,42.846 		"/>
		<path d="M311.554,87.166c-1.048,0-2.077-0.412-2.843-1.186l-6.891-6.958c-0.761-0.769-1.179-1.812-1.157-2.893l1.319-67.449
			c0.031-1.607,1.021-3.039,2.514-3.636c0.481-0.193,0.985-0.286,1.484-0.286c1.048,0,2.077,0.412,2.844,1.186l6.891,6.959
			c0.761,0.768,1.178,1.812,1.156,2.893l-1.319,67.448c-0.031,1.607-1.021,3.039-2.514,3.636
			C312.557,87.072,312.053,87.166,311.554,87.166z"/>
		<polygon points="301.981,11.759 308.872,18.718 307.553,86.166 300.662,79.208 		"/>
		<path d="M250.617,80.208c-1.074,0-2.104-0.433-2.855-1.199c-0.753-0.768-1.165-1.805-1.144-2.879l0.427-21.817
			c0.042-2.179,1.82-3.922,3.999-3.922h10.267c1.074,0,2.104,0.433,2.855,1.199c0.753,0.768,1.165,1.805,1.144,2.879l-0.158,8.114
			h25.58l0.367-18.737h-6.26c-1.074,0-2.104-0.432-2.856-1.199c-0.752-0.768-1.164-1.805-1.143-2.879l0.172-8.77
			c0.025-1.291,0.66-2.429,1.627-3.142c-0.126-0.101-0.246-0.209-0.359-0.325c-0.753-0.767-1.165-1.805-1.144-2.879l0.171-8.77
			c0.042-2.178,1.82-3.922,3.999-3.922h6.416l0.064-3.279c0.042-2.178,1.82-3.922,3.999-3.922h10.196
			c1.074,0,2.104,0.432,2.855,1.199c0.753,0.767,1.165,1.805,1.144,2.879l-1.319,67.449c-0.042,2.179-1.82,3.922-3.999,3.922
			H250.617z"/>
		<polygon points="291.785,11.759 301.981,11.759 300.662,79.208 246.617,79.208 247.044,57.391 257.311,57.391 257.072,69.583 
			290.654,69.583 291.178,42.846 280.839,42.846 281.011,34.076 291.35,34.076 291.474,27.73 281.135,27.73 281.306,18.96 
			291.645,18.96 		"/>
		<path d="M257.508,87.166c-1.067,0-2.091-0.427-2.842-1.186l-6.891-6.958c-1.137-1.146-1.472-2.864-0.85-4.354
			c0.621-1.489,2.077-2.46,3.691-2.46h54.045c1.067,0,2.091,0.427,2.842,1.186l6.891,6.958c1.137,1.146,1.472,2.864,0.85,4.354
			c-0.621,1.489-2.077,2.46-3.691,2.46H257.508z"/>
		<polygon points="300.662,79.208 307.553,86.166 253.508,86.166 246.617,79.208 		"/>
	</g>
</g>
<g id="레이어_1">
	<g>
		<polygon fill="#777424" points="131.341,17.957 138.231,24.915 117.698,24.915 110.807,17.957 		"/>
		<polygon fill="#9C982F" points="142.065,9.116 148.957,16.074 148.778,25.201 141.887,18.242 		"/>
		<polygon fill="#777424" points="128.429,31.932 135.32,38.89 118.493,38.89 111.603,31.932 		"/>
		<polygon fill="#96932E" points="141.887,18.242 148.778,25.201 143.683,48.801 136.792,41.842 		"/>
		<polygon fill="#CBC73E" points="111.759,23.946 130.083,23.946 131.341,17.957 110.807,17.957 110.979,9.116 142.065,9.116 
			141.887,18.242 136.792,41.842 126.453,41.842 128.429,31.932 111.603,31.932 		"/>
		<polygon fill="#777424" points="136.792,41.842 143.683,48.801 133.344,48.801 126.453,41.842 		"/>
		<polygon fill="#777424" points="158.912,30.006 165.803,36.965 152.042,36.965 145.151,30.006 		"/>
		<polygon fill="#9C982F" points="124.021,64.088 130.913,71.046 130.838,74.824 123.948,67.866 		"/>
		<polygon fill="#777424" points="158.179,52.893 165.07,59.852 121.078,59.852 114.188,52.893 		"/>
		<polygon fill="#777424" points="168.013,64.088 174.904,71.046 130.913,71.046 124.021,64.088 		"/>
		<polygon fill="#9C982F" points="169.095,8.759 175.986,15.718 174.904,71.046 168.013,64.088 		"/>
		<polygon fill="#9C982F" points="167.939,67.866 174.83,74.824 174.667,83.166 167.776,76.208 		"/>
		<polygon fill="#CBC73E" points="168.013,64.088 124.021,64.088 123.948,67.866 167.939,67.866 167.776,76.208 113.731,76.208 
			114.116,56.53 158.108,56.53 158.179,52.893 114.188,52.893 114.348,44.694 158.625,44.694 158.912,30.006 145.151,30.006 
			145.323,21.236 159.083,21.236 159.327,8.759 169.095,8.759 		"/>
		<polygon fill="#777424" points="167.776,76.208 174.667,83.166 120.622,83.166 113.731,76.208 		"/>
		<polygon fill="#777424" points="196.298,17.315 203.188,24.273 185.443,24.273 178.553,17.315 		"/>
		<polygon fill="#9C982F" points="187.771,30.791 194.663,37.749 194.552,43.453 187.661,36.495 		"/>
		<polygon fill="#777424" points="205.525,30.791 212.417,37.749 194.663,37.749 187.771,30.791 		"/>
		<polygon fill="#9C982F" points="205.949,9.116 212.841,16.074 212.417,37.749 205.525,30.791 		"/>
		<polygon fill="#777424" points="212.574,31.361 219.465,38.319 214.395,38.319 207.503,31.361 		"/>
		<polygon fill="#9C982F" points="205.414,36.495 212.305,43.453 212.139,51.938 205.248,44.979 		"/>
		<polygon fill="#777424" points="205.248,44.979 212.139,51.938 184.902,51.938 178.012,44.979 		"/>
		<polygon fill="#CBC73E" points="205.414,36.495 205.248,44.979 178.012,44.979 178.445,22.876 196.188,22.876 196.298,17.315 
			178.553,17.315 178.714,9.116 205.949,9.116 205.525,30.791 187.771,30.791 187.661,36.495 		"/>
		<polygon fill="#9C982F" points="222.713,8.759 229.604,15.718 228.874,53.008 221.982,46.049 		"/>
		<polygon fill="#777424" points="221.982,46.049 228.874,53.008 219.178,53.008 212.287,46.049 		"/>
		<polygon fill="#CBC73E" points="212.287,46.049 212.574,31.361 207.503,31.361 207.688,21.878 212.76,21.878 213.016,8.759 
			222.713,8.759 221.982,46.049 		"/>
		<polygon fill="#777424" points="225.99,59.881 232.881,66.84 189.389,66.84 182.498,59.881 		"/>
		<polygon fill="#9C982F" points="237.543,8.759 244.434,15.718 243.434,66.84 236.543,59.881 		"/>
		<polygon fill="#97942E" points="236.543,59.881 243.434,66.84 240.404,83.166 233.514,76.208 		"/>
		<polygon fill="#CBC73E" points="227.837,8.759 237.543,8.759 236.543,59.881 233.514,76.208 222.882,76.208 225.99,59.881 
			182.498,59.881 182.671,51.039 227.01,51.039 		"/>
		<polygon fill="#777424" points="233.514,76.208 240.404,83.166 229.771,83.166 222.882,76.208 		"/>
		<polygon fill="#928F2C" points="266.277,22.805 273.169,29.764 264.688,55.146 257.796,48.188 		"/>
		<polygon fill="#777424" points="257.796,48.188 264.688,55.146 253.422,55.146 246.531,48.188 		"/>
		<polygon fill="#777424" points="295.474,24.73 302.364,31.689 292.025,31.689 285.135,24.73 		"/>
		<polygon fill="#9C982F" points="261.311,54.391 268.202,61.35 267.964,73.541 261.072,66.583 		"/>
		<polygon fill="#9F9C30" points="272.32,9.116 279.212,16.074 291.924,55.146 285.032,48.188 		"/>
		<polygon fill="#777424" points="285.032,48.188 291.924,55.146 280.658,55.146 273.768,48.188 		"/>
		<polygon fill="#CBC73E" points="266.277,22.805 257.796,48.188 246.531,48.188 260.771,9.116 272.32,9.116 285.032,48.188 
			273.768,48.188 		"/>
		<polygon fill="#777424" points="295.178,39.846 302.068,46.804 291.729,46.804 284.839,39.846 		"/>
		<polygon fill="#9C982F" points="305.981,8.759 312.872,15.718 311.553,83.166 304.662,76.208 		"/>
		<polygon fill="#CBC73E" points="295.785,8.759 305.981,8.759 304.662,76.208 250.617,76.208 251.044,54.391 261.311,54.391 
			261.072,66.583 294.654,66.583 295.178,39.846 284.839,39.846 285.011,31.076 295.35,31.076 295.474,24.73 285.135,24.73 
			285.306,15.96 295.645,15.96 		"/>
		<polygon fill="#777424" points="304.662,76.208 311.553,83.166 257.508,83.166 250.617,76.208 		"/>
	</g>
</g>
</svg>
