<?xml version="1.0" encoding="utf-8"?>
<!-- Generator: Adobe Illustrator 16.0.0, SVG Export Plug-In . SVG Version: 6.00 Build 0)  -->
<!DOCTYPE svg PUBLIC "-//W3C//DTD SVG 1.1//EN" "http://www.w3.org/Graphics/SVG/1.1/DTD/svg11.dtd">
<svg version="1.1" id="Layer_2" xmlns="http://www.w3.org/2000/svg" xmlns:xlink="http://www.w3.org/1999/xlink" x="0px" y="0px"
	 width="787px" height="299px" viewBox="0 0 787 299" enable-background="new 0 0 787 299" xml:space="preserve">
<g id="layer1" transform="translate(2446,-20.362183)">
	<path id="path3840" fill="#0C4DA2" d="M-1913.27,75.826c-20.896,0-39.528,9.025-51.642,23.118
		c-3.575-4.594-7.947-9.417-12.724-12.814c-10.024-7.484-23.021-9.761-36.911-10.134c-23.515-0.633-42.322,12.07-50.983,26.353
		c-7.316-14.597-13.88-22.219-39.335-23.486h-61.688l0.014,25.71c0,0,2.934,0.938,3.925,2.026c0.828,0.908,1.379,3.417,1.379,3.417
		l-0.146,57.227c0,0-1.613-1.169-2.256-1.919c-1.197-1.395-2.895-4.692-2.895-4.692l-31.607-81.794l-40.076,0.027l-34.823,91.036
		v-19.485h-25.061c-1.974,5.441-7.515,9.116-14.197,9.116c-3.522,0-7.288-0.831-10.338-2.664c-3.976-2.39-6.947-5.227-9.395-10.268
		c-1.925-4.666-3.398-10.378-3.568-15.432c0.586-9.995,3.623-13.557,9.183-17.68c1.232-0.914,4.675-1.645,5.668-1.649
		c2.184-0.01,4.004,1.314,4.991,3.267c1.436,2.84-0.665,6.281-2.742,8.729l20.262,13.958l31.293-32.743
		c-10.917-17.399-30.867-29.048-53.667-29.048c-34.518,0-62.5,26.7-62.5,59.637s27.086,57.844,62.5,60.53l4.478,0.18h47.637v-0.022
		h110.91v-0.008l41.698-0.06v-0.066h6.523v-24.5c0,0-3.494-0.729-4.933-1.709c-1.51-1.027-1.653-2.647-1.653-2.647
		c-0.027-0.625,0.099-1.104,0.427-1.513c0.322-0.4,1.075-0.673,1.359-0.732c4.306-0.901,8.697-2.133,13.092-3.714
		c11.728-4.218,21.597-10.218,28.603-16.849c4.688,27.699,29.03,47.91,58.458,51.285c1.922,0.221,3.577,0.387,5.375,0.45
		c0.477,0.017,1.434-0.02,1.434-0.02h41.62l-0.128-20.481c10.825,12.016,31.913,23.533,53.198,23.533
		c17.393,0,32.992-7.615,43.988-17.032l-0.089,14.164h52.555l0.269-21.67l13.701,0.179v-0.239l18.385,0.161v21.491h56.053v-28.477
		c0,0-2.394-0.153-3.33-0.807c-1.267-0.884-2.578-3.851-2.578-3.851l-7.877-52.319c0,0,0.235-3.5,1.253-4.807
		c0.837-1.075,3.581-1.971,3.581-1.971V78.862h-5.016h-8.062h-42.8v0.717l-3.94,13.253l-5.669-13.339v-0.63h-0.266l-0.153-0.356
		l-0.012,0.356h-53.917v26.506l-3.683-5.015c-10.114-14.747-27.868-24.528-48.088-24.528c-0.824,0-1.644,0.015-2.46,0.048
		C-1911.528,75.842-1912.396,75.826-1913.27,75.826z M-2273.73,175.077l-0.004,0.258h-0.235
		C-2273.889,175.249-2273.81,175.163-2273.73,175.077L-2273.73,175.077L-2273.73,175.077z"/>
	<path id="path3950" fill="#FFCB08" d="M-2320.649,87.203c-28.455,0.179-51.694,20.906-51.694,48.02
		c0,27.115,25.654,50.405,56.709,49.703l30.176,0.086v-23.757h-5.7c-1.79,4.479-10.153,8.861-16.217,8.861
		c-3.196,0-11.24-0.435-14.216-1.477c-5.253-1.841-12.75-4.481-19.269-15.438c-1.747-3.84-6.666-13.199-5.566-26.851
		c0.532-8.228,5.759-18.5,15.137-23.151c4.089-2.028,8.206-2.361,15.435-1.705c5.189,0.471,10.345,4.12,12.146,8.499
		c1.393,3.387,0.992,7.515-0.647,9.865c-0.117,0.168-0.12,0.316-0.095,0.477c0.019,0.123,0.176,0.325,0.176,0.325l2.856,2.232
		c0,0,0.813,0.565,1.763,0.54c0.552-0.015,1.538-0.613,1.538-0.613l16.313-17.119C-2291.89,92.092-2309.812,87.203-2320.649,87.203
		L-2320.649,87.203z"/>
	<path id="path3990" fill="#FFCB08" d="M-1913.004,86.744c-30.167,0-54.622,22.69-54.622,50.681s24.455,50.681,54.622,50.681
		c30.168,0,54.622-22.69,54.622-50.681S-1882.836,86.744-1913.004,86.744z M-1912.646,102.5c15.528,0,23.851,11.113,27.225,24.358
		c0.966,3.792,0.574,16.398-0.002,20.596c-1.754,12.801-12.218,25.276-27.398,24.891c-14.795-0.374-24.692-7.262-27.759-25.787
		c-0.897-5.418-0.912-11.928-0.183-17.372C-1938.644,113.402-1928.175,102.5-1912.646,102.5L-1912.646,102.5L-1912.646,102.5z"/>
	<path id="path4001" fill="#FFCB08" d="M-2230.716,89.89c0,0-23.986,64.905-28.284,76.726c-4.298,11.82-9.132,11.462-9.132,11.462
		l0.356,7.162l28.989-0.008l0.024-6.879c0,0-1.86-0.096-3.224-1.349c-2.646-2.428-0.972-7.313-0.972-7.313l6.703-17.147l29.77,0.063
		c0,0,5.803,14.488,7.224,19.271c1.854,6.239-3.937,6.35-3.937,6.35v6.994l36.66-0.021l-0.023-6.914c0,0-2.183-0.333-4.505-2.358
		c-2.634-2.298-4.426-7.036-4.426-7.036l-30.024-78.934L-2230.716,89.89z M-2222.109,109.845l9.939,27.67l-19.251,0.086
		L-2222.109,109.845z"/>
	<path id="rect3593" fill="#FFCB08" d="M-2154.825,89.788l-0.141,7.957c0,0,2.33,0.667,4.56,3.142
		c1.182,1.312,0.451,17.961,0.451,17.961l-0.039,53.298c0,0,0.759,2.101-1.791,4.211c-0.962,0.797-1.815,1.642-3.302,1.771
		l-0.176,7.092l33.977,0.082l0.083-7.213c0,0-1.202-0.475-3.087-2.174c-1.064-0.959-1.719-2.341-1.704-3.718
		c0.029-4.815,0.141-9.44,0.118-14.142c11.901-2.867,22.176-7.728,26.181-9.202c15.054-6.007,26.735-15.545,26.052-32.559
		c-0.129-12.054-6.244-21.934-19.341-24.167c-5.971-1.726-8.711-2.027-11.067-2.159L-2154.825,89.788z M-2115.967,103.301
		c3.665-0.07,7.981,0.77,11.304,2.443c4.142,2.75,6.661,5.598,6.661,11.624c0.171,2.833-0.643,5.268-2.005,7.745
		c-1.419,2.368-5.711,6.914-8.421,9.515c-7.923,5.664-10.758,7.325-17.052,10.222l-0.101-40.378
		C-2122.226,103.838-2119.217,103.322-2115.967,103.301z"/>
	<path id="path3622" fill="#FFCB08" d="M-2011.191,87.267c-28.455,0.179-51.694,20.906-51.694,48.02
		c0,27.114,25.654,50.404,56.708,49.703l30.177,0.086v-23.757h-5.699c-1.791,4.479-10.154,8.86-16.219,8.86
		c-3.193,0-11.239-0.435-14.215-1.478c-5.254-1.84-12.751-4.481-19.27-15.437c-1.746-3.84-6.666-13.199-5.566-26.852
		c0.532-8.228,5.76-18.499,15.138-23.15c4.089-2.029,8.206-2.361,15.435-1.705c5.189,0.471,10.346,4.119,12.146,8.499
		c1.394,3.387,0.993,7.514-0.646,9.865c-0.117,0.168-0.12,0.316-0.095,0.477c0.018,0.123,0.176,0.325,0.176,0.325l2.856,2.232
		c0,0,0.813,0.565,1.764,0.54c0.551-0.015,1.538-0.613,1.538-0.613l16.312-17.119C-1982.432,92.155-2000.354,87.267-2011.191,87.267
		z"/>
	<path id="path3624" fill="#FFCB08" d="M-1844.729,89.975l0.032,6.837c0,0,2.988,0.805,4.176,1.743
		c1.357,1.073,1.014,2.977,1.014,2.977s-10.843,67.384-11.078,68.635c-0.253,1.346-0.612,4.489-2.504,6.237
		c-1.88,1.737-4.05,2.088-4.05,2.088l-0.031,6.742h30.36v-6.3c0,0-2.472-0.191-4.117-1.837c-1.646-1.646-1.172-6.171-1.172-6.171
		l7.471-50.908l15.196,43.813l18.511,0.254l15.035-47.183l8.392,54.273c0,0,1.012,4.08-1.171,6.174
		c-1.681,1.612-4.113,1.838-4.113,1.838v6.3h35.171l-0.031-6.742c0,0-0.787,0.269-2.785-1.332c-1.175-0.942-1.74-5.143-1.994-6.488
		c-0.235-1.25-9.711-69.054-9.711-69.054s-0.165-2.8,1.371-4.231c1.106-1.031,3.372-2.01,3.372-2.01l-0.055-5.583l-36.516-0.042
		l-13.362,38.49l-12.744-38.49L-1844.729,89.975z"/>
	<path id="path3629" fill="#0C4DA2" d="M-1704.311,75.418c-9.659,0-17.488,7.83-17.488,17.488s7.829,17.489,17.488,17.489
		c9.658,0,17.487-7.83,17.487-17.489S-1694.652,75.418-1704.311,75.418z M-1704.311,77.769c8.359,0,15.137,6.777,15.137,15.137
		c0,8.36-6.777,15.138-15.137,15.138c-8.36,0-15.138-6.777-15.138-15.138C-1719.448,84.547-1712.671,77.769-1704.311,77.769z"/>
	<path id="rect3634" fill="#0C4DA2" d="M-1713.315,82.345v20.704h4.369v-7.177h5.802l4.803,7.267l4.904-0.031l-5.86-7.703
		c2.407-0.982,4.11-3.405,4.11-6.244c0-3.66-2.831-6.636-6.351-6.715V82.36h-7.408v-0.016H-1713.315z M-1708.946,86.524l7.267,0.04
		c1.477,0.25,2.457,0.402,2.417,2.62c-0.043,2.373-1.87,2.689-2.417,2.708l-7.267,0.086V86.524z"/>
</g>
<g>
	<path fill="#0C4DA2" d="M695.715,212.385c0,14.082-11.416,25.498-25.499,25.498H112.243c-14.083,0-25.499-11.416-25.499-25.498l0,0
		c0-14.082,11.416-25.498,25.499-25.498h557.973C684.299,186.887,695.715,198.303,695.715,212.385L695.715,212.385z"/>
	<path fill="#FFFFFF" d="M234.579,199.064h8.748c1.464,0,2.831,0.138,4.104,0.414c1.272,0.275,2.376,0.737,3.313,1.386
		c0.936,0.647,1.674,1.506,2.214,2.574c0.54,1.067,0.81,2.394,0.81,3.978c0,1.512-0.27,2.826-0.81,3.942
		c-0.54,1.115-1.272,2.034-2.196,2.754s-2.01,1.254-3.258,1.602c-1.248,0.349-2.592,0.522-4.032,0.522h-3.563v9.468h-5.328V199.064z
		 M243.111,212.024c3.623,0,5.436-1.536,5.436-4.608c0-1.56-0.474-2.64-1.422-3.24c-0.948-0.6-2.347-0.899-4.194-0.899h-3.023v8.748
		H243.111z"/>
	<path fill="#FFFFFF" d="M266.762,199.064h5.328v22.176h10.8v4.464h-16.128V199.064z"/>
	<path fill="#FFFFFF" d="M308.198,218.864h-8.641l-1.872,6.84h-5.399l8.532-26.64h6.264l8.568,26.64h-5.58L308.198,218.864z
		 M307.046,214.724l-0.792-2.916c-0.408-1.392-0.798-2.831-1.17-4.319s-0.763-2.952-1.17-4.393h-0.145
		c-0.336,1.465-0.696,2.935-1.08,4.41c-0.384,1.477-0.779,2.91-1.188,4.302l-0.792,2.916H307.046z"/>
	<path fill="#FFFFFF" d="M331.453,215.948l-7.992-16.884h5.652l2.664,6.479c0.383,1.008,0.762,1.986,1.134,2.935
		s0.762,1.938,1.17,2.97h0.144c0.408-1.032,0.811-2.021,1.206-2.97c0.396-0.948,0.786-1.927,1.17-2.935l2.664-6.479h5.544
		l-8.027,16.884v9.756h-5.328V215.948z"/>
	<path fill="#FFFFFF" d="M380.341,226.208c-1.801,0-3.547-0.336-5.238-1.008c-1.692-0.672-3.187-1.632-4.482-2.88l3.061-3.672
		c0.959,0.888,2.034,1.602,3.222,2.142c1.188,0.54,2.37,0.811,3.546,0.811c1.392,0,2.448-0.276,3.168-0.828s1.08-1.296,1.08-2.232
		c0-0.504-0.097-0.924-0.29-1.26c-0.192-0.336-0.464-0.642-0.813-0.918c-0.35-0.275-0.771-0.522-1.266-0.738
		s-1.043-0.455-1.646-0.72l-3.581-1.512c-0.668-0.288-1.324-0.636-1.967-1.045c-0.644-0.407-1.216-0.899-1.717-1.476
		c-0.5-0.576-0.906-1.242-1.216-1.998c-0.311-0.756-0.465-1.626-0.465-2.61c0-1.079,0.227-2.093,0.68-3.042
		c0.453-0.947,1.084-1.764,1.895-2.447c0.811-0.685,1.778-1.225,2.903-1.62c1.124-0.396,2.358-0.594,3.702-0.594
		c1.561,0,3.072,0.294,4.536,0.882s2.736,1.435,3.816,2.538l-2.7,3.348c-0.841-0.696-1.716-1.235-2.628-1.62
		c-0.912-0.384-1.92-0.576-3.024-0.576c-1.176,0-2.111,0.247-2.808,0.738c-0.696,0.492-1.044,1.183-1.044,2.07
		c0,0.48,0.114,0.895,0.344,1.241c0.229,0.349,0.53,0.666,0.904,0.954c0.373,0.288,0.813,0.547,1.319,0.774
		c0.507,0.229,1.05,0.45,1.628,0.666l3.509,1.476c1.632,0.673,2.934,1.591,3.906,2.754c0.972,1.165,1.458,2.61,1.458,4.339
		c0,1.079-0.223,2.111-0.666,3.096c-0.444,0.984-1.087,1.842-1.927,2.574s-1.866,1.313-3.078,1.746
		C383.25,225.992,381.876,226.208,380.341,226.208z"/>
	<path fill="#FFFFFF" d="M407.519,215.948l-7.992-16.884h5.652l2.664,6.479c0.383,1.008,0.762,1.986,1.135,2.935
		c0.371,0.948,0.762,1.938,1.17,2.97h0.143c0.408-1.032,0.811-2.021,1.207-2.97s0.785-1.927,1.17-2.935l2.664-6.479h5.543
		l-8.027,16.884v9.756h-5.328V215.948z"/>
	<path fill="#FFFFFF" d="M440.063,226.208c-1.801,0-3.547-0.336-5.238-1.008c-1.693-0.672-3.188-1.632-4.482-2.88l3.061-3.672
		c0.959,0.888,2.033,1.602,3.221,2.142c1.189,0.54,2.371,0.811,3.547,0.811c1.391,0,2.447-0.276,3.168-0.828
		c0.719-0.552,1.08-1.296,1.08-2.232c0-0.504-0.098-0.924-0.291-1.26c-0.191-0.336-0.463-0.642-0.813-0.918
		c-0.35-0.275-0.771-0.522-1.266-0.738s-1.043-0.455-1.646-0.72l-3.58-1.512c-0.668-0.288-1.324-0.636-1.967-1.045
		c-0.645-0.407-1.217-0.899-1.717-1.476s-0.906-1.242-1.217-1.998s-0.465-1.626-0.465-2.61c0-1.079,0.227-2.093,0.68-3.042
		c0.453-0.947,1.084-1.764,1.895-2.447c0.811-0.685,1.779-1.225,2.904-1.62c1.123-0.396,2.357-0.594,3.701-0.594
		c1.561,0,3.072,0.294,4.537,0.882c1.463,0.588,2.736,1.435,3.816,2.538l-2.701,3.348c-0.84-0.696-1.715-1.235-2.627-1.62
		c-0.912-0.384-1.92-0.576-3.025-0.576c-1.176,0-2.111,0.247-2.807,0.738c-0.697,0.492-1.045,1.183-1.045,2.07
		c0,0.48,0.115,0.895,0.344,1.241c0.229,0.349,0.531,0.666,0.904,0.954s0.814,0.547,1.32,0.774c0.506,0.229,1.049,0.45,1.627,0.666
		l3.51,1.476c1.631,0.673,2.934,1.591,3.906,2.754c0.971,1.165,1.457,2.61,1.457,4.339c0,1.079-0.223,2.111-0.666,3.096
		s-1.086,1.842-1.926,2.574s-1.867,1.313-3.078,1.746C442.972,225.992,441.599,226.208,440.063,226.208z"/>
	<path fill="#FFFFFF" d="M468.034,203.528h-7.488v-4.464h20.375v4.464h-7.559v22.176h-5.328V203.528z"/>
	<path fill="#FFFFFF" d="M493.413,199.064h16.344v4.464h-11.016v6.12h9.359v4.464h-9.359v7.128h11.412v4.464h-16.74V199.064z"/>
	<path fill="#FFFFFF" d="M523.726,199.064h5.895l4.529,12.456c0.287,0.84,0.563,1.691,0.826,2.556s0.527,1.728,0.791,2.592h0.18
		c0.287-0.864,0.557-1.728,0.809-2.592s0.521-1.716,0.811-2.556l4.42-12.456h5.895v26.64h-4.822V214.58
		c0-0.624,0.023-1.314,0.07-2.07s0.102-1.523,0.16-2.304c0.061-0.779,0.125-1.548,0.197-2.304s0.143-1.446,0.215-2.07h-0.143
		l-2.156,6.264l-4.094,11.196h-3.055l-4.131-11.196l-2.119-6.264h-0.143c0.072,0.624,0.145,1.314,0.217,2.07
		s0.145,1.524,0.217,2.304c0.072,0.78,0.135,1.548,0.182,2.304c0.049,0.756,0.072,1.446,0.072,2.07v11.124h-4.822V199.064z"/>
</g>
</svg>
