<?xml version="1.0" encoding="utf-8"?>
<!-- Generator: Adobe Illustrator 16.0.0, SVG Export Plug-In . SVG Version: 6.00 Build 0)  -->
<!DOCTYPE svg PUBLIC "-//W3C//DTD SVG 1.1//EN" "http://www.w3.org/Graphics/SVG/1.1/DTD/svg11.dtd">
<svg version="1.1" id="레이어_1" xmlns="http://www.w3.org/2000/svg" xmlns:xlink="http://www.w3.org/1999/xlink" x="0px"
	 y="0px" width="416px" height="98px" viewBox="0 0 416 98" enable-background="new 0 0 416 98" xml:space="preserve">
<g>
	<g>
		<g enable-background="new    ">
			<g>
				<polygon fill="#9F9C30" points="33.785,11.148 40.676,18.106 60.888,82.847 53.997,75.888 				"/>
			</g>
			<g>
				<polygon fill="#777424" points="53.997,75.888 60.888,82.847 50.781,82.847 43.891,75.888 				"/>
			</g>
			<g>
				<polygon fill="#CBC73E" points="33.785,11.148 53.997,75.888 43.891,75.888 23.82,11.148 				"/>
			</g>
		</g>
		<g enable-background="new    ">
			<g>
				<polygon fill="#9C982F" points="91.344,67.047 98.235,74.006 98.062,82.847 91.171,75.888 				"/>
			</g>
			<g>
				<polygon fill="#777424" points="91.171,75.888 98.062,82.847 66.619,82.847 59.728,75.888 				"/>
			</g>
			<g>
				<polygon fill="#CBC73E" points="91.344,67.047 91.171,75.888 59.728,75.888 59.901,67.047 				"/>
			</g>
		</g>
		<g enable-background="new    ">
			<g>
				<polygon fill="#9C982F" points="128.406,6.656 135.297,13.615 135.173,19.96 128.282,13.002 				"/>
			</g>
			<g>
				<polygon fill="#777424" points="125.879,22.841 132.771,29.8 111.095,29.8 104.205,22.841 				"/>
			</g>
			<g>
				<polygon fill="#7E7B26" points="121.85,39.311 128.741,46.27 110.462,62.17 103.571,55.211 				"/>
			</g>
			<g>
				<polygon fill="#9C982F" points="140.902,13.002 147.793,19.96 147.601,29.8 140.71,22.841 				"/>
			</g>
			<g>
				<polygon fill="#7E7B26" points="140.71,22.841 147.601,29.8 136.139,39.853 129.248,32.894 				"/>
			</g>
			<g>
				<polygon fill="#9C982F" points="127.055,50.22 133.946,57.179 133.62,73.862 126.729,66.904 				"/>
			</g>
			<g>
				<polygon fill="#9C982F" points="140.701,41.521 147.592,48.48 147.331,61.813 140.44,54.854 				"/>
			</g>
			<g>
				<polygon fill="#CBC73E" points="140.44,54.854 121.85,39.311 103.571,55.211 103.832,41.878 125.879,22.841 104.205,22.841 
					104.397,13.002 117.445,13.002 117.569,6.656 128.406,6.656 128.282,13.002 140.902,13.002 140.71,22.841 129.248,32.894 
					140.701,41.521 				"/>
			</g>
			<g>
				<polygon fill="#777424" points="140.44,54.854 147.331,61.813 128.741,46.27 121.85,39.311 				"/>
			</g>
			<g>
				<polygon fill="#9C982F" points="161.513,9.081 168.404,16.039 167.085,83.487 160.194,76.529 				"/>
			</g>
			<g>
				<polygon fill="#CBC73E" points="151.531,9.081 161.513,9.081 160.194,76.529 101.372,76.529 101.56,66.904 116.604,66.904 
					116.931,50.22 127.055,50.22 126.729,66.904 150.4,66.904 				"/>
			</g>
			<g>
				<polygon fill="#777424" points="160.194,76.529 167.085,83.487 108.263,83.487 101.372,76.529 				"/>
			</g>
		</g>
		<g enable-background="new    ">
			<g>
				<polygon fill="#777424" points="175.178,50.434 182.069,57.393 177.221,57.393 170.33,50.434 				"/>
			</g>
			<g>
				<polygon fill="#777424" points="216.486,19.989 223.377,26.947 183.164,26.947 176.272,19.989 				"/>
			</g>
			<g>
				<polygon fill="#9C982F" points="227.102,9.437 233.992,16.396 233.786,26.947 226.896,19.989 				"/>
			</g>
			<g>
				<polygon fill="#9C982F" points="185.302,50.434 192.193,57.393 191.873,73.791 184.981,66.832 				"/>
			</g>
			<g>
				<polygon fill="#98942E" points="226.896,19.989 233.786,26.947 230.386,47.696 223.494,40.737 				"/>
			</g>
			<g>
				<polygon fill="#9C982F" points="231.836,40.737 238.728,47.696 238.537,57.393 231.646,50.434 				"/>
			</g>
			<g>
				<polygon fill="#777424" points="231.646,50.434 238.537,57.393 192.193,57.393 185.302,50.434 				"/>
			</g>
			<g>
				<polygon fill="#777424" points="227.714,76.529 234.604,83.487 181.559,83.487 174.668,76.529 				"/>
			</g>
			<g>
				<polygon fill="#CBC73E" points="227.102,9.437 226.896,19.989 223.494,40.737 231.836,40.737 231.646,50.434 185.302,50.434 
					184.981,66.832 227.903,66.832 227.714,76.529 174.668,76.529 175.178,50.434 170.33,50.434 170.52,40.737 213.085,40.737 
					216.486,19.989 176.272,19.989 176.479,9.437 				"/>
			</g>
			<g>
				<polygon fill="#9C982F" points="227.903,66.832 234.795,73.791 234.604,83.487 227.714,76.529 				"/>
			</g>
		</g>
		<g enable-background="new    ">
			<g>
				<polygon fill="#777424" points="279.604,19.062 286.494,26.021 268.598,26.021 261.707,19.062 				"/>
			</g>
			<g>
				<polygon fill="#9C982F" points="290.345,9.437 297.235,16.396 297.047,26.021 290.156,19.062 				"/>
			</g>
			<g>
				<polygon fill="#98952E" points="290.156,19.062 297.047,26.021 294.93,39.497 288.039,32.538 				"/>
			</g>
			<g>
				<polygon fill="#777424" points="296.263,42.234 303.153,49.193 293.457,49.193 286.565,42.234 				"/>
			</g>
			<g>
				<polygon fill="#98952E" points="286.565,42.234 293.457,49.193 288.229,83.132 281.338,76.173 				"/>
			</g>
			<g>
				<polygon fill="#777424" points="281.338,76.173 288.229,83.132 277.392,83.132 270.501,76.173 				"/>
			</g>
			<g>
				<polygon fill="#9C982F" points="306.678,9.081 313.569,16.039 312.25,83.487 305.359,76.529 				"/>
			</g>
			<g>
				<polygon fill="#CBC73E" points="296.452,32.538 296.911,9.081 306.678,9.081 305.359,76.529 295.592,76.529 296.263,42.234 
					286.565,42.234 281.338,76.173 270.501,76.173 279.604,19.062 261.707,19.062 261.896,9.437 290.345,9.437 290.156,19.062 
					288.039,32.538 				"/>
			</g>
			<g>
				<polygon fill="#777424" points="305.359,76.529 312.25,83.487 302.482,83.487 295.592,76.529 				"/>
			</g>
		</g>
		<g enable-background="new    ">
			<g>
				<polygon fill="#9C982F" points="322.578,9.081 329.47,16.039 328.15,83.487 321.26,76.529 				"/>
			</g>
			<g>
				<polygon fill="#777424" points="321.26,76.529 328.15,83.487 318.382,83.487 311.491,76.529 				"/>
			</g>
			<g>
				<polygon fill="#CBC73E" points="312.811,9.081 322.578,9.081 321.26,76.529 311.491,76.529 				"/>
			</g>
		</g>
		<g enable-background="new    ">
			<g enable-background="new    ">
				<defs>
					<path id="SVGID_1_" enable-background="new    " d="M348.126,18.848l6.891,6.958c-1.809,0-3.281,0.571-4.418,1.711
						c-1.146,1.141-1.727,2.62-1.762,4.42l-6.891-6.958c0.035-1.8,0.616-3.28,1.762-4.42
						C344.844,19.419,346.317,18.848,348.126,18.848z"/>
				</defs>
				<clipPath id="SVGID_2_">
					<use xlink:href="#SVGID_1_"  overflow="visible"/>
				</clipPath>
				<g clip-path="url(#SVGID_2_)" enable-background="new    ">
					<path fill="#7B7925" d="M348.126,18.848l6.891,6.958c-1.765,0-3.211,0.544-4.336,1.631l-6.892-6.958
						C344.914,19.392,346.36,18.848,348.126,18.848"/>
					<path fill="#807D27" d="M343.789,20.479l6.892,6.958c-0.027,0.026-0.055,0.053-0.082,0.081
						c-0.206,0.206-0.395,0.422-0.564,0.65l-6.891-6.958c0.17-0.228,0.357-0.444,0.564-0.65
						C343.734,20.532,343.762,20.505,343.789,20.479"/>
					<path fill="#858228" d="M343.144,21.209l6.891,6.958c-0.156,0.209-0.297,0.428-0.423,0.656l-6.891-6.958
						C342.846,21.638,342.987,21.419,343.144,21.209"/>
					<path fill="#89872A" d="M342.721,21.865l6.891,6.958c-0.12,0.217-0.226,0.443-0.317,0.677l-6.892-6.958
						C342.495,22.309,342.601,22.083,342.721,21.865"/>
					<path fill="#8E8B2B" d="M342.402,22.542l6.892,6.958c-0.099,0.25-0.181,0.51-0.247,0.778l-6.891-6.959
						C342.223,23.052,342.305,22.792,342.402,22.542"/>
					<path fill="#93902D" d="M342.156,23.32l6.891,6.959c-0.08,0.324-0.138,0.662-0.172,1.013l-6.892-6.959
						C342.019,23.982,342.075,23.645,342.156,23.32"/>
					<path fill="#98942E" d="M341.983,24.333l6.892,6.959c-0.021,0.21-0.033,0.426-0.038,0.646l-6.891-6.958
						C341.95,24.76,341.963,24.544,341.983,24.333"/>
				</g>
			</g>
			<g>
				<polygon fill="#777424" points="350.55,18.848 357.441,25.807 355.017,25.807 348.126,18.848 				"/>
			</g>
			<g>
				<polygon fill="#9C982F" points="341.946,24.98 348.837,31.938 348.755,36.145 341.864,29.187 				"/>
			</g>
			<g enable-background="new    ">
				<defs>
					<path id="SVGID_3_" enable-background="new    " d="M354.849,20.505c2.297,2.32,4.594,4.639,6.891,6.958
						c-1.094-1.104-2.526-1.657-4.298-1.657l-6.892-6.958C352.322,18.848,353.755,19.401,354.849,20.505z"/>
				</defs>
				<clipPath id="SVGID_4_">
					<use xlink:href="#SVGID_3_"  overflow="visible"/>
				</clipPath>
				<g clip-path="url(#SVGID_4_)" enable-background="new    ">
					<path fill="#7B7925" d="M354.849,20.505l6.891,6.958c-1.094-1.104-2.526-1.657-4.298-1.657l-6.892-6.958
						C352.322,18.848,353.755,19.401,354.849,20.505"/>
				</g>
			</g>
			<g enable-background="new    ">
				<defs>
					<path id="SVGID_5_" enable-background="new    " d="M350.379,40.566c-2.297-2.319-4.594-4.639-6.891-6.958
						c-0.012-0.012-0.023-0.024-0.035-0.036c-1.101-1.114-1.625-2.576-1.589-4.385l6.891,6.958c-0.035,1.81,0.488,3.271,1.589,4.385
						C350.355,40.542,350.367,40.554,350.379,40.566z"/>
				</defs>
				<clipPath id="SVGID_6_">
					<use xlink:href="#SVGID_5_"  overflow="visible"/>
				</clipPath>
				<g clip-path="url(#SVGID_6_)" enable-background="new    ">
					<path fill="#98942E" d="M341.864,29.187l6.891,6.958c-0.006,0.297,0.004,0.585,0.028,0.864l-6.892-6.959
						C341.867,29.772,341.858,29.484,341.864,29.187"/>
					<path fill="#9C9930" d="M341.892,30.05l6.892,6.959c0.109,1.248,0.523,2.307,1.25,3.178l-6.892-6.958
						C342.416,32.358,342.002,31.298,341.892,30.05"/>
					<path fill="#98942E" d="M343.142,33.229l6.892,6.958c0.098,0.118,0.201,0.232,0.311,0.343c0.012,0.012,0.023,0.024,0.035,0.036
						l-6.891-6.959c-0.012-0.012-0.023-0.024-0.035-0.036C343.344,33.461,343.24,33.347,343.142,33.229"/>
				</g>
			</g>
			<g enable-background="new    ">
				<defs>
					<path id="SVGID_7_" enable-background="new    " d="M342.864,47.81c-2.296-2.32-4.594-4.639-6.891-6.958
						c1.217,1.228,2.659,2.2,4.321,2.917l6.891,6.958C345.524,50.01,344.081,49.038,342.864,47.81z"/>
				</defs>
				<clipPath id="SVGID_8_">
					<use xlink:href="#SVGID_7_"  overflow="visible"/>
				</clipPath>
				<g clip-path="url(#SVGID_8_)" enable-background="new    ">
					<path fill="#7B7925" d="M340.295,43.768l6.891,6.958c-1.661-0.716-3.104-1.688-4.321-2.916l-6.891-6.958
						C337.19,42.079,338.633,43.051,340.295,43.768"/>
				</g>
			</g>
			<g enable-background="new    ">
				<defs>
					<path id="SVGID_9_" enable-background="new    " d="M362.457,13.394l6.891,6.958c1.232,1.266,2.202,2.736,2.909,4.42
						c0.696,1.693,1.035,3.512,0.997,5.455l-6.891-6.959c0.038-1.943-0.301-3.761-0.998-5.454
						C364.658,16.13,363.689,14.659,362.457,13.394z"/>
				</defs>
				<clipPath id="SVGID_10_">
					<use xlink:href="#SVGID_9_"  overflow="visible"/>
				</clipPath>
				<g clip-path="url(#SVGID_10_)" enable-background="new    ">
					<path fill="#98942E" d="M362.457,13.394l6.891,6.958c0.252,0.259,0.493,0.526,0.723,0.801l-6.891-6.958
						C362.949,13.919,362.709,13.652,362.457,13.394"/>
					<path fill="#9C9930" d="M363.18,14.195l6.891,6.958c0.896,1.074,1.624,2.279,2.187,3.619c0.508,1.235,0.826,2.537,0.946,3.905
						l-6.892-6.958c-0.12-1.368-0.438-2.669-0.946-3.905C364.803,16.474,364.074,15.269,363.18,14.195"/>
					<path fill="#98942E" d="M366.312,21.719l6.892,6.958c0.044,0.507,0.062,1.024,0.051,1.55l-6.891-6.959
						C366.373,22.743,366.356,22.227,366.312,21.719"/>
				</g>
			</g>
			<g enable-background="new    ">
				<defs>
					<path id="SVGID_11_" enable-background="new    " d="M345.764,44.872l6.892,6.959c-1.953,0-3.772-0.365-5.47-1.105
						l-6.891-6.958C341.992,44.507,343.812,44.872,345.764,44.872z"/>
				</defs>
				<clipPath id="SVGID_12_">
					<use xlink:href="#SVGID_11_"  overflow="visible"/>
				</clipPath>
				<g clip-path="url(#SVGID_12_)" enable-background="new    ">
					<path fill="#7B7925" d="M345.764,44.872l6.892,6.959c-1.953,0-3.772-0.365-5.47-1.105l-6.891-6.958
						C341.992,44.507,343.812,44.872,345.764,44.872"/>
				</g>
			</g>
			<g>
				<polygon fill="#777424" points="351.896,44.872 358.786,51.831 352.655,51.831 345.764,44.872 				"/>
			</g>
			<g>
				<polygon fill="#9C982F" points="366.363,23.269 373.254,30.228 373.106,37.785 366.215,30.827 				"/>
			</g>
			<g>
				<path fill="#CBC73E" d="M340.295,43.768c-1.697-0.731-3.166-1.729-4.398-2.995c-1.24-1.257-2.209-2.745-2.906-4.457
					c-0.706-1.711-1.036-3.538-0.998-5.49l0.147-7.558c0.038-1.943,0.439-3.761,1.212-5.454c0.765-1.685,1.791-3.155,3.081-4.42
					c1.281-1.257,2.789-2.255,4.515-2.995c1.726-0.731,3.561-1.105,5.513-1.105h6.131c1.943,0,3.772,0.375,5.469,1.105
					c1.688,0.739,3.156,1.738,4.397,2.995c1.232,1.265,2.201,2.736,2.908,4.42c0.697,1.693,1.036,3.511,0.998,5.454l-0.148,7.558
					c-0.038,1.952-0.447,3.779-1.211,5.49c-0.773,1.711-1.801,3.2-3.082,4.457c-1.291,1.265-2.799,2.263-4.516,2.995
					c-1.725,0.74-3.568,1.104-5.511,1.104h-6.132C343.812,44.872,341.992,44.507,340.295,43.768z M341.946,24.98l-0.082,4.207
					c-0.036,1.81,0.488,3.271,1.589,4.385c1.092,1.123,2.544,1.675,4.352,1.675h2.425c1.801,0,3.272-0.553,4.417-1.675
					c1.137-1.114,1.727-2.576,1.762-4.385l0.083-4.207c0.035-1.8-0.498-3.28-1.59-4.42c-1.101-1.141-2.551-1.711-4.352-1.711h-2.424
					c-1.809,0-3.282,0.571-4.418,1.711C342.563,21.7,341.981,23.18,341.946,24.98"/>
			</g>
			<g enable-background="new    ">
				<defs>
					<path id="SVGID_13_" enable-background="new    " d="M366.215,30.827l6.892,6.958c-0.038,1.952-0.448,3.779-1.212,5.49
						c-0.773,1.711-1.801,3.199-3.082,4.456c-1.291,1.266-2.799,2.264-4.515,2.994c-1.726,0.74-3.569,1.105-5.512,1.105
						l-6.891-6.959c1.942,0,3.786-0.365,5.511-1.104c1.717-0.731,3.225-1.729,4.516-2.995c1.281-1.257,2.309-2.745,3.082-4.457
						C365.768,34.605,366.177,32.778,366.215,30.827z"/>
				</defs>
				<clipPath id="SVGID_14_">
					<use xlink:href="#SVGID_13_"  overflow="visible"/>
				</clipPath>
				<g clip-path="url(#SVGID_14_)" enable-background="new    ">
					<path fill="#98942E" d="M366.215,30.827l6.892,6.958c-0.008,0.394-0.03,0.782-0.068,1.166l-6.891-6.958
						C366.185,31.608,366.208,31.22,366.215,30.827"/>
					<path fill="#93902D" d="M366.147,31.992l6.891,6.958c-0.067,0.684-0.183,1.352-0.344,2.004l-6.892-6.958
						C365.965,33.344,366.08,32.676,366.147,31.992"/>
					<path fill="#8E8B2B" d="M365.803,33.996l6.892,6.958c-0.146,0.589-0.331,1.166-0.553,1.73l-6.891-6.958
						C365.473,35.162,365.657,34.585,365.803,33.996"/>
					<path fill="#89872A" d="M365.251,35.727l6.891,6.958c-0.077,0.198-0.16,0.395-0.247,0.59c-0.174,0.385-0.36,0.759-0.561,1.121
						l-6.891-6.959c0.199-0.362,0.387-0.736,0.561-1.121C365.091,36.122,365.173,35.925,365.251,35.727"/>
					<path fill="#858228" d="M364.443,37.438l6.891,6.959c-0.329,0.597-0.693,1.164-1.093,1.699l-6.891-6.959
						C363.75,38.602,364.114,38.035,364.443,37.438"/>
					<path fill="#807D27" d="M363.351,39.137l6.891,6.959c-0.435,0.583-0.911,1.128-1.429,1.636
						c-0.031,0.03-0.063,0.061-0.094,0.091l-6.891-6.958c0.031-0.03,0.063-0.061,0.094-0.091
						C362.439,40.265,362.916,39.72,363.351,39.137"/>
					<path fill="#7B7925" d="M361.828,40.864l6.891,6.958c-1.27,1.223-2.746,2.19-4.421,2.903c-1.726,0.74-3.569,1.105-5.512,1.105
						l-6.891-6.959c1.942,0,3.786-0.365,5.511-1.104C359.082,43.054,360.559,42.086,361.828,40.864"/>
				</g>
			</g>
			<g>
				<polygon fill="#9C982F" points="344.685,59.917 351.575,66.875 351.421,74.79 344.529,67.831 				"/>
			</g>
			<g>
				<polygon fill="#777424" points="378.623,59.917 385.515,66.875 351.575,66.875 344.685,59.917 				"/>
			</g>
			<g>
				<polygon fill="#9C982F" points="389.661,9.081 396.553,16.039 395.233,83.487 388.342,76.529 				"/>
			</g>
			<g>
				<path fill="#CBC73E" d="M379.617,9.081h10.044l-1.319,67.449h-54.044l0.495-25.312h44L379.617,9.081z M378.469,67.831
					l0.154-7.914h-33.938l-0.155,7.914H378.469"/>
			</g>
			<g>
				<polygon fill="#777424" points="388.342,76.529 395.233,83.487 341.189,83.487 334.298,76.529 				"/>
			</g>
		</g>
	</g>
</g>
</svg>
