<?xml version="1.0" encoding="utf-8"?>
<!-- Generator: Adobe Illustrator 16.0.0, SVG Export Plug-In . SVG Version: 6.00 Build 0)  -->
<!DOCTYPE svg PUBLIC "-//W3C//DTD SVG 1.1//EN" "http://www.w3.org/Graphics/SVG/1.1/DTD/svg11.dtd">
<svg version="1.1" xmlns="http://www.w3.org/2000/svg" xmlns:xlink="http://www.w3.org/1999/xlink" x="0px" y="0px" width="416px"
	 height="98px" viewBox="0 0 416 98" enable-background="new 0 0 416 98" xml:space="preserve">
<g id="레이어_2">
	<g>
		<g enable-background="new    ">
			<g>
				<path d="M98.174,24.96c-1.048,0-2.077-0.412-2.843-1.186l-6.891-6.958c-0.761-0.768-1.178-1.812-1.157-2.893l0.124-6.346
					c0.031-1.607,1.021-3.039,2.514-3.636c0.481-0.193,0.985-0.286,1.484-0.286c1.048,0,2.077,0.412,2.843,1.186l6.891,6.959
					c0.761,0.768,1.178,1.812,1.157,2.893l-0.124,6.345c-0.031,1.607-1.021,3.039-2.514,3.636
					C99.177,24.867,98.673,24.96,98.174,24.96z"/>
				<polygon points="91.406,7.656 98.297,14.615 98.173,20.96 91.282,14.002 				"/>
			</g>
			<g>
				<path d="M74.095,34.8c-1.068,0-2.091-0.427-2.842-1.186l-6.89-6.959c-1.136-1.147-1.471-2.865-0.85-4.354
					c0.622-1.49,2.078-2.46,3.692-2.46h21.674c1.067,0,2.091,0.427,2.842,1.185l6.892,6.959c1.136,1.147,1.471,2.865,0.85,4.354
					c-0.622,1.49-2.078,2.46-3.692,2.46H74.095z"/>
				<polygon points="88.879,23.841 95.771,30.8 74.095,30.8 67.205,23.841 				"/>
			</g>
			<g>
				<path d="M73.463,67.17c-1.033,0-2.063-0.398-2.843-1.186l-6.891-6.959c-0.778-0.785-1.196-1.858-1.155-2.963
					c0.041-1.105,0.538-2.144,1.372-2.869l18.279-15.9c0.755-0.657,1.691-0.982,2.624-0.982c1.033,0,2.063,0.398,2.843,1.186
					l6.891,6.958c0.778,0.786,1.196,1.858,1.155,2.963c-0.041,1.105-0.538,2.144-1.372,2.869l-18.279,15.9
					C75.332,66.845,74.396,67.17,73.463,67.17z"/>
				<polygon points="84.85,40.311 91.741,47.27 73.462,63.17 66.571,56.211 				"/>
			</g>
			<g>
				<path d="M110.602,34.8c-1.048,0-2.077-0.412-2.843-1.186l-6.891-6.959c-0.761-0.768-1.178-1.812-1.157-2.893l0.192-9.839
					c0.031-1.607,1.021-3.039,2.513-3.636c0.482-0.193,0.985-0.286,1.485-0.286c1.048,0,2.077,0.412,2.843,1.185l6.891,6.958
					c0.761,0.769,1.178,1.812,1.157,2.893l-0.192,9.84c-0.031,1.607-1.021,3.039-2.514,3.636
					C111.605,34.707,111.101,34.8,110.602,34.8z"/>
				<polygon points="103.902,14.002 110.793,20.96 110.601,30.8 103.71,23.841 				"/>
			</g>
			<g>
				<path d="M99.14,44.853c-1.033,0-2.063-0.398-2.843-1.186l-6.891-6.959c-0.776-0.784-1.194-1.853-1.155-2.955
					s0.531-2.139,1.36-2.867l11.462-10.053c0.757-0.664,1.698-0.993,2.637-0.993c1.033,0,2.063,0.398,2.843,1.186l6.891,6.959
					c0.776,0.784,1.194,1.853,1.155,2.955s-0.531,2.139-1.36,2.867L101.777,43.86C101.02,44.524,100.079,44.853,99.14,44.853z"/>
				<polygon points="103.71,23.841 110.601,30.8 99.139,40.853 92.248,33.894 				"/>
			</g>
			<g>
				<path d="M96.621,78.861c-1.048,0-2.077-0.412-2.843-1.186l-6.891-6.957c-0.761-0.768-1.179-1.812-1.157-2.893l0.326-16.685
					c0.031-1.607,1.021-3.039,2.514-3.636c0.481-0.192,0.985-0.286,1.484-0.286c1.048,0,2.078,0.412,2.844,1.186l6.891,6.96
					c0.76,0.769,1.178,1.812,1.156,2.893l-0.326,16.682c-0.031,1.606-1.021,3.039-2.513,3.636
					C97.625,78.768,97.121,78.861,96.621,78.861z"/>
				<polygon points="90.055,51.22 96.946,58.18 96.62,74.861 89.729,67.904 				"/>
			</g>
			<g>
				<path d="M110.332,66.813c-1.048,0-2.077-0.412-2.843-1.186l-6.891-6.959c-0.761-0.769-1.178-1.812-1.157-2.893l0.261-13.333
					c0.031-1.607,1.021-3.039,2.514-3.636c0.481-0.193,0.985-0.286,1.484-0.286c1.048,0,2.078,0.412,2.843,1.186l6.891,6.959
					c0.761,0.769,1.178,1.812,1.157,2.893l-0.261,13.332c-0.031,1.607-1.021,3.039-2.514,3.636
					C111.335,66.719,110.831,66.813,110.332,66.813z"/>
				<polygon points="103.701,42.521 110.592,49.48 110.331,62.813 103.44,55.854 				"/>
			</g>
			<g>
				<path d="M66.57,60.211c-0.574,0-1.152-0.123-1.693-0.376c-1.433-0.67-2.336-2.121-2.305-3.702L62.833,42.8
					c0.022-1.135,0.525-2.208,1.385-2.949l13.908-12.01H67.205c-1.074,0-2.104-0.432-2.856-1.199
					c-0.752-0.767-1.164-1.805-1.143-2.879l0.192-9.839c0.042-2.178,1.82-3.922,3.999-3.922h9.125l0.047-2.424
					c0.042-2.178,1.82-3.922,3.999-3.922h10.837c1.074,0,2.104,0.432,2.856,1.199s1.164,1.805,1.143,2.879l-0.044,2.268h8.541
					c1.074,0,2.104,0.432,2.856,1.199c0.752,0.767,1.164,1.805,1.143,2.879l-0.192,9.839c-0.021,1.125-0.516,2.188-1.361,2.929
					l-7.765,6.81l7.525,5.668c1.025,0.772,1.618,1.99,1.592,3.273l-0.261,13.333c-0.03,1.539-0.94,2.924-2.341,3.563
					c-0.531,0.241-1.096,0.359-1.658,0.359c-0.921,0-1.833-0.318-2.566-0.932L84.901,45.568L69.196,59.229
					C68.453,59.875,67.517,60.211,66.57,60.211z"/>
				<polygon points="103.44,55.854 84.85,40.311 66.571,56.211 66.832,42.878 88.879,23.841 67.205,23.841 67.397,14.002 
					80.445,14.002 80.569,7.656 91.406,7.656 91.282,14.002 103.902,14.002 103.71,23.841 92.248,33.894 103.701,42.521 				"/>
			</g>
			<g>
				<path d="M110.33,66.813c-0.907,0-1.817-0.307-2.564-0.932l-18.59-15.543c-0.096-0.08-0.188-0.165-0.276-0.254l-6.891-6.958
					c-1.503-1.518-1.548-3.949-0.103-5.521c0.787-0.856,1.864-1.293,2.946-1.293c0.907,0,1.817,0.307,2.564,0.931l18.59,15.543
					c0.096,0.08,0.188,0.165,0.276,0.254l6.891,6.959c1.503,1.518,1.548,3.949,0.103,5.521
					C112.489,66.375,111.412,66.813,110.33,66.813z"/>
				<polygon points="103.44,55.854 110.331,62.813 91.741,47.27 84.85,40.311 				"/>
			</g>
			<g>
				<path d="M130.086,88.486c-1.048,0-2.077-0.412-2.843-1.186l-6.891-6.957c-0.761-0.768-1.179-1.812-1.157-2.893l1.319-67.448
					c0.031-1.607,1.021-3.039,2.514-3.636c0.481-0.193,0.985-0.286,1.484-0.286c1.048,0,2.077,0.412,2.843,1.186l6.891,6.958
					c0.761,0.768,1.178,1.812,1.157,2.893l-1.319,67.447c-0.031,1.606-1.021,3.039-2.513,3.636
					C131.089,88.393,130.585,88.486,130.086,88.486z"/>
				<polygon points="124.513,10.081 131.404,17.039 130.085,84.486 123.194,77.529 				"/>
			</g>
			<g>
				<path d="M64.372,81.529c-1.074,0-2.104-0.433-2.856-1.199c-0.752-0.768-1.164-1.805-1.143-2.879l0.188-9.625
					c0.042-2.179,1.82-3.922,3.999-3.922h11.122l0.25-12.763c0.042-2.179,1.82-3.922,3.999-3.922h10.124
					c1.074,0,2.104,0.433,2.856,1.199c0.752,0.768,1.164,1.805,1.143,2.879l-0.246,12.606h15.669l1.055-53.901
					c0.042-2.178,1.82-3.922,3.999-3.922h9.982c1.074,0,2.104,0.432,2.856,1.199s1.164,1.805,1.143,2.879l-1.319,67.448
					c-0.042,2.179-1.82,3.922-3.999,3.922H64.372z"/>
				<polygon points="114.531,10.081 124.513,10.081 123.194,77.529 64.372,77.529 64.56,67.904 79.604,67.904 79.931,51.22 
					90.055,51.22 89.729,67.904 113.4,67.904 				"/>
			</g>
			<g>
				<path d="M71.263,88.486c-1.067,0-2.091-0.427-2.842-1.186l-6.891-6.957c-1.136-1.146-1.471-2.864-0.85-4.354
					c0.622-1.49,2.078-2.461,3.692-2.461h58.822c1.067,0,2.091,0.427,2.842,1.186l6.891,6.957c1.136,1.146,1.471,2.864,0.85,4.354
					c-0.622,1.49-2.078,2.461-3.692,2.461H71.263z"/>
				<polygon points="123.194,77.529 130.085,84.486 71.263,84.486 64.372,77.529 				"/>
			</g>
		</g>
		<g enable-background="new    ">
			<g>
				<path d="M140.221,62.393c-1.068,0-2.091-0.427-2.842-1.186l-6.891-6.959c-1.136-1.146-1.471-2.864-0.85-4.354
					c0.622-1.489,2.078-2.46,3.692-2.46h4.848c1.068,0,2.091,0.427,2.842,1.186l6.891,6.959c1.136,1.147,1.471,2.864,0.85,4.354
					c-0.622,1.489-2.078,2.46-3.692,2.46H140.221z"/>
				<polygon points="138.178,51.434 145.069,58.393 140.221,58.393 133.33,51.434 				"/>
			</g>
			<g>
				<path d="M146.164,31.947c-1.067,0-2.091-0.427-2.842-1.185l-6.892-6.958c-1.136-1.147-1.471-2.864-0.85-4.354
					c0.622-1.49,2.078-2.46,3.692-2.46h40.214c1.067,0,2.091,0.427,2.842,1.186l6.891,6.958c1.136,1.147,1.471,2.864,0.85,4.354
					c-0.622,1.49-2.078,2.46-3.692,2.46H146.164z"/>
				<polygon points="179.486,20.989 186.377,27.947 146.164,27.947 139.272,20.989 				"/>
			</g>
			<g>
				<path d="M196.787,31.947c-1.048,0-2.077-0.412-2.843-1.186l-6.89-6.958c-0.761-0.768-1.178-1.812-1.157-2.892l0.205-10.552
					c0.031-1.607,1.021-3.039,2.514-3.636c0.481-0.193,0.985-0.286,1.484-0.286c1.048,0,2.077,0.412,2.843,1.186l6.891,6.959
					c0.761,0.768,1.178,1.812,1.157,2.893l-0.206,10.551c-0.031,1.607-1.021,3.039-2.514,3.636
					C197.79,31.854,197.286,31.947,196.787,31.947z"/>
				<polygon points="190.102,10.437 196.992,17.396 196.786,27.947 189.896,20.989 				"/>
			</g>
			<g>
				<path d="M154.874,78.791c-1.048,0-2.077-0.412-2.843-1.186l-6.892-6.959c-0.761-0.768-1.178-1.812-1.157-2.893l0.321-16.398
					c0.031-1.607,1.021-3.039,2.514-3.636c0.481-0.192,0.985-0.286,1.484-0.286c1.048,0,2.077,0.412,2.843,1.186l6.891,6.959
					c0.761,0.769,1.178,1.812,1.157,2.893l-0.32,16.398c-0.031,1.606-1.021,3.039-2.513,3.636
					C155.877,78.697,155.374,78.791,154.874,78.791z"/>
				<polygon points="148.302,51.434 155.193,58.393 154.873,74.791 147.981,67.832 				"/>
			</g>
			<g>
				<path d="M193.387,52.695c-1.051,0-2.079-0.415-2.842-1.186l-6.893-6.958c-0.902-0.911-1.313-2.198-1.105-3.462l3.402-20.748
					c0.243-1.484,1.298-2.706,2.731-3.163c0.399-0.127,0.81-0.189,1.216-0.189c1.052,0,2.08,0.415,2.843,1.186l6.89,6.958
					c0.901,0.91,1.312,2.197,1.105,3.461l-3.399,20.748c-0.243,1.484-1.298,2.706-2.73,3.164
					C194.204,52.634,193.794,52.695,193.387,52.695z"/>
				<polygon points="189.896,20.989 196.786,27.947 193.387,48.695 186.494,41.737 				"/>
			</g>
			<g>
				<path d="M201.538,62.393c-1.048,0-2.077-0.412-2.843-1.186l-6.891-6.959c-0.761-0.769-1.178-1.812-1.157-2.893l0.189-9.697
					c0.031-1.607,1.021-3.039,2.513-3.636c0.482-0.193,0.985-0.286,1.485-0.286c1.048,0,2.077,0.412,2.843,1.185l6.893,6.958
					c0.761,0.768,1.179,1.812,1.157,2.894l-0.191,9.697c-0.032,1.606-1.022,3.038-2.514,3.635
					C202.541,62.299,202.037,62.393,201.538,62.393z"/>
				<polygon points="194.836,41.737 201.729,48.695 201.537,58.393 194.646,51.434 				"/>
			</g>
			<g>
				<path d="M155.193,62.393c-1.068,0-2.091-0.427-2.842-1.186l-6.891-6.959c-1.136-1.146-1.471-2.864-0.85-4.354
					c0.622-1.489,2.078-2.46,3.692-2.46h46.345c1.068,0,2.091,0.427,2.842,1.186l6.891,6.959c1.136,1.147,1.471,2.864,0.85,4.354
					c-0.622,1.489-2.078,2.46-3.692,2.46H155.193z"/>
				<polygon points="194.646,51.434 201.537,58.393 155.193,58.393 148.302,51.434 				"/>
			</g>
			<g>
				<path d="M144.559,88.486c-1.067,0-2.091-0.427-2.842-1.186l-6.891-6.957c-1.136-1.146-1.471-2.864-0.85-4.354
					c0.622-1.49,2.078-2.461,3.692-2.461h53.046c1.067,0,2.091,0.427,2.842,1.186l6.89,6.957c1.136,1.146,1.471,2.864,0.85,4.354
					c-0.622,1.489-2.078,2.46-3.692,2.46H144.559z"/>
				<polygon points="190.714,77.529 197.604,84.486 144.559,84.486 137.668,77.529 				"/>
			</g>
			<g>
				<path d="M137.668,81.529c-1.074,0-2.104-0.433-2.856-1.199c-0.752-0.768-1.164-1.805-1.143-2.879l0.43-22.018h-0.769
					c-1.074,0-2.104-0.433-2.856-1.199c-0.752-0.768-1.165-1.805-1.143-2.879l0.19-9.697c0.042-2.178,1.82-3.922,3.999-3.922h39.167
					l2.09-12.748h-35.505c-1.075,0-2.104-0.432-2.856-1.199c-0.752-0.768-1.165-1.805-1.143-2.879l0.207-10.552
					c0.042-2.178,1.82-3.921,3.999-3.921h50.623c1.074,0,2.104,0.432,2.856,1.199c0.752,0.767,1.164,1.804,1.143,2.878
					l-0.205,10.552c-0.003,0.191-0.021,0.381-0.052,0.57l-2.64,16.1h3.632c1.074,0,2.104,0.432,2.856,1.199s1.164,1.805,1.143,2.879
					l-0.189,9.697c-0.042,2.179-1.82,3.922-3.999,3.922h-42.422l-0.164,8.398h38.842c1.074,0,2.104,0.433,2.856,1.199
					c0.752,0.767,1.164,1.805,1.143,2.879l-0.188,9.697c-0.042,2.178-1.82,3.922-3.999,3.922H137.668z"/>
				<polygon points="190.102,10.437 189.896,20.989 186.494,41.737 194.836,41.737 194.646,51.434 148.302,51.434 147.981,67.832 
					190.902,67.832 190.714,77.529 137.668,77.529 138.178,51.434 133.33,51.434 133.52,41.737 176.085,41.737 179.486,20.989 
					139.272,20.989 139.479,10.437 				"/>
			</g>
			<g>
				<path d="M197.604,88.486c-1.048,0-2.077-0.412-2.843-1.186l-6.89-6.957c-0.761-0.768-1.178-1.812-1.157-2.893l0.188-9.697
					c0.031-1.606,1.021-3.039,2.513-3.636c0.481-0.192,0.985-0.286,1.485-0.286c1.048,0,2.077,0.412,2.843,1.186l6.893,6.959
					c0.761,0.769,1.179,1.813,1.157,2.894l-0.191,9.695c-0.032,1.606-1.021,3.038-2.514,3.635
					C198.607,88.393,198.104,88.486,197.604,88.486z"/>
				<polygon points="190.902,67.832 197.795,74.791 197.604,84.486 190.714,77.529 				"/>
			</g>
		</g>
		<g enable-background="new    ">
			<g>
				<path d="M231.598,31.021c-1.067,0-2.091-0.427-2.843-1.186l-6.891-6.959c-1.136-1.147-1.471-2.864-0.849-4.354
					c0.621-1.49,2.077-2.46,3.691-2.46h17.896c1.067,0,2.091,0.427,2.843,1.186l6.891,6.959c1.136,1.147,1.471,2.864,0.849,4.354
					c-0.621,1.49-2.077,2.46-3.691,2.46H231.598z"/>
				<polygon points="242.604,20.062 249.494,27.021 231.598,27.021 224.707,20.062 				"/>
			</g>
			<g>
				<path d="M260.048,31.021c-1.048,0-2.077-0.412-2.844-1.186l-6.891-6.959c-0.761-0.769-1.178-1.812-1.156-2.893l0.189-9.625
					c0.031-1.607,1.021-3.039,2.514-3.636c0.481-0.192,0.985-0.286,1.484-0.286c1.049,0,2.078,0.412,2.844,1.186l6.889,6.959
					c0.761,0.768,1.178,1.811,1.156,2.892l-0.188,9.625c-0.031,1.607-1.021,3.039-2.514,3.636
					C261.051,30.928,260.547,31.021,260.048,31.021z"/>
				<polygon points="253.346,10.437 260.234,17.396 260.047,27.021 253.156,20.062 				"/>
			</g>
			<g>
				<path d="M257.93,44.497c-1.051,0-2.079-0.415-2.843-1.186l-6.891-6.959c-0.895-0.904-1.306-2.179-1.108-3.435l2.117-13.476
					c0.233-1.491,1.286-2.722,2.722-3.186c0.403-0.13,0.818-0.193,1.229-0.193c1.051,0,2.079,0.415,2.843,1.186l6.891,6.959
					c0.895,0.904,1.306,2.179,1.108,3.435l-2.117,13.476c-0.233,1.491-1.286,2.722-2.722,3.186
					C258.756,44.434,258.341,44.497,257.93,44.497z"/>
				<polygon points="253.156,20.062 260.047,27.021 257.93,40.497 251.039,33.538 				"/>
			</g>
			<g>
				<path d="M256.457,54.193c-1.067,0-2.091-0.427-2.842-1.186l-6.893-6.959c-1.137-1.147-1.472-2.865-0.85-4.354
					c0.621-1.49,2.077-2.46,3.691-2.46h9.699c1.067,0,2.092,0.427,2.843,1.186l6.89,6.959c1.136,1.147,1.471,2.865,0.849,4.354
					c-0.621,1.49-2.077,2.46-3.691,2.46H256.457z"/>
				<polygon points="259.264,43.234 266.153,50.193 256.457,50.193 249.564,43.234 				"/>
			</g>
			<g>
				<path d="M251.229,88.132c-1.052,0-2.08-0.415-2.844-1.186l-6.891-6.959c-0.892-0.9-1.304-2.171-1.11-3.423l5.227-33.939
					c0.229-1.493,1.281-2.729,2.718-3.196c0.405-0.131,0.822-0.195,1.235-0.195c1.051,0,2.079,0.415,2.842,1.185l6.893,6.96
					c0.893,0.9,1.305,2.171,1.111,3.424l-5.229,33.938c-0.229,1.493-1.281,2.729-2.719,3.195
					C252.059,88.068,251.642,88.132,251.229,88.132z"/>
				<polygon points="249.564,43.234 256.457,50.193 251.229,84.132 244.338,77.173 				"/>
			</g>
			<g>
				<path d="M240.393,88.132c-1.067,0-2.091-0.427-2.842-1.186l-6.892-6.959c-1.137-1.146-1.472-2.864-0.85-4.354
					c0.621-1.489,2.077-2.46,3.691-2.46h10.837c1.067,0,2.091,0.427,2.843,1.186l6.891,6.959c1.136,1.147,1.471,2.864,0.849,4.354
					c-0.621,1.489-2.077,2.46-3.691,2.46H240.393z"/>
				<polygon points="244.338,77.173 251.229,84.132 240.393,84.132 233.501,77.173 				"/>
			</g>
			<g>
				<path d="M275.251,88.486c-1.048,0-2.077-0.412-2.843-1.186l-6.891-6.957c-0.761-0.768-1.179-1.812-1.157-2.893l1.318-67.448
					c0.031-1.607,1.021-3.039,2.514-3.636c0.481-0.193,0.985-0.286,1.484-0.286c1.048,0,2.077,0.412,2.843,1.185l6.892,6.958
					c0.761,0.769,1.179,1.812,1.157,2.893l-1.319,67.447c-0.031,1.606-1.021,3.039-2.514,3.636
					C276.254,88.393,275.75,88.486,275.251,88.486z"/>
				<polygon points="269.678,10.081 276.569,17.039 275.25,84.486 268.359,77.529 				"/>
			</g>
			<g>
				<path d="M258.592,81.529c-1.074,0-2.104-0.433-2.856-1.199c-0.752-0.768-1.164-1.805-1.143-2.879l0.592-30.217h-2.188
					l-4.705,30.547c-0.3,1.951-1.979,3.392-3.953,3.392h-10.837c-1.171,0-2.283-0.513-3.043-1.403s-1.092-2.07-0.907-3.227
					l8.364-52.481h-13.208c-1.074,0-2.104-0.432-2.856-1.2c-0.752-0.767-1.164-1.805-1.143-2.879l0.189-9.625
					c0.043-2.178,1.82-3.921,3.999-3.921h28.449c1.074,0,2.104,0.432,2.856,1.2c0.107,0.11,0.209,0.226,0.303,0.347
					c0.705-1.143,1.969-1.902,3.406-1.902h9.767c1.074,0,2.104,0.432,2.855,1.199c0.753,0.767,1.165,1.805,1.144,2.879
					l-1.318,67.448c-0.042,2.179-1.82,3.922-3.999,3.922H258.592z"/>
				<polygon points="259.452,33.538 259.911,10.081 269.678,10.081 268.359,77.529 258.592,77.529 259.264,43.234 249.564,43.234 
					244.338,77.173 233.501,77.173 242.604,20.062 224.707,20.062 224.896,10.437 253.346,10.437 253.156,20.062 251.039,33.538 
									"/>
			</g>
			<g>
				<path d="M265.482,88.486c-1.067,0-2.091-0.427-2.842-1.186l-6.891-6.957c-1.136-1.146-1.472-2.864-0.85-4.354
					c0.621-1.489,2.077-2.46,3.691-2.46h9.768c1.067,0,2.091,0.427,2.842,1.186l6.891,6.957c1.136,1.146,1.472,2.864,0.85,4.354
					c-0.621,1.489-2.077,2.46-3.691,2.46H265.482z"/>
				<polygon points="268.359,77.529 275.25,84.486 265.482,84.486 258.592,77.529 				"/>
			</g>
		</g>
		<g enable-background="new    ">
			<g>
				<path d="M291.151,88.486c-1.048,0-2.077-0.412-2.843-1.186l-6.891-6.957c-0.761-0.768-1.179-1.812-1.157-2.893l1.318-67.448
					c0.031-1.607,1.021-3.039,2.514-3.636c0.481-0.193,0.985-0.286,1.484-0.286c1.048,0,2.077,0.412,2.843,1.185l6.892,6.958
					c0.761,0.769,1.179,1.812,1.157,2.893l-1.319,67.447c-0.031,1.606-1.021,3.039-2.514,3.636
					C292.154,88.393,291.65,88.486,291.151,88.486z"/>
				<polygon points="285.578,10.081 292.47,17.039 291.15,84.486 284.26,77.529 				"/>
			</g>
			<g>
				<path d="M281.382,88.486c-1.067,0-2.091-0.427-2.842-1.186l-6.891-6.957c-1.136-1.146-1.472-2.864-0.85-4.354
					c0.621-1.489,2.077-2.46,3.691-2.46h9.769c1.067,0,2.091,0.427,2.842,1.186l6.891,6.957c1.136,1.146,1.472,2.864,0.85,4.354
					c-0.621,1.489-2.077,2.46-3.691,2.46H281.382z"/>
				<polygon points="284.26,77.529 291.15,84.486 281.382,84.486 274.491,77.529 				"/>
			</g>
			<g>
				<path d="M274.491,81.529c-1.074,0-2.104-0.433-2.855-1.199c-0.753-0.768-1.165-1.805-1.144-2.879l1.319-67.448
					c0.042-2.178,1.82-3.922,3.999-3.922h9.768c1.074,0,2.104,0.432,2.855,1.199c0.753,0.767,1.165,1.805,1.144,2.879l-1.318,67.448
					c-0.042,2.179-1.82,3.922-3.999,3.922H274.491z"/>
				<polygon points="275.811,10.081 285.578,10.081 284.26,77.529 274.491,77.529 				"/>
			</g>
		</g>
		<g enable-background="new    ">
			<g enable-background="new    ">
				<g>
					<defs>
						<path id="SVGID_1_" d="M311.126,19.848l6.891,6.958c-1.809,0-3.28,0.571-4.418,1.711c-1.146,1.141-1.727,2.62-1.762,4.42
							l-6.891-6.958c0.035-1.8,0.616-3.28,1.762-4.42C307.844,20.419,309.317,19.848,311.126,19.848z"/>
					</defs>
					<use xlink:href="#SVGID_1_"  overflow="visible"/>
					<clipPath id="SVGID_2_">
						<use xlink:href="#SVGID_1_"  overflow="visible"/>
					</clipPath>
					<path clip-path="url(#SVGID_2_)" d="M311.838,36.937c-1.048,0-2.077-0.412-2.843-1.186l-6.891-6.958
						c-0.761-0.768-1.179-1.812-1.157-2.893c0.056-2.836,1.071-5.318,2.939-7.177c1.869-1.877,4.377-2.876,7.239-2.876
						c1.067,0,2.091,0.427,2.842,1.186l6.891,6.958c1.137,1.147,1.472,2.864,0.85,4.354c-0.621,1.49-2.077,2.46-3.691,2.46
						c-0.927,0-1.322,0.271-1.587,0.536c-0.287,0.287-0.574,0.701-0.594,1.673c-0.031,1.607-1.021,3.039-2.514,3.636
						C312.841,36.844,312.337,36.937,311.838,36.937z"/>
					<g clip-path="url(#SVGID_2_)" enable-background="new    ">
						<path d="M313.681,32.437c-1.03,0-2.061-0.396-2.842-1.185l-6.892-6.958c-0.753-0.76-1.17-1.79-1.158-2.859
							s0.451-2.09,1.221-2.833c1.865-1.802,4.325-2.754,7.116-2.754c1.067,0,2.091,0.427,2.842,1.186l6.891,6.958
							c1.137,1.147,1.472,2.864,0.85,4.354c-0.621,1.49-2.077,2.46-3.691,2.46c-0.909,0-1.297,0.256-1.557,0.507
							C315.685,32.063,314.682,32.437,313.681,32.437z"/>
						<path d="M311.126,19.848l6.891,6.958c-1.765,0-3.211,0.544-4.336,1.631l-6.892-6.958
							C307.914,20.392,309.36,19.848,311.126,19.848"/>
						<path d="M313.035,33.168c-1.063,0-2.088-0.424-2.842-1.185l-6.892-6.958c-1.396-1.409-1.548-3.627-0.359-5.214
							c0.278-0.37,0.583-0.723,0.908-1.05c0.062-0.064,0.125-0.126,0.188-0.187c1.579-1.495,4.062-1.454,5.592,0.09l6.892,6.958
							c0.749,0.756,1.166,1.779,1.158,2.843s-0.438,2.081-1.197,2.827c-0.121,0.12-0.182,0.186-0.234,0.258
							c-0.694,0.938-1.764,1.525-2.928,1.608C313.226,33.165,313.13,33.168,313.035,33.168z"/>
						<path d="M306.789,21.479l6.892,6.958c-0.026,0.026-0.055,0.053-0.082,0.081c-0.206,0.206-0.395,0.422-0.563,0.65l-6.892-6.958
							c0.171-0.228,0.357-0.444,0.564-0.65C306.734,21.532,306.762,21.505,306.789,21.479"/>
						<path d="M312.612,33.823c-1.06,0-2.086-0.421-2.842-1.185l-6.892-6.958c-1.248-1.26-1.518-3.191-0.662-4.744
							c0.211-0.383,0.452-0.759,0.718-1.115c0.696-0.935,1.765-1.52,2.928-1.602c1.157-0.076,2.303,0.347,3.123,1.175l6.892,6.958
							c1.395,1.408,1.548,3.624,0.361,5.21c-0.045,0.062-0.086,0.125-0.123,0.192c-0.608,1.104-1.702,1.856-2.951,2.031
							C312.979,33.811,312.796,33.823,312.612,33.823z"/>
						<path d="M306.144,22.209l6.892,6.958c-0.156,0.209-0.297,0.428-0.423,0.656l-6.892-6.958
							C305.846,22.638,305.987,22.419,306.144,22.209"/>
						<path d="M312.295,34.5c-1.057,0-2.083-0.419-2.842-1.185l-6.892-6.958c-1.116-1.127-1.461-2.806-0.88-4.282
							c0.155-0.395,0.336-0.779,0.536-1.142c0.609-1.104,1.703-1.856,2.951-2.03c1.257-0.172,2.508,0.252,3.394,1.147l6.892,6.958
							c1.251,1.263,1.519,3.199,0.657,4.753c-0.033,0.06-0.063,0.122-0.088,0.186c-0.49,1.263-1.587,2.192-2.914,2.468
							C312.839,34.473,312.565,34.5,312.295,34.5z"/>
						<path d="M305.721,22.865l6.892,6.958c-0.12,0.217-0.227,0.443-0.317,0.677l-6.892-6.958
							C305.495,23.309,305.601,23.083,305.721,22.865"/>
						<path d="M312.047,35.278c-1.053,0-2.081-0.417-2.843-1.186l-6.891-6.959c-0.982-0.992-1.376-2.425-1.039-3.78
							c0.108-0.434,0.243-0.86,0.402-1.267c0.492-1.261,1.589-2.188,2.915-2.462c1.325-0.274,2.699,0.14,3.652,1.102l6.892,6.958
							c1.116,1.127,1.461,2.808,0.879,4.283c-0.034,0.087-0.062,0.178-0.085,0.271c-0.348,1.403-1.426,2.51-2.82,2.895
							C312.759,35.231,312.401,35.278,312.047,35.278z"/>
						<path d="M305.402,23.542l6.892,6.958c-0.099,0.25-0.181,0.51-0.247,0.778l-6.891-6.959
							C305.223,24.052,305.305,23.792,305.402,23.542"/>
						<path d="M311.876,36.292c-1.05,0-2.079-0.414-2.843-1.186l-6.892-6.959c-0.84-0.848-1.257-2.026-1.139-3.213
							c0.055-0.546,0.146-1.078,0.272-1.582c0.35-1.402,1.428-2.507,2.821-2.89c1.391-0.382,2.885,0.015,3.902,1.042l6.891,6.959
							c0.98,0.991,1.375,2.42,1.04,3.773c-0.033,0.138-0.059,0.286-0.073,0.442c-0.15,1.543-1.18,2.861-2.641,3.381
							C312.777,36.216,312.325,36.292,311.876,36.292z"/>
						<path d="M305.156,24.32l6.891,6.959c-0.08,0.324-0.138,0.662-0.172,1.013l-6.892-6.959
							C305.019,24.982,305.075,24.645,305.156,24.32"/>
						<path d="M311.838,36.938c-1.048,0-2.077-0.412-2.843-1.186l-6.891-6.958c-0.76-0.766-1.177-1.807-1.157-2.885
							c0.006-0.328,0.024-0.649,0.055-0.963c0.15-1.543,1.18-2.861,2.641-3.381c1.46-0.52,3.093-0.148,4.183,0.954l6.892,6.959
							c0.842,0.85,1.259,2.032,1.138,3.222c-0.011,0.106-0.016,0.216-0.019,0.328c-0.035,1.604-1.027,3.033-2.519,3.627
							C312.838,36.845,312.335,36.938,311.838,36.938z"/>
						<path d="M304.983,25.333l6.892,6.959c-0.021,0.21-0.033,0.426-0.038,0.646l-6.891-6.958
							C304.95,25.76,304.963,25.544,304.983,25.333"/>
					</g>
				</g>
			</g>
			<g>
				<path d="M318.017,30.807c-1.067,0-2.091-0.427-2.843-1.186l-6.891-6.959c-1.136-1.147-1.471-2.864-0.849-4.354
					c0.621-1.49,2.077-2.46,3.691-2.46h2.424c1.067,0,2.091,0.427,2.842,1.186l6.892,6.959c1.137,1.147,1.472,2.864,0.85,4.354
					c-0.621,1.49-2.077,2.46-3.691,2.46H318.017z"/>
				<polygon points="313.55,19.848 320.441,26.807 318.017,26.807 311.126,19.848 				"/>
			</g>
			<g>
				<path d="M311.756,41.145c-1.048,0-2.077-0.412-2.843-1.186l-6.891-6.958c-0.761-0.768-1.179-1.812-1.157-2.893l0.082-4.207
					c0.031-1.607,1.021-3.039,2.514-3.636c0.481-0.193,0.985-0.286,1.484-0.286c1.048,0,2.077,0.412,2.843,1.186l6.891,6.958
					c0.761,0.768,1.179,1.812,1.157,2.893l-0.082,4.207c-0.031,1.607-1.021,3.039-2.514,3.636
					C312.759,41.052,312.255,41.145,311.756,41.145z"/>
				<polygon points="304.946,25.98 311.837,32.938 311.755,37.145 304.864,30.187 				"/>
			</g>
			<g enable-background="new    ">
				<g>
					<defs>
						<path id="SVGID_3_" d="M317.849,21.505c2.298,2.32,4.595,4.639,6.892,6.958c-1.094-1.104-2.526-1.657-4.298-1.657
							l-6.893-6.958C315.322,19.848,316.755,20.401,317.849,21.505z"/>
					</defs>
					<use xlink:href="#SVGID_3_"  overflow="visible"/>
					<clipPath id="SVGID_4_">
						<use xlink:href="#SVGID_3_"  overflow="visible"/>
					</clipPath>
					<path clip-path="url(#SVGID_4_)" d="M324.74,32.463c-1.03,0-2.06-0.395-2.842-1.185c-0.151-0.153-0.468-0.472-1.456-0.472
						c-1.067,0-2.091-0.427-2.842-1.185l-6.893-6.958c-1.136-1.147-1.472-2.864-0.85-4.354c0.621-1.49,2.077-2.46,3.691-2.46
						c2.83,0,5.299,0.982,7.141,2.841l6.892,6.958c1.555,1.569,1.543,4.102-0.026,5.657
						C326.775,32.077,325.758,32.463,324.74,32.463z"/>
					<g clip-path="url(#SVGID_4_)" enable-background="new    ">
						<path d="M324.76,32.463c-0.006,0-0.014,0-0.02,0c-1.03,0-2.06-0.396-2.842-1.185c0,0,0,0,0,0l-0.006-0.005
							c-0.153-0.155-0.474-0.466-1.45-0.466c-1.067,0-2.091-0.427-2.842-1.185l-6.893-6.958c-1.136-1.147-1.472-2.864-0.85-4.354
							c0.621-1.49,2.077-2.46,3.691-2.46c2.83,0,5.299,0.982,7.141,2.841l6.664,6.729c0.86,0.734,1.405,1.826,1.405,3.045
							C328.76,30.672,326.97,32.463,324.76,32.463z"/>
						<path d="M317.849,21.505l6.892,6.958c-1.094-1.104-2.526-1.657-4.298-1.657l-6.893-6.958
							C315.322,19.848,316.755,20.401,317.849,21.505"/>
					</g>
				</g>
			</g>
			<g enable-background="new    ">
				<g>
					<defs>
						<path id="SVGID_5_" d="M313.379,41.566c-2.297-2.319-4.594-4.639-6.891-6.958c-0.013-0.012-0.023-0.024-0.035-0.036
							c-1.102-1.114-1.625-2.576-1.589-4.385l6.891,6.958c-0.035,1.81,0.488,3.271,1.589,4.385
							C313.355,41.542,313.367,41.554,313.379,41.566z"/>
					</defs>
					<use xlink:href="#SVGID_5_"  overflow="visible"/>
					<clipPath id="SVGID_6_">
						<use xlink:href="#SVGID_5_"  overflow="visible"/>
					</clipPath>
					<path clip-path="url(#SVGID_6_)" d="M313.371,45.563c-1.021,0-2.041-0.389-2.82-1.169c-0.006-0.005-6.957-7.024-6.979-7.048
						c-1.815-1.835-2.764-4.352-2.706-7.239c0.032-1.606,1.022-3.038,2.515-3.634c0.48-0.192,0.984-0.286,1.483-0.286
						c1.048,0,2.077,0.412,2.843,1.186l6.891,6.958c0.761,0.768,1.179,1.811,1.157,2.892c-0.02,1.036,0.288,1.347,0.436,1.497
						c0.006,0.005,0.02,0.02,0.021,0.021c1.552,1.567,1.548,4.1-0.016,5.655C315.414,45.174,314.393,45.563,313.371,45.563z"/>
					<g clip-path="url(#SVGID_6_)" enable-background="new    ">
						<path d="M311.784,42.009c-1.046,0-2.075-0.41-2.843-1.185l-6.893-6.959c-0.66-0.667-1.065-1.544-1.145-2.479
							c-0.034-0.411-0.048-0.838-0.039-1.278c0.031-1.606,1.021-3.038,2.514-3.635c1.494-0.596,3.197-0.242,4.327,0.899l6.891,6.958
							c0.762,0.768,1.179,1.812,1.157,2.894c-0.001,0.052-0.001,0.103,0,0.154c0.032,0.206,0.049,0.416,0.049,0.631
							c0,2.204-1.782,3.992-3.984,4C311.808,42.009,311.796,42.009,311.784,42.009z"/>
						<path d="M304.864,30.187l6.891,6.958c-0.006,0.297,0.004,0.585,0.028,0.864l-6.893-6.959
							C304.867,30.772,304.858,30.484,304.864,30.187"/>
						<path d="M313.035,45.187c-1.032,0-2.063-0.397-2.843-1.185l-6.893-6.958c-0.081-0.082-0.158-0.167-0.231-0.255
							c-1.251-1.501-1.978-3.314-2.161-5.387c-0.148-1.68,0.771-3.271,2.301-3.981c1.529-0.709,3.339-0.384,4.525,0.813l6.893,6.959
							c0.658,0.664,1.063,1.538,1.144,2.469c0.036,0.416,0.133,0.66,0.234,0.823c0.652,0.712,1.05,1.66,1.05,2.702
							c0,2.209-1.79,4-4,4C313.046,45.187,313.04,45.187,313.035,45.187z"/>
						<path d="M304.892,31.05l6.893,6.959c0.108,1.248,0.522,2.307,1.25,3.178l-6.893-6.958
							C305.416,33.358,305.002,32.298,304.892,31.05"/>
						<path d="M313.378,45.565c-0.581,0-1.162-0.125-1.698-0.377c0,0-0.003-0.001-0.005-0.002c-0.003-0.001-0.003-0.001-0.005-0.002
							c-0.002-0.001-0.003-0.001-0.005-0.002s-0.003-0.001-0.005-0.002c-0.002-0.001-0.006-0.003-0.005-0.002
							c-0.002-0.001-0.003-0.001-0.005-0.002l0,0c-0.403-0.193-0.78-0.458-1.113-0.793l-0.001-0.002
							c-0.002-0.001-0.003-0.002-0.004-0.003l-6.886-6.954c-0.016-0.017-0.032-0.033-0.048-0.049
							c-0.186-0.187-0.36-0.38-0.528-0.581c-1.373-1.645-1.205-4.08,0.38-5.522c1.585-1.443,4.025-1.379,5.533,0.144l6.893,6.958
							c0.084,0.085,0.165,0.174,0.241,0.267c0.023,0.028,0.048,0.055,0.073,0.081c0.021,0.021,0.041,0.041,0.059,0.06
							c0.351,0.361,0.619,0.772,0.807,1.209c0,0,0,0,0,0c0,0.001,0.001,0.002,0.001,0.002c0.182,0.425,0.286,0.875,0.313,1.329
							c-0.001,0-0.001,0.002,0,0.004c0,0.001,0.002,0.001,0.001,0.005c-0.001,0.001-0.001,0.003,0,0.004
							c0.041,0.714-0.108,1.437-0.447,2.085c-0.002,0.001-0.003,0.003-0.003,0.005c-0.185,0.351-0.425,0.681-0.721,0.975
							c0,0,0,0,0,0c-0.454,0.451-0.988,0.771-1.556,0.96h-0.001c-0.001,0-0.003,0.001-0.005,0.002c0,0-0.002,0.001-0.006,0.001
							c0,0-0.002,0.001-0.006,0.002c0,0-0.003,0.001-0.005,0.002c-0.001,0-0.002,0-0.002,0c-0.002,0.001-0.004,0.001-0.006,0.002
							c-0.002,0.001-0.004,0-0.006,0.002c-0.002,0.001-0.006,0.001-0.006,0.002c-0.003,0-0.005,0.001-0.007,0.002
							c-0.002,0-0.004,0.001-0.006,0.002c-0.002,0-0.004,0.001-0.006,0.002c-0.002,0-0.004,0.001-0.006,0.002
							c-0.002,0-0.004,0-0.006,0.001s-0.004,0-0.007,0.002v0c-0.002,0-0.004,0.001-0.006,0.001l0,0
							c-0.223,0.069-0.451,0.118-0.681,0.146l0,0c-0.002,0-0.004,0-0.006,0.001l0,0c-0.002,0-0.004,0-0.006,0l0,0
							c-0.002,0-0.004,0-0.006,0.001c0,0-0.002,0-0.006,0h-0.001c-0.001,0-0.005,0.003-0.006,0.001c-0.002,0-0.003,0-0.005,0h-0.001
							c-0.004,0.001-0.005,0.001-0.007,0.001c-0.002,0-0.004,0.001-0.006,0c-0.002,0-0.004,0-0.006,0.001c-0.002,0-0.004,0-0.006,0
							s-0.004,0.001-0.006,0c-0.002,0-0.004,0-0.006,0.001c-0.002,0-0.005,0-0.007,0c0,0-0.004,0-0.006,0c-0.002,0-0.004,0-0.006,0
							c-0.002,0.001-0.004,0-0.006,0.001c-0.002,0-0.004,0-0.006,0c-0.002,0-0.003,0-0.007,0l0,0c-0.002,0-0.004,0-0.006,0
							c0.001,0-0.003,0.001-0.006,0.001l0,0C313.631,45.559,313.505,45.565,313.378,45.565z"/>
						<path d="M306.142,34.229l6.893,6.958c0.098,0.118,0.201,0.232,0.311,0.343c0.013,0.012,0.023,0.024,0.035,0.036l-6.891-6.959
							c-0.013-0.012-0.023-0.024-0.035-0.036C306.344,34.461,306.24,34.347,306.142,34.229"/>
					</g>
				</g>
			</g>
			<g enable-background="new    ">
				<g>
					<defs>
						<path id="SVGID_7_" d="M305.864,48.811c-2.296-2.32-4.595-4.64-6.892-6.958c1.218,1.228,2.659,2.2,4.321,2.917l6.891,6.958
							C308.524,51.01,307.081,50.038,305.864,48.811z"/>
					</defs>
					<use xlink:href="#SVGID_7_"  overflow="visible"/>
					<clipPath id="SVGID_8_">
						<use xlink:href="#SVGID_7_"  overflow="visible"/>
					</clipPath>
					<path clip-path="url(#SVGID_8_)" d="M310.183,55.727c-0.531,0-1.07-0.105-1.584-0.328c-2.13-0.919-4.006-2.188-5.575-3.771
						l-6.893-6.96c-1.555-1.569-1.543-4.101,0.026-5.656c0.779-0.773,1.798-1.159,2.815-1.159c1.029,0,2.059,0.395,2.84,1.184
						c0.861,0.868,1.864,1.542,3.066,2.061c0.47,0.203,0.896,0.494,1.257,0.858l6.891,6.958c1.349,1.361,1.542,3.487,0.462,5.069
						C312.724,55.102,311.473,55.727,310.183,55.727z"/>
					<g clip-path="url(#SVGID_8_)" enable-background="new    ">
						<path d="M310.184,55.727c-0.531,0-1.07-0.105-1.584-0.328c-2.13-0.919-4.006-2.188-5.575-3.771l-6.89-6.957
							c-0.001,0-0.001-0.001-0.001-0.001l-0.002-0.001c-1.555-1.569-1.543-4.102,0.026-5.656c1.568-1.554,4.103-1.543,5.655,0.025
							c0.86,0.867,1.862,1.541,3.066,2.06c0.47,0.203,0.896,0.495,1.257,0.858l6.663,6.728c0.86,0.734,1.405,1.826,1.405,3.045
							c0,2.188-1.758,3.967-3.938,4C310.239,55.727,310.212,55.727,310.184,55.727z"/>
						<path d="M303.295,44.768l6.891,6.958c-1.66-0.717-3.104-1.688-4.32-2.916l-6.892-6.958
							C300.19,43.079,301.633,44.051,303.295,44.768"/>
					</g>
				</g>
			</g>
			<g enable-background="new    ">
				<g>
					<defs>
						<path id="SVGID_9_" d="M325.457,14.394l6.891,6.958c1.232,1.266,2.202,2.736,2.909,4.42c0.696,1.693,1.035,3.512,0.997,5.455
							l-6.891-6.959c0.038-1.943-0.301-3.761-0.998-5.454C327.658,17.13,326.689,15.659,325.457,14.394z"/>
					</defs>
					<use xlink:href="#SVGID_9_"  overflow="visible"/>
					<clipPath id="SVGID_10_">
						<use xlink:href="#SVGID_9_"  overflow="visible"/>
					</clipPath>
					<path clip-path="url(#SVGID_10_)" d="M336.255,35.227c-1.048,0-2.077-0.412-2.844-1.186l-6.891-6.959
						c-0.761-0.769-1.178-1.812-1.156-2.893c0.027-1.387-0.201-2.647-0.697-3.852c-0.505-1.201-1.187-2.24-2.075-3.152
						c-1.537-1.578-1.509-4.101,0.063-5.645c0.778-0.765,1.791-1.146,2.803-1.146c1.03,0,2.061,0.396,2.842,1.186l6.891,6.958
						c1.604,1.647,2.859,3.552,3.756,5.686c0.92,2.237,1.356,4.611,1.308,7.082c-0.031,1.606-1.021,3.039-2.514,3.635
						C337.258,35.134,336.754,35.227,336.255,35.227z"/>
					<g clip-path="url(#SVGID_10_)" enable-background="new    ">
						<path d="M333.072,26.153c-1.032,0-2.063-0.397-2.843-1.185l-6.892-6.958c-0.079-0.08-0.155-0.164-0.228-0.25
							c-0.164-0.196-0.335-0.386-0.514-0.569c-1.541-1.576-1.516-4.102,0.055-5.647c1.572-1.545,4.097-1.528,5.647,0.037
							l6.891,6.958c0.25,0.256,0.48,0.506,0.7,0.757c0.741,0.726,1.201,1.738,1.201,2.858c0,2.209-1.79,4-4,4
							C333.084,26.153,333.078,26.153,333.072,26.153z"/>
						<path d="M325.457,14.394l6.891,6.958c0.252,0.259,0.493,0.526,0.724,0.801l-6.892-6.958
							C325.949,14.919,325.709,14.652,325.457,14.394"/>
						<path d="M336.205,33.677c-1.046,0-2.075-0.41-2.843-1.185l-6.892-6.958c-0.657-0.663-1.062-1.535-1.143-2.465
							c-0.084-0.949-0.307-1.869-0.662-2.734c-0.399-0.95-0.914-1.804-1.561-2.58c-1.37-1.646-1.201-4.08,0.385-5.52
							c1.586-1.442,4.024-1.376,5.531,0.146l6.892,6.958c0.08,0.081,0.157,0.166,0.23,0.253c1.146,1.375,2.09,2.934,2.803,4.632
							c0.615,1.497,1.014,3.05,1.196,4.646c0.054,0.261,0.081,0.531,0.081,0.808c0,2.204-1.781,3.992-3.983,4
							C336.229,33.677,336.217,33.677,336.205,33.677z"/>
						<path d="M326.18,15.195l6.892,6.958c0.896,1.074,1.624,2.279,2.187,3.619c0.508,1.235,0.826,2.537,0.946,3.905l-6.892-6.958
							c-0.12-1.368-0.438-2.669-0.946-3.905C327.803,17.474,327.074,16.269,326.18,15.195"/>
						<path d="M336.256,35.227c-1.049,0-2.077-0.412-2.844-1.186l-6.891-6.959c-0.758-0.766-1.175-1.804-1.156-2.881
							c0.006-0.392-0.007-0.774-0.038-1.138c-0.145-1.678,0.776-3.268,2.306-3.975c1.528-0.706,3.337-0.38,4.521,0.815l6.892,6.958
							c0.658,0.665,1.063,1.538,1.144,2.47c0.057,0.652,0.078,1.318,0.064,1.977c-0.032,1.606-1.023,3.037-2.516,3.633
							C337.258,35.134,336.755,35.227,336.256,35.227z"/>
						<path d="M329.313,22.719l6.892,6.958c0.044,0.507,0.062,1.024,0.051,1.55l-6.891-6.959
							C329.373,23.743,329.356,23.227,329.313,22.719"/>
					</g>
				</g>
			</g>
			<g enable-background="new    ">
				<g>
					<defs>
						<path id="SVGID_11_" d="M308.764,45.872l6.893,6.959c-1.953,0-3.772-0.365-5.471-1.104l-6.891-6.958
							C304.992,45.507,306.813,45.872,308.764,45.872z"/>
					</defs>
					<use xlink:href="#SVGID_11_"  overflow="visible"/>
					<clipPath id="SVGID_12_">
						<use xlink:href="#SVGID_11_"  overflow="visible"/>
					</clipPath>
					<path clip-path="url(#SVGID_12_)" d="M315.656,56.831c-2.499,0-4.877-0.483-7.067-1.437c-0.466-0.203-0.889-0.492-1.245-0.854
						l-6.891-6.958c-1.35-1.363-1.542-3.492-0.459-5.075c0.766-1.118,2.015-1.741,3.303-1.741c0.535,0,1.077,0.108,1.595,0.333
						c1.192,0.519,2.459,0.771,3.872,0.771c1.067,0,2.091,0.427,2.842,1.185l6.893,6.959c1.136,1.146,1.472,2.864,0.85,4.354
						C318.727,55.86,317.271,56.831,315.656,56.831z"/>
					<g clip-path="url(#SVGID_12_)" enable-background="new    ">
						<path d="M315.676,56.831c-0.004,0.001-0.012,0.001-0.02,0c-2.499,0-4.877-0.483-7.067-1.437
							c-0.466-0.203-0.889-0.492-1.245-0.854l-6.891-6.958c-1.35-1.363-1.542-3.492-0.459-5.075
							c1.084-1.582,3.134-2.175,4.897-1.408c1.192,0.519,2.459,0.771,3.872,0.771c1.067,0,2.091,0.427,2.842,1.185l6.665,6.729
							c0.86,0.733,1.405,1.825,1.405,3.045C319.676,55.04,317.886,56.831,315.676,56.831z"/>
						<path d="M308.764,45.872l6.893,6.959c-1.953,0-3.772-0.365-5.471-1.104l-6.891-6.958
							C304.992,45.507,306.813,45.872,308.764,45.872"/>
					</g>
				</g>
			</g>
			<g>
				<path d="M315.655,56.831c-1.067,0-2.091-0.427-2.842-1.186l-6.892-6.959c-1.137-1.146-1.472-2.864-0.85-4.354
					c0.621-1.49,2.077-2.46,3.691-2.46h6.133c1.067,0,2.091,0.427,2.843,1.186l6.89,6.959c1.136,1.147,1.471,2.864,0.849,4.354
					c-0.621,1.489-2.077,2.46-3.691,2.46H315.655z"/>
				<polygon points="314.896,45.872 321.786,52.831 315.655,52.831 308.764,45.872 				"/>
			</g>
			<g>
				<path d="M336.107,42.785c-1.048,0-2.077-0.412-2.843-1.185l-6.892-6.958c-0.761-0.769-1.179-1.812-1.157-2.894l0.148-7.558
					c0.031-1.607,1.021-3.039,2.514-3.635c0.481-0.193,0.985-0.286,1.484-0.286c1.048,0,2.077,0.412,2.844,1.186l6.891,6.959
					c0.76,0.768,1.178,1.812,1.156,2.893l-0.147,7.557c-0.031,1.607-1.021,3.039-2.514,3.636
					C337.11,42.692,336.606,42.785,336.107,42.785z"/>
				<polygon points="329.363,24.269 336.254,31.228 336.106,38.785 329.215,31.827 				"/>
			</g>
			<g>
				<path d="M308.764,49.872c-2.498,0-4.875-0.483-7.065-1.437c-2.165-0.933-4.077-2.238-5.668-3.874
					c-1.585-1.606-2.852-3.543-3.744-5.739c-0.903-2.189-1.341-4.576-1.292-7.075l0.146-7.558c0.049-2.49,0.577-4.858,1.572-7.037
					c0.962-2.118,2.281-4.009,3.919-5.615c1.628-1.597,3.56-2.88,5.74-3.815c2.243-0.95,4.623-1.429,7.089-1.429h6.131
					c2.472,0,4.844,0.481,7.05,1.431c2.173,0.951,4.069,2.246,5.662,3.859c1.599,1.64,2.854,3.545,3.751,5.682
					c0.92,2.235,1.357,4.609,1.309,7.081l-0.148,7.558c-0.048,2.464-0.572,4.834-1.558,7.042c-0.982,2.177-2.304,4.083-3.934,5.682
					c-1.641,1.608-3.574,2.892-5.748,3.819c-2.202,0.944-4.586,1.425-7.079,1.425H308.764z M311.126,23.849
					c-0.927,0-1.321,0.27-1.584,0.534c-0.274,0.273-0.577,0.698-0.597,1.675l-0.082,4.207c-0.021,1.035,0.287,1.346,0.435,1.495
					c0.157,0.162,0.474,0.487,1.507,0.487h2.426c0.946,0,1.348-0.269,1.616-0.532s0.545-0.659,0.563-1.606l0.083-4.208
					c0.021-1.052-0.33-1.418-0.479-1.574c-0.143-0.147-0.461-0.478-1.464-0.478H311.126z"/>
				<path d="M303.295,44.768c-1.697-0.731-3.166-1.729-4.397-2.995c-1.24-1.257-2.21-2.745-2.906-4.457
					c-0.706-1.711-1.036-3.538-0.998-5.49l0.146-7.558c0.038-1.943,0.439-3.761,1.212-5.454c0.766-1.685,1.791-3.155,3.081-4.42
					c1.281-1.257,2.789-2.255,4.516-2.995c1.726-0.731,3.561-1.105,5.513-1.105h6.131c1.943,0,3.772,0.375,5.469,1.105
					c1.688,0.739,3.156,1.738,4.397,2.995c1.232,1.265,2.201,2.736,2.908,4.42c0.697,1.693,1.036,3.511,0.998,5.454l-0.148,7.558
					c-0.038,1.952-0.447,3.779-1.211,5.49c-0.772,1.711-1.801,3.2-3.082,4.457c-1.291,1.265-2.799,2.263-4.516,2.995
					c-1.726,0.74-3.568,1.104-5.511,1.104h-6.133C306.813,45.872,304.992,45.507,303.295,44.768z M304.946,25.98l-0.082,4.207
					c-0.036,1.81,0.487,3.271,1.589,4.385c1.092,1.123,2.544,1.675,4.352,1.675h2.426c1.801,0,3.271-0.553,4.416-1.675
					c1.138-1.114,1.728-2.576,1.763-4.385l0.083-4.207c0.035-1.8-0.498-3.28-1.59-4.42c-1.102-1.141-2.552-1.711-4.353-1.711h-2.424
					c-1.809,0-3.282,0.571-4.418,1.711C305.563,22.7,304.981,24.18,304.946,25.98"/>
			</g>
			<g enable-background="new    ">
				<g>
					<defs>
						<path id="SVGID_13_" d="M329.215,31.827l6.893,6.958c-0.038,1.952-0.448,3.779-1.213,5.49c-0.772,1.711-1.801,3.2-3.082,4.456
							c-1.29,1.267-2.799,2.265-4.515,2.994c-1.726,0.74-3.569,1.105-5.512,1.105l-6.892-6.959c1.942,0,3.786-0.365,5.512-1.104
							c1.717-0.731,3.225-1.729,4.516-2.995c1.281-1.257,2.309-2.745,3.082-4.457C328.768,35.605,329.177,33.778,329.215,31.827z"/>
					</defs>
					<use xlink:href="#SVGID_13_"  overflow="visible"/>
					<clipPath id="SVGID_14_">
						<use xlink:href="#SVGID_13_"  overflow="visible"/>
					</clipPath>
					<path clip-path="url(#SVGID_14_)" d="M321.786,56.83c-1.067,0-2.091-0.427-2.842-1.186l-6.892-6.959
						c-1.137-1.146-1.472-2.864-0.85-4.354c0.621-1.49,2.077-2.46,3.691-2.46c1.402,0,2.727-0.263,3.938-0.781
						c1.278-0.544,2.352-1.254,3.289-2.174c0.918-0.9,1.671-1.993,2.237-3.248c0.547-1.225,0.83-2.512,0.857-3.919
						c0.031-1.607,1.021-3.039,2.514-3.636c0.481-0.193,0.985-0.286,1.484-0.286c1.048,0,2.077,0.412,2.843,1.185l6.893,6.958
						c0.761,0.768,1.179,1.812,1.157,2.893c-0.048,2.465-0.573,4.835-1.56,7.044c-0.982,2.176-2.305,4.082-3.935,5.68
						c-1.637,1.607-3.572,2.894-5.749,3.818C326.664,56.35,324.278,56.83,321.786,56.83z"/>
					<g clip-path="url(#SVGID_14_)" enable-background="new    ">
						<path d="M336.04,43.951c-1.05,0-2.079-0.414-2.843-1.186l-6.891-6.958c-0.834-0.841-1.251-2.009-1.141-3.188
							c0.026-0.285,0.044-0.572,0.05-0.862c0.027-1.608,1.017-3.044,2.509-3.643c1.494-0.599,3.2-0.246,4.332,0.897l6.893,6.958
							c0.764,0.771,1.182,1.819,1.157,2.904c-0.011,0.497-0.039,0.986-0.087,1.471c-0.152,1.542-1.183,2.857-2.644,3.375
							C336.939,43.876,336.487,43.951,336.04,43.951z"/>
						<path d="M329.215,31.827l6.893,6.958c-0.009,0.394-0.03,0.782-0.068,1.166l-6.891-6.958
							C329.185,32.608,329.208,32.22,329.215,31.827"/>
						<path d="M335.694,45.954c-1.053,0-2.08-0.416-2.842-1.185l-6.893-6.958c-0.984-0.993-1.378-2.429-1.039-3.785
							c0.115-0.46,0.198-0.94,0.246-1.426c0.151-1.542,1.182-2.858,2.643-3.377c1.457-0.521,3.089-0.146,4.18,0.955l6.891,6.958
							c0.838,0.846,1.256,2.021,1.139,3.207c-0.085,0.866-0.233,1.731-0.441,2.571c-0.347,1.404-1.425,2.512-2.818,2.896
							C336.407,45.907,336.049,45.954,335.694,45.954z"/>
						<path d="M329.147,32.992l6.891,6.958c-0.067,0.684-0.183,1.352-0.344,2.004l-6.893-6.958
							C328.965,34.344,329.08,33.676,329.147,32.992"/>
						<path d="M335.142,47.685c-1.057,0-2.083-0.42-2.842-1.186l-6.891-6.958c-1.115-1.125-1.461-2.803-0.881-4.278
							c0.157-0.401,0.289-0.814,0.392-1.226c0.347-1.404,1.425-2.512,2.819-2.896c1.393-0.382,2.888,0.014,3.905,1.041l6.893,6.958
							c0.982,0.992,1.377,2.425,1.04,3.781c-0.188,0.758-0.429,1.509-0.715,2.233c-0.496,1.257-1.594,2.178-2.917,2.45
							C335.678,47.657,335.409,47.685,335.142,47.685z"/>
						<path d="M328.803,34.996l6.893,6.958c-0.146,0.589-0.331,1.166-0.554,1.73l-6.891-6.958
							C328.473,36.162,328.657,35.585,328.803,34.996"/>
						<path d="M334.334,49.396c-1.061,0-2.086-0.422-2.843-1.187l-6.891-6.958c-1.245-1.258-1.516-3.184-0.665-4.736
							c0.149-0.272,0.291-0.554,0.422-0.844c0.059-0.13,0.117-0.272,0.174-0.414c0.496-1.257,1.593-2.178,2.917-2.449
							c1.323-0.27,2.694,0.144,3.645,1.104l6.891,6.958c1.108,1.119,1.457,2.783,0.891,4.252c-0.103,0.267-0.215,0.534-0.333,0.797
							c-0.221,0.488-0.456,0.962-0.711,1.42c-0.611,1.1-1.705,1.848-2.952,2.019C334.696,49.384,334.515,49.396,334.334,49.396z"/>
						<path d="M328.251,36.727l6.891,6.958c-0.076,0.198-0.159,0.395-0.247,0.59c-0.174,0.385-0.359,0.759-0.561,1.121l-6.891-6.959
							c0.198-0.362,0.387-0.736,0.561-1.121C328.091,37.122,328.173,36.925,328.251,36.727"/>
						<path d="M333.241,51.096c-1.063,0-2.088-0.424-2.842-1.186l-6.892-6.958c-1.395-1.408-1.548-3.625-0.361-5.211
							c0.286-0.382,0.553-0.797,0.794-1.234c0.608-1.104,1.702-1.857,2.951-2.031c1.251-0.172,2.507,0.251,3.395,1.147l6.891,6.959
							c1.247,1.26,1.517,3.192,0.66,4.745c-0.416,0.756-0.884,1.482-1.39,2.161c-0.697,0.934-1.766,1.517-2.928,1.598
							C333.427,51.093,333.334,51.096,333.241,51.096z"/>
						<path d="M327.443,38.438l6.891,6.959c-0.329,0.597-0.693,1.164-1.093,1.699l-6.892-6.958
							C326.75,39.602,327.114,39.035,327.443,38.438"/>
						<path d="M331.718,52.822c-1.03,0-2.06-0.396-2.841-1.185l-6.891-6.958c-0.752-0.759-1.169-1.787-1.158-2.855
							c0.012-1.068,0.449-2.088,1.217-2.832l2.764,2.672l0.003-0.003l-2.693-2.74c0.371-0.365,0.717-0.761,1.026-1.176
							c0.696-0.934,1.766-1.518,2.927-1.599c1.172-0.077,2.302,0.348,3.121,1.175l6.892,6.958c1.393,1.406,1.548,3.62,0.364,5.207
							c-0.556,0.745-1.173,1.452-1.833,2.101c-0.007,0.006-0.104,0.1-0.11,0.105C333.728,52.446,332.722,52.822,331.718,52.822z"/>
						<path d="M326.351,40.137l6.892,6.958c-0.436,0.584-0.911,1.129-1.429,1.637c-0.031,0.029-0.063,0.061-0.095,0.091
							l-6.891-6.958c0.031-0.03,0.063-0.061,0.094-0.091C325.439,41.265,325.916,40.72,326.351,40.137"/>
						<path d="M321.786,56.83c-1.067,0-2.091-0.427-2.842-1.186l-6.892-6.959c-1.137-1.146-1.472-2.864-0.85-4.354
							c0.621-1.49,2.077-2.46,3.691-2.46c1.402,0,2.727-0.263,3.938-0.781c1.23-0.523,2.312-1.231,3.223-2.108
							c1.574-1.516,4.076-1.488,5.615,0.068l6.891,6.958c0.754,0.761,1.171,1.791,1.158,2.861c-0.013,1.071-0.454,2.092-1.226,2.834
							c-1.611,1.553-3.506,2.798-5.629,3.702C326.664,56.35,324.278,56.83,321.786,56.83z M322.735,48.104l0.607,0.614
							c0.728-0.108,1.428-0.293,2.095-0.554l-0.982-0.992C323.901,47.51,323.328,47.821,322.735,48.104z"/>
						<path d="M324.828,41.864l6.891,6.958c-1.27,1.223-2.746,2.189-4.421,2.902c-1.726,0.74-3.569,1.105-5.512,1.105l-6.892-6.959
							c1.942,0,3.786-0.365,5.512-1.104C322.082,44.054,323.559,43.086,324.828,41.864"/>
					</g>
				</g>
			</g>
			<g>
				<path d="M314.422,79.79c-1.048,0-2.077-0.412-2.843-1.186l-6.892-6.959c-0.762-0.769-1.179-1.812-1.157-2.893l0.155-7.914
					c0.031-1.607,1.021-3.039,2.514-3.636c0.481-0.192,0.985-0.286,1.484-0.286c1.048,0,2.077,0.412,2.843,1.186l6.891,6.958
					c0.761,0.768,1.179,1.812,1.157,2.893l-0.154,7.915c-0.031,1.606-1.021,3.039-2.514,3.636
					C315.425,79.696,314.921,79.79,314.422,79.79z"/>
				<polygon points="307.685,60.917 314.575,67.875 314.421,75.79 307.529,68.831 				"/>
			</g>
			<g>
				<path d="M314.575,71.875c-1.067,0-2.091-0.427-2.842-1.186l-6.891-6.958c-1.137-1.146-1.472-2.864-0.85-4.354
					c0.621-1.489,2.077-2.46,3.691-2.46h33.938c1.067,0,2.091,0.427,2.842,1.186l6.892,6.958c1.136,1.146,1.472,2.864,0.85,4.354
					c-0.621,1.489-2.077,2.46-3.691,2.46H314.575z"/>
				<polygon points="341.623,60.917 348.515,67.875 314.575,67.875 307.685,60.917 				"/>
			</g>
			<g>
				<path d="M358.234,88.486c-1.048,0-2.077-0.412-2.843-1.185l-6.892-6.957c-0.761-0.769-1.179-1.813-1.157-2.894l1.319-67.448
					c0.031-1.607,1.021-3.039,2.514-3.636c0.481-0.193,0.985-0.286,1.484-0.286c1.048,0,2.077,0.412,2.843,1.185l6.892,6.958
					c0.761,0.769,1.179,1.812,1.157,2.893l-1.319,67.447c-0.031,1.606-1.021,3.039-2.514,3.636
					C359.237,88.393,358.733,88.486,358.234,88.486z"/>
				<polygon points="352.661,10.081 359.553,17.039 358.233,84.486 351.342,77.529 				"/>
			</g>
			<g>
				<path d="M297.298,81.53c-1.074,0-2.104-0.433-2.855-1.199c-0.753-0.768-1.165-1.805-1.144-2.879l0.495-25.313
					c0.042-2.179,1.82-3.922,3.999-3.922h40.077l0.748-38.215c0.042-2.178,1.82-3.922,3.999-3.922h10.044
					c1.074,0,2.104,0.432,2.855,1.199c0.753,0.767,1.165,1.805,1.144,2.879l-1.319,67.449c-0.042,2.179-1.82,3.922-3.999,3.922
					H297.298z"/>
				<path d="M342.617,10.081h10.044l-1.319,67.449h-54.044l0.495-25.313h44L342.617,10.081z M341.469,68.831l0.154-7.914h-33.938
					l-0.154,7.914H341.469"/>
			</g>
			<g>
				<path d="M304.189,88.486c-1.067,0-2.091-0.427-2.842-1.185l-6.892-6.957c-1.136-1.147-1.472-2.865-0.851-4.354
					c0.622-1.49,2.078-2.461,3.692-2.461h54.044c1.067,0,2.091,0.427,2.842,1.185l6.892,6.957c1.136,1.147,1.472,2.865,0.851,4.354
					c-0.622,1.49-2.078,2.461-3.692,2.461H304.189z"/>
				<polygon points="351.342,77.529 358.233,84.486 304.189,84.486 297.298,77.529 				"/>
			</g>
		</g>
	</g>
</g>
<g id="레이어_1">
	<g>
		<g enable-background="new    ">
			<g>
				<polygon fill="#9C982F" points="90.406,6.656 97.297,13.615 97.173,19.96 90.282,13.002 				"/>
			</g>
			<g>
				<polygon fill="#777424" points="87.879,22.841 94.771,29.8 73.095,29.8 66.205,22.841 				"/>
			</g>
			<g>
				<polygon fill="#7E7B26" points="83.85,39.311 90.741,46.27 72.462,62.17 65.571,55.211 				"/>
			</g>
			<g>
				<polygon fill="#9C982F" points="102.902,13.002 109.793,19.96 109.601,29.8 102.71,22.841 				"/>
			</g>
			<g>
				<polygon fill="#7E7B26" points="102.71,22.841 109.601,29.8 98.139,39.853 91.248,32.894 				"/>
			</g>
			<g>
				<polygon fill="#9C982F" points="89.055,50.22 95.946,57.18 95.62,73.861 88.729,66.904 				"/>
			</g>
			<g>
				<polygon fill="#9C982F" points="102.701,41.521 109.592,48.48 109.331,61.813 102.44,54.854 				"/>
			</g>
			<g>
				<polygon fill="#CBC73E" points="102.44,54.854 83.85,39.311 65.571,55.211 65.832,41.878 87.879,22.841 66.205,22.841 
					66.397,13.002 79.445,13.002 79.569,6.656 90.406,6.656 90.282,13.002 102.902,13.002 102.71,22.841 91.248,32.894 
					102.701,41.521 				"/>
			</g>
			<g>
				<polygon fill="#777424" points="102.44,54.854 109.331,61.813 90.741,46.27 83.85,39.311 				"/>
			</g>
			<g>
				<polygon fill="#9C982F" points="123.513,9.081 130.404,16.039 129.085,83.486 122.194,76.529 				"/>
			</g>
			<g>
				<polygon fill="#CBC73E" points="113.531,9.081 123.513,9.081 122.194,76.529 63.372,76.529 63.56,66.904 78.604,66.904 
					78.931,50.22 89.055,50.22 88.729,66.904 112.4,66.904 				"/>
			</g>
			<g>
				<polygon fill="#777424" points="122.194,76.529 129.085,83.486 70.263,83.486 63.372,76.529 				"/>
			</g>
		</g>
		<g enable-background="new    ">
			<g>
				<polygon fill="#777424" points="137.178,50.434 144.069,57.393 139.221,57.393 132.33,50.434 				"/>
			</g>
			<g>
				<polygon fill="#777424" points="178.486,19.989 185.377,26.947 145.164,26.947 138.272,19.989 				"/>
			</g>
			<g>
				<polygon fill="#9C982F" points="189.102,9.437 195.992,16.396 195.786,26.947 188.896,19.989 				"/>
			</g>
			<g>
				<polygon fill="#9C982F" points="147.302,50.434 154.193,57.393 153.873,73.791 146.981,66.832 				"/>
			</g>
			<g>
				<polygon fill="#98942E" points="188.896,19.989 195.786,26.947 192.387,47.696 185.494,40.737 				"/>
			</g>
			<g>
				<polygon fill="#9C982F" points="193.836,40.737 200.729,47.696 200.537,57.393 193.646,50.434 				"/>
			</g>
			<g>
				<polygon fill="#777424" points="193.646,50.434 200.537,57.393 154.193,57.393 147.302,50.434 				"/>
			</g>
			<g>
				<polygon fill="#777424" points="189.714,76.529 196.604,83.486 143.559,83.486 136.668,76.529 				"/>
			</g>
			<g>
				<polygon fill="#CBC73E" points="189.102,9.437 188.896,19.989 185.494,40.737 193.836,40.737 193.646,50.434 147.302,50.434 
					146.981,66.832 189.902,66.832 189.714,76.529 136.668,76.529 137.178,50.434 132.33,50.434 132.52,40.737 175.085,40.737 
					178.486,19.989 138.272,19.989 138.479,9.437 				"/>
			</g>
			<g>
				<polygon fill="#9C982F" points="189.902,66.832 196.795,73.791 196.604,83.486 189.714,76.529 				"/>
			</g>
		</g>
		<g enable-background="new    ">
			<g>
				<polygon fill="#777424" points="241.604,19.062 248.494,26.021 230.598,26.021 223.707,19.062 				"/>
			</g>
			<g>
				<polygon fill="#9C982F" points="252.346,9.437 259.234,16.396 259.047,26.021 252.156,19.062 				"/>
			</g>
			<g>
				<polygon fill="#98952E" points="252.156,19.062 259.047,26.021 256.93,39.497 250.039,32.538 				"/>
			</g>
			<g>
				<polygon fill="#777424" points="258.264,42.234 265.153,49.193 255.457,49.193 248.564,42.234 				"/>
			</g>
			<g>
				<polygon fill="#98952E" points="248.564,42.234 255.457,49.193 250.229,83.132 243.338,76.173 				"/>
			</g>
			<g>
				<polygon fill="#777424" points="243.338,76.173 250.229,83.132 239.393,83.132 232.501,76.173 				"/>
			</g>
			<g>
				<polygon fill="#9C982F" points="268.678,9.081 275.569,16.039 274.25,83.486 267.359,76.529 				"/>
			</g>
			<g>
				<polygon fill="#CBC73E" points="258.452,32.538 258.911,9.081 268.678,9.081 267.359,76.529 257.592,76.529 258.264,42.234 
					248.564,42.234 243.338,76.173 232.501,76.173 241.604,19.062 223.707,19.062 223.896,9.437 252.346,9.437 252.156,19.062 
					250.039,32.538 				"/>
			</g>
			<g>
				<polygon fill="#777424" points="267.359,76.529 274.25,83.486 264.482,83.486 257.592,76.529 				"/>
			</g>
		</g>
		<g enable-background="new    ">
			<g>
				<polygon fill="#9C982F" points="284.578,9.081 291.47,16.039 290.15,83.486 283.26,76.529 				"/>
			</g>
			<g>
				<polygon fill="#777424" points="283.26,76.529 290.15,83.486 280.382,83.486 273.491,76.529 				"/>
			</g>
			<g>
				<polygon fill="#CBC73E" points="274.811,9.081 284.578,9.081 283.26,76.529 273.491,76.529 				"/>
			</g>
		</g>
		<g enable-background="new    ">
			<g enable-background="new    ">
				<g>
					<defs>
						<path id="SVGID_15_" d="M310.126,18.848l6.891,6.958c-1.809,0-3.28,0.571-4.418,1.711c-1.146,1.141-1.727,2.62-1.762,4.42
							l-6.891-6.958c0.035-1.8,0.616-3.28,1.762-4.42C306.844,19.419,308.317,18.848,310.126,18.848z"/>
					</defs>
					<clipPath id="SVGID_16_">
						<use xlink:href="#SVGID_15_"  overflow="visible"/>
					</clipPath>
					<g clip-path="url(#SVGID_16_)" enable-background="new    ">
						<path fill="#7B7925" d="M310.126,18.848l6.891,6.958c-1.765,0-3.211,0.544-4.336,1.631l-6.892-6.958
							C306.914,19.392,308.36,18.848,310.126,18.848"/>
						<path fill="#807D27" d="M305.789,20.479l6.892,6.958c-0.026,0.026-0.055,0.053-0.082,0.081
							c-0.206,0.206-0.395,0.422-0.563,0.65l-6.892-6.958c0.171-0.228,0.357-0.444,0.564-0.65
							C305.734,20.532,305.762,20.505,305.789,20.479"/>
						<path fill="#858228" d="M305.144,21.209l6.892,6.958c-0.156,0.209-0.297,0.428-0.423,0.656l-6.892-6.958
							C304.846,21.638,304.987,21.419,305.144,21.209"/>
						<path fill="#89872A" d="M304.721,21.865l6.892,6.958c-0.12,0.217-0.227,0.443-0.317,0.677l-6.892-6.958
							C304.495,22.309,304.601,22.083,304.721,21.865"/>
						<path fill="#8E8B2B" d="M304.402,22.542l6.892,6.958c-0.099,0.25-0.181,0.51-0.247,0.778l-6.891-6.959
							C304.223,23.052,304.305,22.792,304.402,22.542"/>
						<path fill="#93902D" d="M304.156,23.32l6.891,6.959c-0.08,0.324-0.138,0.662-0.172,1.013l-6.892-6.959
							C304.019,23.982,304.075,23.645,304.156,23.32"/>
						<path fill="#98942E" d="M303.983,24.333l6.892,6.959c-0.021,0.21-0.033,0.426-0.038,0.646l-6.891-6.958
							C303.95,24.76,303.963,24.544,303.983,24.333"/>
					</g>
				</g>
			</g>
			<g>
				<polygon fill="#777424" points="312.55,18.848 319.441,25.807 317.017,25.807 310.126,18.848 				"/>
			</g>
			<g>
				<polygon fill="#9C982F" points="303.946,24.98 310.837,31.938 310.755,36.145 303.864,29.187 				"/>
			</g>
			<g enable-background="new    ">
				<g>
					<defs>
						<path id="SVGID_17_" d="M316.849,20.505c2.298,2.32,4.595,4.639,6.892,6.958c-1.094-1.104-2.526-1.657-4.298-1.657
							l-6.893-6.958C314.322,18.848,315.755,19.401,316.849,20.505z"/>
					</defs>
					<clipPath id="SVGID_18_">
						<use xlink:href="#SVGID_17_"  overflow="visible"/>
					</clipPath>
					<g clip-path="url(#SVGID_18_)" enable-background="new    ">
						<path fill="#7B7925" d="M316.849,20.505l6.892,6.958c-1.094-1.104-2.526-1.657-4.298-1.657l-6.893-6.958
							C314.322,18.848,315.755,19.401,316.849,20.505"/>
					</g>
				</g>
			</g>
			<g enable-background="new    ">
				<g>
					<defs>
						<path id="SVGID_19_" d="M312.379,40.566c-2.297-2.319-4.594-4.639-6.891-6.958c-0.013-0.012-0.023-0.024-0.035-0.036
							c-1.102-1.114-1.625-2.576-1.589-4.385l6.891,6.958c-0.035,1.81,0.488,3.271,1.589,4.385
							C312.355,40.542,312.367,40.554,312.379,40.566z"/>
					</defs>
					<clipPath id="SVGID_20_">
						<use xlink:href="#SVGID_19_"  overflow="visible"/>
					</clipPath>
					<g clip-path="url(#SVGID_20_)" enable-background="new    ">
						<path fill="#98942E" d="M303.864,29.187l6.891,6.958c-0.006,0.297,0.004,0.585,0.028,0.864l-6.893-6.959
							C303.867,29.772,303.858,29.484,303.864,29.187"/>
						<path fill="#9C9930" d="M303.892,30.05l6.893,6.959c0.108,1.248,0.522,2.307,1.25,3.178l-6.893-6.958
							C304.416,32.358,304.002,31.298,303.892,30.05"/>
						<path fill="#98942E" d="M305.142,33.229l6.893,6.958c0.098,0.118,0.201,0.232,0.311,0.343
							c0.013,0.012,0.023,0.024,0.035,0.036l-6.891-6.959c-0.013-0.012-0.023-0.024-0.035-0.036
							C305.344,33.461,305.24,33.347,305.142,33.229"/>
					</g>
				</g>
			</g>
			<g enable-background="new    ">
				<g>
					<defs>
						<path id="SVGID_21_" d="M304.864,47.81c-2.296-2.32-4.595-4.639-6.892-6.958c1.218,1.228,2.659,2.2,4.321,2.917l6.891,6.958
							C307.524,50.01,306.081,49.038,304.864,47.81z"/>
					</defs>
					<clipPath id="SVGID_22_">
						<use xlink:href="#SVGID_21_"  overflow="visible"/>
					</clipPath>
					<g clip-path="url(#SVGID_22_)" enable-background="new    ">
						<path fill="#7B7925" d="M302.295,43.768l6.891,6.958c-1.66-0.717-3.104-1.688-4.32-2.917l-6.892-6.958
							C299.19,42.079,300.633,43.051,302.295,43.768"/>
					</g>
				</g>
			</g>
			<g enable-background="new    ">
				<g>
					<defs>
						<path id="SVGID_23_" d="M324.457,13.394l6.891,6.958c1.232,1.266,2.202,2.736,2.909,4.42c0.696,1.693,1.035,3.512,0.997,5.455
							l-6.891-6.959c0.038-1.943-0.301-3.761-0.998-5.454C326.658,16.13,325.689,14.659,324.457,13.394z"/>
					</defs>
					<clipPath id="SVGID_24_">
						<use xlink:href="#SVGID_23_"  overflow="visible"/>
					</clipPath>
					<g clip-path="url(#SVGID_24_)" enable-background="new    ">
						<path fill="#98942E" d="M324.457,13.394l6.891,6.958c0.252,0.259,0.493,0.526,0.724,0.801l-6.892-6.958
							C324.949,13.919,324.709,13.652,324.457,13.394"/>
						<path fill="#9C9930" d="M325.18,14.195l6.892,6.958c0.896,1.074,1.624,2.279,2.187,3.619c0.508,1.235,0.826,2.537,0.946,3.905
							l-6.892-6.958c-0.12-1.368-0.438-2.669-0.946-3.905C326.803,16.474,326.074,15.269,325.18,14.195"/>
						<path fill="#98942E" d="M328.313,21.719l6.892,6.958c0.044,0.507,0.062,1.024,0.051,1.55l-6.891-6.959
							C328.373,22.743,328.356,22.227,328.313,21.719"/>
					</g>
				</g>
			</g>
			<g enable-background="new    ">
				<g>
					<defs>
						<path id="SVGID_25_" d="M307.764,44.872l6.893,6.959c-1.953,0-3.772-0.365-5.471-1.104l-6.891-6.958
							C303.992,44.507,305.813,44.872,307.764,44.872z"/>
					</defs>
					<clipPath id="SVGID_26_">
						<use xlink:href="#SVGID_25_"  overflow="visible"/>
					</clipPath>
					<g clip-path="url(#SVGID_26_)" enable-background="new    ">
						<path fill="#7B7925" d="M307.764,44.872l6.893,6.959c-1.953,0-3.772-0.365-5.471-1.104l-6.891-6.958
							C303.992,44.507,305.813,44.872,307.764,44.872"/>
					</g>
				</g>
			</g>
			<g>
				<polygon fill="#777424" points="313.896,44.872 320.786,51.831 314.655,51.831 307.764,44.872 				"/>
			</g>
			<g>
				<polygon fill="#9C982F" points="328.363,23.269 335.254,30.228 335.106,37.785 328.215,30.827 				"/>
			</g>
			<g>
				<path fill="#CBC73E" d="M302.295,43.768c-1.697-0.731-3.166-1.729-4.397-2.995c-1.24-1.257-2.21-2.745-2.906-4.457
					c-0.706-1.711-1.036-3.538-0.998-5.49l0.146-7.558c0.038-1.943,0.439-3.761,1.212-5.454c0.766-1.685,1.791-3.155,3.081-4.42
					c1.281-1.257,2.789-2.255,4.516-2.995c1.726-0.731,3.561-1.105,5.513-1.105h6.131c1.943,0,3.772,0.375,5.469,1.105
					c1.688,0.739,3.156,1.738,4.397,2.995c1.232,1.265,2.201,2.736,2.908,4.42c0.697,1.693,1.036,3.511,0.998,5.454l-0.148,7.558
					c-0.038,1.952-0.447,3.779-1.211,5.49c-0.772,1.711-1.801,3.2-3.082,4.457c-1.291,1.265-2.799,2.263-4.516,2.995
					c-1.726,0.74-3.568,1.104-5.511,1.104h-6.133C305.813,44.872,303.992,44.507,302.295,43.768z M303.946,24.98l-0.082,4.207
					c-0.036,1.81,0.487,3.271,1.589,4.385c1.092,1.123,2.544,1.675,4.352,1.675h2.426c1.801,0,3.271-0.553,4.416-1.675
					c1.138-1.114,1.728-2.576,1.763-4.385l0.083-4.207c0.035-1.8-0.498-3.28-1.59-4.42c-1.102-1.141-2.552-1.711-4.353-1.711h-2.424
					c-1.809,0-3.282,0.571-4.418,1.711C304.563,21.7,303.981,23.18,303.946,24.98"/>
			</g>
			<g enable-background="new    ">
				<g>
					<defs>
						<path id="SVGID_27_" d="M328.215,30.827l6.893,6.958c-0.038,1.952-0.448,3.779-1.213,5.49
							c-0.772,1.711-1.801,3.199-3.082,4.456c-1.29,1.266-2.799,2.264-4.515,2.994c-1.726,0.74-3.569,1.105-5.512,1.105
							l-6.892-6.959c1.942,0,3.786-0.365,5.512-1.104c1.717-0.731,3.225-1.729,4.516-2.995c1.281-1.257,2.309-2.745,3.082-4.457
							C327.768,34.605,328.177,32.778,328.215,30.827z"/>
					</defs>
					<clipPath id="SVGID_28_">
						<use xlink:href="#SVGID_27_"  overflow="visible"/>
					</clipPath>
					<g clip-path="url(#SVGID_28_)" enable-background="new    ">
						<path fill="#98942E" d="M328.215,30.827l6.893,6.958c-0.009,0.394-0.03,0.782-0.068,1.166l-6.891-6.958
							C328.185,31.608,328.208,31.22,328.215,30.827"/>
						<path fill="#93902D" d="M328.147,31.992l6.891,6.958c-0.067,0.684-0.183,1.352-0.344,2.004l-6.893-6.958
							C327.965,33.344,328.08,32.676,328.147,31.992"/>
						<path fill="#8E8B2B" d="M327.803,33.996l6.893,6.958c-0.146,0.589-0.331,1.166-0.554,1.73l-6.891-6.958
							C327.473,35.162,327.657,34.585,327.803,33.996"/>
						<path fill="#89872A" d="M327.251,35.727l6.891,6.958c-0.076,0.198-0.159,0.395-0.247,0.59
							c-0.174,0.385-0.359,0.759-0.561,1.121l-6.891-6.959c0.198-0.362,0.387-0.736,0.561-1.121
							C327.091,36.122,327.173,35.925,327.251,35.727"/>
						<path fill="#858228" d="M326.443,37.438l6.891,6.959c-0.329,0.597-0.693,1.164-1.093,1.699l-6.892-6.959
							C325.75,38.602,326.114,38.035,326.443,37.438"/>
						<path fill="#807D27" d="M325.351,39.137l6.892,6.959c-0.436,0.583-0.911,1.128-1.429,1.636
							c-0.031,0.03-0.063,0.061-0.095,0.091l-6.891-6.958c0.031-0.03,0.063-0.061,0.094-0.091
							C324.439,40.265,324.916,39.72,325.351,39.137"/>
						<path fill="#7B7925" d="M323.828,40.864l6.891,6.958c-1.27,1.223-2.746,2.189-4.421,2.902
							c-1.726,0.74-3.569,1.105-5.512,1.105l-6.892-6.959c1.942,0,3.786-0.365,5.512-1.104
							C321.082,43.054,322.559,42.086,323.828,40.864"/>
					</g>
				</g>
			</g>
			<g>
				<polygon fill="#9C982F" points="306.685,59.917 313.575,66.875 313.421,74.79 306.529,67.831 				"/>
			</g>
			<g>
				<polygon fill="#777424" points="340.623,59.917 347.515,66.875 313.575,66.875 306.685,59.917 				"/>
			</g>
			<g>
				<polygon fill="#9C982F" points="351.661,9.081 358.553,16.039 357.233,83.486 350.342,76.529 				"/>
			</g>
			<g>
				<path fill="#CBC73E" d="M341.617,9.081h10.044l-1.319,67.449h-54.044l0.495-25.313h44L341.617,9.081z M340.469,67.831
					l0.154-7.914h-33.938l-0.154,7.914H340.469"/>
			</g>
			<g>
				<polygon fill="#777424" points="350.342,76.529 357.233,83.486 303.189,83.486 296.298,76.529 				"/>
			</g>
		</g>
	</g>
</g>
</svg>
