<?xml version="1.0" encoding="utf-8"?>
<!-- Generator: Adobe Illustrator 16.0.0, SVG Export Plug-In . SVG Version: 6.00 Build 0)  -->
<!DOCTYPE svg PUBLIC "-//W3C//DTD SVG 1.1//EN" "http://www.w3.org/Graphics/SVG/1.1/DTD/svg11.dtd">
<svg version="1.1" id="Ebene_1" xmlns="http://www.w3.org/2000/svg" xmlns:xlink="http://www.w3.org/1999/xlink" x="0px" y="0px"
	 width="566.929px" height="458.929px" viewBox="0 0 566.929 458.929" enable-background="new 0 0 566.929 458.929"
	 xml:space="preserve">
<g>
	<path fill="#CF8A61" stroke="#000000" stroke-width="8" stroke-miterlimit="10" d="M564.898,182.695c0.104-1.35,0-2.744,0-3.875
		c0.016-25.821,0.018-51.642-0.008-77.463c0-1.341-0.072-2.729-0.416-4.015c-7.449-27.979-20.941-52.36-43.297-71.218
		c-18.352-15.481-39.434-24.117-63.727-24.113C393.43,2.022,329.41,2.015,265.386,2.015c-86.167,0-172.334-0.001-258.501,0.01
		c-1.591,0-3.182-0.08-4.898,0c0,19.744,0,39.258,0,58.69c1.204,0.469,2.251,0.942,3.338,1.29c7.92,2.53,15.849,5.035,23.776,7.545
		c79.821,25.273,159.644,50.542,239.464,75.823c37.698,11.939,75.384,23.919,113.091,35.826c2.366,0.747,4.885,1.441,7.334,1.444
		c57.348,0.081,114.695,0.063,172.045,0.052C562.162,182.695,563.548,182.798,564.898,182.695z"/>
	<path fill="#CF8A61" stroke="#000000" stroke-width="8" stroke-miterlimit="10" d="M342.658,178.973
		c-51.406-16.294-102.396-32.456-154.028-48.82c0,76.024,0,151.292,0,226.685c-22.218,11.209-44.116,22.254-65.864,33.225
		c0,22.504,0,44.586,0,66.883c89.944,0,179.608,0,269.521,0c0-43.316,0-86.367,0-129.986c-16.601,0-32.951,0-49.629,0
		C342.658,277.395,342.658,228.4,342.658,178.973z"/>
	<path fill="#CF8A61" stroke="#000000" stroke-width="8" stroke-miterlimit="10" d="M360.105,196.69c0,38.089,0,75.92,0,114.013
		c68.268,0,136.273,0,204.543,0c0-38.09,0-75.92,0-114.013C496.38,196.69,428.375,196.69,360.105,196.69z"/>
</g>
</svg>
