<?xml version="1.0" encoding="utf-8"?>
<!-- Generator: Adobe Illustrator 16.0.0, SVG Export Plug-In . SVG Version: 6.00 Build 0)  -->
<!DOCTYPE svg PUBLIC "-//W3C//DTD SVG 1.1//EN" "http://www.w3.org/Graphics/SVG/1.1/DTD/svg11.dtd">
<svg version="1.1"
	 id="Layer_3" xmlns:rdf="http://www.w3.org/1999/02/22-rdf-syntax-ns#" xmlns:dc="http://purl.org/dc/elements/1.1/" xmlns:cc="http://creativecommons.org/ns#"
	 xmlns="http://www.w3.org/2000/svg" xmlns:xlink="http://www.w3.org/1999/xlink" x="0px" y="0px" width="493.594px" height="319px"
	 viewBox="0 36.63 493.594 319" enable-background="new 0 36.63 493.594 319" xml:space="preserve">
<path id="path17" fill="#F4F4F4" d="M405.974,128.084c-1.187,0-2.19,0.229-2.912,0.951c-0.722,0.721-0.95,1.726-0.95,2.911v19.875
	c0,1.186,0.23,2.19,0.95,2.912c0.722,0.722,1.726,0.951,2.912,0.951h19.753c1.189,0,2.223-0.229,2.941-0.951
	c0.725-0.721,0.924-1.725,0.924-2.912v-19.874c0-1.187-0.201-2.19-0.922-2.911c-0.721-0.722-1.754-0.951-2.941-0.951
	L405.974,128.084L405.974,128.084z M405.974,129.985h19.753c0.961,0,1.377,0.188,1.576,0.386c0.191,0.199,0.381,0.615,0.381,1.575
	v19.875c0,0.958-0.188,1.376-0.387,1.575s-0.615,0.386-1.574,0.386h-19.756c-0.959,0-1.375-0.188-1.573-0.386
	c-0.201-0.199-0.388-0.617-0.388-1.575v-19.875c0-0.959,0.187-1.375,0.388-1.575c0.198-0.199,0.614-0.386,1.573-0.386H405.974z"/>
<path id="path19" fill="#F4F4F4" d="M433.657,128.084c-1.188,0-2.223,0.229-2.941,0.951c-0.721,0.721-0.922,1.726-0.922,2.911
	v19.875c0,1.186,0.201,2.19,0.922,2.912s1.754,0.951,2.941,0.951h35.592c1.186,0,2.219-0.229,2.941-0.951
	c0.719-0.721,0.92-1.725,0.92-2.912v-19.875c0-1.186-0.201-2.19-0.92-2.911c-0.723-0.722-1.756-0.951-2.941-0.951H433.657z
	 M433.657,129.985h35.592c0.959,0,1.404,0.188,1.604,0.386c0.197,0.199,0.355,0.616,0.355,1.575v19.875
	c0,0.959-0.158,1.376-0.355,1.575c-0.199,0.199-0.646,0.386-1.604,0.386h-35.592c-0.961,0-1.406-0.188-1.605-0.386
	c-0.199-0.199-0.355-0.617-0.355-1.575v-19.875c0-0.959,0.156-1.375,0.355-1.575C432.25,130.173,432.698,129.985,433.657,129.985z"
	/>
<path id="path21" fill="#F4F4F4" d="M376.292,128.084c-1.185,0-2.219,0.229-2.94,0.951c-0.72,0.721-0.92,1.726-0.92,2.911v19.875
	c0,1.186,0.2,2.19,0.92,2.912c0.724,0.722,1.755,0.951,2.94,0.951h19.728c1.188,0,2.222-0.229,2.94-0.951
	c0.722-0.722,0.922-1.725,0.922-2.912v-19.875c0-1.186-0.2-2.19-0.922-2.911c-0.719-0.722-1.754-0.951-2.94-0.951H376.292z
	 M376.292,129.985h19.728c0.961,0,1.405,0.188,1.604,0.386c0.199,0.199,0.355,0.615,0.355,1.575v19.875
	c0,0.959-0.157,1.376-0.355,1.575c-0.199,0.199-0.645,0.386-1.604,0.386h-19.728c-0.957,0-1.404-0.188-1.604-0.386
	c-0.199-0.199-0.357-0.617-0.357-1.575v-19.875c0-0.959,0.158-1.375,0.357-1.575C374.887,130.173,375.334,129.985,376.292,129.985z"
	/>
<path id="path23" fill="#F4F4F4" d="M346.583,128.084c-1.185,0-2.219,0.229-2.939,0.951c-0.721,0.721-0.921,1.726-0.921,2.911
	v19.875c0,1.186,0.2,2.19,0.921,2.912c0.723,0.722,1.756,0.951,2.939,0.951h19.758c1.187,0,2.221-0.229,2.941-0.951
	c0.721-0.721,0.92-1.725,0.92-2.912v-19.875c0-1.186-0.199-2.19-0.92-2.911c-0.722-0.722-1.756-0.951-2.941-0.951H346.583z
	 M346.583,129.985h19.758c0.959,0,1.375,0.188,1.574,0.386c0.199,0.199,0.387,0.616,0.387,1.575v19.875
	c0,0.959-0.188,1.376-0.387,1.575s-0.615,0.386-1.574,0.386h-19.758c-0.957,0-1.373-0.188-1.572-0.386
	c-0.2-0.199-0.387-0.617-0.387-1.575v-19.875c0-0.959,0.187-1.375,0.387-1.575C345.209,130.173,345.625,129.985,346.583,129.985z"/>
<path id="path25" fill="#F4F4F4" d="M316.904,128.084c-1.187,0-2.221,0.229-2.94,0.951c-0.721,0.721-0.922,1.726-0.922,2.911v19.875
	c0,1.186,0.201,2.19,0.922,2.912s1.754,0.951,2.94,0.951h19.728c1.187,0,2.219-0.229,2.941-0.951c0.719-0.721,0.92-1.725,0.92-2.912
	v-19.875c0-1.186-0.201-2.19-0.92-2.911c-0.722-0.722-1.756-0.951-2.941-0.951H316.904z M316.904,129.985h19.728
	c0.959,0,1.404,0.188,1.604,0.386c0.198,0.199,0.355,0.616,0.355,1.575v19.875c0,0.959-0.157,1.376-0.355,1.575
	c-0.199,0.199-0.646,0.386-1.604,0.386h-19.728c-0.96,0-1.405-0.188-1.604-0.386c-0.198-0.199-0.355-0.617-0.355-1.575v-19.875
	c0-0.959,0.157-1.375,0.355-1.575C315.499,130.173,315.946,129.985,316.904,129.985z"/>
<path id="path27" fill="#F4F4F4" d="M287.195,128.084c-1.186,0-2.22,0.229-2.941,0.951c-0.721,0.721-0.921,1.726-0.921,2.911v19.875
	c0,1.186,0.2,2.19,0.921,2.912c0.721,0.722,1.754,0.951,2.941,0.951h19.757c1.187,0,2.19-0.229,2.912-0.951
	c0.719-0.721,0.949-1.725,0.949-2.912v-19.875c0-1.186-0.23-2.19-0.949-2.911c-0.722-0.722-1.727-0.951-2.912-0.951H287.195z
	 M287.195,129.985h19.757c0.959,0,1.375,0.188,1.574,0.386c0.198,0.199,0.387,0.616,0.387,1.575v19.875
	c0,0.959-0.188,1.376-0.387,1.575c-0.201,0.2-0.617,0.387-1.578,0.387h-19.756c-0.959,0-1.375-0.187-1.575-0.386
	c-0.199-0.2-0.386-0.616-0.386-1.575v-19.875c0-0.959,0.188-1.375,0.386-1.574c0.199-0.199,0.616-0.386,1.575-0.386L287.195,129.985
	z"/>
<path id="path29" fill="#F4F4F4" d="M257.515,128.084c-1.186,0-2.22,0.229-2.941,0.951c-0.721,0.721-0.921,1.726-0.921,2.911v19.875
	c0,1.186,0.2,2.19,0.921,2.912c0.721,0.722,1.755,0.951,2.941,0.951h19.727c1.186,0,2.22-0.229,2.941-0.951s0.921-1.725,0.921-2.912
	v-19.875c0-1.186-0.2-2.19-0.921-2.911c-0.721-0.722-1.754-0.951-2.941-0.951H257.515z M257.515,129.985h19.727
	c0.959,0,1.405,0.188,1.604,0.386c0.199,0.199,0.357,0.616,0.357,1.575v19.875c0,0.959-0.158,1.376-0.357,1.575
	c-0.199,0.199-0.645,0.386-1.604,0.386h-19.727c-0.959,0-1.405-0.188-1.604-0.386c-0.199-0.199-0.356-0.617-0.356-1.575v-19.875
	c0-0.959,0.158-1.375,0.356-1.575C256.11,130.173,256.556,129.985,257.515,129.985z"/>
<path id="path31" fill="#F4F4F4" d="M227.807,128.084c-1.186,0-2.22,0.229-2.941,0.951c-0.721,0.721-0.921,1.726-0.921,2.911v19.875
	c0,1.186,0.2,2.19,0.921,2.912c0.721,0.722,1.754,0.951,2.941,0.951h19.756c1.187,0,2.19-0.229,2.911-0.951
	c0.722-0.722,0.951-1.725,0.951-2.912v-19.875c0-1.186-0.229-2.19-0.951-2.911c-0.721-0.722-1.725-0.951-2.911-0.951H227.807z
	 M227.807,129.985h19.756c0.959,0,1.375,0.188,1.574,0.386c0.199,0.199,0.386,0.616,0.386,1.575v19.875
	c0,0.959-0.188,1.376-0.386,1.575c-0.198,0.199-0.615,0.386-1.574,0.386h-19.756c-0.959,0-1.375-0.188-1.574-0.386
	c-0.199-0.199-0.386-0.617-0.386-1.575v-19.875c0-0.959,0.188-1.375,0.386-1.575C226.432,130.173,226.847,129.985,227.807,129.985z"
	/>
<path id="path33" fill="#F4F4F4" d="M198.098,128.084c-1.186,0-2.19,0.229-2.911,0.951c-0.722,0.721-0.951,1.726-0.951,2.911v19.875
	c0,1.186,0.229,2.191,0.951,2.912c0.721,0.721,1.725,0.951,2.911,0.951h19.756c1.186,0,2.22-0.229,2.941-0.951
	c0.722-0.722,0.921-1.725,0.921-2.912v-19.875c0-1.186-0.199-2.19-0.921-2.911c-0.721-0.722-1.754-0.951-2.941-0.951H198.098z
	 M198.098,129.985h19.756c0.959,0,1.405,0.188,1.604,0.386c0.199,0.199,0.356,0.616,0.356,1.575v19.875
	c0,0.959-0.158,1.376-0.356,1.575s-0.645,0.386-1.604,0.386h-19.756c-0.958,0-1.375-0.188-1.574-0.386
	c-0.199-0.199-0.386-0.617-0.386-1.575v-19.875c0-0.959,0.188-1.375,0.386-1.575C196.723,130.173,197.14,129.985,198.098,129.985z"
	/>
<path id="path35" fill="#F4F4F4" d="M168.418,128.084c-1.186,0-2.22,0.229-2.941,0.951c-0.721,0.721-0.921,1.726-0.921,2.911v19.875
	c0,1.186,0.2,2.191,0.921,2.912s1.755,0.951,2.941,0.951h19.756c1.186,0,2.19-0.229,2.911-0.951
	c0.722-0.722,0.951-1.725,0.951-2.912v-19.875c0-1.186-0.229-2.19-0.951-2.911c-0.721-0.722-1.725-0.951-2.911-0.951H168.418z
	 M168.418,129.985h19.756c0.959,0,1.375,0.188,1.574,0.386c0.199,0.199,0.386,0.616,0.386,1.575v19.875
	c0,0.959-0.187,1.376-0.386,1.575s-0.615,0.386-1.574,0.386h-19.756c-0.958,0-1.404-0.188-1.604-0.386
	c-0.199-0.199-0.356-0.617-0.356-1.575v-19.875c0-0.959,0.158-1.375,0.356-1.575C167.013,130.173,167.459,129.985,168.418,129.985z"
	/>
<path id="path37" fill="#F4F4F4" d="M138.709,128.084c-1.186,0-2.19,0.229-2.912,0.951c-0.721,0.721-0.95,1.726-0.95,2.911v19.875
	c0,1.186,0.229,2.191,0.95,2.912c0.722,0.721,1.726,0.951,2.912,0.951h19.756c1.186,0,2.22-0.229,2.941-0.951
	c0.721-0.721,0.921-1.725,0.921-2.912v-19.875c0-1.186-0.2-2.19-0.921-2.911c-0.721-0.722-1.755-0.951-2.941-0.951H138.709z
	 M138.709,129.985h19.756c0.959,0,1.375,0.188,1.574,0.386c0.199,0.199,0.386,0.616,0.386,1.575v19.875
	c0,0.959-0.187,1.376-0.386,1.575s-0.615,0.386-1.574,0.386h-19.756c-0.958,0-1.375-0.188-1.575-0.386
	c-0.199-0.199-0.386-0.617-0.386-1.575v-19.875c0-0.959,0.188-1.375,0.386-1.575C137.334,130.173,137.751,129.985,138.709,129.985z"
	/>
<path id="path39" fill="#F4F4F4" d="M109.03,128.084c-1.188,0-2.22,0.229-2.941,0.951c-0.722,0.721-0.921,1.726-0.921,2.911v19.875
	c0,1.186,0.2,2.19,0.921,2.912c0.721,0.722,1.754,0.951,2.941,0.951h19.727c1.186,0,2.22-0.229,2.941-0.951
	c0.722-0.722,0.921-1.725,0.921-2.912v-19.875c0-1.186-0.199-2.19-0.921-2.911c-0.721-0.722-1.754-0.951-2.941-0.951H109.03z
	 M109.03,129.985h19.727c0.959,0,1.405,0.188,1.604,0.386c0.199,0.199,0.356,0.616,0.356,1.575v19.875
	c0,0.959-0.158,1.376-0.356,1.575c-0.198,0.199-0.645,0.386-1.604,0.386H109.03c-0.959,0-1.406-0.188-1.604-0.386
	c-0.185-0.199-0.343-0.615-0.343-1.575v-19.875c0-0.959,0.158-1.375,0.356-1.574c0.199-0.199,0.646-0.386,1.604-0.386
	L109.03,129.985z"/>
<path id="path41" fill="#F4F4F4" d="M79.323,128.084c-1.186,0-2.19,0.229-2.911,0.951c-0.721,0.721-0.951,1.726-0.951,2.911v19.875
	c0,1.186,0.229,2.19,0.951,2.912c0.721,0.722,1.725,0.951,2.911,0.951h19.756c1.187,0,2.22-0.229,2.942-0.951
	c0.721-0.722,0.92-1.725,0.92-2.912v-19.875c0-1.186-0.2-2.19-0.92-2.911c-0.722-0.722-1.755-0.951-2.942-0.951H79.323z
	 M79.323,129.985h19.756c0.959,0,1.376,0.188,1.575,0.386c0.199,0.199,0.386,0.616,0.386,1.575v19.875
	c0,0.959-0.187,1.376-0.386,1.575c-0.199,0.199-0.615,0.386-1.575,0.386H79.323c-0.959,0-1.375-0.188-1.574-0.386
	s-0.386-0.615-0.386-1.575v-19.875c0-0.959,0.188-1.375,0.386-1.574C77.948,130.173,78.364,129.986,79.323,129.985L79.323,129.985z"
	/>
<path id="path43" fill="#F4F4F4" d="M49.645,128.084c-1.186,0-2.22,0.229-2.941,0.951c-0.721,0.721-0.921,1.726-0.921,2.911v19.875
	c0,1.186,0.2,2.191,0.921,2.912c0.721,0.721,1.755,0.951,2.941,0.951h19.726c1.187,0,2.22-0.229,2.941-0.951
	c0.512-0.512,0.728-1.194,0.832-1.961h0.089v-0.951v-19.875c0-1.186-0.2-2.19-0.921-2.911c-0.721-0.722-1.755-0.951-2.941-0.951
	H49.645z M49.645,129.985h19.726c0.959,0,1.406,0.188,1.604,0.386c0.199,0.199,0.356,0.616,0.356,1.575v18.924v0.951
	c0,0.959-0.157,1.376-0.356,1.575c-0.199,0.199-0.645,0.386-1.604,0.386H49.645c-0.958,0-1.405-0.188-1.604-0.386
	s-0.356-0.617-0.356-1.575v-19.875c0-0.959,0.157-1.375,0.356-1.575C48.24,130.173,48.686,129.985,49.645,129.985z"/>
<path id="path45" fill="#F4F4F4" d="M66.251,157.644c-1.186,0-2.22,0.23-2.941,0.951c-0.721,0.722-0.921,1.728-0.921,2.911v19.876
	c0,1.186,0.2,2.189,0.921,2.911s1.755,0.95,2.941,0.95h19.756c1.186,0,2.19-0.229,2.912-0.95c0.721-0.722,0.951-1.726,0.951-2.911
	v-19.876c0-1.185-0.23-2.189-0.951-2.911c-0.722-0.721-1.726-0.951-2.912-0.951H66.251z M66.251,159.545h19.756
	c0.959,0,1.375,0.188,1.575,0.386c0.198,0.198,0.386,0.616,0.386,1.574v19.876c0,0.959-0.188,1.375-0.386,1.574
	c-0.199,0.198-0.616,0.386-1.575,0.386H66.251c-0.959,0-1.375-0.188-1.574-0.386c-0.199-0.22-0.386-0.638-0.386-1.588v-19.875
	c0-0.958,0.187-1.376,0.386-1.575c0.199-0.199,0.615-0.386,1.574-0.386V159.545z"/>
<path id="path47" fill="#F4F4F4" d="M19.074,157.644c-1.186,0-2.219,0.23-2.941,0.951c-0.722,0.723-0.921,1.721-0.921,2.909v19.876
	c0,1.186,0.2,2.188,0.921,2.911c0.721,0.721,1.755,0.95,2.941,0.95h37.879c1.186,0,2.22-0.229,2.941-0.95
	c0.721-0.724,0.921-1.728,0.921-2.911v-0.951v-18.925c0-1.185-0.2-2.19-0.921-2.911c-0.722-0.721-1.755-0.951-2.941-0.951H19.074
	V157.644z M19.074,159.545h37.879c0.959,0,1.375,0.188,1.575,0.386c0.199,0.198,0.386,0.616,0.386,1.574v19.876
	c0,0.959-0.187,1.375-0.386,1.574c-0.199,0.198-0.616,0.386-1.575,0.386H19.074c-0.959,0-1.375-0.188-1.574-0.386
	c-0.199-0.22-0.387-0.638-0.387-1.588v-19.875c0-0.958,0.188-1.376,0.386-1.575c0.199-0.199,0.616-0.386,1.575-0.386V159.545z"/>
<path id="path49" fill="#F4F4F4" d="M95.663,157.644c-1.186,0-2.19,0.23-2.912,0.951c-0.721,0.722-0.951,1.728-0.951,2.911v19.876
	c0,1.186,0.23,2.189,0.951,2.911c0.722,0.722,1.726,0.95,2.912,0.95h19.756c1.187,0,2.22-0.229,2.941-0.95
	c0.721-0.721,0.921-1.726,0.921-2.911v-0.951v-18.925c0-1.185-0.2-2.189-0.921-2.911c-0.721-0.721-1.755-0.951-2.941-0.951H95.663z
	 M95.663,159.545h19.756c0.96,0,1.406,0.188,1.604,0.386c0.199,0.198,0.356,0.616,0.356,1.574v19.876
	c0,0.959-0.158,1.375-0.356,1.574c-0.199,0.198-0.645,0.386-1.604,0.386H95.663c-0.958,0-1.375-0.188-1.575-0.386
	c-0.199-0.199-0.386-0.616-0.386-1.574v-19.876c0-0.958,0.188-1.376,0.386-1.574C94.288,159.733,94.704,159.545,95.663,159.545z"/>
<path id="path51" fill="#F4F4F4" d="M125.105,157.644c-1.186,0-2.22,0.23-2.941,0.951c-0.721,0.722-0.921,1.728-0.921,2.911v19.876
	c0,1.186,0.2,2.189,0.921,2.911c0.721,0.722,1.754,0.95,2.941,0.95h19.756c1.186,0,2.19-0.229,2.911-0.95
	c0.721-0.721,0.951-1.726,0.951-2.911v-19.876c0-1.185-0.229-2.189-0.951-2.911c-0.721-0.721-1.725-0.951-2.911-0.951H125.105z
	 M125.105,159.545h19.756c0.959,0,1.375,0.188,1.575,0.386c0.198,0.198,0.386,0.616,0.386,1.574v19.876
	c0,0.958-0.188,1.375-0.386,1.574c-0.199,0.198-0.616,0.386-1.575,0.386h-19.756c-0.959,0-1.405-0.188-1.604-0.386
	c-0.199-0.199-0.356-0.616-0.356-1.574v-19.876c0-0.958,0.158-1.376,0.356-1.574C123.7,159.733,124.146,159.545,125.105,159.545z"/>
<path id="path53" fill="#F4F4F4" d="M154.52,157.644c-1.186,0-2.19,0.23-2.912,0.951c-0.721,0.722-0.951,1.728-0.951,2.911v19.876
	c0,1.186,0.229,2.189,0.951,2.911s1.726,0.95,2.912,0.95h19.756c1.186,0,2.22-0.229,2.941-0.95c0.721-0.722,0.921-1.726,0.921-2.911
	v-19.876c0-1.185-0.2-2.189-0.921-2.911c-0.722-0.721-1.755-0.951-2.941-0.951H154.52z M154.52,159.545h19.756
	c0.959,0,1.376,0.188,1.575,0.386c0.199,0.198,0.386,0.616,0.386,1.574v19.876c0,0.958-0.188,1.375-0.386,1.574
	c-0.199,0.198-0.616,0.386-1.575,0.386H154.52c-0.958,0-1.375-0.188-1.575-0.386c-0.199-0.199-0.386-0.616-0.386-1.574v-19.876
	c0-0.958,0.188-1.376,0.386-1.574C153.144,159.733,153.561,159.545,154.52,159.545z"/>
<path id="path55" fill="#F4F4F4" d="M183.952,157.644c-1.186,0-2.22,0.23-2.941,0.951c-0.721,0.722-0.921,1.728-0.921,2.911v19.876
	c0,1.186,0.2,2.189,0.921,2.911c0.722,0.722,1.755,0.95,2.941,0.95h19.727c1.187,0,2.22-0.229,2.941-0.95
	c0.721-0.722,0.921-1.726,0.921-2.911v-19.876c0-1.185-0.2-2.189-0.921-2.911c-0.721-0.721-1.755-0.951-2.941-0.951H183.952z
	 M183.952,159.545h19.727c0.959,0,1.405,0.188,1.604,0.386c0.199,0.198,0.356,0.616,0.356,1.574v19.876
	c0,0.959-0.158,1.375-0.356,1.574c-0.199,0.198-0.645,0.386-1.604,0.386h-19.727c-0.959,0-1.405-0.188-1.604-0.386
	c-0.198-0.199-0.356-0.616-0.356-1.574v-19.876c0-0.958,0.158-1.376,0.356-1.574C182.546,159.733,182.993,159.545,183.952,159.545z"
	/>
<path id="path57" fill="#F4F4F4" d="M213.366,157.644c-1.186,0-2.19,0.23-2.911,0.951c-0.722,0.722-0.951,1.728-0.951,2.911v19.876
	c0,1.186,0.229,2.189,0.951,2.911c0.721,0.722,1.725,0.95,2.911,0.95h19.756c1.187,0,2.22-0.229,2.941-0.95
	c0.721-0.721,0.921-1.726,0.921-2.911v-19.876c0-1.185-0.2-2.189-0.921-2.911c-0.721-0.721-1.755-0.951-2.941-0.951H213.366z
	 M213.366,159.545h19.756c0.959,0,1.376,0.188,1.574,0.386c0.199,0.198,0.387,0.616,0.387,1.574v19.876
	c0,0.959-0.188,1.375-0.387,1.574c-0.198,0.198-0.615,0.386-1.574,0.386h-19.756c-0.959,0-1.375-0.188-1.574-0.386
	c-0.199-0.199-0.386-0.616-0.386-1.574v-19.876c0-0.958,0.187-1.376,0.386-1.574C211.991,159.733,212.407,159.545,213.366,159.545z"
	/>
<path id="path59" fill="#F4F4F4" d="M242.809,157.644c-1.186,0-2.22,0.23-2.941,0.951c-0.721,0.722-0.921,1.728-0.921,2.911v19.876
	c0,1.186,0.2,2.189,0.921,2.911c0.722,0.722,1.755,0.95,2.941,0.95h19.727c1.186,0,2.22-0.229,2.941-0.95s0.921-1.726,0.921-2.911
	v-19.876c0-1.185-0.2-2.189-0.921-2.911c-0.722-0.721-1.755-0.951-2.941-0.951H242.809z M242.809,159.545h19.727
	c0.959,0,1.405,0.188,1.604,0.386c0.199,0.198,0.356,0.616,0.356,1.574v19.876c0,0.959-0.158,1.375-0.356,1.574
	c-0.199,0.198-0.646,0.386-1.604,0.386h-19.727c-0.959,0-1.405-0.188-1.604-0.386c-0.199-0.199-0.356-0.616-0.356-1.574v-19.876
	c0-0.958,0.158-1.376,0.356-1.574C241.403,159.733,241.85,159.545,242.809,159.545z"/>
<path id="path61" fill="#F4F4F4" d="M272.222,157.644c-1.186,0-2.22,0.23-2.941,0.951c-0.722,0.722-0.921,1.728-0.921,2.911v19.876
	c0,1.186,0.2,2.189,0.921,2.911c0.721,0.722,1.755,0.95,2.941,0.95h19.756c1.186,0,2.22-0.229,2.941-0.95
	c0.721-0.722,0.921-1.726,0.921-2.911v-19.876c0-1.185-0.2-2.189-0.921-2.911c-0.722-0.721-1.755-0.951-2.941-0.951H272.222z
	 M272.222,159.545h19.756c0.959,0,1.376,0.188,1.574,0.386c0.199,0.198,0.387,0.616,0.387,1.574v19.876
	c0,0.958-0.188,1.375-0.387,1.574c-0.199,0.198-0.615,0.386-1.574,0.386h-19.756c-0.958,0-1.375-0.188-1.574-0.386
	c-0.199-0.199-0.386-0.616-0.386-1.574v-19.876c0-0.958,0.188-1.376,0.386-1.574C270.847,159.733,271.264,159.545,272.222,159.545z"
	/>
<path id="path63" fill="#F4F4F4" d="M301.665,157.644c-1.186,0-2.22,0.23-2.94,0.951c-0.722,0.722-0.921,1.728-0.921,2.911v19.876
	c0,1.186,0.2,2.189,0.921,2.911c0.722,0.722,1.755,0.95,2.94,0.95h19.728c1.185,0,2.219-0.229,2.94-0.95s0.922-1.726,0.922-2.911
	v-19.876c0-1.185-0.201-2.189-0.922-2.911c-0.723-0.721-1.754-0.951-2.94-0.951H301.665z M301.665,159.545h19.728
	c0.959,0,1.405,0.188,1.604,0.386c0.198,0.198,0.355,0.616,0.355,1.574v19.876c0,0.958-0.157,1.375-0.355,1.574
	c-0.201,0.198-0.646,0.386-1.604,0.386h-19.728c-0.959,0-1.404-0.188-1.604-0.386c-0.197-0.199-0.355-0.616-0.355-1.574v-19.876
	c0-0.958,0.158-1.376,0.355-1.574C300.26,159.733,300.706,159.545,301.665,159.545z"/>
<path id="path65" fill="#F4F4F4" d="M331.079,157.644c-1.187,0-2.221,0.23-2.94,0.951c-0.724,0.722-0.921,1.728-0.921,2.911v19.876
	c0,1.186,0.199,2.189,0.921,2.911c0.721,0.722,1.755,0.95,2.94,0.95h19.756c1.187,0,2.189-0.229,2.912-0.95
	c0.721-0.722,0.951-1.726,0.951-2.911v-19.876c0-1.185-0.23-2.189-0.951-2.911c-0.723-0.721-1.727-0.951-2.912-0.951H331.079z
	 M331.079,159.545h19.756c0.959,0,1.377,0.188,1.576,0.386c0.197,0.198,0.385,0.616,0.385,1.574v19.876
	c0,0.958-0.188,1.375-0.385,1.574c-0.201,0.198-0.617,0.386-1.576,0.386h-19.756c-0.959,0-1.375-0.188-1.574-0.386
	c-0.198-0.199-0.387-0.616-0.387-1.574v-19.876c0-0.958,0.188-1.376,0.387-1.574C329.704,159.733,330.12,159.545,331.079,159.545z"
	/>
<path id="path67" fill="#F4F4F4" d="M360.51,157.644c-1.184,0-2.219,0.23-2.939,0.951c-0.721,0.722-0.921,1.728-0.921,2.911v19.876
	c0,1.186,0.2,2.189,0.921,2.911s1.756,0.95,2.939,0.95h19.729c1.188,0,2.221-0.229,2.939-0.95c0.722-0.722,0.923-1.726,0.923-2.911
	v-19.876c0-1.185-0.201-2.189-0.923-2.911c-0.719-0.721-1.754-0.951-2.939-0.951H360.51z M360.51,159.545h19.729
	c0.961,0,1.405,0.188,1.604,0.386c0.199,0.198,0.357,0.616,0.357,1.574v19.876c0,0.959-0.158,1.375-0.357,1.574
	c-0.198,0.198-0.645,0.386-1.604,0.386H360.51c-0.957,0-1.404-0.188-1.604-0.386c-0.199-0.199-0.355-0.616-0.355-1.574v-19.876
	c0-0.958,0.156-1.376,0.355-1.574C359.105,159.733,359.553,159.545,360.51,159.545z"/>
<path id="path69" fill="#F4F4F4" d="M389.924,157.644c-1.184,0-2.219,0.23-2.94,0.951c-0.72,0.722-0.921,1.728-0.921,2.911v19.876
	c0,1.186,0.201,2.189,0.921,2.911c0.724,0.722,1.755,0.95,2.94,0.95h19.758c1.188,0,2.189-0.229,2.91-0.95
	c0.722-0.721,0.951-1.726,0.951-2.911v-19.876c0-1.185-0.229-2.189-0.951-2.911c-0.721-0.721-1.725-0.951-2.91-0.951H389.924z
	 M389.924,159.545h19.758c0.96,0,1.376,0.188,1.574,0.386c0.199,0.198,0.387,0.616,0.387,1.574v19.876
	c0,0.959-0.188,1.375-0.387,1.574c-0.198,0.198-0.616,0.386-1.574,0.386h-19.758c-0.957,0-1.375-0.188-1.573-0.386
	c-0.199-0.199-0.388-0.616-0.388-1.574v-19.876c0-0.958,0.188-1.376,0.388-1.574C388.549,159.733,388.967,159.545,389.924,159.545z"
	/>
<path id="path71" fill="none" stroke="#F4F4F4" stroke-width="1.9014" d="M469.061,184.283"/>
<path id="path73" fill="none" stroke="#F4F4F4" stroke-width="1.9014" d="M471.35,190.007"/>
<path id="path75" fill="#F4F4F4" d="M418.266,157.644c-1.188,0-2.221,0.23-2.941,0.951c-0.722,0.722-0.921,1.728-0.921,2.911v19.876
	c0,1.186,0.199,2.189,0.921,2.911c0.721,0.722,1.756,0.95,2.941,0.95c1.512,0,2.295,0.148,2.466,0.268
	c0.085,0.061,0.142,0.092,0.208,0.327s0.09,0.646,0.09,1.247v22.758c0,1.188,0.229,2.221,0.949,2.941s1.727,0.921,2.912,0.921
	h43.373c1.188,0,2.221-0.2,2.941-0.921c0.715-0.715,0.916-1.739,0.92-2.912c0-0.01,0-0.02,0-0.029l0.18-48.305v-0.03
	c0-1.187-0.229-2.191-0.951-2.912c-0.721-0.721-1.725-0.951-2.91-0.951L418.266,157.644L418.266,157.644z M418.266,159.545h50.178
	c0.959,0,1.375,0.188,1.572,0.386c0.199,0.198,0.389,0.616,0.389,1.574l-0.18,48.337c0,0.959-0.156,1.405-0.355,1.604
	c-0.199,0.197-0.646,0.355-1.605,0.355h-43.373c-0.959,0-1.375-0.158-1.572-0.355c-0.191-0.2-0.383-0.646-0.383-1.606v-22.757
	c0-0.682-0.027-1.253-0.178-1.783c-0.15-0.529-0.461-1.045-0.922-1.365c-0.922-0.646-2.002-0.596-3.563-0.596
	c-0.96,0-1.376-0.188-1.575-0.386c-0.197-0.199-0.386-0.616-0.386-1.574v-19.876c0-0.958,0.188-1.375,0.386-1.574
	c0.199-0.199,0.615-0.386,1.575-0.386L418.266,159.545z"/>
<path id="path77" fill="#F4F4F4" d="M72.075,186.349c-1.186,0-2.22,0.229-2.941,0.949c-0.721,0.723-0.921,1.727-0.921,2.911v19.875
	c0,1.187,0.2,2.19,0.921,2.911c0.721,0.722,1.755,0.951,2.941,0.951h19.756c1.186,0,2.19-0.229,2.912-0.951
	c0.721-0.721,0.951-1.725,0.951-2.911v-19.875c0-1.185-0.23-2.188-0.951-2.911c-0.721-0.721-1.726-0.949-2.912-0.949H72.075z
	 M72.075,188.249h19.756c0.959,0,1.375,0.188,1.575,0.386c0.199,0.199,0.386,0.616,0.386,1.574v19.875
	c0,0.96-0.188,1.376-0.386,1.574c-0.199,0.198-0.615,0.387-1.575,0.387H72.075c-0.959,0-1.376-0.188-1.575-0.387
	s-0.386-0.615-0.386-1.574v-19.875c0-0.958,0.188-1.375,0.386-1.574C70.698,188.437,71.116,188.249,72.075,188.249z"/>
<path id="path79" fill="#F4F4F4" d="M18.658,186.349c-1.186,0-2.19,0.229-2.911,0.949c-0.722,0.723-0.951,1.727-0.951,2.911v19.875
	c0,1.187,0.229,2.19,0.951,2.911c0.721,0.722,1.725,0.951,2.911,0.951h45.663c1.186,0,2.189-0.229,2.911-0.951
	c0.722-0.721,0.951-1.725,0.951-2.911v-19.875c0-1.185-0.229-2.188-0.951-2.911c-0.721-0.721-1.725-0.949-2.911-0.949H18.658z
	 M18.658,188.249h45.663c0.959,0,1.375,0.188,1.574,0.386c0.199,0.199,0.386,0.616,0.386,1.574v19.875
	c0,0.96-0.188,1.376-0.386,1.574c-0.198,0.198-0.615,0.387-1.574,0.387H18.658c-0.959,0-1.375-0.188-1.574-0.387
	s-0.386-0.615-0.386-1.574v-19.875c0-0.958,0.187-1.375,0.386-1.574c0.199-0.209,0.615-0.39,1.574-0.39V188.249z"/>
<path id="path81" fill="#F4F4F4" d="M101.515,186.349c-1.186,0-2.22,0.229-2.941,0.949c-0.722,0.723-0.921,1.727-0.921,2.911v19.875
	c0,1.187,0.2,2.19,0.921,2.911c0.721,0.722,1.755,0.951,2.941,0.951h19.727c1.186,0,2.22-0.229,2.941-0.951
	c0.512-0.512,0.728-1.193,0.832-1.961h0.089v-0.95v-19.875c0-1.185-0.2-2.188-0.921-2.911c-0.721-0.721-1.755-0.949-2.941-0.949
	H101.515L101.515,186.349z M101.515,188.249h19.727c0.959,0,1.405,0.188,1.604,0.386c0.199,0.199,0.357,0.616,0.357,1.574v18.924
	v0.951c0,0.96-0.158,1.376-0.357,1.574c-0.199,0.198-0.645,0.387-1.604,0.387h-19.727c-0.958,0-1.405-0.188-1.604-0.387
	c-0.199-0.198-0.356-0.615-0.356-1.574v-19.875c0-0.958,0.158-1.375,0.356-1.574C100.11,188.437,100.556,188.249,101.515,188.249z"
	/>
<path id="path83" fill="#F4F4F4" d="M130.923,186.349c-1.186,0-2.22,0.229-2.941,0.949c-0.722,0.723-0.921,1.727-0.921,2.911v19.875
	c0,1.187,0.2,2.19,0.921,2.911c0.721,0.722,1.755,0.951,2.941,0.951h19.756c1.186,0,2.19-0.229,2.911-0.951
	c0.722-0.721,0.951-1.725,0.951-2.911v-19.875c0-1.185-0.229-2.188-0.951-2.911c-0.721-0.721-1.725-0.949-2.911-0.949H130.923z
	 M130.923,188.249h19.756c0.959,0,1.376,0.188,1.574,0.386c0.199,0.199,0.386,0.616,0.386,1.574v19.875
	c0,0.96-0.187,1.376-0.386,1.574c-0.198,0.198-0.615,0.387-1.574,0.387h-19.756c-0.958,0-1.375-0.188-1.574-0.387
	c-0.199-0.198-0.386-0.615-0.386-1.574v-19.875c0-0.958,0.188-1.375,0.386-1.574C129.547,188.437,129.965,188.249,130.923,188.249z"
	/>
<path id="path85" fill="#F4F4F4" d="M160.338,186.349c-1.186,0-2.19,0.229-2.912,0.949c-0.721,0.723-0.951,1.727-0.951,2.911v19.875
	c0,1.187,0.229,2.19,0.951,2.911c0.721,0.722,1.726,0.951,2.912,0.951h19.756c1.187,0,2.22-0.229,2.941-0.951
	c0.721-0.721,0.921-1.725,0.921-2.911v-19.875c0-1.185-0.2-2.188-0.921-2.911c-0.722-0.721-1.755-0.949-2.941-0.949H160.338z
	 M160.338,188.249h19.756c0.959,0,1.405,0.188,1.604,0.386c0.198,0.199,0.356,0.616,0.356,1.574v19.875
	c0,0.96-0.158,1.376-0.356,1.574c-0.199,0.198-0.646,0.387-1.604,0.387h-19.756c-0.959,0-1.376-0.188-1.575-0.387
	c-0.199-0.198-0.386-0.615-0.386-1.574v-19.875c0-0.958,0.187-1.375,0.386-1.574C158.962,188.437,159.379,188.249,160.338,188.249z"
	/>
<path id="path87" fill="#F4F4F4" d="M189.78,186.349c-1.187,0-2.22,0.229-2.941,0.949c-0.722,0.723-0.921,1.727-0.921,2.911v19.875
	c0,1.187,0.2,2.19,0.921,2.911c0.721,0.722,1.755,0.951,2.941,0.951h19.756c1.186,0,2.19-0.229,2.912-0.951
	c0.721-0.721,0.951-1.725,0.951-2.911v-19.875c0-1.185-0.229-2.188-0.951-2.911c-0.721-0.721-1.725-0.949-2.912-0.949H189.78z
	 M189.78,188.249h19.756c0.959,0,1.376,0.188,1.575,0.386c0.199,0.199,0.386,0.616,0.386,1.574v19.875
	c0,0.96-0.188,1.376-0.386,1.574c-0.199,0.198-0.615,0.387-1.575,0.387H189.78c-0.959,0-1.405-0.188-1.604-0.387
	c-0.199-0.198-0.357-0.615-0.357-1.574v-19.875c0-0.958,0.158-1.375,0.357-1.574C188.375,188.437,188.821,188.249,189.78,188.249z"
	/>
<path id="path89" fill="#F4F4F4" d="M219.194,186.349c-1.186,0-2.19,0.229-2.911,0.949c-0.722,0.723-0.951,1.727-0.951,2.911v19.875
	c0,1.187,0.229,2.19,0.951,2.911c0.721,0.722,1.725,0.951,2.911,0.951h19.756c1.186,0,2.22-0.229,2.941-0.951
	c0.721-0.721,0.921-1.725,0.921-2.911v-19.875c0-1.185-0.2-2.188-0.921-2.911c-0.721-0.721-1.755-0.949-2.941-0.949H219.194z
	 M219.194,188.249h19.756c0.958,0,1.375,0.188,1.574,0.386c0.199,0.199,0.386,0.616,0.386,1.574v19.875
	c0,0.96-0.187,1.376-0.386,1.574c-0.199,0.198-0.615,0.387-1.574,0.387h-19.756c-0.959,0-1.375-0.188-1.574-0.387
	c-0.199-0.198-0.386-0.615-0.386-1.574v-19.875c0-0.958,0.187-1.375,0.386-1.574C217.818,188.437,218.235,188.249,219.194,188.249z"
	/>
<path id="path91" fill="#F4F4F4" d="M248.636,186.349c-1.186,0-2.22,0.229-2.941,0.949c-0.721,0.723-0.921,1.727-0.921,2.911v19.875
	c0,1.187,0.2,2.19,0.921,2.911c0.721,0.722,1.756,0.951,2.941,0.951h19.728c1.186,0,2.22-0.229,2.941-0.951
	c0.721-0.721,0.921-1.725,0.921-2.911v-19.875c0-1.185-0.2-2.188-0.921-2.911c-0.722-0.721-1.755-0.949-2.941-0.949H248.636z
	 M248.636,188.249h19.728c0.959,0,1.405,0.188,1.604,0.386c0.199,0.199,0.356,0.616,0.356,1.574v19.875
	c0,0.96-0.158,1.376-0.356,1.574c-0.199,0.198-0.645,0.387-1.604,0.387h-19.728c-0.958,0-1.405-0.188-1.604-0.387
	c-0.199-0.198-0.356-0.615-0.356-1.574v-19.875c0-0.958,0.158-1.375,0.356-1.574C247.231,188.437,247.677,188.249,248.636,188.249z"
	/>
<path id="path93" fill="#F4F4F4" d="M278.041,186.349c-1.186,0-2.19,0.229-2.912,0.949c-0.721,0.723-0.951,1.727-0.951,2.911v19.875
	c0,1.187,0.229,2.19,0.951,2.911c0.722,0.722,1.726,0.951,2.912,0.951h19.756c1.186,0,2.22-0.229,2.94-0.951
	c0.723-0.721,0.922-1.725,0.922-2.911v-19.875c0-1.185-0.199-2.188-0.922-2.911c-0.721-0.721-1.754-0.949-2.94-0.949H278.041z
	 M278.041,188.249h19.756c0.959,0,1.376,0.188,1.574,0.386c0.198,0.199,0.385,0.616,0.385,1.574v19.875
	c0,0.96-0.188,1.376-0.385,1.574c-0.198,0.198-0.615,0.387-1.574,0.387h-19.756c-0.959,0-1.376-0.188-1.575-0.387
	c-0.199-0.198-0.386-0.615-0.386-1.574v-19.875c0-0.958,0.188-1.375,0.386-1.574C276.664,188.437,277.081,188.249,278.041,188.249z"
	/>
<path id="path95" fill="#F4F4F4" d="M307.482,186.349c-1.185,0-2.219,0.229-2.94,0.949c-0.721,0.723-0.922,1.727-0.922,2.911v19.875
	c0,1.187,0.201,2.19,0.922,2.911c0.723,0.722,1.754,0.951,2.94,0.951h19.728c1.187,0,2.221-0.229,2.94-0.951
	c0.722-0.721,0.921-1.725,0.921-2.911v-19.875c0-1.185-0.199-2.188-0.921-2.911c-0.722-0.721-1.755-0.949-2.94-0.949H307.482z
	 M307.482,188.249h19.728c0.959,0,1.406,0.188,1.604,0.386c0.199,0.199,0.355,0.616,0.355,1.574v19.875
	c0,0.96-0.156,1.376-0.355,1.574c-0.197,0.198-0.645,0.387-1.604,0.387h-19.728c-0.958,0-1.405-0.188-1.604-0.387
	c-0.197-0.198-0.355-0.615-0.355-1.574v-19.875c0-0.958,0.158-1.375,0.355-1.574C306.077,188.437,306.524,188.249,307.482,188.249z"
	/>
<path id="path97" fill="#F4F4F4" d="M336.896,186.349c-1.185,0-2.188,0.229-2.911,0.949c-0.721,0.723-0.951,1.727-0.951,2.911
	v19.875c0,1.187,0.2,2.19,0.922,2.911c0.723,0.722,1.754,0.951,2.94,0.951h19.757c1.186,0,2.221-0.229,2.939-0.951
	c0.722-0.721,0.922-1.725,0.922-2.911v-19.875c0-1.185-0.2-2.188-0.922-2.911c-0.719-0.721-1.754-0.949-2.939-0.949H336.896
	L336.896,186.349z M336.896,188.249h19.757c0.959,0,1.375,0.188,1.574,0.386c0.197,0.199,0.386,0.616,0.386,1.574v19.875
	c0,0.96-0.188,1.376-0.386,1.574c-0.199,0.198-0.616,0.387-1.574,0.387h-19.757c-0.958,0-1.376-0.188-1.575-0.387
	c-0.197-0.198-0.386-0.615-0.386-1.574v-19.875c0-0.958,0.188-1.375,0.386-1.574C335.521,188.437,335.938,188.249,336.896,188.249z"
	/>
<path id="path99" fill="#F4F4F4" d="M366.34,186.349c-1.188,0-2.221,0.229-2.941,0.949c-0.723,0.723-0.921,1.727-0.921,2.911v19.875
	c0,1.187,0.198,2.19,0.921,2.911c0.721,0.722,1.755,0.951,2.941,0.951h19.727c1.186,0,2.219-0.229,2.941-0.951
	c0.721-0.721,0.92-1.725,0.92-2.911v-19.875c0-1.185-0.199-2.188-0.92-2.911c-0.723-0.721-1.756-0.949-2.941-0.949H366.34z
	 M366.34,188.249h19.727c0.958,0,1.405,0.188,1.604,0.386c0.199,0.199,0.356,0.616,0.356,1.574v19.875
	c0,0.96-0.157,1.376-0.356,1.574c-0.198,0.198-0.646,0.387-1.604,0.387H366.34c-0.961,0-1.405-0.188-1.604-0.387
	c-0.198-0.198-0.356-0.615-0.356-1.574v-19.875c0-0.958,0.158-1.375,0.356-1.574C364.935,188.437,365.379,188.249,366.34,188.249z"
	/>
<path id="path101" fill="#F4F4F4" d="M395.754,186.349c-1.188,0-2.221,0.229-2.941,0.949c-0.723,0.723-0.921,1.727-0.921,2.911
	v19.875c0,1.187,0.198,2.19,0.921,2.911c0.721,0.722,1.755,0.951,2.941,0.951h19.756c1.185,0,2.189-0.229,2.91-0.951
	c0.722-0.721,0.949-1.725,0.949-2.911v-19.875c0-1.185-0.229-2.188-0.949-2.911c-0.721-0.721-1.727-0.949-2.91-0.949H395.754z
	 M395.754,188.249h19.756c0.957,0,1.375,0.188,1.572,0.386c0.199,0.199,0.387,0.616,0.387,1.574v19.875
	c0,0.96-0.188,1.376-0.387,1.574s-0.615,0.387-1.572,0.387h-19.756c-0.961,0-1.377-0.188-1.576-0.387
	c-0.197-0.198-0.385-0.615-0.385-1.574v-19.875c0-0.958,0.188-1.375,0.385-1.574C394.377,188.437,394.793,188.249,395.754,188.249z"
	/>
<path id="path103" fill="#F4F4F4" d="M85.889,215.038c-1.186,0-2.22,0.23-2.941,0.949c-0.722,0.724-0.921,1.728-0.921,2.912v19.875
	c0,1.188,0.199,2.19,0.921,2.912c0.721,0.722,1.754,0.95,2.941,0.95h19.756c1.186,0,2.19-0.229,2.911-0.95
	c0.512-0.513,0.728-1.193,0.832-1.961h0.119v-0.951v-19.875c0-1.185-0.229-2.188-0.951-2.912c-0.721-0.719-1.725-0.949-2.911-0.949
	H85.889z M85.889,216.938h19.756c0.959,0,1.375,0.188,1.574,0.387c0.199,0.199,0.386,0.617,0.386,1.574v18.925v0.95
	c0,0.961-0.188,1.377-0.386,1.574c-0.199,0.199-0.615,0.387-1.574,0.387H85.889c-0.959,0-1.375-0.188-1.574-0.387
	c-0.199-0.197-0.386-0.615-0.386-1.574v-19.875c0-0.959,0.188-1.375,0.386-1.574C84.514,217.127,84.93,216.938,85.889,216.938z"/>
<path id="path105" fill="#F4F4F4" d="M18.658,215.038c-1.186,0-2.19,0.23-2.911,0.949c-0.722,0.724-0.951,1.728-0.951,2.912v19.875
	c0,1.188,0.229,2.19,0.951,2.912c0.721,0.722,1.726,0.95,2.911,0.95h58.913c1.186,0,2.22-0.229,2.941-0.95
	c0.721-0.722,0.921-1.726,0.921-2.912v-19.875c0-1.185-0.2-2.188-0.921-2.912c-0.722-0.719-1.755-0.949-2.941-0.949H18.658z
	 M18.658,216.938h58.913c0.959,0,1.406,0.188,1.604,0.387c0.199,0.199,0.356,0.617,0.356,1.574v19.875
	c0,0.961-0.158,1.377-0.356,1.574c-0.199,0.199-0.645,0.387-1.604,0.387H18.658c-0.958,0-1.375-0.188-1.574-0.387
	c-0.199-0.197-0.386-0.615-0.386-1.574v-19.875c0-0.959,0.187-1.375,0.386-1.574c0.199-0.198,0.616-0.389,1.575-0.389
	L18.658,216.938z"/>
<path id="path107" fill="#F4F4F4" d="M115.304,215.038c-1.186,0-2.19,0.23-2.912,0.949c-0.722,0.724-0.951,1.728-0.951,2.912v19.875
	c0,1.188,0.229,2.19,0.951,2.912c0.721,0.722,1.726,0.95,2.912,0.95h19.756c1.186,0,2.22-0.229,2.941-0.95
	c0.722-0.721,0.921-1.726,0.921-2.912v-0.95v-18.925c0-1.185-0.2-2.188-0.921-2.912c-0.721-0.719-1.754-0.949-2.941-0.949H115.304
	L115.304,215.038z M115.304,216.938h19.756c0.959,0,1.376,0.188,1.575,0.387c0.199,0.199,0.386,0.617,0.386,1.574v19.875
	c0,0.961-0.158,1.377-0.357,1.574c-0.199,0.199-0.645,0.387-1.604,0.387h-19.756c-0.959,0-1.375-0.188-1.575-0.387
	c-0.199-0.197-0.386-0.615-0.386-1.574v-19.875c0-0.959,0.188-1.375,0.386-1.574C113.929,217.127,114.345,216.938,115.304,216.938z"
	/>
<path id="path109" fill="#F4F4F4" d="M144.747,215.038c-1.186,0-2.22,0.23-2.941,0.949c-0.721,0.724-0.921,1.728-0.921,2.912v19.875
	c0,1.188,0.2,2.19,0.921,2.912c0.722,0.722,1.755,0.95,2.941,0.95h19.756c1.186,0,2.19-0.229,2.912-0.95
	c0.721-0.721,0.951-1.726,0.951-2.912v-19.875c0-1.185-0.23-2.188-0.951-2.912c-0.721-0.719-1.726-0.949-2.912-0.949H144.747z
	 M144.747,216.938h19.756c0.959,0,1.375,0.188,1.575,0.387c0.199,0.199,0.386,0.617,0.386,1.574v19.875
	c0,0.961-0.188,1.377-0.386,1.574c-0.199,0.199-0.616,0.387-1.575,0.387h-19.756c-0.959,0-1.406-0.188-1.604-0.387
	c-0.199-0.197-0.356-0.615-0.356-1.574v-19.875c0-0.959,0.158-1.375,0.356-1.574C143.341,217.127,143.788,216.938,144.747,216.938z"
	/>
<path id="path111" fill="#F4F4F4" d="M174.151,215.038c-1.186,0-2.19,0.23-2.911,0.949c-0.722,0.724-0.951,1.728-0.951,2.912v19.875
	c0,1.188,0.229,2.19,0.951,2.912c0.721,0.722,1.725,0.95,2.911,0.95h19.756c1.186,0,2.22-0.229,2.941-0.95
	c0.721-0.721,0.92-1.726,0.92-2.912v-19.875c0-1.185-0.199-2.188-0.92-2.912c-0.721-0.719-1.755-0.949-2.941-0.949H174.151z
	 M174.151,216.938h19.756c0.959,0,1.375,0.188,1.574,0.387c0.199,0.199,0.386,0.617,0.386,1.574v19.875
	c0,0.961-0.187,1.377-0.386,1.574c-0.199,0.199-0.615,0.387-1.574,0.387h-19.756c-0.959,0-1.375-0.188-1.575-0.387
	c-0.199-0.197-0.386-0.615-0.386-1.574v-19.875c0-0.959,0.187-1.375,0.386-1.574C172.775,217.127,173.192,216.938,174.151,216.938z"
	/>
<path id="path113" fill="#F4F4F4" d="M203.593,215.038c-1.186,0-2.22,0.23-2.941,0.949c-0.721,0.724-0.921,1.728-0.921,2.912v19.875
	c0,1.188,0.2,2.19,0.921,2.912c0.721,0.722,1.755,0.95,2.941,0.95h19.727c1.186,0,2.22-0.229,2.941-0.95
	c0.721-0.722,0.921-1.726,0.921-2.912v-19.875c0-1.185-0.2-2.188-0.921-2.912c-0.722-0.719-1.755-0.949-2.941-0.949H203.593z
	 M203.593,216.938h19.727c0.959,0,1.405,0.188,1.604,0.387c0.199,0.199,0.356,0.617,0.356,1.574v19.875
	c0,0.961-0.158,1.377-0.356,1.574c-0.199,0.199-0.645,0.387-1.604,0.387h-19.727c-0.959,0-1.405-0.188-1.604-0.387
	c-0.199-0.197-0.356-0.615-0.356-1.574v-19.875c0-0.959,0.158-1.375,0.356-1.574C202.188,217.127,202.635,216.938,203.593,216.938z"
	/>
<path id="path115" fill="#F4F4F4" d="M233.007,215.038c-1.186,0-2.19,0.23-2.912,0.949c-0.721,0.724-0.951,1.728-0.951,2.912v19.875
	c0,1.188,0.229,2.19,0.951,2.912c0.722,0.722,1.726,0.95,2.912,0.95h19.755c1.187,0,2.22-0.229,2.942-0.95
	c0.721-0.722,0.921-1.726,0.921-2.912v-19.875c0-1.185-0.2-2.188-0.921-2.912c-0.722-0.719-1.755-0.949-2.941-0.949H233.007z
	 M233.007,216.938h19.755c0.959,0,1.376,0.188,1.575,0.387c0.199,0.199,0.386,0.617,0.386,1.574v19.875
	c0,0.961-0.188,1.377-0.386,1.574c-0.199,0.199-0.615,0.387-1.575,0.387h-19.755c-0.959,0-1.376-0.188-1.575-0.387
	c-0.199-0.197-0.386-0.615-0.386-1.574v-19.875c0-0.959,0.187-1.375,0.386-1.574C231.631,217.127,232.048,216.938,233.007,216.938z"
	/>
<path id="path117" fill="#F4F4F4" d="M262.449,215.038c-1.186,0-2.22,0.23-2.941,0.949c-0.722,0.724-0.921,1.728-0.921,2.912v19.875
	c0,1.188,0.2,2.19,0.921,2.912c0.721,0.722,1.755,0.95,2.941,0.95h19.727c1.186,0,2.22-0.229,2.941-0.95
	c0.722-0.721,0.921-1.726,0.921-2.912v-19.875c0-1.185-0.2-2.188-0.921-2.912c-0.721-0.719-1.755-0.949-2.941-0.949H262.449z
	 M262.449,216.938h19.727c0.959,0,1.405,0.188,1.604,0.387c0.199,0.199,0.355,0.617,0.355,1.574v19.875
	c0,0.961-0.158,1.377-0.355,1.574c-0.199,0.199-0.646,0.387-1.604,0.387h-19.727c-0.959,0-1.405-0.188-1.604-0.387
	c-0.199-0.197-0.355-0.615-0.355-1.574v-19.875c0-0.959,0.158-1.375,0.355-1.574C261.044,217.127,261.49,216.938,262.449,216.938z"
	/>
<path id="path119" fill="#F4F4F4" d="M291.854,215.038c-1.186,0-2.22,0.23-2.94,0.949c-0.722,0.724-0.921,1.728-0.921,2.912v19.875
	c0,1.188,0.2,2.19,0.921,2.912c0.721,0.722,1.755,0.95,2.94,0.95h19.757c1.185,0,2.188-0.229,2.911-0.95
	c0.721-0.721,0.951-1.726,0.951-2.912v-19.875c0-1.185-0.201-2.188-0.922-2.912c-0.723-0.719-1.754-0.949-2.94-0.949H291.854
	L291.854,215.038z M291.854,216.938h19.757c0.958,0,1.376,0.188,1.574,0.387c0.198,0.199,0.388,0.617,0.388,1.574v19.875
	c0,0.961-0.189,1.377-0.388,1.574c-0.198,0.199-0.616,0.387-1.574,0.387h-19.757c-0.958,0-1.375-0.188-1.574-0.387
	c-0.199-0.197-0.387-0.615-0.387-1.574v-19.875c0-0.959,0.188-1.375,0.387-1.574C290.479,217.127,290.895,216.938,291.854,216.938z"
	/>
<path id="path121" fill="#F4F4F4" d="M321.295,215.038c-1.186,0-2.219,0.23-2.94,0.949c-0.722,0.724-0.921,1.728-0.921,2.912v19.875
	c0,1.188,0.199,2.19,0.921,2.912s1.756,0.95,2.94,0.95h19.728c1.187,0,2.222-0.229,2.94-0.95c0.723-0.721,0.922-1.726,0.922-2.912
	v-19.875c0-1.185-0.199-2.188-0.922-2.912c-0.721-0.719-1.754-0.949-2.94-0.949H321.295z M321.295,216.938h19.728
	c0.96,0,1.405,0.188,1.604,0.387c0.199,0.199,0.356,0.617,0.356,1.574v19.875c0,0.961-0.157,1.377-0.356,1.574
	c-0.199,0.199-0.645,0.387-1.604,0.387h-19.728c-0.959,0-1.403-0.188-1.604-0.387c-0.199-0.197-0.355-0.615-0.355-1.574v-19.875
	c0-0.959,0.156-1.375,0.355-1.574C319.892,217.127,320.336,216.938,321.295,216.938z"/>
<path id="path123" fill="#F4F4F4" d="M350.711,215.038c-1.188,0-2.221,0.23-2.941,0.949c-0.723,0.724-0.921,1.728-0.921,2.912
	v19.875c0,1.188,0.198,2.19,0.921,2.912c0.721,0.722,1.755,0.95,2.941,0.95h19.754c1.188,0,2.191-0.229,2.912-0.95
	c0.723-0.721,0.951-1.726,0.951-2.912v-19.875c0-1.185-0.229-2.188-0.951-2.912c-0.721-0.719-1.726-0.949-2.912-0.949H350.711z
	 M350.711,216.938h19.754c0.961,0,1.377,0.188,1.574,0.387c0.199,0.199,0.387,0.617,0.387,1.574v19.875
	c0,0.961-0.188,1.377-0.387,1.574c-0.197,0.199-0.613,0.387-1.574,0.387h-19.754c-0.961,0-1.377-0.188-1.574-0.387
	c-0.201-0.197-0.387-0.615-0.387-1.574v-19.875c0-0.959,0.186-1.375,0.387-1.574C349.334,217.127,349.75,216.938,350.711,216.938z"
	/>
<path id="path125" fill="#F4F4F4" d="M380.125,215.038c-1.188,0-2.191,0.23-2.912,0.949c-0.723,0.724-0.95,1.728-0.95,2.912v19.875
	c0,1.188,0.229,2.19,0.95,2.912s1.726,0.95,2.912,0.95h19.754c1.187,0,2.222-0.229,2.94-0.95c0.724-0.721,0.921-1.726,0.921-2.912
	v-19.875c0-1.185-0.197-2.188-0.921-2.912c-0.72-0.719-1.755-0.949-2.94-0.949H380.125z M380.125,216.938h19.754
	c0.959,0,1.406,0.188,1.604,0.387c0.199,0.199,0.356,0.617,0.356,1.574v19.875c0,0.961-0.157,1.377-0.356,1.574
	c-0.198,0.199-0.646,0.387-1.604,0.387h-19.754c-0.961,0-1.377-0.188-1.576-0.387c-0.197-0.197-0.385-0.615-0.385-1.574v-19.875
	c0-0.959,0.188-1.375,0.385-1.574C378.749,217.127,379.165,216.938,380.125,216.938z"/>
<path id="path127" fill="#F4F4F4" d="M409.442,215.038c-1.186,0-2.22,0.23-2.941,0.949c-0.721,0.724-0.951,1.727-0.951,2.912v19.875
	c0,1.188,0.23,2.19,0.951,2.912c0.723,0.722,1.756,0.95,2.941,0.95h59.535c1.188,0,2.223-0.229,2.941-0.95
	c0.723-0.721,0.922-1.726,0.922-2.912v-19.875c0-1.185-0.201-2.188-0.922-2.912c-0.721-0.719-1.754-0.949-2.941-0.949H409.442z
	 M409.442,216.938h59.535c0.961,0,1.406,0.188,1.605,0.387c0.199,0.199,0.355,0.617,0.355,1.574v19.875
	c0,0.961-0.156,1.377-0.355,1.574c-0.199,0.199-0.646,0.387-1.605,0.387h-59.535c-0.959,0-1.404-0.188-1.604-0.387
	c-0.199-0.197-0.387-0.615-0.387-1.574v-19.875c0-0.957,0.188-1.375,0.387-1.574C408.038,217.127,408.483,216.938,409.442,216.938z"
	/>
<path id="path129" fill="#F4F4F4" d="M380.125,243.321c-1.188,0-2.191,0.199-2.912,0.921c-0.723,0.721-0.95,1.754-0.95,2.94v19.846
	c0,1.186,0.229,2.22,0.95,2.94c0.721,0.722,1.726,0.921,2.912,0.921h19.754c1.187,0,2.222-0.199,2.94-0.921
	c0.724-0.722,0.921-1.755,0.921-2.94v-19.846c0-1.187-0.197-2.22-0.921-2.94c-0.72-0.722-1.755-0.921-2.94-0.921H380.125z
	 M380.125,245.224h19.754c0.959,0,1.406,0.188,1.604,0.385c0.199,0.199,0.356,0.617,0.356,1.574v19.847
	c0,0.96-0.157,1.405-0.356,1.604c-0.198,0.199-0.646,0.356-1.604,0.356h-19.754c-0.961,0-1.377-0.157-1.576-0.356
	c-0.197-0.198-0.385-0.646-0.385-1.604v-19.847c0-0.959,0.188-1.375,0.385-1.574C378.749,245.41,379.165,245.224,380.125,245.224z"
	/>
<path id="path131" fill="#F4F4F4" d="M113.099,243.321c-1.186,0-2.22,0.199-2.941,0.921c-0.721,0.721-0.921,1.754-0.921,2.94v19.846
	c0,1.187,0.2,2.22,0.921,2.94c0.721,0.722,1.755,0.921,2.941,0.921h258.288c1.188,0,2.221-0.199,2.941-0.921s0.92-1.755,0.92-2.94
	v-19.846c0-1.187-0.199-2.22-0.92-2.94c-0.722-0.722-1.756-0.921-2.941-0.921H113.099z M113.099,245.224h258.288
	c0.96,0,1.404,0.188,1.604,0.385c0.198,0.199,0.356,0.617,0.356,1.574v19.847c0,0.96-0.158,1.405-0.356,1.604
	c-0.199,0.199-0.645,0.356-1.604,0.356H113.099c-0.959,0-1.375-0.157-1.575-0.356c-0.199-0.198-0.386-0.646-0.386-1.604v-19.847
	c0-0.959,0.188-1.375,0.386-1.574C111.723,245.41,112.14,245.224,113.099,245.224z"/>
<path id="path133" fill="#F4F4F4" d="M19.936,128.084c-1.186,0-2.22,0.229-2.941,0.951c-0.721,0.721-0.921,1.726-0.921,2.911v19.875
	c0,1.186,0.2,2.191,0.921,2.912c0.721,0.721,1.755,0.951,2.941,0.951h19.756c1.187,0,2.22-0.229,2.941-0.951
	c0.722-0.722,0.921-1.725,0.921-2.912v-19.875c0-1.186-0.2-2.19-0.921-2.911c-0.721-0.722-1.754-0.951-2.941-0.951H19.936z
	 M19.936,129.985h19.756c0.959,0,1.376,0.188,1.575,0.386c0.199,0.199,0.386,0.616,0.386,1.575v19.875
	c0,0.959-0.188,1.376-0.386,1.575c-0.199,0.2-0.615,0.387-1.574,0.387H19.937c-0.959,0-1.376-0.188-1.575-0.386
	c-0.199-0.2-0.386-0.616-0.386-1.576v-19.875c0-0.958,0.188-1.375,0.386-1.574C18.561,130.173,18.978,129.986,19.936,129.985
	L19.936,129.985z"/>
<path id="path159" fill="#F4F4F4" d="M16.609,124.846c-1.187,0-2.22,0.229-2.941,0.951c-0.722,0.721-0.921,1.726-0.921,2.911
	v112.445c0,1.188,0.2,2.19,0.921,2.912c0.721,0.722,1.755,0.951,2.941,0.951h89.958c0.469,0,0.653,0.082,0.624,0.059
	c-0.03-0.023,0.059,0.008,0.059,0.595v24.808c0,1.187,0.2,2.22,0.921,2.94c0.722,0.722,1.755,0.921,2.941,0.921h292.922
	c1.186,0,2.221-0.199,2.94-0.921c0.722-0.722,0.921-1.756,0.921-2.94v-24.539c0-0.486,0.1-0.647,0.208-0.742
	c0.106-0.096,0.338-0.18,0.802-0.18h63.43c1.186,0,2.191-0.229,2.91-0.949c0.721-0.723,0.951-1.727,0.951-2.911V128.709
	c0-1.186-0.23-2.19-0.951-2.911c-0.719-0.722-1.725-0.951-2.91-0.951H16.6L16.609,124.846z M16.609,126.748h455.733
	c0.959,0,1.377,0.187,1.576,0.386c0.197,0.199,0.385,0.616,0.385,1.574v112.445c0,0.96-0.188,1.377-0.385,1.574
	c-0.199,0.198-0.615,0.387-1.576,0.387h-63.428c-0.746,0-1.473,0.146-2.051,0.654c-0.574,0.508-0.861,1.319-0.861,2.168v24.539
	c0,0.959-0.188,1.405-0.385,1.604c-0.199,0.199-0.615,0.355-1.576,0.355h-292.92c-0.959,0-1.405-0.158-1.604-0.355
	c-0.198-0.198-0.356-0.646-0.356-1.604v-24.808c0-0.842-0.192-1.604-0.772-2.08c-0.58-0.476-1.229-0.475-1.812-0.475H16.618
	c-0.959,0-1.406-0.188-1.604-0.388c-0.198-0.197-0.356-0.615-0.356-1.572V128.707c0-0.959,0.158-1.375,0.356-1.574
	c0.199-0.199,0.645-0.386,1.604-0.386L16.609,126.748z"/>
</svg>
